<svg id="Layer_1" data-name="Layer 1" xmlns="http://www.w3.org/2000/svg" viewBox="0 0 300.91 427.48"><defs><style>.cls-1{fill:#788c56;}.cls-2{fill:#a4bc77;}.cls-3{fill:#c4778f;}.cls-4{fill:#161616;}.cls-5{fill:#d1a561;}.cls-6{fill:#93a343;}.cls-7{fill:#b8c15f;}</style></defs><path class="cls-1" d="M259.21,110.17h0c-12.52,0-20.59,13.82-30.29,21l0,0c-6,4.19-9.27,3.16-11.41,3.43l.33.05c-13.56-.71-29.57-9.57-42.58,2.54-17.07,15.93,16.93,40.25,42.93,45,10.23,1.86,20.57,2.58,28.5,6.26a18.37,18.37,0,0,1,4.23,2.73,2.85,2.85,0,0,0,1.11.63c0,2.18,4.44,2.2,4.66.17a31.42,31.42,0,0,1,2-7.63l-.2.37h0c9.27-22.09,41.58-48.13,14.73-69.1-3.16-2.47-8.16-5.41-14.05-5.43Z" transform="translate(-96.52 -36)"/><path class="cls-1" d="M321,151.53c-12.14,0-22.53,7.34-27.94,15.87-12.45,19.86,13,26.29,17.07,38,.89,3.13-.07,4.05,1.94,4.73,3.08,2,4.9-3.51,27.88,5.2,8.39,3.18,16,6,25.41,5.15C388,218.59,405.73,197,389.78,181c-9.45-9.41-25.73-9.14-38.37-12.11-19.72-4.93-11-17.38-30.38-17.38Z" transform="translate(-96.52 -36)"/><path class="cls-2" d="M256,119.66c-2.17.56,10.69-.51,13.29,6.42,1.38,5.32-3.84,16.47-2.79,13.77-14.2,35.74-10,38.53-10,38.29,1.34-8.95,29.44-30.93,21.91-50.82-2.32-6.17-8.95-10-22.43-7.66Z" transform="translate(-96.52 -36)"/><path class="cls-2" d="M191,135.8c-13.34.86-10.42,13.27-7,19.94,7.77,15.17,26.13,14.23,35.25,16.87,2.09.4-39.9-24.07-32.53-34,1.29-1.48,2.46-1.89,4.3-2.78Z" transform="translate(-96.52 -36)"/><path class="cls-2" d="M310.28,194.68c.54.14-7.38-3.66-7.09-15.1a33.87,33.87,0,0,1,2.12-9.79c4.06-9.9,10.56-11.4,9.79-11.4-21.53,3.25-24.07,29.3-4.82,36.29Z" transform="translate(-96.52 -36)"/><path class="cls-2" d="M360.75,175.33c17,8.79,25.44,25.79,3.24,30.29-11,1.86-26.82,2.28-26.35,2.64,32.27,16.7,61.61-1.35,47.67-20.31-7.81-10.65-25.39-13-24.56-12.62Z" transform="translate(-96.52 -36)"/><path class="cls-3" d="M256.13,183.07c-3.3,2-6.92,3.73-11,3.88a4.94,4.94,0,0,0-1.94.28c-.57.27-.85,1-.35,1.3a93.74,93.74,0,0,1,9.09,5.25c4,2.54.51.4,8.91,10.28,3.69,4.34.23-.95,16.4,25.38,13.07,21.33,25.41,35.11,25.59,88.59a230.12,230.12,0,0,1-6.63,37.7c-2.51,10-3.82,22.25-10.28,31.25-1.11,1.55-4.83,3-2.35,5s7.72,5.15,9,2.48c18-39.83,22.53-76.16,17.88-118.61q.11-9.81-.05-19.62c-.13-9-.94-18.13,0-27.12a47.21,47.21,0,0,1,1.9-9.19c.49-1.56,4.8-11.12,4.9-11.05a2.74,2.74,0,0,0-1.58-.16,4,4,0,0,1-3.4-1.53c-.35-.53-.53-1.2-1.2-1.5a2.06,2.06,0,0,0-2.32.68c-2.38,3.37-3.21,9.22-4.14,13a76.83,76.83,0,0,0-1.87,13.11c-.3,4.91-.28,9.83-.22,14.74,0,2.75.08,5.5.12,8.25,0,2.28-1,6.56.09,8.63-6.84-12.65-10.12-28.09-25-49.78-4.15-6-9.29-11.15-14.17-16.75-3.23-3.7-4.66-9.3-2.65-13.42a3.13,3.13,0,0,0,.44-1.71,1.61,1.61,0,0,0-1.24-1.35C258.73,180.83,256.94,182.58,256.13,183.07Z" transform="translate(-96.52 -36)"/><path class="cls-4" d="M254.94,108.28c-23.6,2.78-32.58,27.19-31.9,26.41,12.51-19.14,37.86-32.58,54.57-17,32.76,30.56-19,46.35-13.67,70.26a21.4,21.4,0,0,1,2.6-11.31l0,0c8.94-16.23,38.43-29.14,18.8-56-6.46-8.8-16.85-14-30.37-12.46Z" transform="translate(-96.52 -36)"/><path class="cls-4" d="M171,134.08c-14,11.06-8.13,37.6,36.86,49.39,9.95,2.6,31.76,6.25,31.44,6.13-14.64-5.54-40.62-9.54-53.45-17-30.65-18.44-19.18-45.69,10.1-41.24-.11,0-.22,0-.33,0a44,44,0,0,1,8.5,1.78l.15,0h0c4.55,1.52,7.86,3.41,7.36,3-15.17-10.25-31.69-9.11-40.6-2.11Z" transform="translate(-96.52 -36)"/><path class="cls-4" d="M302,151.79c-19.32,10.16-23.7,38.23,5.57,46.9,5.31,1.37-20.79-8.46-17.89-26.89,2.64-13.34,20.83-29.32,37.46-14.71,4,3.52,7.41,6.53,7.31,6.2-6.54-15.88-21.15-17.45-32.45-11.5Z" transform="translate(-96.52 -36)"/><path class="cls-4" d="M345.3,165.49c23.58,9.3,58.37,16.77,44.72,38.72-10.11,16.26-31.57,23.56-58.82,10.45-8.17-3.92-12.55-6.64-11.95-5.94,8.57,9.44,22.86,15.21,37.72,15.88,35.47,1.61,56.49-32.13,25.2-48.27-12-6.23-37.35-11.08-36.87-10.84Z" transform="translate(-96.52 -36)"/><path class="cls-4" d="M261.83,193.55c18.09,23.12,36.73,63.72,36.17,62.18-10.74-29.55-14.07-40.32-36.17-62.18Z" transform="translate(-96.52 -36)"/><path class="cls-4" d="M251.55,199.6c17,12.91,28.91,32.22,28.19,30.91,16.11,29.34,15.27,44.6,15.27,42.94a135.24,135.24,0,0,0-2.53-16.3c-10-46.07-48.73-61.57-40.93-57.55Z" transform="translate(-96.52 -36)"/><path class="cls-4" d="M305.84,206.58C299.09,230.81,304,252.25,304,252c.83-26.23,3.35-21.14,1.84-45.42Z" transform="translate(-96.52 -36)"/><path class="cls-4" d="M313.17,211.53c-14.42,37.56,12.68,95.68-22.32,185.53,0,0,.06.05.07,0,40.6-82.42,8.61-148.5,22.32-185.53,0,0,0,0,0,0s0,0,0,0Z" transform="translate(-96.52 -36)"/><path class="cls-4" d="M300.18,277.87c12.59,66-17.32,114.42-15.87,111.06,26-36.46,23-70.52,15.87-111.06Z" transform="translate(-96.52 -36)"/><path class="cls-4" d="M283.35,392.53c2.16,3.31,5.9,5,5.65,4.67-2.57-2.66-6.09-5.17-5.65-4.67Z" transform="translate(-96.52 -36)"/><path class="cls-4" d="M217.76,147.84c12.16,19.17,35.72,40,35.51,39.72-4.24-8.52-9.37-13.14-15.34-19.28-4.2-4.29-20.38-20.69-20.17-20.44Z" transform="translate(-96.52 -36)"/><path class="cls-4" d="M247.82,132.23c-9.77,13.79-6.69,25.47-6.61,25.23.63-8.94,3.22-16.74,6.61-25.23Z" transform="translate(-96.52 -36)"/><path class="cls-4" d="M264.63,138.23c-16.51,8.72-15.46,24.16-15.36,23.92,5.67-16.56,16.7-25.17,15.37-23.92Z" transform="translate(-96.52 -36)"/><path class="cls-4" d="M194.45,147c4.45,3.14,14,10.24,18.86,14.61.46.24-3.34-4.7-8-8.43A46.88,46.88,0,0,0,194.47,147s-.06,0,0,0Z" transform="translate(-96.52 -36)"/><path class="cls-4" d="M209.66,169.74c7.69,2.21,13.33,2.13,12.82,2-8.22-1.76-13.34-2.14-12.82-2Z" transform="translate(-96.52 -36)"/><path class="cls-4" d="M340.69,176.13c-20.73,8.64-21.58,24.35-21.49,24.07a61.58,61.58,0,0,1,12.18-15.62c5.25-5.24,7.49-6.8,9.31-8.45Z" transform="translate(-96.52 -36)"/><path class="cls-4" d="M335.88,198.83c-.05,0,25.74,2.62,25.72,2.61-8.75-3.45-15.78-4.19-25.72-2.61Z" transform="translate(-96.52 -36)"/><path class="cls-4" d="M355.1,185.93c-5.15,0-10.88,2.14-10,2,10.15-.86,20.35-.27,19.93-.48a33.31,33.31,0,0,0-10-1.48Z" transform="translate(-96.52 -36)"/><path class="cls-4" d="M302.06,177.09a46.86,46.86,0,0,0,16.51,5.78c1.17.29-6.58-2.72-8.27-3.33-3.54-1.26-8.53-2.6-8.22-2.51a0,0,0,0,0,0,.06Z" transform="translate(-96.52 -36)"/><path class="cls-4" d="M313.4,161.19c.55,6.55,4.21,10.87,10.31,14.2.56.29-6.39-6.06-10.22-14.2a.05.05,0,0,0-.05,0s0,0,0,0Z" transform="translate(-96.52 -36)"/><path class="cls-5" d="M238.94,108.15c-1.89,0-3,1.41-2.74,2.66,19.51,78.47,20.13,113,17.14,197-3-32.2-12.63-79.32-13.07-82.51-2.19-18.28-1.31-50.57-17.51-65.06-5.58-5-19.22-9.47-18-4.08,12.54,56.16,31.92,6.28,41.17,181.69,2,37.58,3.67,19.91-1.47,51.48-4.17,25.6,2,17.54-10.4,47.75-3,7.17-6.07,14.59-7.92,22.28-.54,1.35.78,2.86,3.12,2.6,8.56-.95,10.66-3.27,13.26-8.15,5-9.7,5.39-19.93,5.46-31.06.31-51.23,25.92-105,8.54-246.09l-.24.54c-6.2-62.57,19.85-61,18.22-66.44a2.67,2.67,0,0,0-2.51-1.58,96.57,96.57,0,0,0-13.27.47c-16.26,1.33-17.45-1.48-19.78-1.48Z" transform="translate(-96.52 -36)"/><path class="cls-6" d="M186.21,152.12c-24.43-.53-51.33,7.15-69.9,17.53-6.32,3.54-21.92,14.32-12.85,21,9.39,6.95,34.46,1.11,43.66-.51,36.24-6.24,43.42,3.8,59.73.08,12.73-2.87,21.61-12.94,17.37-23.1-3.2-7.66-12.62-11.54-22.17-13.41A93.72,93.72,0,0,0,186.21,152.12Z" transform="translate(-96.52 -36)"/><path class="cls-6" d="M206.47,42.91c-18.31,1.52-30.16,12.86-27.16,27,4,18.64,33.61,26.82,52,35.83,12.27,6,23.8,3.36,37.51,3.36,2.18,0,4.12-.12,5.16.91,5.29.34,10.46.77,15.54,1.18,10.34.84,21,1.71,31.19,1.71,54.49,0,64.36-36.45,38.07-52-14.25-8.42-34-4.67-52.2-4C280.82,57.62,242.53,40,206.47,42.91Z" transform="translate(-96.52 -36)"/><path class="cls-5" d="M251.4,343.57c-.8-15-.93-17-.93-16.88.94,11.94,1.67,11.64.93,16.88Z" transform="translate(-96.52 -36)"/><path class="cls-7" d="M205.14,45.78c-15,6.33-22.39,24.65-11.28,35.51,4.38,4.28,12.07,5.06,11.73,4.8-7.46-4.3-9.74-12,0-21.62,14-12.15,28.41-6.68,40.26-3.94a53.73,53.73,0,0,0,17.72,1.22c-15.33-3.61-29-28.38-58.45-16Z" transform="translate(-96.52 -36)"/><path class="cls-7" d="M324.14,61.08c-9.56.5-18.39,2.9-27.38,3.7-2.49.18-5.82.13-5.47.13,15.29,7.69,47,3.25,45.28,16.63-1.73,5.78-11.22,13.4-18.06,16.68-.34.09,13.65-.22,23.8-6C358.62,82.92,353,59.6,324.14,61.08Z" transform="translate(-96.52 -36)"/><path class="cls-7" d="M138,168.39c-19.65,3.57-22.9,15.48-14.08,17.34,5.79,1.22,13.44-3.62,13.09-3.62-1.14,0-10.43-.43-10.35-1.29,1.95-6.5,11-12.17,11.34-12.43Z" transform="translate(-96.52 -36)"/><path class="cls-4" d="M211.16,71.87a151.63,151.63,0,0,0,13.46,13.9c3.78,3.44,16.89,14.34,16.09,13.42-10.33-10.86-17.79-17.36-29.55-27.32Z" transform="translate(-96.52 -36)"/><path class="cls-4" d="M232.94,60.56c3.45,6.87,9.44,12.9,13.45,17.8,3.12,3.77,4.91,7.19,4.56,6.39-3.22-9.49-18.2-24.49-18-24.24a0,0,0,0,0,0,.05Z" transform="translate(-96.52 -36)"/><path class="cls-4" d="M316,74.21c-32.11,3.62-43.5,20.17-43.16,19.91C285.74,82.8,299.43,78.94,316,74.21Z" transform="translate(-96.52 -36)"/><path class="cls-4" d="M319.09,86c-28.86,5.52-42.8,15.87-42.45,15.73C279.19,100.81,321.9,85,319.09,86Z" transform="translate(-96.52 -36)"/><path class="cls-4" d="M218.84,36c-20.53.2-35.41,9.73-44.59,24C161,80.6,177,89,202.54,97.39c26.43,8.71,29.56,11.68,29.22,11.54,4,2.41,6,4.46,5.7,4C216.16,92.23,148.6,92,185,55.22c20.93-20.22,47.21-13,79.15-5.28,6.69,1.61,10.5,3.39,15.84,4.29,4.44.72,9.5.26,8.94.15-8-.42-12-2.94-18.19-5.83-9.41-4.41-33.35-12.72-51.9-12.55Z" transform="translate(-96.52 -36)"/><path class="cls-4" d="M297.14,56.12c-10.54,0,47.5,1,61.5,14.16,8.16,8.53,1.26,25.86-14.75,31.39-23.16,7.1-58.2-3.84-70.6,14.25-.16.37,1.83-1.75,1.57-1.49,13.47-13.28,52.45,2.93,76.82-8.22C365.37,100,372.27,84.92,369.9,75c-4.95-20.51-48.56-19-72.76-18.86Z" transform="translate(-96.52 -36)"/><path class="cls-4" d="M205.71,156.5c20.29,7.92,14.64,27.07-.81,32.47a32.61,32.61,0,0,1-13.36,1.18c21.54,6.21,40.44-11.44,31.19-25.45-5-7.53-17.45-8.37-17-8.2Z" transform="translate(-96.52 -36)"/><path class="cls-4" d="M272.47,69.31c-43.27,40.56-13.56,121.87-18.56,106.49-6.33-68.37,9.62-94.93,9.48-94.06a64.47,64.47,0,0,1,9.08-12.43Z" transform="translate(-96.52 -36)"/><path class="cls-4" d="M266.35,123.89c-10.78,19.14-8.44,48.52-6.33,68.42,10.05,94.17-11.27,249.4-11.27,247.38,15.55-59.56,20.54-125.88,20.14-182.82-.59-75.18-14.49-106.57-2.46-133,0,0,0,0,0,0l0,0Z" transform="translate(-96.52 -36)"/><path class="cls-4" d="M235.84,118.34a210.75,210.75,0,0,1,5.54,35.82c4.85,62.48,8,73,8,72-1.27-22.11,1-64.62-13.47-107.87a.05.05,0,0,0,0,0s0,0,0,0Z" transform="translate(-96.52 -36)"/><path class="cls-4" d="M229.64,186.71c18.08,64.59,18.77,74.83,18.77,73.59-1.58-33.86-9-51.33-18.77-73.59Z" transform="translate(-96.52 -36)"/><path class="cls-4" d="M216.8,192.77c29.71,81.46,30.26,188.64,30.26,181.36.3-16.25.5-32.51-.09-48.76-3.84-102.33-36.8-142.54-30.17-132.6Z" transform="translate(-96.52 -36)"/><path class="cls-4" d="M248.93,267.78c1.11,5.62,5.61,50.42,5.61,46.68.39-19.34,0-27.8-5.61-46.68Z" transform="translate(-96.52 -36)"/><path class="cls-4" d="M246.15,378.08c-7.31,31.31-27.29,82.49-24,85,1,.76,1.28.62,12.18-1.2,7.6-1.28,10.11-2.58,9.61-2.45-5,1.14-11.5.72-17.47.84,11.42-27.33,16.57-53.55,19.69-82.15Z" transform="translate(-96.52 -36)"/><path class="cls-4" d="M247.54,442.41c-3.35,8.12-1.29,14.21-1.15,13.79.54-5.7.74-5.49,1.15-13.79Z" transform="translate(-96.52 -36)"/><path class="cls-7" d="M206.73,174.33c-4.36,7.17-6.73,10.46-6.58,10.34,8.85-3.74,6.53-10.08,6.58-10.34Z" transform="translate(-96.52 -36)"/><path class="cls-4" d="M182.1,162.15c-12.91,3.27-12.4,18.47-12.2,17.87a38.82,38.82,0,0,1,4.13-9c3.8-5.85,8.13-9.33,16.83-8.92.64,0-4.12-1.11-8.76.06Z" transform="translate(-96.52 -36)"/><path class="cls-4" d="M163.8,164.68c-11.23,9.08-26.85,10-23.68,10,17.55-.77,24-10.25,23.71-10Z" transform="translate(-96.52 -36)"/><path class="cls-4" d="M164.7,176.06c-6.22,2.46-17.82,6.3-17.29,6.3,12-1.36,16.45-6,17.29-6.3Z" transform="translate(-96.52 -36)"/><path class="cls-4" d="M186.27,171.13c1.56,5.15,4,8,8,11.31.39.45-3.41-5.25-3.58-5.51-1.57-2.32-4.54-6.11-4.33-5.85,0,0-.06,0,0,0Z" transform="translate(-96.52 -36)"/><path class="cls-4" d="M193.63,168.27c-1.45.28,13.12.86,11.66.58a31.4,31.4,0,0,0-11.66-.58Z" transform="translate(-96.52 -36)"/><path class="cls-4" d="M178.68,153.05c-32.73,1.77-91.1,13-81,37.3,8.23,19.79,66.66-5.94,85.89-2.32.43.08-4.53-2.43-22.42-1.93-32.81,1-62.64,10.53-54.4-5.95,9.84-16.24,65.17-27.66,81.11-27.05.06,0,.06-.06,0-.06a65.41,65.41,0,0,0-9.18,0Z" transform="translate(-96.52 -36)"/></svg>