<svg id="Layer_1" data-name="Layer 1" xmlns="http://www.w3.org/2000/svg" viewBox="0 0 280.13 429.08"><defs><style>.cls-1{fill:#8c9848;}.cls-2{fill:#afb75f;}.cls-3{fill:#c5ce8d;}.cls-4{fill:#161616;}.cls-5{fill:#90925c;}.cls-6{fill:#b7927f;}.cls-7{fill:#afaf7b;}.cls-8{fill:#6d6d46;}</style></defs><path class="cls-1" d="M319.39,200c-5.72-2.89-10.33-6-17.05-3-2.88,1.31-5.29,3.5-8.17,4.8-1.74.79-3.61,1.24-5.34,2-2.61,1.21-3.7,3.59-6,5.09a26.46,26.46,0,0,0-7,6.39c-4.57,3.83-7.62,10.49-9.46,16.16-1.7-11.08-1.77-15.21-3.3-15.21s-1,3.1-3.41,12.61c-2.83-4.78-1.91-1.32-5-8.77-11.66-29.5-21-59.26-53-59.26-4.61,0-10.33.44-14.37,2.91-.85.52-1.61,1.54-1.22,2.46a2.63,2.63,0,0,0,1.5,1.2c13.1,6,27.54,11.94,39,20.79l-.09-.14a83.24,83.24,0,0,1,6.49,5.66c11,10.77,20.1,33.2,21.5,33.74,1.08,6,8.85,19.24,9.44,26.85-3.75-3.75-6.26-8.52-9.82-12.71-.43-.88-1-1.87-1.5-2.79-3.23-5.69-3.07-12.94-6.44-18.75-2.88-5-11.53-5.34-16.06-9.08-3.91-3.22-7.8-6.45-11.54-9.86a125.6,125.6,0,0,0-13.35-11.11c-27-18.45-29.24,12.14-3.77,20.84,12.13,4.15,14.66,2.36,30.8,14.83l-.16-.18c4,3.15,7.73,6.31,11.06,9.39,6.89,6.4,4.07,3.57,6.62,11.2,2.39,7.22,7,15.22,10.17,22.54l0-.15c8.07,19.75,5,48.23,7,96.82,2.1,51.11-1.66,68.21-1.52,67.16-1.21,8.93-15.56,37.8,3.4,33.11,1-.25.21,1.23,3.25-28.24,6.75-65.49,2.19-64.95,0-107.81-2.12-41.13,5.9-82.77,44-98.91l-.15,0c13.51-5.57,28.65-6.83,42.24-11.3,3.42-1.12,7.63-2.21,10.38-4.66,1.6-1.43,5.42-4.44,5.67-6.67.2-1.8-1.34-3.37-3-4.06-4.35-1.82-8.75-3-13-5.21a43.48,43.48,0,0,0-19.2-4.75,42.73,42.73,0,0,0-11.37,1.34,16.53,16.53,0,0,0-4.61,1.84,30.62,30.62,0,0,0-3.42,2.83ZM298,235.25c-15.22,20.46-14.7,20.64-21.67,36.52-.63.72-2.27,2.41-2.13,2.27-1.26-10.53-5.18-26.07-3.7-36.58h0c1.63-10.55,8.87-12,13.6-17.92a8,8,0,0,0,1.19,1.65c6.65,7.54,13-4.52,17.72,1.3a3.4,3.4,0,0,1,.69,1.61C304.09,228.07,297.89,235.4,298,235.25Z" transform="translate(-109.94 -37.06)"/><polygon class="cls-1" points="150 231.63 150.03 231.7 150.01 231.63 150 231.63"/><path class="cls-2" d="M303.85,198.38c-5.28,1.23-12.44,8-16,12.66-1.9,2.52-2,3.4-1.92,3.25,2.13-3.52,18.64-15.3,20.65-11.29,1,2.86-.37,5.52.94,8.31.64,1.34,2.29,1.78,3.05,2.57.28.44-1.89,1.44-1.72,1.44,5.71,0,2.38-3.58,1.63-5-.08-2.74,1.17-3.78.68-7.37-.45-3.26-3.25-5.49-7.35-4.53Z" transform="translate(-109.94 -37.06)"/><path class="cls-3" d="M297.65,217.66c-3.47,1.23-5.43,2.56-8.1-.24a4.85,4.85,0,0,0,2.4,2.41c3.69,1.59,7.59-2.05,10.08-3.15.15-.1-1.62,0-4.38,1Z" transform="translate(-109.94 -37.06)"/><path class="cls-2" d="M336,197.57c-13.61,2.45-12.48,10.31-12.32,9.66a7.32,7.32,0,0,1,.34-1.16,5.43,5.43,0,0,1,1.73-2.2c3.14-2.37,9-2.78,12.86-2.37,4.79.79,5,3.84,12.76,4.83,3.9.51,7.86-.32,11.82.14a10,10,0,0,1,4.15,1.35c-3.4-7.92-15.39-7.08-21.08-9.16-4.87-1.78-6.4-1.8-10.26-1.09Z" transform="translate(-109.94 -37.06)"/><path class="cls-2" d="M357.49,212.62c-10.46-.05-23.67.86-29.84,9.31a13.53,13.53,0,0,1,4.81-3.32c5.27-2.22,11.44-2.25,20.36-3.57,6.66-1,10.49-2.51,10.16-2.51-1.83.1-3.66.09-5.49.09Z" transform="translate(-109.94 -37.06)"/><path class="cls-2" d="M203.25,167.61c16.47,3.17,27.31,12.15,25.91,11.26a29.89,29.89,0,0,1,5.24,5.2c-5.78-12.13-17.75-16.17-31.15-16.49a0,0,0,0,0,0,0Z" transform="translate(-109.94 -37.06)"/><path class="cls-2" d="M190.27,190.13c-3,.85-5,4.26-2.26,8.94a101,101,0,0,0,7.37,8.93c5.24,5.29,12.45,1.18,17.17.48-.36,0,1.13-.09,1-.13-4.36-1.48-9.48-.71-13.11-3.25-1.61-1.4-2.93-3.81-5.2-6.06-.82-.81-4.68-4.34-4-5.38,1.88-2.06,11.56-1.27,16.12,4.32.65,1-2.07-5.56-11.05-7.73a12.12,12.12,0,0,0-6-.12Z" transform="translate(-109.94 -37.06)"/><path class="cls-2" d="M230,218.73c-.14.05.52.06,1.78.57h0l.06,0h0c5.09,2.26,13.37,12.74,13,11.72-2.54-6.61-8-13.36-14.85-12.31Z" transform="translate(-109.94 -37.06)"/><path class="cls-2" d="M256.09,251.63c5.38,7.73,7.56,14.45,8.84,23.82.8,6.24,3.46,40.4,3.46,37.54.61-18.18,7.15-41.61-12.28-61.37h0s0,0,0,0Z" transform="translate(-109.94 -37.06)"/><path class="cls-2" d="M270.93,418.75c-1.31,16.93-9.37,27.62-8.81,42.68,0,.54.48,1.18,1.12,1a4.63,4.63,0,0,1,2.6,0c1.64.3,2.2.18,2.09.14-1.38-.31-2.21-1.25-3.69-1.75a159.69,159.69,0,0,0,6.7-42.06Z" transform="translate(-109.94 -37.06)"/><path class="cls-2" d="M309.86,228.94c-4.19,1.14-6.75,4.67-10.61,9.68a48.78,48.78,0,0,1,7.26-6.42c5.95-3.89,11-3.64,6.33-3.64a11.23,11.23,0,0,0-3,.38Z" transform="translate(-109.94 -37.06)"/><path class="cls-2" d="M232.06,186.54c5.59,7.21,10.88,15.61,10.85,15.47-.95-11.27-11-15.62-10.85-15.47Z" transform="translate(-109.94 -37.06)"/><path class="cls-2" d="M192.67,166c-1.46.14-1.25,2.43.16,2.53,6.25.47,10,4.2,9.41,3.28a19.2,19.2,0,0,0-5.19-4.7,18.57,18.57,0,0,0,2.33-1.25,48.57,48.57,0,0,0-6.71.14Z" transform="translate(-109.94 -37.06)"/><path class="cls-4" d="M368,202.62a12.78,12.78,0,0,1,2.17,0h0a5.15,5.15,0,0,1,4.13,7.29c-1.73,3.78-4.74,3.65-15.42,4.76-10,1.07-36.76,9.86-53.4,21.44-9,6.24-17.06,14.17-21.95,24.06a52.09,52.09,0,0,0-5.09,17.68c7.45-33.73,37.57-48.39,70.65-57.7,13.46-3.78,20.83-1.58,25.57-5.94,5.12-4.77,1.28-14.31-6.66-11.6Z" transform="translate(-109.94 -37.06)"/><path class="cls-4" d="M335.67,192.23a28.78,28.78,0,0,0-10.34,3.84,30,30,0,0,1,6-.35c2.86.05,16.16.83,18.4,1.13a19,19,0,0,1,7.85,2.93,17.88,17.88,0,0,1,2.06,2c-2.76-5.25-12.21-11.38-24-9.57Z" transform="translate(-109.94 -37.06)"/><path class="cls-4" d="M321.53,210.19c-3-4.07-.12-5,.16-8.59.18-2.11-2.13-7.57-5-6.18-5.89-1.78-7.13-3.57-8.31-3.52-9.76.41-28.87,12.49-27.25,25.08a9,9,0,0,0-3.12,3.24c8.14-9.08,6.31,7.51,15.24,5.29,3.52-.85,7.6-4,11.56-3.58,4.35.71,8.64,3.95,13.48,3.2a10.75,10.75,0,0,0,7.48-6C327.1,215.51,323.29,212.35,321.53,210.19ZM318.88,222c-5.35,2.07-10.65-3.88-17.25-2.27-3.87.94-8.13,4.37-10.56,4.14-4.24-.77-5.68-8.81-9.86-6.91a12.27,12.27,0,0,1,.86-3.71c.25-.38.89-3.2,5.88-7.09,10.22-7.75,19.44-9.33,19.58-9.38a39,39,0,0,0,9.27,3.43c1.06,1.76.21,1.84-.38,4.33-1.74,7.28,6.51,10.29,6.32,13.39C322.41,219.56,320.19,221.35,318.88,222Z" transform="translate(-109.94 -37.06)"/><path class="cls-4" d="M279.23,222.68c-18.3,9.28-6.5,36.93-6.5,36.78-1.71-13.26-3.67-28.84,6.37-36.65h0l.15-.12a0,0,0,0,0,0,0Z" transform="translate(-109.94 -37.06)"/><path class="cls-4" d="M277.62,214.48C266.51,218.66,267,234,267.16,233.41a27.05,27.05,0,0,1,10.46-18.93Z" transform="translate(-109.94 -37.06)"/><path class="cls-4" d="M261.44,214a34.68,34.68,0,0,0-.87,4.17c-1.21,7.62-.64,12.94-.58,12.71.59-3.33,1.54-6.4,2.8-11,1.38,6.8,2.09,19.05,2.09,17.49.81-17.33.17-17.11-.86-23.41a1.34,1.34,0,0,0-2.58,0Z" transform="translate(-109.94 -37.06)"/><path class="cls-4" d="M199,160.75c-2.57.16-12.38,1-16.55,1.66a1.88,1.88,0,0,0-1.12,2.76C188,176.26,208.44,178,218,180.66c2.35.59-20.55-8.67-18-7.55-4.19-1.78-10.17-4.46-13.5-7.54,43.68-5.34,47.88,6.13,61.61,40.2,5.24,13,9.14,19.32,9,19C242.44,192,243.48,158,199,160.75Z" transform="translate(-109.94 -37.06)"/><path class="cls-4" d="M248.61,215.87c2.57,8.43,12.4,28.81,12.33,28.67a67.53,67.53,0,0,1,4,12.06c-1.41-17-10.22-25.93-16.26-40.74a0,0,0,0,0,0,0,0,0,0,0,0,0,0Z" transform="translate(-109.94 -37.06)"/><path class="cls-4" d="M185.82,201.54c1.41,18.26,27.92,14.31,38,13.88,20.24-.85,20.37,4.87,23.39,13.85,1.41,4.25,3.56,6.31,3.39,6-7-9.49,2.47-23.18-28.77-22.95-14,.1-31.81,2.26-36-10.83h0l0,0Z" transform="translate(-109.94 -37.06)"/><path class="cls-4" d="M184.68,184.51c-7.21,4.47-6,14.75,2.24,11.48.74-.37-1.93.89-4.06,0-5.71-2.37,1.54-19.19,22.38-5,2.81,1.92,19.9,15,18.09,13.2-4.18-3.57-8.9-9.28-13.44-13.37-6.93-6.25-17.39-11.2-25.21-6.33Z" transform="translate(-109.94 -37.06)"/><path class="cls-4" d="M200.19,197.25a31.24,31.24,0,0,0,9.25,7.71,75.7,75.7,0,0,0,11.1,4.24c-4.59-2.73-12.76-7.21-15-8.55-2.88-1.72-5.44-3.53-5.3-3.43a0,0,0,0,0,0,0Z" transform="translate(-109.94 -37.06)"/><path class="cls-4" d="M220.68,218c.15.11,30.68,24.31,29.77,23.1-8.82-11.07-15-16.22-29.75-23.13h0s0,0,0,0Z" transform="translate(-109.94 -37.06)"/><path class="cls-4" d="M249.26,242.69c6.77,19.18,14.36,19,14.68,56.46.4,39.85,5,58.73,5.06,89.16,0,43.42-15.29,76.29-10.91,77a17.76,17.76,0,0,0,10.55-1.18c.62-.41-2.72,1.32-8.95-.54,4.33-14.32,9.59-43.25,10.69-61.4,2.05-33.92-4-52-4.86-106.72-.54-33.69-8.24-35.69-16.23-52.82h0l0,0Z" transform="translate(-109.94 -37.06)"/><path class="cls-4" d="M276,278.49c-7.43,18.28-4.34,39.72-2.22,60.63,9.54,93.62-11.52,105-2.64,125a29.36,29.36,0,0,1-.13-9.77c-.06.58-.66,1.47,3.41-15.3,14.09-58.22-8.57-125.67,1.6-160.52,0,0,0,0,0,0Z" transform="translate(-109.94 -37.06)"/><path class="cls-4" d="M301.12,225.07c-2.79,17.13-19,10.47-27,47.57-.73-3.16-1.27-6.55-1.71-9.76,0-1.44-.06,13.94,1.83,13.94s3.63-15.63,12.88-27.68c7.31-9.28,13.41-11.22,14-24.07Z" transform="translate(-109.94 -37.06)"/><path class="cls-4" d="M341.51,208.57a35.38,35.38,0,0,0-9.69,3.37c3.38-.56,6.78-1,10.15-1.67,2.76-.51,10.14-2.23,9.91-2.23a52.21,52.21,0,0,0-10.37.53Z" transform="translate(-109.94 -37.06)"/><path class="cls-4" d="M336.43,199.7c-5.11,3.76-6.81,7.92-6.67,7.78,5.11-4.83,6.82-8,6.68-7.78Z" transform="translate(-109.94 -37.06)"/><path class="cls-4" d="M328.9,216.2c-.27,0,2.62.69,7.92.63a16.77,16.77,0,0,0-7.92-.63Z" transform="translate(-109.94 -37.06)"/><path class="cls-4" d="M343.26,204.71c-1.86,1.14-4,3.73-1.27,1.33a8.79,8.79,0,0,0,1.28-1.33Z" transform="translate(-109.94 -37.06)"/><path class="cls-4" d="M205.89,169.25c8.63,4.73,5.84,4.75,20.05,10.64a66.71,66.71,0,0,0,7.2,2.58c-11.85-6.54-13.83-10.81-27.24-13.24h0s0,0,0,0Z" transform="translate(-109.94 -37.06)"/><path class="cls-5" d="M373.75,72.43c-13.84,2.76-13.64,5.7-33.29,7.87l-.29,0c-37.25,4.2-35.53,10.44-39.59,42.46-.92,7.4-1.43,5.63-.55,6.31,1.55,1.25.19,2.35-5.13,12.48a1.62,1.62,0,0,1,2.5,1.9c43.77-56,82.67-60.92,87.34-63.74,2.85-1.71,3.12-4.63-.24-6.82-2.78-1.84-7.47-1.13-10.75-.49Z" transform="translate(-109.94 -37.06)"/><path class="cls-5" d="M127.62,43.3c-14.83,3.6-3.47,19.93-7.83,24.84-.93.59-1.26.44-2.36.44-1.93,0-3,1.42-1.79,3.88,9.36,19.85,26.47,21.74,49,44.61l.25.26C186,139,187.4,144.14,190,144.38c-.35-1.57-1.77-8.72-.77-10a1.71,1.71,0,0,1,1.25-.61c2.82,0,2,7.35,2.15-.76.15-6.17,1.57-17.86,1.55-17.65,3-28.18-2.28-38-37.69-61.63-7.49-5-20.16-12.62-28.9-10.45Z" transform="translate(-109.94 -37.06)"/><path class="cls-5" d="M266.74,122.15c-10.48,0-29,17.34-32.31,37.09-1.57-1-1.8-1.13-2.29-1.13a2,2,0,0,0-2,1.9c-2.93,14.83,2,24.42,9.25,37.38,1.94,3.44,2.07,4.13,3.12,4.25l0,.32h0a1.62,1.62,0,0,0,1.57,1.85c2.87,0,.43-3,4.94-18.7,1.7-5.79,4-12,5.61-16.74,5.25-15.32,4.59-30,13.43-43.61a1.61,1.61,0,0,0-1.23-2.61Z" transform="translate(-109.94 -37.06)"/><path class="cls-5" d="M234.53,208.05c-3.51,7.17,5.45,20.07,5.33,19.85,1.77,3.11,1.1,1.64,2,5.66a1.59,1.59,0,0,0,3.12.22c1.39-1,.13-2.87-.73-4.51-.54-3.08-1-6.18-1.7-9.23-.8-3.51-3.72-12.92-6.53-12.92a1.61,1.61,0,0,0-1.46.93Z" transform="translate(-109.94 -37.06)"/><path class="cls-6" d="M296.74,141.54c.63-1.68,1.29-3.33,2.07-4.92,1.84-3.74,3.39-8,2.37-12-2.49-.15-3.77,5.19-5,6.82q-3.1,4.11-6,8.39a198.09,198.09,0,0,0-10.4,17.24,249.24,249.24,0,0,0-14.52,32.8c-6.18,17-9.84,35.09-17.93,51.28,1.34-2.69.42-8.71.38-11.7a115.63,115.63,0,0,0-.74-12.05c-.35-3-.66-6-.93-9.08-.14-1.43.13-3.77-.43-5.07s-1.27-.83-2.27-2a36.85,36.85,0,0,0-3.91-3.47c-2.25,0,.2,2.72.47,3.23a31.24,31.24,0,0,1,1.81,5.7,75.6,75.6,0,0,1,2.24,12c.3,2.87.47,5.74.55,8.62.06,2.1.32,5-.93,6.86-.88,1.29-1.89.74-2.82,1.49s-.58,3.07-1.93,3.52a2,2,0,0,1-1.6-.41c-4.86-3.09-6.21-8.06-8.05-13.17q-2.68-7.42-5.7-14.72c-2.81-6.82-6-13.49-8.82-20.29-7.84-18.8-16-36.41-22.64-55.86a1.6,1.6,0,0,0-3.08.78c0,6.4,1.56,8.78.86,8.78-3.53,0,.75,6.62,1.34,7.7,4.16,7.68,8.74,15.08,12.62,22.92,8.37,16.93,13.39,35.2,19.67,52.94,6.16,17.37,15.16,32.77,16.31,51.59.6,9.76,1.38,19.51,2.1,29.25a1.4,1.4,0,0,0,.67,1.12c.08,1.42.15,2.86.22,4.32,4.28,88.66,6.64,94.37,6.57,104-.33,24.57,1.46,23.19,1.75,25.07.13,3.35,6.88.95,9.32-1.14,7.2-6.11,3.66-20.24,1.3-29.5-5.56-21.81-12.86-76.31-12.11-118.16.88-46.09,7.32-84.4,30-122.2l0,.07c4-6.57,8-13.14,12.22-19.54C294,149.41,295.28,145.43,296.74,141.54Z" transform="translate(-109.94 -37.06)"/><path class="cls-6" d="M290.51,144.65c-5.39,7.38-11.84,13.25-17.25,20.41-18.93,25.13-27.34,78.58-24.95,81.68a1.58,1.58,0,0,0,2.83-.71c.73-4.05.36-1.44,2.57-8,8.73-25.69,7.76-55.8,27.2-76.22a1.4,1.4,0,0,0,.29-1.33c3.8-4.3,8.11-8.79,11.79-13.84a1.58,1.58,0,0,0-2.48-2Z" transform="translate(-109.94 -37.06)"/><path class="cls-7" d="M119.76,44.78c-4.89,7.09-3.21,11-.58,18.77-5.66,3.41-5.31,10.22-.7,15.25,5.06,5.53,18.26,10.55,18,10.34-4.7-4.71-9.54-8.94-11.5-14.56-.41-1.61-.41-1.14,1.12-1.54,8.52-2.28,6.06-9.6,6.2-16.13,6.51-5.08,47,39.07,50,44.56,2.66,4-8.3-46.7-37.29-62-8.48-4.47-19.66-2.84-25.26,5.28Z" transform="translate(-109.94 -37.06)"/><path class="cls-7" d="M368,74.61c-33.7,1.13-77.23,16.48-61.07,46.44.14.22-.51-2.29-.65-5.63v0c-.37-18.66,19.47-15.93,38.4-23,8.75-3.25,35.18-16,37.73-12.5.56,1.09-.28,3.17-.78,4.29-.15.21,3.94-2.75,2.89-5.8-1.54-4.46-12-4-16.52-3.86Z" transform="translate(-109.94 -37.06)"/><path class="cls-7" d="M255.5,127.56c-16,11.24-26.23,21.53-17.65,39.16,1.14-5.09-1.52-11.25,10.7-19.22-3,15.35.25,25.61.38,25.06,2.78-12.6,11.51-25.16,17.31-37.2,2.59-5.36-4.08-12.48-10.74-7.8Z" transform="translate(-109.94 -37.06)"/><path class="cls-8" d="M319.84,110.64c-11,8.61-15.69,20.68-15.28,20.06,12.33-13.22,25.54-15.16,39.29-30,.22-.22-13.07,1.3-24,9.9Z" transform="translate(-109.94 -37.06)"/><path class="cls-8" d="M138.78,75.34c11.42,7.17,19.34,18,30.4,32.28.54.69,13.6,16.42,13.6,16.28-.85-11.6-3.19-21-13.27-32.28-12.53-14-31.32-16.68-30.73-16.28Z" transform="translate(-109.94 -37.06)"/><path class="cls-8" d="M241,164.17c-1.31,9.51-7.05,21.69,3.62,35.44.25.37-.48-1.22.5-8.44-.27,1.74,3.31-12.9-4.07-27l0,0,0,0Z" transform="translate(-109.94 -37.06)"/><path class="cls-4" d="M300.73,123.14c-18.41,30.38-29.88,24.37-45.5,89.36-3.9,16.22-6.33,23.73-6.15,23.19,9-24.23,12.11-47.38,24.93-69.81,8.07-14.16,19.82-26.33,26.77-42.72a0,0,0,0,0,0,0s0,0,0,0Z" transform="translate(-109.94 -37.06)"/><path class="cls-4" d="M374.05,69.52c-9.49,1.6-14.95,5-27.87,7.25-17,2.88-39.4,5.69-44.49,22.18-2.58,8.35,1,18,.74,17C295,80.3,332.88,83.89,360,75.21c8.63-2.75,19.49-6.64,26.54-2.14,1.68,1.19,2.06,2.22-.47,4.48,1.11-1-1.27,2.15-15.4,8-110.31,45.79-120.22,171-118,162,5.27-46.21,42.27-98.74,35.88-88.8,36.29-54.69,81.5-69.25,90.69-73.94,9.95-5.08,15.72-11.21,5.29-14.8-3.6-1.21-6.69-1.08-10.48-.43Z" transform="translate(-109.94 -37.06)"/><path class="cls-4" d="M262.19,120.6c-5.34.19-7.48,7.28-9.86,11-5.05,7.1-16.9,3.79-19.59,13.51-1,3.55,1.68,7.33.56,9.17-4.2,5.93-4.47,3.36-4.83,9.26-.37,5.72.78,7.77,2.05,12.88.39,2.16.11,4.38.25,6.56.71,11.44,10,6.19,7.74,18.12a12.19,12.19,0,0,0,.94-4.72c0-5.28-5.11-5.26-6.45-10.56-.57-2.9.05-4.69.28-7.62.38-4.34-1.83-7.46-1-14.26.39-3.07.18-2.3,2-4.26,4.32-4.7,4-5.41,2.69-11.16-.46-2.4-.11-4.24,3.19-6.07,6.15-2.95,12.08-1.84,17-10.64,2.5-4.42,3.38-7.27,6.28-6.5,1.21.48,0-.72-3.34,10.23-2.52,8.31-3.84,17.82-5.32,25.45-3.72,19.28-8.06,18.41-8.48,28.85,0,0,0,6.11-.09,9.46-.68,34.56.43,38.57.43,38-.46-10.85.37-23.79.35-23.4,1.84-34.1,1.15-26.75,7.08-38.52,7-13.89,6.81-34,15.17-49.69,1.56-2.94-3.95-5.14-7.07-5Z" transform="translate(-109.94 -37.06)"/><path class="cls-4" d="M233.87,206.34c-2.6,1.44-4.79,6-3.37,11.54,1.13,4.43,4.6,8.76,7.13,12a40.29,40.29,0,0,1,3.88,5.6c-1.48-6.93-8.62-15.46-8.38-22.26.15-1.72.85-4.51,2.35-5.36,2.83-1.25,6.14,3.63,7.08,7.61h0c.24,1.34.18-2.27-1.4-5.39s-4.38-5.34-7.29-3.71Z" transform="translate(-109.94 -37.06)"/><path class="cls-4" d="M237.21,164.19c3.16,11.35,4.91,24.17,5,23.62.51-10.79-.89-14.58-5-23.62Z" transform="translate(-109.94 -37.06)"/><path class="cls-4" d="M248.11,146.05c-3.31,12.9-1,26.75-1,26.54a63.3,63.3,0,0,0,1.24-19.79c-.17-3-.26-7-.26-6.77a0,0,0,0,0,0,0Z" transform="translate(-109.94 -37.06)"/><path class="cls-4" d="M251.42,249.19c-9.4,35.75-3.35,74.72,1.46,113.71,3.57,29.2,3.23,40,7,56.38,2.53,11,6.61,19.77,6.42,19a95.37,95.37,0,0,1-3.08-11c-.87-4-16.71-114.27-14.62-154.42a177.07,177.07,0,0,1,2.83-23.74s0,0,0,0Z" transform="translate(-109.94 -37.06)"/><path class="cls-4" d="M236.58,259.28c1.87,16.69.88,34.84,2.17,66,.79,19.4,5,67.79,8.88,88.8,3.27,17.68,2.55,24.34,2.53,24.13-.07,2.13-.71,3.83.51,3.95,7.51.74,15.59-3,15.38-2.91-4.62,1-9.49,2-14.09,1.26,4.3-20.53-7.84-47.64-8.86-129.76-.41-35.09-6-48.87-6.52-51.51Z" transform="translate(-109.94 -37.06)"/><path class="cls-4" d="M196.26,108.05c-11.24,18.4-1.18,43.29,8.29,62.26,16,32.1,7.7,16.66,17.84,43.59,11.64,30.85,20,28.14,19.22,27.95-12.39-3.1-17.44-40.24-27.1-61.63-10.14-22.44-25-51.47-19.24-69.54h0c.26-.74,1.13-3,1-2.66l0,0Z" transform="translate(-109.94 -37.06)"/><path class="cls-4" d="M124.92,40.92a13.25,13.25,0,0,0-4.88,2c-10.71,7.48.75,16.5-1.23,20.27-1.48,1.77-7.61,1.17-8.73,3.79-1.19,2.77,5.5,7.75,5.29,7.54-7.3-8.06-4.3-7.43,1.14-8.06,10.84-1.23,1.19-11.34,2.65-16.56,6.85-17.54,79.31,18.86,77.69,56.38h0c-.11,3.1,1.49-5.65-1.58-15C186.08,63.3,143,37,124.92,40.92Z" transform="translate(-109.94 -37.06)"/><path class="cls-4" d="M118.17,76.24c3.1,6.38,12.41,13.19,18.18,17.36C155,107,152.66,107.34,166.53,122.37c5.23,5.69,10.37,10.06,10,9.57-12.24-13-13.14-26.2-33.63-38.26C135,89,122.78,83.53,118.22,76.22h0s0,0,0,0Z" transform="translate(-109.94 -37.06)"/><path class="cls-4" d="M177.93,133.05c17,26.47,27.79,59.48,40.18,86.93,17.36,38.39,18.21,42.27,18,41.46-8.68-27.31-11.87-29.94-28.85-72.21-17.7-44-29.8-57.12-29.34-56.18Z" transform="translate(-109.94 -37.06)"/><path class="cls-4" d="M124.58,64.45c3.39,6.94,13,13,19.53,18,5.93,4.58,24.91,25.21,23.54,23.65a76.15,76.15,0,0,1,6.63,9.13c4.95,7.67,6.93,9.68,6.74,9.31-3.22-4-5.53-8.37-7.89-12.31a65.17,65.17,0,0,0-9.32-11.85c-13.95-15.7-10.44-13.72-28.21-26-9.74-6.79-11.14-10.2-11-10,0,0,0,0,0,0Z" transform="translate(-109.94 -37.06)"/><path class="cls-4" d="M130.65,49.22c.73,4.74,3.43,7.33,6.95,10.56,9.73,9,7.88,14,14.52,21.28.14.22-1.3-1.81-1.72-2.47-2.79-4.35-4.48-10.27-8-14.87-2.9-3.84-8.33-7-10.64-11.4h0v0a13.78,13.78,0,0,1-1.11-3.12,0,0,0,0,0,0,0Z" transform="translate(-109.94 -37.06)"/><path class="cls-4" d="M152.09,61.55c1,16,16.52,26,19.19,41.68a14.89,14.89,0,0,0-.69-4.06C167,85.33,154.15,76.1,152.14,61.55l0,0s0,0,0,0Z" transform="translate(-109.94 -37.06)"/><path class="cls-4" d="M174.15,78.25c-.76,8.71,2.43,14.78,5.75,23.27,4.76,12.21,2.72,19,2.79,18.66,2.26-10.42-1.48-18.17-5.06-27.5-3.72-9.67-3.25-13.33-3.48-14.43Z" transform="translate(-109.94 -37.06)"/><path class="cls-4" d="M323.68,89.56c-2.55,12-8.26,21-14.72,31.24-.11.21,9.61-11.58,13-22.28a38.5,38.5,0,0,0,1.72-9s0,0,0,0Z" transform="translate(-109.94 -37.06)"/><path class="cls-4" d="M352.3,80.63c-16.45,5.43-13.6,11.83-20.2,21.76-.14.21-.69,1-.47.77,4.07-4.9,5.6-10.87,10.08-15,4-3.52,15.58-8.48,19.35-9.46.57-.14-3.24.12-8.76,1.94Z" transform="translate(-109.94 -37.06)"/></svg>