<svg id="Layer_1" data-name="Layer 1" xmlns="http://www.w3.org/2000/svg" viewBox="0 0 355.78 436.08"><defs><style>.cls-1{fill:#8b6f6a;}.cls-2{fill:#b99590;}.cls-3{fill:#161616;}.cls-4{fill:#a8af78;}.cls-5{fill:#c5ce8d;}.cls-6{fill:#a8a77b;}.cls-7{fill:#888763;}.cls-8{fill:#6c3139;}</style></defs><path class="cls-1" d="M318.31,313.12l-.09,0c-11.33,3.81-21.55,15.7-21.45,15.61-31.39,30.62-11.27,62.63-24,85.15a15.36,15.36,0,0,1-.86-4.42c-.26-4.67.79-12.87-.44-13-.88,0-1.6,4.4-1.72,5.26-.66,4.85-.08,10.93.32,15.55a21.15,21.15,0,0,1-2.92-5.91,56.74,56.74,0,0,1-2.22-10.6c-1.43-11.17-2.4-42.6-15-46.2-3.12-.89-4.71-.67-8.1-3.63l.06.09c-9.32-8.68-22.7-35.88-31.91-25.54-7.55,8.43,7.89,28.06,15.92,34.18,13.46,10.45,24.11,13.52,35.94,42.83,3.57,8.8,5.25,14.18,4.71,25.24-1.34,27.31-9.27,36.25-9.26,36.47-.15.23-.33.32-.29.58a.44.44,0,0,0,.79.19l.05-.08a2.4,2.4,0,0,0,1.34.67c1.66.26,2.9-2,3.54-3.37,3.48-7.41,9.52-38.51,9.05-36.29,1.87-8.78,6.18-16.3,9.16-25.57l.08,0c2.84-1.33,4.74-10.74,5.74-14.16,1.62-5.51,21.47-34.91,27-47.05a58.62,58.62,0,0,0,5-17.38c.08-.71.37-8.17-.18-8.57a.57.57,0,0,0-.25-.08Z" transform="translate(-72 -31.85)"/><path class="cls-2" d="M314,320.58c3.24,10.9-10.47,19.65-19.73,38.36-4.77,9.64-4.88,17.37-4.86,17.27,5.44-16.72,20.85-25.27,25.57-44.53,1.84-7.53-.93-10.9-1-11.1Z" transform="translate(-72 -31.85)"/><path class="cls-2" d="M305.86,326.84a80,80,0,0,0-12.57,11.4c-14.29,16.33-10.82,32.57-11,30.33,4.14-19.38,23.66-42.25,22.34-40.37l1.22-1.36Z" transform="translate(-72 -31.85)"/><path class="cls-2" d="M216.05,329.13c-2,.72-3.14,3.36-1.15,6.83.11.11-2-5.22,1.5-5.55,3.45-.05,4,3.82,5.71,7.61,3.94,8.86,11,14.23,17.87,15.55.1,0-.34-.19-.24-.14-6.83-3.42-7.7-13.83-17.52-22.57-1.8-1.61-3.89-2.56-6.17-1.73Z" transform="translate(-72 -31.85)"/><path class="cls-2" d="M245.16,357.2a56.06,56.06,0,0,1,7.12,7c5.82,6.43,6.06,7.82,6.06,7.7-.65-7.64-6.16-11.72-13.17-14.75h0a0,0,0,0,0,0,0Z" transform="translate(-72 -31.85)"/><path class="cls-2" d="M215.1,338.49c.09,7.8,6.92,19.71,18.49,26.17,1.75,1,3.6,1.7,5.39,2.6,1.14.59,2.67,1.59,2.57,1.53-3.27-4-2.83-3.59-3.77-4.76-7.92-9.88-19.9-11.66-22.68-25.54Z" transform="translate(-72 -31.85)"/><path class="cls-2" d="M268.33,419.48c-.39,4.37-1.34,14.09-1.32,14.06,3.86-8,1.29-12.76,1.32-14.06Z" transform="translate(-72 -31.85)"/><path class="cls-2" d="M271,404.64a18.8,18.8,0,0,0-1,6,27.36,27.36,0,0,0,1.07,6.29c.64-7.68,0-7.47-.07-12.28h0Z" transform="translate(-72 -31.85)"/><path class="cls-2" d="M265.56,448.81c-4.43,9.76-5.45,13.64-5.39,13.54a44.28,44.28,0,0,0,5.39-13.54Z" transform="translate(-72 -31.85)"/><path class="cls-3" d="M270.35,392.83a1.48,1.48,0,0,0-.64.83c-.33.93-.65,1.85-.9,2.81-2.07,8.15,1.66,20,1.63,19.84-.37-5.93-1-11.59.39-17.22,2.25,8.84,1.58,13,1.64,12.72a34,34,0,0,0,.23-17c-.25-1.14-.46-2.17-1.64-2.17a1.35,1.35,0,0,0-.71.19Z" transform="translate(-72 -31.85)"/><path class="cls-3" d="M317,312.48c-11.95,6.68-24.52,14.23-31.33,25.43-13,21.44-7.38,53.12-7.27,52.69,1.1-46.29,3.93-53.84,38.59-75.5,6.59,19.81-12.81,37.23-23.83,54.81-7.21,11.49-8.48,16.67-15.51,36.52-5.8,16.4-5.18,22.9-5.15,22.8a55.64,55.64,0,0,1,2.2-10.71c2.65-9,12.69-34.47,11.75-32.28,12.86-30.3,41.15-47,32.17-73.1a1.11,1.11,0,0,0-1.62-.66Z" transform="translate(-72 -31.85)"/><path class="cls-3" d="M312.54,326.77c-5.47,7.36-12.16,13-18.46,22.8-10.21,15.85-12.27,37.33-12.24,37.24,7-37.35,20.66-41.17,30.7-60Z" transform="translate(-72 -31.85)"/><path class="cls-3" d="M213.14,321.72c-3.8.57-7.48,5.48-4.79,15,1.82,6.45,6.82,15.73,12.31,21.29,11.16,11.29,22.65,12.56,33.72,30.52a47.33,47.33,0,0,1,3.41,6.5,27.69,27.69,0,0,1,1.95,7h0v0c0,.22.13,1.21.13,1,.3-9.12-3.93-16.29-9.15-22.75-12.11-15-24.67-15.51-34.59-32.37-9-15.35-6.85-24.3-1.1-23.68a15.32,15.32,0,0,1,6.3,3.19c10.45,8.2,10,18,19.29,23.85,2.2,1.38,4.63,2.35,6.94,3.54,13.74,7.1,12.84,25.33,14.68,37.61,1.39,9.25,4,13.29,3.83,13-6.49-17.5,1.63-42.71-19.08-53.32-4.06-2.07-6.6-3.27-9.53-6.95-4.83-6.34-7.14-16.43-18-22.17a10,10,0,0,0-6.31-1.37Z" transform="translate(-72 -31.85)"/><path class="cls-3" d="M260.52,403.46a57.66,57.66,0,0,1,4.8,23.58c-.09,15-6.88,32.23-7.38,32.94-.79,1-2.26,2.13-2.84,3.36-1.56,3.39,3.55,5.68,6.25,4.06,7.12-4.27,7.71-25.75,9.43-33.55,1.08-4.94,2.2-6.54.43-3.28-4.29,7.78-4.84,16.64-6.18,22.7-.6,2.72-3,11.52-5.71,12.11-.61,0-2.07-.56-2.16-.9,0-.91,2.09-2.74,2.57-3.82a13.62,13.62,0,0,0,.56-1.78c5.69-19.59,11.11-38.29.24-55.43h0s0,0,0,0Z" transform="translate(-72 -31.85)"/><path class="cls-3" d="M259.17,388.94A34.69,34.69,0,0,0,255,376.19a42.51,42.51,0,0,0-5.14-7c-4.52-5.07-9.87-9.34-14.88-13.92a109.17,109.17,0,0,1-7.92-7.89q-2-2.21-3.77-4.56c-1.14-1.51-2.74-3.26-3.45-5,7.17,17.74,30.1,29.12,38.18,48.06C258.86,387.86,259.17,389.1,259.17,388.94Z" transform="translate(-72 -31.85)"/><path class="cls-4" d="M180.12,181a5.24,5.24,0,0,0-3.32,1.2c-8.28,6.49-3.79,39.22-1.15,49.94,3.7,15.09,21.26,39.34,32.91,51.72,16,17,42.71,39.13,54.6,67.05v-.17c9.44,24.2,6.07,48.75-5.35,72.09-.08.15-1.14,2.32-1.07,2.17l-.93,1.91c-7.39,15.43-17.1,37.4-.32,34.54a1,1,0,0,0,.73-1c.54-30,16.65-54.55,20.38-83.63,9-69.19,8.4-158.34,86.77-158.34,29.36,0,34.7,14,46.84,16.12,14.18,2.6,21-4.7,11.28-11a67.86,67.86,0,0,0-10-4.74c-69.3-29.42-116.07,11.56-131.53,82.07-5.76,26.32-5.3,51.26-5.84,50.11-2-4.31-3.13-10.3-3.66-15a1,1,0,0,0-1.87-.5c-.4.85-1.3,2.43-1.22,2.28-4.37-9-5.15-15.86-7-15.86-2.85,0,.87,11.28,1.91,18.64l0,.29,0,.31c-11.32-15.06-16.68-22.38-26-44.38-2.8-6.66-6.6-16.43-6.54-16.28-12.94-33-13.31-29.89-24.05-55.21-8.53-20.19-7.39-22.49-12-32.21C191,187.25,185.4,181,180.12,181Z" transform="translate(-72 -31.85)"/><path class="cls-5" d="M175.55,203.29c-2.45,8.36-2.44,19.18-1,27.68,2.79,16.66,17.15,38,32,46.3,4.78,2.67,9,4.34,12.78,8,0,0,0,0,0,0-2.62-5.94-7.29-10.38-11.25-15.38-6.4-8.51-18-37-21.34-46.77C185,217.75,179.59,197,184.89,199c4.21,1.94,9.6,9.48,9,8.57a44.31,44.31,0,0,0-5.33-9.41c-4.2-5.41-10-5.22-13,5.18Z" transform="translate(-72 -31.85)"/><path class="cls-5" d="M197.35,214.22c3.6,28.83,9.8,41.94,24.22,61,0,0,0,0,0,0-8.7-21.91.34-7.13-24.24-61Z" transform="translate(-72 -31.85)"/><path class="cls-5" d="M361.35,209.18c-16.46,1.51-22.61,8.7-22.46,8.6,22.47-15.94,61.52,15.41,79.33,11.12a4.61,4.61,0,0,0,3.55-2.86c.22-.73-.86-1-1-1.4,0,0,0,0,0,0,0,.34.51,1,.4.86a.84.84,0,0,1,0,.17c-.15,0-.7,3.15-9.15-.5-17-7.06-22.72-18.55-50.71-16Z" transform="translate(-72 -31.85)"/><path class="cls-5" d="M265.64,344.09c8.57,30.51,8.24,37.06,8.35,36.72,6.15-15.89.22-23.68-8.35-36.72Z" transform="translate(-72 -31.85)"/><path class="cls-5" d="M253.21,439.33a79.09,79.09,0,0,0-3.8,9.48,20.49,20.49,0,0,0-.39,10.07c2-5.71,4.44-10.34,4.22-19.55h0Z" transform="translate(-72 -31.85)"/><path class="cls-3" d="M366.43,206.65c-29.44.75-52.43,16.86-68.05,41.59C268.87,295,275.52,350.12,275.52,342c-.6-73.13,37.87-147.94,107.66-130.85,46.7,11.51,44.33,19.83,44.29,19.66a4.18,4.18,0,0,1-.59,2.69,3.47,3.47,0,0,0,.79-1.62c2.64-11.05-42.67-25.68-61.24-25.19Z" transform="translate(-72 -31.85)"/><path class="cls-3" d="M357.39,216a85.26,85.26,0,0,0-24.33,6.74c-36.31,16-44,55.36-50.57,94.05-2.1,12.4-9.18,44.21-5.38,44.51.53,0,3.45.52,3.4.87,0-.24.2.13-1.31,2.93a4.2,4.2,0,0,0-.66,1.86c.5-1.46,3.75-5,2.65-5.57a13.14,13.14,0,0,0-3.43-1.28c0-9.74,2.88-21.22,5.45-36,7.73-44.16,15.87-97.82,73.84-106a62.54,62.54,0,0,1,15.11-.19c17,2.37,33.95,16.52,50.92,13.32,0,0,0,0,0,0-21.56,2.19-25.44-14.59-58.95-15.43Z" transform="translate(-72 -31.85)"/><path class="cls-3" d="M259.46,316.7a2.23,2.23,0,0,0-.94,1.23c-3.17,8.2,1.09,17.41,5.63,24.79a9.49,9.49,0,0,1-.34-2.25,10.75,10.75,0,0,0-.91-2.72c-.36-1-.7-1.93-1-2.91a61.6,61.6,0,0,1-1.56-6,55.66,55.66,0,0,1-.86-5.6,10.41,10.41,0,0,1-.11-3,2.21,2.21,0,0,1,.65-1.34c.6-.41,1,.29,1.26.84a39.26,39.26,0,0,1,2.14,5.33,66.59,66.59,0,0,1,3.41,13.17,5.77,5.77,0,0,1,.28-1.56c.33-1.63.32-3.5,1.21-5,.42,3.06.3,6.14,1.21,9.14a89.07,89.07,0,0,0,3.42,9.69c-4.52-18-2.75-20.54-4.61-21-2.75-.76-1,5.65-2.95-2C265,326.16,262.92,318,262,317A2.06,2.06,0,0,0,259.46,316.7Z" transform="translate(-72 -31.85)"/><path class="cls-3" d="M179.26,183.38c-12.64,4.56-8.36,40.22-3,55.21,15.13,42.43,42.92,58,37.57,54.43-17.34-14.45-36.39-45-39.8-70.13a1.87,1.87,0,0,0,0,.32c-2.89-11.83-1.6-42.88,9.8-38.41,4.2,1.85,8.7,8.62,9.21,9.63l.13.28c22.2,29.15,26.22,72.1,43.58,106.63,7.54,15,17.14,24.29,16.92,24-33.54-40.89-30.29-97.29-60.19-134-3.5-4.3-9-9.77-14.25-7.94Z" transform="translate(-72 -31.85)"/><path class="cls-3" d="M219.57,296.06c4.65,6.11,28.81,33.74,27.25,31.7,19.27,25.31,22.86,42.88,22,39.53-5.71-26.91-24.08-45.15-45.64-67.5l-3.63-3.73Z" transform="translate(-72 -31.85)"/><path class="cls-3" d="M268.33,370.72c-1.54,37.1-20.15,60.89-24.41,89.35-.23,1.53,1.58.85,2.57.7,3-.38,5.77-.3,8.12-1.19a21.24,21.24,0,0,1-5.35,0c-1.15-.09-3.16-1.28-3.44-.17,12.73-49.84,24.36-59.15,22.55-88.68,0,0,0,0,0,0a0,0,0,0,0,0,0Z" transform="translate(-72 -31.85)"/><path class="cls-3" d="M277.18,368.86c-1.34,24.79-26.57,61.76-19.81,89.62.17.69-2.55-7.35,2.14-24.77,8.51-31.53,14.86-37.52,17.7-64.85,0,0,0,0,0,0a0,0,0,0,0,0,0Z" transform="translate(-72 -31.85)"/><path class="cls-3" d="M190.69,204c-4.06,24.1,13.43,62.7,27.14,83,4.63,6.87,9.15,12.58,8.83,12.09-2.71-4.64-11.58-19.1-14.07-23.86-12.93-24.7-21.65-42-21.9-71.26Z" transform="translate(-72 -31.85)"/><path class="cls-3" d="M181,226.19c.92,3.4,4.16,11.2,5.36,14.52,7.74,21.34,15.48,31.15,15.41,31-7.44-12.09-7.45-16.54-20.74-45.54h0s0,0,0,0Z" transform="translate(-72 -31.85)"/><path class="cls-3" d="M207,238c3.16,22.89,6.88,29.41,6.78,29-2.38-8.42-2.24-11.07-6.78-29Z" transform="translate(-72 -31.85)"/><path class="cls-6" d="M404.74,49.19c-2.65,0-1.1,17.62-18.38,52.1-5.74,10.18-10.32,15.47-17.61,23.54-.39-.19-7.51,7.29-8.34,8q-3.92,3.56-8,6.91c-4.8,4-9.78,7.7-14.72,11.48-9.65,7.37-18.85,15.13-26.44,24.67-11.44,14.36-19.47,31.23-26.37,48.14-1,2.47-2,4.95-3,7.45-.76,2-2.44,3.69-2.71,5.81,0,.4,0,.9.35,1.08s.8-.13,1.1-.44c2.42-2.53,3.59-6.08,5.24-9.06,4.84-8.59,9.63-13.39,20.6-28.67,5-7,10.19-14.2,16.25-20.52,24.07-24.79,68-29.63,80.82-107.51a155.35,155.35,0,0,0,2.05-22,.87.87,0,0,0-.78-1Z" transform="translate(-72 -31.85)"/><path class="cls-6" d="M72.88,32.11a.88.88,0,0,0-.86,1c8.79,39.06,28.2,35.32,61.35,43.57a103.38,103.38,0,0,1,73.72,70.85l0-.23c0,1.84,1.13,4.21,1.55,6,.5,2.16.93,4.34,1.32,6.52.82,4.59,1.44,9.21,1.94,13.84,1.11,10.24,1.69,20.53,2.35,30.81,1.57,24.66,4.13,49,8.93,73.27l5.49,27.73c-.19-1,1.4-3.74,1.64-4.85a23.8,23.8,0,0,0,.57-5.45c0-3.25-.35-6.5-.42-9.76q-.17-7.63-.58-15.28-.4-7.35-1.11-14.69c-.46-4.75-1.65-9.74-1.69-14.51-.2-26.27.85-52.63-3.25-78.72C211.35,82.9,158.15,78.31,117.66,63.7,84.36,51.67,75.64,32.11,72.88,32.11Z" transform="translate(-72 -31.85)"/><path class="cls-6" d="M249.23,233.89c-1.58,0-6.69,9.69-8.72,23.21a152.28,152.28,0,0,0-1.26,20.59c0,3.29,0,6.59.12,9.89s.68,6.67-.19,10h2.11c.11-5.26,2.47-10.85,4.17-15.77,1.77-5.11,3.7-10.17,5.22-15.36,3.14-10.77,3.67-21.54-.64-32.08A.87.87,0,0,0,249.23,233.89Z" transform="translate(-72 -31.85)"/><path class="cls-3" d="M249.63,232.29c-15,12.6-12.12,35.41-10.22,50.65a0,0,0,1,0,0,0c1-18.53,1.3-35.5,10.65-46.47,1.84,6.36,2.68,15.13,1.39,25.12-2.86,20.83-11.12,32.33-9.47,29.84,11-15.3,15.8-36.69,10.23-58.45a1.57,1.57,0,0,0-2.62-.69Z" transform="translate(-72 -31.85)"/><path class="cls-7" d="M171.15,88.75c20.95,8,29.5,33.27,39.66,55.86a61.71,61.71,0,0,1,2.5,6.94c.05.2,4.55,17.27,4.55,17.07,0-6.6.66-13.18-.39-19.75-1.59-10.1-7.77-27.11-18.58-40.86C184.5,89.74,171.56,89,171.15,88.75Z" transform="translate(-72 -31.85)"/><path class="cls-7" d="M218.59,170.41c-1.27,29.48-4.24,34.75,3.48,62.58a0,0,0,1,0,0,0c1.47-36.31,1.29-19.62-3.52-62.58Z" transform="translate(-72 -31.85)"/><path class="cls-7" d="M357.52,148.39c-2.39,1.25-4.87,2.33-7.35,3.42-38.12,16.64-45.8,46.21-44.63,43.86,10.18-20.84,26.47-27.61,41.26-38.56,2.82-2.09,10.94-8.9,10.73-8.73Z" transform="translate(-72 -31.85)"/><path class="cls-7" d="M390.65,102.67c-5.24,5-7.76,11.89-11.18,18.07-8.67,15-34,32.83-9.71,14.54,18.82-14.08,13.07-18.58,19.54-30.48.41-.75,1.5-2.34,1.37-2.14Z" transform="translate(-72 -31.85)"/><path class="cls-7" d="M247.92,243.61a2.77,2.77,0,0,0-2.3,2.42c-.17,1.58-.9,4.83-1.49,10.19a48.86,48.86,0,0,0-.29,10.42,99.81,99.81,0,0,1,3.13-9.71c.41-1.09-.21-2.74,3.13,8.39.09.36,4.46-22.8-2.18-21.71Z" transform="translate(-72 -31.85)"/><path class="cls-7" d="M83.16,48.82c3.82,10.31,10,13.16,19,14.62.47,0-7.48-4.75-19-14.62Z" transform="translate(-72 -31.85)"/><path class="cls-8" d="M285.29,222.08a.8.8,0,0,0-.69.36c-16.32,25.92-16.52,41.59-38,72.18-4.26,6.07-3.41,5.33-3.83,4.3-2.27-5.46-1.88-2.9-3.42-3h0c-1.07,0-1,1.11-1.07,1.35l-.11.58c-.33.66-.71,1-.42,1.55l-.06.15c-6.56-18.2-6.23-43-9.4-40.52-1.43,1.17-3.06,16.75-.83,37.49,1.56,14.58,4.11,28.37,4.41,38h0c-3.89,65.55-10.53,35.15,4.68,104.08,2.79,12.66,5.93,25.72,19.22,25.72,2.1,0,7.16-.26,5.77-2-5.79-7.24-6.52-9.47-7.46-10.55h0c-3.37-7.45-16.15-23.92-17.23-66.89-1.37-59.38,12.1-79.47,37.94-133.58,4.68-9.83,6.89-12.89,6.93-13.34a.87.87,0,0,0-1.11-.94c2.86-10.48,7.56-15,4.7-15Z" transform="translate(-72 -31.85)"/><path class="cls-7" d="M232.09,376.94c-5.93,23.95.32,38.56,6,55.69.17.67-.94-6-1.58-13.25-2.44-27.43-3.17-18.44-4.46-42.44Z" transform="translate(-72 -31.85)"/><path class="cls-7" d="M232,297.62c-1.27,11.88,2.67,20.47,4,27.2,0,0,0,0,.05,0,1.63-10.11-1-14.77-4.08-27.2Z" transform="translate(-72 -31.85)"/><path class="cls-7" d="M240.57,300.36c-.75.13-1.3.71-1.24,1.91a62.71,62.71,0,0,0,.82,12.47c.13.53,1.79-8.66,1.68-8.08l0,0,0,0c.33.57,1.31.93,1.72.19,2.5-4.41,2.25-3.49-.12-2.19-.32-1.17-.82-2.32-1.24-3.42a1.52,1.52,0,0,0-1.62-.88Z" transform="translate(-72 -31.85)"/><path class="cls-3" d="M247,251.42c-.28,2.38.12,5-.05,7.35-.26,3.4-.61,6.8-1,10.19-.33,3.1-.68,6.2-1,9.3a20.58,20.58,0,0,1-.37,3.59c3.41-9.91,4.1-16.11,3.86-22.65a86.28,86.28,0,0,0-.72-10.41A8.28,8.28,0,0,0,247,251.42Z" transform="translate(-72 -31.85)"/><path class="cls-3" d="M403.41,49.44c-26.37,114.22-73.1,79.5-104.25,142.39-19,38.07-24,44.53-33.48,65.06-7.84,17-9.86,29.41-9.81,29.21C266,252.73,285.35,225,299.21,195.85c30.87-65,77.63-32.23,103.94-138.75-1.85,38.23-14.12,69.47-43.86,92.6-1.84,1.44-4.51,3.37-7.57,5.43C281.35,202.66,249.93,308.82,250,308.62c33.64-84.15,52.75-114.23,108.88-156.7,33.2-25.21,45.39-59.95,46-102.28a.76.76,0,0,0-1.5-.2Z" transform="translate(-72 -31.85)"/><path class="cls-3" d="M77.81,56.16c27.06,31.56,117.25-.57,134.38,126.15,0-.22.15-3.9,5.19,58.77,4.8,59.84,15.28,78.46,15.23,78.26C213.3,264.08,221.32,205.1,209,154.55,191.62,83.26,140.72,76.36,100.2,66.16,82.46,61.7,76.68,55,77.81,56.16Z" transform="translate(-72 -31.85)"/><path class="cls-3" d="M75.16,31.87a.81.81,0,0,0-.61.81C75.44,42.74,82,53.77,81.9,53.56,79.58,47.64,77.53,43,76.58,37c35.87,65.28,148.34-7.85,150.09,169.66.27,27.44-1.08,45,4.24,73.31,0,.6-.31-8.72-.13-20.18.2-14.41.4-8.52.33-41.16-.29-147-59.59-135.72-117.62-156.23C80.59,50.71,77.57,31.22,75.16,31.87Z" transform="translate(-72 -31.85)"/><path class="cls-3" d="M232.25,320.43c4,37.83-22.56,65.81,13.5,140.39.25.38-.47-1.21-2.17-5.46-30.66-77.49-4.61-87.8-11.33-134.93Z" transform="translate(-72 -31.85)"/><path class="cls-3" d="M247.36,312.5c-13.17,14.64-12,44.62-12.58,67.26s3.47,55.42,17.92,75.06c3.1,4.23,5,6.71,6,8.05a21.36,21.36,0,0,1-11.07,1.79c-1.17-.39,5.58,3,13.87.33a1.53,1.53,0,0,0,.75-2.3c-10.67-18.78-25.69-25.11-24.4-105.1.6-37.87,8.55-42.46,9.55-45.09Z" transform="translate(-72 -31.85)"/></svg>