<svg id="Layer_1" data-name="Layer 1" xmlns="http://www.w3.org/2000/svg" viewBox="0 0 291.46 430.25"><defs><style>.cls-1{fill:#4c582b;}.cls-2{fill:#829149;}.cls-3{fill:#161616;}</style></defs><path class="cls-1" d="M172.75,36.38c-5.79,0-11.72,1.9-17,4.32-18.94,8.66-17.42,20-29.56,29.53-12.73,9.69-51.62,10.6-43.81,35.46,3.17,10.2,11.74,14.09,22.36,13.67,19.3-.73,34.42-15.08,55.2-1.55a1.3,1.3,0,0,0,.36.85,149.67,149.67,0,0,1,11,15.5c8.55,22.19,13,21.29,37,79.82,15.65,38,15.24,31.48,20.91,53.75l0-.32c1.61,7.45,1.43,5.73,1,11.09.08.9-.8,2.85.77,3.3.58.22-.47,2.44,2.46,19.05.44,38-2,39.14,1.29,74.75.19,25.66,2.18,72.76,2.68,76.22.79,5.45,3.08,6.53,6.91,11.9a1.24,1.24,0,0,0,2.24-.85c-.49-2.44-1.06-4.87-1.62-7.29-6-26.14-.5-9.83-6-62.84-2-19.64-1.9-14.33-1.63-40.87.72-71.14-3.4-56.05-.72-59.06a1.15,1.15,0,0,0,.31-.86c-.88-12.64,1.14-26,.66-38.73,3.72-12,8.54-25.15,10.34-37.42a114.12,114.12,0,0,0,4-11.39,1.29,1.29,0,0,0-.53-1.41c9.27-22.64,10.22-28.31,17.9-39.44l.39-.64c9.22-15.39,12-24.75,31.19-27.53,16.13-2.15,34.57,2.59,49.57-2.6,5.88-2,11.49-5.52,13.67-10.47,9.79-18-29.15-24.85-40.13-31.61-9.15-9.16-21.4-27.5-35.73-27.5-6.68,0-13.67,4.88-17.08,10.28-9.38,14.8,3.86,34.8,6.29,40.59l.07-.18c1.23,4.81,3.73,8.91,2.51,18.2-1.13,8.08-4.13,14-4,14.91l-.65.77c-1,1.32,2.12-3-5.94,10.54-.14-1-1.82-1.15-2.24-.21l-.52,1.11c-16.5,35.06-22,37.88-32.58,81.11,2.65-41.26,6.8-53.88,4.3-72.72,1.59-.66-2.43-1.49,14.44-14l2.68-2c5.71-4.3,14.49-10.83,13.1-17.36-.82-3.92-4.39-3.1-7.51-3.45-.13-1.74-.26-5.28-.26-5.3,1-1.79,2.52-4.08,1.39-6s-4.71-1.63-6-2.41c-2.58-3.55-4-4.16-5.23-6.85-.87-2.17-.36-3.12-1.57-3.43a1.29,1.29,0,0,0-1.49.59c-6.29,11-12.33,1.39-23.2,10-13.73,10.79-6.84,22.55.94,36.93,11,20.31,9,5.19,8.54,19.11-.38,11.92-5,45.44-4.31,72.88l0-.29c-4-10.69-20.88-44.12-26.06-54.85-5.08-10.49-11.13-26.65-10.6-25.28-14.92-38.44-14-27.49-19-44.85,1-29.39,6.53-25.82,16-47,10.05-22.38-2.12-37.61-17.47-37.61Z" transform="translate(-79.04 -34)"/><path class="cls-2" d="M135.19,74c-1.36,14.58,18.23,18.38,25.07,26.26a27.44,27.44,0,0,1,3.94,6.39c-1.5-9-10.37-18.09-17.51-22.35-5.86-4-8.39-5.52-11.5-10.3Z" transform="translate(-79.04 -34)"/><path class="cls-2" d="M153.81,58.28a27.61,27.61,0,0,0-1.89,20.59c2.28,7.89,10.86,18.73,10.81,18.56-5-23.67-8.12-28.66-8.92-39.15Z" transform="translate(-79.04 -34)"/><path class="cls-2" d="M168.84,61c-11.77,19.59-1.59,29.44-1.63,29.28A23.41,23.41,0,0,1,165.92,86c.18-2.21-2.31-2.54,3-25,0,0,0,0,0,0Z" transform="translate(-79.04 -34)"/><path class="cls-2" d="M117.5,89.06a86.35,86.35,0,0,1,15,3.68c15,5.45,18.34,10,17.58,8.87-6.9-10.34-20.66-16.88-32.55-12.55Z" transform="translate(-79.04 -34)"/><path class="cls-2" d="M291.2,84.75a57.84,57.84,0,0,1,.47,11.31c-.63,7.21-5.31,33.06-4.33,32.08,18.07-30.51,4.12-41.74,3.86-43.39Z" transform="translate(-79.04 -34)"/><path class="cls-2" d="M305.19,93.82c-2.33,4-4.67,7.83-6.18,12.21-2.49,7.2-2.13,13.39-2,13.14,3.64-8.21,8.16-15.13,8.19-25.34a0,0,0,0,0,0,0Z" transform="translate(-79.04 -34)"/><path class="cls-2" d="M310.73,108.55c-12.38,4.9-11.33,16.71-11,16.24a16.5,16.5,0,0,1,4.5-6.52c8.55-7.16,28.09-8.65,27.14-8.88-6.45-2.7-14-3.45-20.62-.84Z" transform="translate(-79.04 -34)"/><path class="cls-2" d="M234.67,119.19c-3.3,12.81.41,26.24,2.82,38.86,1,5.11-.05-11.9-.85-19.26-.59-5.43.34,4.25-2-19.6Z" transform="translate(-79.04 -34)"/><path class="cls-2" d="M218.66,230.48a126.94,126.94,0,0,1,8,21.79c8.4,31.45,7.54,41.52,7.73,40.76,4.08-22.24.14-42.28-15.68-62.56h0a0,0,0,0,0,0,0Z" transform="translate(-79.04 -34)"/><path class="cls-2" d="M193.24,167.75c2.23,7.24,4,14.61,6.37,21.81a91.06,91.06,0,0,0,10,20.87c-5-10.26-8.43-24.5-16.31-42.69,0,0,0,0,0,0a0,0,0,0,0,0,0Z" transform="translate(-79.04 -34)"/><path class="cls-2" d="M107.84,79.93c-12.69,4.52-24.51,17.51-15.46,26.5,7.19,7.13,25,2.85,34.76.11,10.71-3,8.12-1.75-5-2.21,4.13.18-21.34-.19-24.47-4.87-2.14-5.07,9.72-20.83,23.79-21.17.47,0-5-1.42-13.57,1.64Z" transform="translate(-79.04 -34)"/><path class="cls-2" d="M166.21,39.4C154,42,138.28,53,141.2,63.6c.14.55-.66-3.18,3.31-7.07,6.39-5.88,23.54-9.14,30.09-5.66,11.64,8.43-.41,25.9-6.18,39.1,0,0,0,0,0,0,7.28-8.91,33-31.9,15.34-47.48-4.72-4.16-11.38-4.42-17.59-3.11Z" transform="translate(-79.04 -34)"/><path class="cls-2" d="M282.28,68c-9.71,1.53-15.4,10.73-7.8,26.56a86.47,86.47,0,0,0,10,15.55c-2.79-8.11-9.19-29.07-1.87-33.52a17.76,17.76,0,0,1,2.92-1c9.26-1.89,23.78,5.37,26.86,16.05,0,0,0,0,0,0C310.89,79,294.32,66.18,282.28,68Z" transform="translate(-79.04 -34)"/><path class="cls-2" d="M327.64,103.32c-6.33,0,20.32-.57,17,13-2.28,6-19.89,3.21-28,5.59,0,0,0,0,0,0a34,34,0,0,1,4.89,1.21c6.29,2,12.85,4.28,19.55,3.63,9.22-.91,12.76-8.74,9.43-16-3.75-8.16-14-8.42-22.88-7.48Z" transform="translate(-79.04 -34)"/><path class="cls-2" d="M228.09,117a9.55,9.55,0,0,0-4.83,5.09c-7.3,15.29,6.64,29.69,6.29,28.64-.78-2.49-.56-6.15-1.19-12.74-.94-9.91-5.41-22.57,7.46-20.17.27,0-4.14-2.21-7.73-.82Z" transform="translate(-79.04 -34)"/><path class="cls-2" d="M250.71,115.9c.94,3,4.57,5.43,4.27,7-1,2.3-7.56,4.14-6.89,10.64.59,5.68,5.51,5.12,6.85,5.4a1.6,1.6,0,0,1,.3,1.05c-.65,1.5-9.06,7.75-7.8,7.33,4.84-2,9.88-2,11.82-5.9a5.93,5.93,0,0,0-.82-6.13c-1.17-1.28-2.57-1.61-4.13-2a5,5,0,0,1-.06-1.24c1-2.35,4.52-5,4.57-8.54.05-4.12-5-4.52-8.08-7.63h0s0,0,0,0Z" transform="translate(-79.04 -34)"/><path class="cls-2" d="M243.91,115.73c-.09.17-.39.65-.29.48-3.34,4.38-6.94,3-6.56,3.4,3.34,1.88,7,.13,6.89-3.87l0,0Z" transform="translate(-79.04 -34)"/><path d="M151,64.88c-4.18,12.68,10.18,30.47,10.14,30.31-12-23.8-10.09-30-10.14-30.31Z" transform="translate(-79.04 -34)"/><path d="M168.26,57.33a53.93,53.93,0,0,0-5.59,16.56,54.13,54.13,0,0,0,.7,17.93c-.23-12.65,2.39-23.22,4.89-34.49Z" transform="translate(-79.04 -34)"/><path d="M117.26,88.23c-.74,0,10.77,2,12.78,2.29,11.13,1.79,12.46,2.49,11.55,2.24a39.39,39.39,0,0,1,9.72,4.78c-13.11-12-24.47-10.16-34-9.31Z" transform="translate(-79.04 -34)"/><path d="M121.64,98c-.24.06.85.07.64.07,4.62.19,9.14,1.14,13.7,1.8,9.48,1.37,14.56,1.68,13.91,1.52-9.48-1.69-17.75-5.45-28.25-3.39Z" transform="translate(-79.04 -34)"/><path d="M290.08,82.9c-1.58,7.38,1.39,12.68,1.15,20.57-.21,4.88-2.6,18.56-2.11,16.58,1.6-6.54,4.52-11.8,4.8-18,.26-5.67-2.11-10.32-3.29-15.24h0a20.75,20.75,0,0,1-.53-3.89s0,0,0,0Z" transform="translate(-79.04 -34)"/><path d="M303.16,87.29c0,3.86-1.14,7.89-2.43,12l.06-.22c-1.58,5.07-3.62,9.38-3.33,9.09,5.52-8,7.62-12.53,5.7-20.91Z" transform="translate(-79.04 -34)"/><path d="M316.55,107.71A28.19,28.19,0,0,0,307,113c1-.63,2-1.17,1.75-1.05,8-4.27,18.75-5.31,18.4-5.39a28.47,28.47,0,0,0-10.64,1.14Z" transform="translate(-79.04 -34)"/><path d="M308.09,117.28a59.17,59.17,0,0,0-12.87,7c9.09-4.27,27.1-9.61,26.91-9.61a46.12,46.12,0,0,0-14,2.66Z" transform="translate(-79.04 -34)"/><path d="M232.36,124.94a22.72,22.72,0,0,1,2.55,6.54c.78,3.43,2.18,14.45,2.18,13.34.06-5.49.72-10.75-1.62-15.78-1-2.23-3.22-4.43-3.11-4.1Z" transform="translate(-79.04 -34)"/><path d="M239,126.22a48.16,48.16,0,0,1,1.17,6.54c1.16-4.28-1.25-6.73-1.15-6.56a0,0,0,0,0,0,0Z" transform="translate(-79.04 -34)"/><path d="M244.62,143.68a6.87,6.87,0,0,0-1.93,4.28,11,11,0,0,1,1.07-2.25,10.08,10.08,0,0,1,3.65-3.35c.77-.4,1.21-.53,1-.53a7.08,7.08,0,0,0-3.82,1.85Z" transform="translate(-79.04 -34)"/><path class="cls-3" d="M320.82,97.77c-3.69,2.42-7.34,4.89-10.87,7.53-19.18,14.37-27.23,30.32-27.12,30.16,10.16-15.47,22.65-25.27,38-37.69Z" transform="translate(-79.04 -34)"/><path class="cls-3" d="M136,82.5A46.33,46.33,0,0,1,159,100a44.68,44.68,0,0,1,5.84,12.19c-4-28.18-30-30.07-28.83-29.67Z" transform="translate(-79.04 -34)"/><path class="cls-3" d="M247.58,117.75c-.79,10-3.92,16.42-6.81,24.19-4.59,12.29-3.89,20.34-3.89,19.24,3-15.36,10.06-22.19,10.7-43.43Z" transform="translate(-79.04 -34)"/><path class="cls-3" d="M261.74,144.12a11.4,11.4,0,0,0-4.23,1c-.27.1.95-.07,1.11-.09-2.11,1.11-2.59,2.55-2.31,4.82a13.83,13.83,0,0,1-1.26,1c-.91.7-.88,1-.8.91a.77.77,0,0,1,.23-.21h0A25.17,25.17,0,0,0,257,150.5c.53-.38.14-1.39.72-2.75s2.34-1.95,4.25-2.75a.47.47,0,0,0-.18-.88Z" transform="translate(-79.04 -34)"/><path class="cls-3" d="M163.67,34.28a44.66,44.66,0,0,0-16.62,5.34c-18.79,10.73-10.5,23.32-21.1,31.53-.11.16,4.29-1.77,7.11-7.25,3-5.82,4.17-17.86,22.71-24.59,27-9.39,46,10.53,36.44,30.54-2.64,5.31-6.73,10.48-10.38,15.78-9.33,13.56-7.89,20.67-7.85,20.51,1.16-15.9,18.74-25.93,22.59-41.27,3.79-15.1-7.91-33.35-32.9-30.59Z" transform="translate(-79.04 -34)"/><path class="cls-3" d="M114.64,74.26c-11.54,6-42.12,9.15-34.35,30.7,6.51,18,25.15,17.49,43.79,14,14.74-2.76,16.45-2.61,15.11-2.47,10.86-.83,14.74,2.67,13.83,2-18.13-13.57-52.73,7-65.88-11.44-12.58-19,15.21-23.81,27.52-32.73,0,0,0,0,0,0Z" transform="translate(-79.04 -34)"/><path class="cls-3" d="M165.11,124.21c7.87,12.12,10,26.17,16.6,41.67,41.23,96.94,57.66,119.59,4.11-.28-6.65-14.91-11.57-30.66-20.67-41.42h0s0,0,0,0Z" transform="translate(-79.04 -34)"/><path class="cls-3" d="M172.62,115.81c6.5,26.53,20,50.12,32.58,76.41,15.08,31.48,16.35,37.63,16.3,37.46-8.76-43.48-34.32-66.59-48.88-113.87Z" transform="translate(-79.04 -34)"/><path class="cls-3" d="M229.09,112.82a20.17,20.17,0,0,0-8.71,5.87c-9.85,10.9-5.07,22.34,3.59,34.05.13.16,9.38,12.4,9.27,12.24a20.07,20.07,0,0,0,1.45,2.16c-7.25-15.38-25.6-31.68-11.67-48.07-1.06,1.23,4-5.59,10.46-6.14h.06a10.65,10.65,0,0,1,4.77.87,10.73,10.73,0,0,0-9.22-1Z" transform="translate(-79.04 -34)"/><path class="cls-3" d="M251.4,105.17c-3.63.91-4.82,2.71-5.55,6.12-1.55,7.28,0,1,1.15-1.35a4.82,4.82,0,0,1,3.67-3c-.4,11.32,13.26,10.52,13.73,13.42a5.46,5.46,0,0,1-.65,2.15c-2.95,5.74-5.61,6.43-4.55,8.5s5,.27,8.24,2.85c3.32,3.23-3.07,9.61-8.93,11.76h0l-.53.19s0,0,0,0c11.14-1.59,18.51-12.07,8.4-16.45-3.39-1.45-1.41,1,1.38-5.89,1.13-2.8.75-5.54-1.9-7.13-4.63-2.79-13.24-1-13.46-10.37a.85.85,0,0,0-1-.86Z" transform="translate(-79.04 -34)"/><path class="cls-3" d="M254,151.8a20,20,0,0,0-11.41,5.81c-5.2,5.61-4.07,12.94-4.06,11.93,2.56-12.2,15-17.38,15.47-17.74Z" transform="translate(-79.04 -34)"/><path class="cls-3" d="M239.86,173.56c-3,8.53-4.37,18.24-4.93,27.29-.22,3.6-.58,28.37-.54,28.2,3.41-24,2.46-41.44,5.51-55.47,0,0,0,0,0,0a0,0,0,0,0,0,0Z" transform="translate(-79.04 -34)"/><path class="cls-3" d="M234,171.41a402.91,402.91,0,0,0-3.56,52.74c2.47-15,3.47-21.78,3.56-52.74Z" transform="translate(-79.04 -34)"/><path class="cls-3" d="M284.32,122.59c-3.31,16.85-16.39,23.91-30.49,56.17a191.73,191.73,0,0,0-13.16,42.29c17.87-62.17,41.87-72.89,43.69-98.45,0,0,0,0,0,0a0,0,0,0,0,0,0Z" transform="translate(-79.04 -34)"/><path class="cls-3" d="M283.89,61.15a24.59,24.59,0,0,0-12,6c-11.25,9.71-10.76,20-2.69,32.1,1.15,1.73,11.12,15,10.9,14.63a49.26,49.26,0,0,1,3.18,5.4c-5.13-15.58-29.8-34.06-7-50.17C295.86,56,314,82.67,327.72,93.34a0,0,0,1,0,0,0c-7.36-8.25-21.57-35.65-43.86-32.16Z" transform="translate(-79.04 -34)"/><path class="cls-3" d="M334,94.63c10.93,7.56,37.79,10.39,30.4,26.58-6.77,12.52-40.45,6.3-54.22,9.56,0,0,0,0,0,0a44,44,0,0,1,8.67.28c14.68,1.51,47.05,8.28,51.25-11.43,3.37-15.77-13.71-19.26-29.06-22.93a54.62,54.62,0,0,1-7.05-2.1Z" transform="translate(-79.04 -34)"/><path class="cls-3" d="M301.47,131.2c-18.41,2.22-29.81,21.73-37.29,38.72-4.76,10.79-23.05,61.63-23.1,61.8-6.36,19.64-5.67,33.29-5.67,33.13,2.85-31.8,35.5-104.26,33.09-99.45,16.79-34,31.39-33,33-34.2Z" transform="translate(-79.04 -34)"/><path class="cls-3" d="M224,253.78c12.72,30.9,2.27,98.62,13.88,203.09,0,0,0,0,0,0-6-84.51-5.13-144.46-5.35-156.37-.59-33-8.79-47.6-8.57-46.72Z" transform="translate(-79.04 -34)"/><path class="cls-3" d="M235.31,269c2.2,88.55-.09,137,9.75,189.26,0,0,0,0,0,0-9.55-72.71-4.78-122.84-9.79-189.24Z" transform="translate(-79.04 -34)"/><path class="cls-3" d="M239.06,459.28c2.13,1.87,5.82,5.22,5.64,5a10.16,10.16,0,0,0-5.64-5Z" transform="translate(-79.04 -34)"/><path class="cls-3" d="M226,232c.34,1.35,4.52,17.2,6.23,16.86.78-.17.54-1.32.55-1.12-1.15-16.57-.66-10.91-1.07-5.45-.29,3.9.9,3.45-5.67-10.3h0s0,0,0,0Z" transform="translate(-79.04 -34)"/><path class="cls-3" d="M240.83,223.72a48.88,48.88,0,0,0-5.43,12.94c-.08-3.11.39-8.68-.66-.71a18,18,0,0,0-.06,4.15.55.55,0,0,0,1.06.05c1.92-6.27-3,9.61,5.09-16.43Z" transform="translate(-79.04 -34)"/></svg>