<svg id="Layer_1" data-name="Layer 1" xmlns="http://www.w3.org/2000/svg" viewBox="0 0 313.11 437.58"><defs><style>.cls-1{fill:#799943;}.cls-2{fill:#d3ef7b;}.cls-3{fill:#acd362;}.cls-4{fill:#161616;}.cls-5{fill:#9bbf55;}</style></defs><path class="cls-1" d="M302.64,306.75c-.71,0-3,1.53-3.8,2.16a24.79,24.79,0,0,0-3.21,3.15c-3.76,4.32-3.43,5.17-3.22,3.3.13-1,.5-1.87-.28-2.38a.93.93,0,0,0-1.21.18c-2.52,3-3.92,6.6-5.46,9.81a17.62,17.62,0,0,1-.47-3.84,1.07,1.07,0,0,0-1-1.11,1,1,0,0,0-1,.81c-.61,2.89-1.53,5.72-2.33,8.5,0-1.09-.44-1.52-1-1.52-.94,0-1,1.17-1,1.11-.88,6.84-4.25,13.9-4.32,20.58l-.1.17a1.18,1.18,0,0,0,.36,1.52.91.91,0,0,0,.93,0,1.07,1.07,0,0,0,.82-1.05,16.65,16.65,0,0,1,6.63-5.73c4.33-2.37,5.09-2.33,5.09-3.4,0-.66-.45-.91-.78-1.18a16.57,16.57,0,0,0-1.6-1.42,2.65,2.65,0,0,0-.5-.27l.12-.1c2.94-2.41,5.81-3,8.83-5.68a1.15,1.15,0,0,0,.25-1.08c-.2-.82-.73-.69-1.71-1.14-.17-.08-.93-.46-1.54-.7a5.26,5.26,0,0,1,2-1.77,1.14,1.14,0,0,0,.63-1.63l1.67-.76a17.49,17.49,0,0,0,5.15-3,1.13,1.13,0,0,0-.71-1.89c-.74,0-1.69-.39-3-.55,2.09-5.2,7.69-8.62,6.66-10.56a1,1,0,0,0-.87-.56Z" transform="translate(-73.89 -25.25)"/><path class="cls-1" d="M320.54,303.44c-1.85,0-9.25,9.91-12.06,12.59a22.44,22.44,0,0,1,.84-5.41,1.11,1.11,0,0,0-1-1.41c-.78,0-1,.48-2.53,5.44-1.22,4.06-3.47,10.94-6,14.17a12.39,12.39,0,0,1-.67-2.23c0-.36.07-1-.52-1.38a1,1,0,0,0-1.22.17c-2.86,2.94-6.09,16.36-9.1,17.13-.44,0-.36-.11-.67-.11a1.09,1.09,0,0,0-1,.83,12.28,12.28,0,0,0-.44,4.55c-.39.54-.63.9-.52,1.42a1,1,0,0,0,1.86.33c2-3.39,7.27-4.2,6.77-6.19a1,1,0,0,0-.69-.77c.11-.07.41-.33.35-.28,5.27-4.41,13.28-6.87,12.78-8.82-.24-1-1.17-.8-1.61-.8-.92,0-.77.11.28-.51a31.34,31.34,0,0,0,3.92-2.51,1.15,1.15,0,0,0-.24-2,10.29,10.29,0,0,0-3.44-.55c3.94-2.63,8.11-3,11.41-6.17a1.2,1.2,0,0,0,.26-1.08c-.25-1-1.07-.79-2.64-.93h-.1a14,14,0,0,0-2.06-.12c2-4.83,5.91-9.13,8.9-13.63a1.14,1.14,0,0,0-.9-1.69Z" transform="translate(-73.89 -25.25)"/><path class="cls-1" d="M299.91,358.48c-10.24,0-16.78,13.6-16.48,14.8a1,1,0,0,0,1,.81.9.9,0,0,0,.89-.63h0a22.08,22.08,0,0,1,2.36-2.62c3.05-2.53,6.1-2.91,9.45-3.55h0c5.59-.8,10.82-1.23,14.59-6a1.23,1.23,0,0,0,.26-1.08,1,1,0,0,0-1-.81c-3.82.33-7.24-1-11.07-1Z" transform="translate(-73.89 -25.25)"/><path class="cls-1" d="M244.88,363.7a9.06,9.06,0,0,0-7.46,3.81,1.31,1.31,0,0,0,.5,2c8.89,2.33,15.07,2.85,22.88,7.34.91,1.33,2.38-.08,1.74-1.13-3.51-5.74-11.2-12-17.66-12Z" transform="translate(-73.89 -25.25)"/><path class="cls-2" d="M274.51,348.17c-3.89,14.75-5.93,26.84-4.88,42.19.3,4.36.45,3.76-.29,1.86-1.07-2.72-3.08-6.6-4.41-9.14-1.19-3.32-2-5.83-4.31-8.4-.77-.86-2.14.12-1.57,1.34,2.5,5.32,3.48,6.49,4.61,9.44,4.48,11.66,7.23,10.47,8.61,37.42-.18,16.64.61,8.38-.4,23.36-.32,4.74-.55,9.49-.5,14.24a1.16,1.16,0,0,0,.29.78c.45.49.75.31,2.55,0,1.14-.34.84-.39.22-24,.29-7.91-.17-13.18-.14-15.24.81-.51.44-1.3.08-3.8a116.42,116.42,0,0,1,3.13-25c1.72-6.84,2.93-13.2,7.32-18.58.87-1.08-.39-2.38-1.21-1.74-3.66,2.9-5.63,7.79-7.06,12.54,2.18-13.06,4.44-24.52,10.65-35.74.6-1.09-.83-2.44-1.73-1.11a54,54,0,0,0-6.9,12.88,100.49,100.49,0,0,0-6.9,29.73c-.88-12.35-.37-22.92,4.76-42.38a1,1,0,1,0-1.92-.59Z" transform="translate(-73.89 -25.25)"/><path class="cls-3" d="M291,364a9.75,9.75,0,0,0-4.21,6.12c3.68-5.87,7.57-3.88,14.44-4.9,5.18-.78,7.63-3,7.55-3-5.31,1.82-11-2.42-17.78,1.76Z" transform="translate(-73.89 -25.25)"/><path class="cls-3" d="M244.12,367.22a25.17,25.17,0,0,0-4.25.9c5.83,3.26,12.42,2.85,16.25,4.58a8.82,8.82,0,0,1,3.08,2.42c-1.41-4.78-7-9.05-15.08-7.9Z" transform="translate(-73.89 -25.25)"/><path class="cls-3" d="M307,329.12c-1.9.48-3.84.66-5.72,1.22a1.48,1.48,0,0,0-.56,2.35,3.58,3.58,0,0,1,.58.8c-10.45,4.45-9.59,9.49-9.58,9.43a4.92,4.92,0,0,1,.64-1.3c1.34-2,4.56-2.66,6.64-3.16a15.71,15.71,0,0,0,4.46-1.74,9.83,9.83,0,0,0,1.89-.82c1.16-.8,1.45-3.13,0-3.83a11.78,11.78,0,0,1-1.27-.67c3.14-2.24,2.69-2.09,2.92-2.28Z" transform="translate(-73.89 -25.25)"/><path class="cls-3" d="M320.21,306.63c-3.49,2.59-7,5.75-8.63,10.14a5.89,5.89,0,0,0-.17,4.23c-.77.4-1.53.8-2.27,1.26-4.21,2.63-4.16,5-4.12,4.89,1.39-2.12,4.53-2.39,7-2.75l-.25,0c1.75-.25,4-.07,5.34-1.55a2.4,2.4,0,0,0,0-3.12,2,2,0,0,0-1.41-.65,4.16,4.16,0,0,0-1.24.26c-.1,0-.34,0-.37-.13-.09-2.22,6.51-13.34,6.09-12.61Z" transform="translate(-73.89 -25.25)"/><path class="cls-3" d="M306.9,312.22c-.67,2-4.74,15.12-4.49,14.28,3.8-3.78,4.08-9.39,4.49-14.28Z" transform="translate(-73.89 -25.25)"/><path class="cls-3" d="M297.87,325.49a16.79,16.79,0,0,0-4.72,6.67,61.63,61.63,0,0,0-2,8.25c4.54-6.05,4.64-7.47,7-12.63a10.36,10.36,0,0,1,.55,2.13s0,.16,0,.11a14.14,14.14,0,0,0,.1-3.9c0-.53-.57-.95-1-.63Z" transform="translate(-73.89 -25.25)"/><path class="cls-3" d="M282,321.1a49.14,49.14,0,0,0-1.63,5.18,2.15,2.15,0,0,0-1.81-.24,2.64,2.64,0,0,0-1.69,1.86,2.8,2.8,0,0,0-.06,1.11,5.19,5.19,0,0,0,.29,1.49c.13,1.87-.79,4.88-1.2,8-.7,5.35-.52,7.44-.48,7.27,1-4.5,2.23-6.2,4.16-11.91,1,.31,1.8-.5,2.18-1.52,1.22-1.79,1.92-5,2.22-7.23.27.36,1.86,2.38,1.83,2.3s-1.32-6.07-1.39-6.32a1.23,1.23,0,0,0-2.42,0Z" transform="translate(-73.89 -25.25)"/><path class="cls-3" d="M295.09,314.26c-.57.51-1.13,1-1.68,1.61a2.05,2.05,0,0,0-3.85-.63,72.54,72.54,0,0,0-3.29,11c1-1.41,2.08-2.82,3.15-4.2.16-.22.32-.43.49-.64l.12.37c.76,2.07,2.66,2.21,3.67,1.06,2.59-2.93,4.78-9.2,7.23-11.89a14.76,14.76,0,0,0-5.84,3.33Z" transform="translate(-73.89 -25.25)"/><path class="cls-3" d="M289.5,328a4.61,4.61,0,0,0,.67,1.87,13.41,13.41,0,0,0-3.14,1.53,8.2,8.2,0,0,0-3.29,4.37,7,7,0,0,1,1.71-1.1h0c.15-.07.12-.06,0,0,2.28-1.05,4.74-1.51,7.31-3.95a.89.89,0,0,0-.86-1.48,1.79,1.79,0,0,1-1.55-.33c-.28-.25-.91-1-.85-.91s0,0,0,0Z" transform="translate(-73.89 -25.25)"/><path class="cls-3" d="M284,338.78c.61.68.91.41,0,.85a27.43,27.43,0,0,0-4.22,2,8,8,0,0,0-3,3.82c2-1.9,5.74-2.37,8.4-5.82a.26.26,0,0,0-.05-.39,5.24,5.24,0,0,0-1.07-.45,0,0,0,0,0,0,0Z" transform="translate(-73.89 -25.25)"/><path class="cls-4" d="M245.61,364.45a14.8,14.8,0,0,0-6.2,2.2,10.66,10.66,0,0,1,4.3-1.31c12.91-1.64,16.94,6.29,22.09,19.11,3.32,8.25,4.5,10,4.47,10-6.18-12.4-8.34-31.86-24.66-30Z" transform="translate(-73.89 -25.25)"/><path class="cls-4" d="M245.92,370.07c8.94,2.13,10.68,4.45,10.33,4.07-4.47-4.69-10-5-16.06-5.4,0,0,0,0,0,0Z" transform="translate(-73.89 -25.25)"/><path class="cls-4" d="M258.67,376c15.14,29,13.19,35,13.19,33.93,1-13.63-13.22-34-13.19-33.93Z" transform="translate(-73.89 -25.25)"/><path class="cls-4" d="M271.05,409.38c.07.14.14.28.2.42h0c3.66,8,.69,21.46,1,52.1,0,.4,3.59.35,3.27-.18a8.5,8.5,0,0,1-.92-3,2.93,2.93,0,0,0-.42-1.1,5.56,5.56,0,0,1,.28.93,8.66,8.66,0,0,0,.72,3.15,9.23,9.23,0,0,1-2.63,0c-.12-3.36.22-22.43.25-23.26.27-8.34,2.21-22.13-1.76-29.11h0Z" transform="translate(-73.89 -25.25)"/><path class="cls-4" d="M296.29,359.33a13.77,13.77,0,0,0-8.47,5.61,35.11,35.11,0,0,0-4,7.11c8-13.2,13.29-12.73,26.21-10.2-3.37,3-8.63,2.39-13.1,2.83-9.65,1-15.38,10.75-18.68,20.84-7.36,22.58-1.83,28.8-3.46,52.8-1,14.35-.32,18.26-.32,17.94a146,146,0,0,1,.84-15.11c1.52-17.95.82-15.64.18-28.61-.85-17.09,5.5-45.12,21-46.63,4.6-.45,11.68.8,15.41-4.06a.77.77,0,0,0-.38-1.21c-5.42-1-10.91-2.19-15.2-1.31Z" transform="translate(-73.89 -25.25)"/><path class="cls-4" d="M281.53,373.34c-5.52,10.15-8.12,26.91-8.11,26.84-1.12-4.71.13-6,.1-5.95a4.4,4.4,0,0,1,.59-.75c.38-.37-.26.15-.59.55a4.77,4.77,0,0,0-.91,2.85,14.29,14.29,0,0,0,.34,3.39c1.27,6.49,1.07-10.78,8.58-26.93Z" transform="translate(-73.89 -25.25)"/><path class="cls-4" d="M295.87,312c-1.53,1.66-3,3.69-4.06,5a15,15,0,0,1,.33-3.15.51.51,0,0,0-.11-.58c-1.33-1.21-5,7.58-6.66,10a8.67,8.67,0,0,1-1.08-4.37.58.58,0,0,0-.61-.57c-.81.07-1.7,3.15-1.93,4a36.38,36.38,0,0,1-1.41,5.21c-.71-1.56-.6-1.72-.95-1.79-1.46-.32-5.45,20.95-5.39,20.73,2-6.29,3.39-14,5.28-19,.62,1.49.54,1.71.92,1.79a.43.43,0,0,0,.46-.17c1.55-2.36,1.66-5.51,2.66-8.12.26,1.31,1.55,4.89,2.44,3.72,2.22-2.89,3.16-6.72,5.27-9.55a24.34,24.34,0,0,1-.26,3.11.48.48,0,0,0,.47.58c1.15-.12,5.78-8.84,9.93-9.09-1.52,3-3.75,5.29-4.58,8.84h0c1.41-4.07,7.28-9.42,5.38-9.8-2.34-.46-4.41,1.31-6.12,3.15Z" transform="translate(-73.89 -25.25)"/><path class="cls-4" d="M296.7,320.05a11.3,11.3,0,0,1,2.13.07c-1.77,3.5-4.64,1.37-7.85,5.44a3.85,3.85,0,0,0-1,2.36c.17,1.73,2.83,1.34,3.18,1.93.19,1.28-5.52,2.91-7,4.28-.72.68-2.22,1.78-2.34,2.88a2,2,0,0,0,1.18,1.71,6.44,6.44,0,0,0,1.79.45,12.74,12.74,0,0,1-1.51,1.33c-3.13,2.32-6.55,3.38-8.6,6.5a13,13,0,0,0-1.83,6.67c1.34-8.06,6.12-8.21,10.69-11.84.47-.37,2.81-2.37,2.76-3,0-.47-.41-.53-.85-.66a7.36,7.36,0,0,0-2-.38,2.41,2.41,0,0,0-.49-.68,6,6,0,0,1,.44-.56c2.44-2.8,3.48-2.37,6.73-4.17a7.47,7.47,0,0,0,1.26-.84c1.24-1.05,1.27-2.63-.53-3.16a7.39,7.39,0,0,1-1.73-.49.45.45,0,0,1-.07-.07c-.06-.19.22-.71.33-.88a7.58,7.58,0,0,1,2.53-2.68c1.46-.8,3.09-1.07,4.31-2.43.33-.36,1.33-1.94.87-2A7.25,7.25,0,0,0,296.7,320.05Z" transform="translate(-73.89 -25.25)"/><path class="cls-4" d="M321.2,303.67c-5.25,2-8.2,7.65-11.8,11.22a9.85,9.85,0,0,1,.44-3.3,11.51,11.51,0,0,0,.41-2.88.79.79,0,0,0-.4-.65.69.69,0,0,0-.73.05c-5.82,3.38-5.66,12.84-9.07,18.11,0-.4-.09-.79-.13-1.17a5.92,5.92,0,0,1-.05-.84.75.75,0,0,0,0-.3.54.54,0,0,0-.7-.37c-4.06,1.73-7.77,14.52-10.68,19-.18-.43-.34-.87-.53-1.3a.15.15,0,0,0-.29,0,13.87,13.87,0,0,0-1.14,5.15,14.32,14.32,0,0,1,1.26-4.66c.28.81.51,1.8.82,1.41,2.76-3.55,6.74-15.4,10.18-18.05a12.19,12.19,0,0,1,.05,2.87.69.69,0,0,0,.5.82.56.56,0,0,0,.48-.11c4.93-4.73,4.47-14.32,8.89-18.32-.35,2.09-1.15,4-.15,6.16a.6.6,0,0,0,.89.19c3.89-3.72,6.6-9.2,11.19-11.54a12.94,12.94,0,0,1-1.31,2.91c-1,1.65-2.63,3.66-3.77,5.17-.93,1.23-4.4,6.23-3,6.34,1.6.13,3.73.08,5.21.78-3.81,2.64-9.11,2.69-12.28,7.11-.29.41,0,.9.38.84a12.83,12.83,0,0,1,3.24.33c-1.51,2.19-7.33,3.48-6,4.81.45.43-.16-.39,3,1.06.25.11-5.64,2.14-6.4,2.42a16.28,16.28,0,0,0-7,4.43.55.55,0,0,0,.27.87l1.06.43c-.83.69-1.8,1.34-2.48,1.85a10,10,0,0,0-2.87,2.95c1.46-1.55,2.83-2.1,5-3.48,2.56-1.63,1.78-1.74.3-2.44,4.58-4.24,14.26-5.41,14.13-7.14,0-.51-.49-.51-.84-.63-.58-.23-1.14-.51-1.71-.75-.87-.37-.93-.2-.43-.48,1.9-1.06,4.35-1.8,5.24-4.18a.58.58,0,0,0,0-.53c-.2-.33-.47-.21-.89-.22-.81-.06-1.7-.29-2.56-.35a10.54,10.54,0,0,1,2.64-2.08c2.41-1.33,9.61-3.55,9.52-4.91-.05-.73-2.29-1.27-3.13-1.39s-1.73-.16-2.6-.22c2.17-5.16,7.48-8.73,8.58-14.37a.55.55,0,0,0-.69-.65Z" transform="translate(-73.89 -25.25)"/><path class="cls-4" d="M289.59,347c-8.53,7.13-11.21,24-13.65,36.31-2.37,12-2.2,10.35-.26,2.76,1.1-4.32,1.67-7.47,2.57-11.7,3.68-17.35,7.61-22.63,7.57-22.56a24,24,0,0,1,3.77-4.81Z" transform="translate(-73.89 -25.25)"/><path class="cls-4" d="M286,346.87c-12.72,24.95-11.35,41.14-11.35,38.93,1.17-10.29,4.7-24.21,11.35-38.93Z" transform="translate(-73.89 -25.25)"/><path class="cls-4" d="M274.78,353.72c-.8,3.54-1.57,7.09-2.21,10.68-3.47,19.36-.52,28.74-.7,27.93-1.28-10.46,1.22-27.82,2.91-38.61Z" transform="translate(-73.89 -25.25)"/><path class="cls-4" d="M274.16,350.78c-8.64,17.15-3.84,43.63-3.84,42.37-2.47-27.16,3.83-42.31,3.84-42.37Z" transform="translate(-73.89 -25.25)"/><path class="cls-1" d="M271,26.58a1.6,1.6,0,0,0-1.38.8,38,38,0,0,0-3.82,7.31C263.3,41,262.4,48.18,261,54.63l-.18-.62L259.7,51.5a13.32,13.32,0,0,1-.58-1.27c-.78-1.71-1.46-3.21-2.27-4.63a1.62,1.62,0,0,0-2.94.38,25.77,25.77,0,0,0-.28,10.38c1.83,12.4,11.48,26,9.25,36.65l-.2-.36a14.61,14.61,0,0,1-2.34-2.47l-.06.24c-2.14-4-3-3.89-6.53-10.51-4.18-7.93-12.3-28.47-23-28.47-7.52,0-.81,13,2.52,19.68l.65,1.29c-.2-.19-3.32-.15-.09,6.13a29.15,29.15,0,0,0,4.75,6c2.26,2.34,1.71,1.58,1.39,2.07-4,5.79-2.76,13.75-2.93,19.93-1.89-3.07-3.51-4-7.54-13.46l-.16.21c-.05-.2-9.19-26.66-9.72-27.17a1.6,1.6,0,0,0-2.57.4,2.44,2.44,0,0,0-.47,1.48c-.42,4.34,1.83,27.17,3.6,32.41a31.1,31.1,0,0,0,2.92,6.29c6,10,24.74,24.26,24.53,24.09,17.77,14,10.31,9.52,13,10.82a1.58,1.58,0,0,0,1.66.12c0,.21-2.35,23.41-2.33,23.21-7.07,74.46,2.85,252.59-4.09,142C251.94,244.06,230,250,243.28,215.65c2.58-6.73,4.15-10.33,4.21-18.19,0-2.79-.67-11.38-1.12-12.13a1.45,1.45,0,0,0-1.28-.74,1.43,1.43,0,0,0-1.31.74c-1.72,3.65-4.89,10.16-4.79,9.95-3.61-5.34-3.64-11.3-3.69-18.1-.16-6.31-.13-13.94-2.65-13.94-1.66,0-1.58,1.8-1.81,3.47-.37,2.76-2.28,16.95-4.52,18.7-.08-.2-.42-.11-.74-2.16-.66-5.51.43-11.34-.83-15.26-1.16-3.72-3.07-7-5-11a1.5,1.5,0,0,0-2.8.75c-1.22,10.06,1.64,19.63.63,29.32-5-5-7.56-13.14-9.77-13.14-1.64,0-1.7,1.81-1.7,4,0,6.37,4.13,12.07,5.52,18.15a11.49,11.49,0,0,0-1-.82l-.42-.32.25.3c-8.45-6.85-10.37-11.65-12.35-10.49-2.47,1.41,3.07,11.58,4.32,13.76,6.39,11.15,6.27,11.6,6.24,11.55a77.42,77.42,0,0,1-13-7.14,1.5,1.5,0,0,0-1.52,0,1.56,1.56,0,0,0-.71,1.7c.47,3.1,2.9,5.82,5.24,7.89,7.69,6.79,28.3,16.81,34.23,24.37,1.71,2.29,2.16,4.27,3.87,3.33,4.51,23.4,13.55,16.91,16.63,77.43l0,.31c2.17,44.43,6.24,40.1,5.35,49.91l-.14-.29c-12.86-14.32-16.21-66-82.89-98.43-18.78-9.12-37.31-12.45-55.66-10.82-.58.05-1.31.18-2,.18a1.57,1.57,0,1,0,0,3.13c6,0,6,0,5.94,0,44.54,1.09,65.67,21.88,61.08,18.44,28.71,21.48,41.8,28.54,57.71,66.29l.07-.29c.12.3,8.51,22.23,12.26,30.72,3.63,8,6.06,9.42,5.92,9.22,4.43,34.9-1.18,82.3,5.19,76.14,1.72-1.68,3.29-3.47,4.94-5.23a1.51,1.51,0,0,0,.38-1.45c-7.77-21.88-1.52-46.67-4.6-70.18,4.29-5.3,4.25-19.37,4.07-25.74,3-19.9,3.27-38.82,6.89-58.59,16.18-51,56.17-74.57,107.5-71.77a1.59,1.59,0,0,0,.4-3.12c-24-4.76-52.25-.84-74.83,13.8-22.24,14.52-31.3,34.56-36.14,60.27-12,38.52-5.51,51.23-7.72,63.69-.9-13.43-2.78-41.55-3.68-53.72l.08-2.14c1.93-48.63-1.06-22.83.5-83.24,0-1.31.13-4.56.12-4.24,1.35-52.84-1.25-48.3.58-62.31l-.19.17c1-4.17,1.54-8.5,4.24-12.49,24.48-8.11,50.1-12,65.37-33.1a1.62,1.62,0,0,0-1.39-2.43c-1.71,0-16.27,5.21-22,6.92l3.21-3.25c8.44-8.53,18.52-15.76,26.85-23.71a1.61,1.61,0,0,0-1.56-2.69C323.67,90.28,311,102.59,298.86,111l.2-.35c.3-1,.51-2.09.71-3,1.69-8.31,2-9.92.34-10.33-2.56-.81-12.36,18.13-12,17.42-16.14,29.45-22,26.15-22.75,29.11l-.36.09c.2-2.62.48-5.23.64-7.86.18-2.89-.23-6.4.45-9.18s3.36-4.89,4.91-7.24c1.79-2.72,3.31-5.6,4.84-8.47,2.7-5.06,5.38-10.6,9.95-14.26a57.62,57.62,0,0,1,7.61-4.59C298.37,89.65,303.49,87,306.3,82a1.61,1.61,0,0,0-.94-2.34,17.38,17.38,0,0,0-8.27-1.12c8-10.88,13.28-14.45,14.18-22.42a1.61,1.61,0,0,0-2.42-1.39c-24,15.59-24.55,31.9-35.35,41.23.22-3.24-4.36-4.28,4.18-29.67l.67-2.06c2-6,4.36-13.25,4.56-19.21a1.61,1.61,0,0,0-.79-1.38c-2.41-1.4-4.17,4.44-8.93,5.32l-.36-.23c-.09-.78-1.32.3-.55-12.9C272.65,29.47,273.18,26.58,271,26.58Z" transform="translate(-73.89 -25.25)"/><path class="cls-5" d="M294,115.2c-4.48,6.4-7.86,13.47-12.32,19.89-.23.35,6.28-4.87,12.73-17.36.13.64.25,1.29.35,1.94,0-.82.32,3.69.32,3a23.44,23.44,0,0,0,.32-7.14.76.76,0,0,0-1.4-.38Z" transform="translate(-73.89 -25.25)"/><path class="cls-5" d="M322.07,100.39c-11.93,3.1-17.09,13.73-23.05,21-1,1.51,22.66-20.83,21.56-19.82.91-.68,1.69-1.14,1.5-1.14Z" transform="translate(-73.89 -25.25)"/><path class="cls-5" d="M317.43,120.07c-16.39,4-14.7,3.2-23.38,9.08a43.32,43.32,0,0,1-7.1,4.12s.81.52,10.85-3.8h0c6.75-2.84,10-2.37,19.67-9.37,0,0,0,0,0,0Z" transform="translate(-73.89 -25.25)"/><path class="cls-5" d="M287,87.22c-3.6,4.17-7.64,7.94-11,12.31-6.61,8.55-7.72,16.52-7,14.68.87-1.49.61-2.93,8.79-13.65,7.65-10,9.1-13.13,9.24-13.34Z" transform="translate(-73.89 -25.25)"/><path class="cls-5" d="M301.45,64.51C288.21,73.14,288.14,84.65,288.78,83a149.44,149.44,0,0,1,12.67-18.49Z" transform="translate(-73.89 -25.25)"/><path class="cls-5" d="M295.22,83.21a14.68,14.68,0,0,0-6.46,4.24c6.42-3.33,15.69-4.69,14.47-4.69a20.36,20.36,0,0,0-8,.45Z" transform="translate(-73.89 -25.25)"/><path class="cls-5" d="M260.87,62.21c-7,12.36,8.17,25.09,5.92,47.74-.48,1.45,3.91-8.67,2.31-21.59-1.94-15.51-8.66-16.4-8.23-26.15Z" transform="translate(-73.89 -25.25)"/><path class="cls-5" d="M267.46,45.73c-1.69,8.67-4.57,16,.91,25.87a10.92,10.92,0,0,0-.17-1.4c-.8-6.18.62-12.83-.69-24.47l0,0,0,0Z" transform="translate(-73.89 -25.25)"/><path class="cls-5" d="M278.34,51.2c-2.41,4.45-6.1,8.61-5.31,14,0,0,.05,0,.05,0,.78-5,4.63-8.67,5.31-14a0,0,0,0,0,0,0Z" transform="translate(-73.89 -25.25)"/><path class="cls-5" d="M250.1,89.43c2.61,5.55,3.76,9.45,11.51,19.34a48.19,48.19,0,0,0-4.29-10.52c-2.21-4-7.5-9.39-7.22-8.82Z" transform="translate(-73.89 -25.25)"/><path class="cls-5" d="M232.88,60.79c2.16,6.21,4.29,13.8,10.58,17.15,0,0,0,0,0,0-2-2.69-3.16-5.91-4.68-8.86-3-5.86-5.76-8.05-5.93-8.25Z" transform="translate(-73.89 -25.25)"/><path class="cls-5" d="M236.56,77.42c2.49,1.93,5.36,1.74,5.17,1.61a13.65,13.65,0,0,0-5.17-1.61Z" transform="translate(-73.89 -25.25)"/><path class="cls-5" d="M221.29,79.32c2.49,10.65.46,27.38,13.34,33.85.2.14-.86-1.09-.75-1-5.8-7.6-5-22.74-12.55-32.92h0s0,0,0,0Z" transform="translate(-73.89 -25.25)"/><path class="cls-5" d="M242.31,98.63c.39,4.79.12,9.64.9,14.4,1.17,7.22,7.67,12.15,7.61,11.92-3.58-6.76-5.11-17.86-8.47-26.32,0,0,0,0,0,0s0,0,0,0Z" transform="translate(-73.89 -25.25)"/><path class="cls-5" d="M237.3,108c-.55,10.25,9.34,15.26,8.22,13.92h0c-4-5.3-8.29-14.15-8.21-13.95a0,0,0,0,0,0,0Z" transform="translate(-73.89 -25.25)"/><path class="cls-5" d="M223,189.07c1.07,15.19,1.22,32.25,12.63,43.85a0,0,0,0,0,0,0c-5.62-14.18-7.17-29.6-12.63-43.84l0,0s0,0,0,0Z" transform="translate(-73.89 -25.25)"/><path class="cls-5" d="M231.54,177.19c-.48,4.66-1.92,10.54-2.57,15.81-1.09,8.85,1.43,15.47,1.43,15a47.05,47.05,0,0,1,.42-6.71c-.46,2.57,3.37-14.74.77-24.14l0,0a0,0,0,0,0,0,0Z" transform="translate(-73.89 -25.25)"/><path class="cls-5" d="M242.55,200.4c-3.25,4.67-12.64,11.85-7.82,19.92.35.53-.75-1.64,1-5.72,2.21-4.87,5.88-8.78,6.91-14.18,0,0,0,0,0,0l0,0Z" transform="translate(-73.89 -25.25)"/><path class="cls-5" d="M209.09,213.22c3.84,5.32,10.31,6.26,15.3,10-.24-.24.92.79.87.66-3.57-6.58-10.73-8.23-16.14-10.74h0s0,0,0,0Z" transform="translate(-73.89 -25.25)"/><path class="cls-5" d="M208.51,200.57c3.84,6.62,11.53,12,11.47,11.77-2-6.93-6.69-9-11.44-11.8h0s0,0,0,0Z" transform="translate(-73.89 -25.25)"/><path class="cls-5" d="M213,187.36c1,9,6.42,11.81,6.28,11.61-2.8-5.43-1.87-5.27-6.28-11.61Z" transform="translate(-73.89 -25.25)"/><path class="cls-5" d="M321.37,238.85c-5.86,2.9-11.73,5.66-16.94,9.67-10.41,8-10.72,15.11-10.66,14.87,2.74-9.2,13.17-14.89,27.62-24.49,0,0,0-.05,0-.05Z" transform="translate(-73.89 -25.25)"/><path class="cls-5" d="M260.15,257.3c-1.3,14-3.2,20.36.08,34.68,0,0,0,0,0,0,.91-11,2.6-18.23-.09-34.68,0,0,0,0,0,0s0,0,0,0Z" transform="translate(-73.89 -25.25)"/><path class="cls-5" d="M261.25,309.94c-1.49,13.51-3.17,18.7,0,32,.05.19,1.43-11.34,1.41-16.21a94.29,94.29,0,0,0-1.44-15.75Z" transform="translate(-73.89 -25.25)"/><path class="cls-5" d="M269.23,371.06c-5.83,11.36-7.07,8.87-9.92,5.26,0,0,0,0,0,0,.82,10.22,11,5.76,10-5.26l0,0Z" transform="translate(-73.89 -25.25)"/><path class="cls-5" d="M262,356.47a31.28,31.28,0,0,0,1,16.09c1.08-7-.28-11.7-1-16.09Z" transform="translate(-73.89 -25.25)"/><path class="cls-4" d="M215.67,65c-2.55,8.68-1.29,18.59,1.28,27.3,9,30.59,27.43,35,36.39,42.93a26.72,26.72,0,0,1,6.26,8c-4.4-10.47-15-15.08-23-22.22l0,0c-11.89-10.87-21.61-35-18.5-52.64,7.05,6.74,10.24,18.69,13.42,29.38,0,0,.05,0,0,0C230,89,228.4,78.9,223.92,71.12c-1.14-2-4.91-7.13-6.72-7.13a1.58,1.58,0,0,0-1.53,1Z" transform="translate(-73.89 -25.25)"/><path class="cls-4" d="M242.62,82.65a21,21,0,0,0-4.5,11.66,15,15,0,0,0,3.67,11.49s.06,0,0,0l-.46-.65h0a13.84,13.84,0,0,1-1.45-3,15.58,15.58,0,0,1-.69-3.76,20.39,20.39,0,0,1,.33-4.58,19,19,0,0,1,3.15-7.28c3,22.12,16.48,47.3,16.36,47-2.24-8-2.72-11-6.78-24.93-8-27.6-7.13-26-8.14-26.38a1.35,1.35,0,0,0-1.54.5Z" transform="translate(-73.89 -25.25)"/><path class="cls-4" d="M256.63,111.25c6.89,10.63,2.76,4.32,8.89,13,.35.35-1.83-4.46-3.6-7.22-2.05-3.21-5.56-6.21-5.29-5.79Z" transform="translate(-73.89 -25.25)"/><path class="cls-4" d="M227.69,47.1C222.63,55,226.6,62.57,232.37,70c-.93-.34-1.44.1-1.42.6a17.41,17.41,0,0,0,7.66,13.68c-4.29-4-6.1-8.56-6.08-12.29,11.77,6.2-5.18-9.81-2-19.19,10.3,10.33,17.5,26,28.91,40.67,0,0,.05,0,0,0C252.11,80.18,246,57.25,231.35,46.43a2.64,2.64,0,0,0-3.66.67Z" transform="translate(-73.89 -25.25)"/><path class="cls-4" d="M271,25.74c-6.09,7-8.28,15.2-9.59,24.36A47.47,47.47,0,0,1,258.81,44c-1.06-3.18-.93-3.85-1.86-4.18-1.46-.51-2,1-2.89,3.14a20.47,20.47,0,0,0-1,2.93c-4.64,17.88,11,46.64,10.4,45.48-9-22.39-8.91-35-8.81-33.63a36.77,36.77,0,0,1,.53-9.54,24.27,24.27,0,0,1,.89-3.13c.4,1.23.85,2.45,1.33,3.65a37,37,0,0,0,3.77,7,1.56,1.56,0,0,0,1.51.51A1.62,1.62,0,0,0,264,54.86c1-6.71,1.73-14.77,5.82-22.89,1.71-3.25,1-3.37,1.53,7.11.94,17.12.64,14.12,1.14-.3.47-13.41,1-13.06-.18-13.47a1.16,1.16,0,0,0-1.31.43Z" transform="translate(-73.89 -25.25)"/><path class="cls-4" d="M281.16,42c-5.9,8.94-6.81,12.3-6.72,12a81.8,81.8,0,0,1,6.82-9.81c1.63,16.45-15.94,38-7.46,53.67,3.34,6.23,17.82-37.82,36-41.13-3.94,5.83-9.44,10.56-12.41,17,0,0,0,0,0,0a34.49,34.49,0,0,1,3.76-5c-1,1,8.86-8.6,11.55-12.74a1.07,1.07,0,0,0-.8-1.66c-16.43-.56-28.35,26.29-36.71,39.93-3.14-9.63,2.25-20.1,5.72-32.37,3.86-13.5,1.79-22.46.18-20Z" transform="translate(-73.89 -25.25)"/><path class="cls-4" d="M304.56,78c-4,.49-8.15,3.3-7.56,3.1a14,14,0,0,1,2.36-1h0a14.62,14.62,0,0,1,6.87-.86,1.72,1.72,0,0,1,1.3.86c.24,1-.71,2.57-1.38,3.38-2.77,2.8-10,3.84-14.76,6.49-7.83,4.45-17.28,26-17.17,25.83-2.93,5.68-4.92,8.27-4.6,8,9.43-9.72,17.77-26.43,23.78-30.49A38.35,38.35,0,0,1,298,90.85c5.16-2.35,10.88-4.39,11.33-9.88.14-1.9-1.15-3.46-4.72-3Z" transform="translate(-73.89 -25.25)"/><path class="cls-4" d="M299.64,93c-11.11,9.47-13.69,22-20.12,34.54l.14-.26a51.36,51.36,0,0,1-7.21,10.78h0c-2.31,2.56-4.63,4.41-4.2,4.12,15.69-10.17,20.73-30.54,31.66-43.83.79,5.91-3.05,16.88-2.38,15.55a98.08,98.08,0,0,0,4.36-9.5c1.2-3.36,2.27-10.81-.37-11.74a1.92,1.92,0,0,0-1.88.34Z" transform="translate(-73.89 -25.25)"/><path class="cls-4" d="M340.82,86.21c-.94.26-1.89.45-2.83.69-28.3,7.08-36.66,28.48-36.13,27.68C312.38,97,331.63,92.21,330.27,92.7c1.5-.49,3-1,4.5-1.37-.85.85-1.69,1.7-2.53,2.56-6.94,7.17-13.95,15.42-22.3,22.3,0,0,0,.06,0,0,12.17-7.18,20-15.42,30.61-25,1.74-1.59,3-2.47,2.28-4a1.86,1.86,0,0,0-2-1Z" transform="translate(-73.89 -25.25)"/><path class="cls-4" d="M334.72,110.7a59,59,0,0,0-10.45,3.38,34.66,34.66,0,0,0-9.55,5.89,44.71,44.71,0,0,1,17-6.92c-6.32,5.37-11.75,10.41-18.82,15.13-13.59,8.87-21.88,8.38-32.34,11.93-11.32,3.84-14.34,11.36-14.21,11.17,8.65-11.68,22-7.5,36.27-13,11.12-4.29,21-13.89,29.31-22.27,3.71-3.73,4.27-4,3.86-4.83a.94.94,0,0,0-1-.5Z" transform="translate(-73.89 -25.25)"/><path class="cls-4" d="M243,182.33c-1.83,3.3-2.7,8.34-3.26,12.23-.93-1.78-1.71-2.62-2.26-3.88,0-.12-.14,0,.43,1.45,1.13,3,.88,2.38.87,2.3.93,2.9.24,3.44,1,3.72,1,.37.82-.64,3.07-7.6.56-1.69,1.11-3.17,1.5-4.11a23.76,23.76,0,0,1,1.08,2.55c3.08,9.4-1,17.93-3.6,27.17-2.66,9.42-1.55,14.6-1.55,14.12-.41-15.35,13.09-27.05,7.89-42.22a25.63,25.63,0,0,0-2.68-5.54,1.47,1.47,0,0,0-2.53-.19Z" transform="translate(-73.89 -25.25)"/><path class="cls-4" d="M231.62,162.63c-4.48,16.25-3.37,20.05-3.25,19.67a25.14,25.14,0,0,1,.44-3.12c1.17-5.45,3.5-9.71,4.56-14.35,6.1,6.25.25,15.36,2.8,23.7a14.78,14.78,0,0,0-.15-1.67v0c-.26-4.58,1.2-9,1.62-13.55.83-9-5.35-13.13-6-10.71Z" transform="translate(-73.89 -25.25)"/><path class="cls-4" d="M216.62,155.42c-1.19.57-.87,1.66-.85,4.86,0,6.55-.83,13.36,2,19.22a14.46,14.46,0,0,0,4.84,5.67c-6.53-7.36-2.76-16.43-3.33-25.75,6.35,4.17,4.93,13.54,7.52,21,0,0,.06,0,0,0a44.49,44.49,0,0,1-.83-6.85c-.21-3.39-.3-6.86-1.3-10.12-1.73-5.65-6.68-8.65-8.07-8Z" transform="translate(-73.89 -25.25)"/><path class="cls-4" d="M208.07,171.31c-7.26,10.29,5.77,21.76,5.14,20.8-.62-.78-1.23-1.69-1.06-1.44-3-4.5-4.43-9.71-3.41-14.93,0-.15,0-.24.16.26,2.72,7.73,8.59,9.9,7.53,9.37a15.85,15.85,0,0,1-3.48-3.69c-4.42-6.78-2.06-10.17-3.69-10.75a1,1,0,0,0-1.19.38Z" transform="translate(-73.89 -25.25)"/><path class="cls-4" d="M198.19,181a1.21,1.21,0,0,0-.92.79c-2.63,8,6.3,18,11.26,23.69,1,.95-7.44-12.27-8.75-19.79,1.19,1.55,2.35,3.16,3.51,4.65,4.05,5.14,7.7,6.94,7.32,6.56-7.36-5.11-9.85-16.4-12.42-15.9Z" transform="translate(-73.89 -25.25)"/><path class="cls-4" d="M193.62,200.45a8.63,8.63,0,0,0,.21,5.7c2.15,5.83,14,10.13,13.8,10-2.67-2-5.49-3.82-8-6-2.24-2-3.95-4.17-4.18-7.14,0-.46-.37-.26,4.89,3.69,15,11.38,2.36,1.32-5-6.56a1,1,0,0,0-1.73.32Z" transform="translate(-73.89 -25.25)"/><path class="cls-4" d="M212.06,219.26c4.21,6.09,10.15,9.86,16.15,13.92a46.62,46.62,0,0,1,7.7,6.21c-4.07-6.24-9.62-9.3-15.43-13.15-6.19-4.11-8.58-7.22-8.4-7a0,0,0,0,0,0,0Z" transform="translate(-73.89 -25.25)"/><path class="cls-4" d="M236.78,241.87c6.81,27,14.46,30,17.22,75.37,0,.21,1.92,35,1.92,31.31-.63-12.14-.58-24.31-1.2-36.45-1.93-37.2-9.54-45.57-17.32-68.53-.07-.19-.67-1.95-.59-1.73a0,0,0,0,0,0,0Z" transform="translate(-73.89 -25.25)"/><path class="cls-4" d="M240.79,238.21c.78,23.11,13.62,37,15.49,58.6a0,0,0,1,0,0,0c.25-25.06-11.4-38.32-15.48-58.61l0,0s0,0,0,0Z" transform="translate(-73.89 -25.25)"/><path class="cls-4" d="M268,150.54c-3.85,10.42-4.4,22.07-4.54,33.17-1.11,81.22,2.7,112.79,2.7,112.59-2.88-161.72,1.44-137,1.84-145.76Z" transform="translate(-73.89 -25.25)"/><path class="cls-4" d="M261.91,152.12c-.51,6.2-1.06,12.41-1.61,18.62-7.05,79.29-1.9,103.91-1.91,103.71-1.66-26.54,3.95-128.92,3.55-122.36a0,0,0,0,0,0,0Z" transform="translate(-73.89 -25.25)"/><path class="cls-4" d="M269,125.8c-2.58,9.14-1.91,15-1.86,14.81.48-2.4,1-4.78,1.27-7.2.45-3.45.63-7.92.61-7.63a0,0,0,0,0,0,0Z" transform="translate(-73.89 -25.25)"/><path class="cls-4" d="M262.94,125.42c-2,11.12.67,21.85.06,0,0,0,0,0,0,0s0,0,0,0Z" transform="translate(-73.89 -25.25)"/><path class="cls-4" d="M345.33,224.47a81.93,81.93,0,0,0-16,4.26c-25.28,9.38-40.85,25.12-49.52,46.22C268.1,303.66,266,378,266,368.11c7.39-42,3-83.32,30-113.7,30.78-33.94,81.73-28.87,81.51-28.87a86.65,86.65,0,0,0-32.16-1.07Z" transform="translate(-73.89 -25.25)"/><path class="cls-4" d="M365.68,228.88c-57.57,4.53-85.69,39.28-92.78,97.29-5.48,44.45-1.33,26.51-2.39,50.66v0a39.8,39.8,0,0,1-1.72,10.62c-.59,1.75,2.31-3.87,2.92-15.32,1-18.6-1.59-6,4.18-48.83,4-29.17,11.21-50.77,32.51-70.4,15.35-14.12,40.3-21.52,60.73-23.68,2-.22,4-.44,6-.71.08,0-5,0-9.48.39Z" transform="translate(-73.89 -25.25)"/><path class="cls-4" d="M265.6,300.46c-2.57,16.26.37,31.43.33,43.44a69.88,69.88,0,0,0,.68-9.58c.23-12.71-1.64-18.83-1-33.86Z" transform="translate(-73.89 -25.25)"/><path class="cls-4" d="M116.51,257.77c-24.15,4-42.82,20.85-42.62,20.75,16.6-11.54,34.44-17.85,49.81-19.41a95.44,95.44,0,0,1,35.94,3.48,127,127,0,0,1,29,12.94c50.89,31.3,50.57,60,65.31,83.8,0,0,.05,0,0,0q-.67-1.2-1.32-2.4h0c-12.45-23.56-12.62-48.22-58.43-79.36-22.9-15.57-50-24.36-77.75-19.77Z" transform="translate(-73.89 -25.25)"/><path class="cls-4" d="M119.55,259.74A74.77,74.77,0,0,0,87.38,270.8c60.88-32,149.76,32.13,165.22,96.52,0,0,.06,0,.05,0-10.82-56.52-80.58-112.26-133.1-107.57Z" transform="translate(-73.89 -25.25)"/><path class="cls-4" d="M252.42,369.82c.61,14.36,9.29,17.4,9.1,17.27-7.6-6.51-9.36-18.66-9.07-17.3a0,0,0,0,0,0,0Z" transform="translate(-73.89 -25.25)"/><path class="cls-4" d="M268.48,390.49c1.71,20.52-2.85,43.39,4,67.43,0,0,0,0,0,0-1.89-11.07-1.53-22.36-1.58-33.55-.06-23.68-2.44-33.61-2.47-33.87Z" transform="translate(-73.89 -25.25)"/><path class="cls-4" d="M262,389.08c-.22,7.68-.72,63.85,1.59,71,2.46,7.47,8.91-2.62,8.59-2.41-1.12,1.13-4.22,3.93-5.78,3.6-.53-.22-.81-1-.92-1.52a19.48,19.48,0,0,1-.26-4.25c.25-9,1.45-8.42-3.22-66.41Z" transform="translate(-73.89 -25.25)"/><path class="cls-4" d="M257.51,350.18c-1.83,8.37.76,16.05.62,22.4v0c0,.32-.08,1.36,0,1,1.9-6.22.55-12.29-.16-17.33a43.81,43.81,0,0,1-.42-6.1l0,0Z" transform="translate(-73.89 -25.25)"/><path class="cls-4" d="M256.06,298.65c3.72,17.77,0,32,5,54.1,0,0,.05,0,.05,0-2.48-16.92,1.17-28.66-5-54.1Z" transform="translate(-73.89 -25.25)"/><path class="cls-4" d="M258.25,278.67c0,6.13-1.16,12.38-.47,19.51a28.75,28.75,0,0,0,1,5.55c-.61-5.75.17-5.13-.52-25.06Z" transform="translate(-73.89 -25.25)"/></svg>