<svg id="Layer_1" data-name="Layer 1" xmlns="http://www.w3.org/2000/svg" viewBox="0 0 283.39 431.46"><defs><style>.cls-1{fill:#a8ba5d;}.cls-2{fill:#d2e276;}.cls-3{fill:#161616;}</style></defs><path class="cls-1" d="M253.45,38.29c-1.26,0-4,3.08-5.17,4.63-10.37,14.15-8.36,50.15-8.91,54.53a21.88,21.88,0,0,1-1.14,4.56c-3,6.74-8,4.11-8.92,11.72-.41,4,.4,6.41,2.09,10.38,10.16,23.72,8.6,21.76,4.75,26.77-1,1.31-1,1.76-.79,2.71,1.53,8.76,14.08,15.81,3,20.78l-.14.12a1.55,1.55,0,0,0-1.5,1.39c0,2.08,3.36.52,9.78,7.53-.2,0-.35.24-.43.53-.4,1.45,2.6,2.79,5.86,10.28,9.85,24.05-6.28,53.79-4.88,79.29a13,13,0,0,0-.67,2,17.93,17.93,0,0,0-.54,4,1.2,1.2,0,0,0,.35.87,1.24,1.24,0,0,0,1.86,0c-.05.08,0,.18.17.31-1.21,27.67-2.76,48.42,2.92,73.26,7.25,31.7,3.92,22.51,6.22,40.63a61.82,61.82,0,0,1-.28,6.7c-1.23,7.33-3.47,6.94-4,7.61-4.79-4.82-7.36-9.49-10.79-16.21-4.12-8-4.93-9.34-4.78-9.07-6.29-12-6.23-24.73-13.67-33.44-3.62-4.29-13.08-8.36-12.86-8.25-32.16-15.27-22.83-20.57-61.18-30.69-18.22-4.68-17.48-5.41-18.37-5.41a1.28,1.28,0,0,0-.89,2.17c39.65,33.15,98.09,46.19,106.26,105.18l.07.18c2.47,22.12-3.63,22.45-4.35,40.26-.43,11.09,6.24,11.85,13.83,6.35,7-5.07,6.67-26,11-36.24l-.06,0h0c8-17.18,16.34-28.85,35.47-34.26,26-7.24,46.65,5.94,66.35,15a1.17,1.17,0,0,0-.92,2c5.76,5.23,8.87,5.16,14,3.58l.54-.16A62.36,62.36,0,0,0,396,413.08a23.74,23.74,0,0,0,4.13.65c6.58.36,12.88-3.9,11-5.8a1.24,1.24,0,0,0-1.73,0c-.12.14-.23.28-.34.43-15.76-4.73-36.36-15.87-36.18-15.77-60.77-31-77.07-22.72-107,2a14.61,14.61,0,0,1-.12-5.38l-.07.31c.86-5.51,3.17-10.21,2.2-11.2-1.27-1.2-5,1.55-6.33,2.71-3.29,2.93-2.16,4.79-2.8,0-.13-2.77-.25-59.7-.25-60h.25a1.22,1.22,0,0,0,.94-1.19c0-.37,0-.74.06-1.12v-.58a11.49,11.49,0,0,1,.35-3.21c.11-.41.23-1.05.19-.87,3.5-17.37-3.83-26.54,6.81-69.07,12.76-50.63,34-52.82,38.33-74.51,3.67-18.33,7.39-20.07,18.33-21.55,9.68-1.08,8.87-1,8.84-1l.29,0c2.27-.33,3.33,0,3.86-.89s0-1.12-1.74-5c-6.78-15.43-.3-22-1.05-42.67-.27-7.93-.39-14,4.25-20.3,3.34-4.2,4.86-4,4.47-5.47s-6.79-2.09-8.86-7c-1.31-3.35-.39-7.12.45-11.06,1.21-5.65,1.34-6.1,1-6.65-.88-1.42-2.09.07-5.25-.4a10.4,10.4,0,0,0-1.82-.09c-7.07.19-18.26,6-25.3,7.26-22.74,4-37.11,2.84-48.39-16.78a1.32,1.32,0,0,0-1.12-.64Z" transform="translate(-128.33 -33)"/><path class="cls-2" d="M247.2,45.49c-14.72,19.6-2.3,48.43,4.4,69.41,1.26,5-.84-47.66,2-61.21,1.61.78,20,9.42,19.76,9.19-6.45-6.14-13.44-11.76-19.57-18.24-1.51-1.6-4.49-2-6.59.85Z" transform="translate(-128.33 -33)"/><path class="cls-2" d="M320.3,54.7c-2.34.72-4,2.9-4.95,5.25A41.49,41.49,0,0,1,312,62.86a48.69,48.69,0,0,1-17.93,8.67c-1.71,0-1.35.6-1.17.58,8.22-.62,14.6-3,21.34-6.09,0,3.15.62,9.17,2.35,12.25-1.06,1.87-2.06,2.37-3.94,4.57-7.44,8.7-6.79,19.65-.83,28.55a15.51,15.51,0,0,0-2.64,7.77c-.37,2.79.79,6.3,1.38,9.22.06,1.13,0,2.24,0,3.39-.3.27-.59.54-.86.83-18,18.83-19.85,29.4-18.38,42.9a77.38,77.38,0,0,1,2.65-7.86,39.88,39.88,0,0,1,4.29-7.41c10.7-13.41,26.42-15.29,27.82-24.75,1.66-11.23,1-5.33.5-13.45,2.63-1,4.66-2,6.15-4.58,4.42-7.53-3.32-13.52-4.81-20.7-.19-3.56,5.74-4,7.12-18.19.33-3.32-1.42-8-5.22-9.76-.82-.37-.65-.06-1.95-2.55-.49-1-1-1.87-1.49-2.83-.8-2.3-.09-3.11-.51-5.34a3.83,3.83,0,0,0-5.57-3.38Z" transform="translate(-128.33 -33)"/><path class="cls-2" d="M288.3,183.17c-14.54,4.15-19.94,24.2-19.42,23.43,6.86-8.71,10.76-18.06,19.44-23.39,0,0,0,0,0,0Z" transform="translate(-128.33 -33)"/><path class="cls-2" d="M269.13,70.83c6.38,6.32,12.22,11.48,20.65,6.1,0,0,0,0,0,0-7.94,0-21.37-7.18-20.64-6.06Z" transform="translate(-128.33 -33)"/><path class="cls-2" d="M242.86,113.84c-14.43,5.35,2.44,33.17,1.94,44.35l0,.05c-4.3,2.5-4.22,7.54-1.68,9.64,4,3.29,2.65,8.44,6.33,17.69a40.83,40.83,0,0,0,10.16,14.72c-4.68-13.6-2.62-29.68-4.67-35.21a10.82,10.82,0,0,0,1.46-3c3.89-12.72-15.4-27.85-17.31-40.21a10.28,10.28,0,0,1,0-2.6,7.3,7.3,0,0,1,.48-1.76,6.86,6.86,0,0,1,.85-1.47,7.26,7.26,0,0,1,1.35-1.34l0,0c.18-.14.68-.48,1.13-.75a0,0,0,0,0,0,0Z" transform="translate(-128.33 -33)"/><path class="cls-2" d="M273.85,208c-9,12-16.2,30.25-17.24,45.61-.75,11,2.4,30.94,2.4,30.75,5.21-20.18,8-21.95,10.28-46.63,2-22.45,4-26.68,4.56-29.73Z" transform="translate(-128.33 -33)"/><path class="cls-2" d="M253.79,285.23a80.4,80.4,0,0,0-2.6,28.88c.92,9.77,5.93,28.53,5.93,28.34,1-12.43,1.62-20.46-3.33-57.22Z" transform="translate(-128.33 -33)"/><path class="cls-2" d="M153.73,317.07C159.14,321,180,332.86,188,338.23c2.15,1.45,4.26,2.95,6.44,4.34a52.79,52.79,0,0,0,14,6.21c-4.22-3.1-7.23-7.67-10.71-11.55-12.73-14.17-23.95-13.07-44-20.2h0s0,0,0,0Z" transform="translate(-128.33 -33)"/><path class="cls-2" d="M216.62,356.13A130.11,130.11,0,0,0,229,381c-1.35-10.8-5.87-16.9-12.42-24.84Z" transform="translate(-128.33 -33)"/><path class="cls-2" d="M319.9,380.64c-9.33.73-12.67,4.12-12.47,4.06,11.72-4.85,36.63,6.23,45.5,12.76,4.6,3.69,8.18,8.53,14.09,10.25,8.63,2.5,14.8-3.62,21.65-2.9.82.12,2.31.5,2.12.45-8.28-7.38-16.32.42-24.18-5.15-3.44-2.86-5-6.53-9.62-10-7.33-5.61-24.05-10.44-37.09-9.43Z" transform="translate(-128.33 -33)"/><path class="cls-2" d="M238.27,403.75c4.46,7.31,2.38,20,2.33,28.67,0,3.37.43,19.74.49,19.55,11.51-23,6-41.39-2.82-48.22Z" transform="translate(-128.33 -33)"/><path class="cls-3" d="M252.49,33.4c-4.61,3.3-9.77,10.17-11.24,12.72-8.63,15,1.22,48.5-4.57,57-2.06,2.39-6,4.09-8,5.52-3.3,2.38-2.39,9-1.53,12.62,3.07,12.76,14.17,26.64,5.81,35.43a2.19,2.19,0,0,0,.93,3.65c6.51,2.94,8.72,9,3.22,13.42-2.55,1.83-3.76,1.59-3.76,3.21s1.47,1.71,3,2.34c12.29,5.39,16.18,18,16,17.51,1.45,3.48,2.76,7.89,2.74,7.79C253.5,193,249.34,182.4,239,176.84c7.38-5,6.66-14-1.08-19.21a14.57,14.57,0,0,0,2.29-4.78c2.07-7.6-2.31-16.75-5.38-24-2.17-5.14-4.51-10.82-3.93-16,.14-.93.14-.83.43-1.06,7.29-5.45,11.64-4.39,11.16-23.58-.21-8,.32-2-.16-15.19-.58-15.58-.24-22.55,10.58-32.67C260.59,54.3,281.87,59,281.68,58.91c-11.33-6.6-20.24-12.75-25.23-24.48a2.92,2.92,0,0,0-4-1Z" transform="translate(-128.33 -33)"/><path class="cls-3" d="M334.6,45.59c-6.53,2-9.47,2.66-21.32,6.55-11.2,3.68-21.95,7.78-21.11,7.58,7.29-1.6,14.58-3.21,21.85-4.93,8.2-1.95,12.51-3.14,17.51-4.56-3.58,8.93-.75,18.66,7.16,24.67-4.21,4.4-6,8.72-6.26,14.08-.2,4.3,2.18,16.18,2.15,16,1.28,9.6-.28,9.66-3.56,14.16-5.8,7.94.19,17.4,5.92,27.37-10.28.13-20.28-1.2-27.53,6.39-7.06,7.41-4.14,15.62-4.73,21.88-.54,3.58-2.21,5.17-6,8.13l.38-.29c-12.93,9.88-15.08,9.68-22.18,29.15-20.72,56.83-17.46,95.51-18.05,159.89-.1,12.94-.38,13.19.71,13.48s.43-.39,5-4.5c.8-.72,1.6-1.44,2.32-2.23.89,3.34-.56,9.32-.25,8.39,1.05-3.92,2-6.15,1.12-9.82a.63.63,0,0,0-1-.28c-1.75,1.75-3.51,2.74-5.6,4.6C264,335,255.62,263.15,285.77,201c3.3-6.84,12.35-13,10-11.23,2-1.57,4.11-3.08,6.1-4.7,4.86-4,6.24-6.89,6.18-12.47,0-3.29-.6-6-.18-9.83a14.2,14.2,0,0,1,2.91-6.87c5.33-6.61,13-6.63,22.08-6.59,2.12,0,4.24,0,6.35-.1a1.39,1.39,0,0,0,1.19-2.06c-7.29-12.91-7.05-13.11-6.95-12.93-6.39-15.47,4.76-11.79,4.87-24.52C338.45,96,331,87.17,343.14,76a2,2,0,0,0-.4-3.06c-7.91-4.89-10.94-13.28-7.62-21.78,1.31-2.94,2.29-3.44,1.53-4.76a1.82,1.82,0,0,0-2-.83Z" transform="translate(-128.33 -33)"/><path class="cls-3" d="M253.58,208.43c-1.56,12.06-6.44,45.1-7.91,74.89-3,61.4,15.54,90,5.71,122.56-14.67-18-18.76-28.13-18.34-27.35a.61.61,0,0,1,0-.12l0,0a44.84,44.84,0,0,1-1.69-5.16c.13,14.32,9.86,26.79,19.53,37.32a1.71,1.71,0,0,0,2.87-.75c8.4-25.08-.25-54-3.71-79.28v.06c0-.21,0-.17-.05-.37v0A252.13,252.13,0,0,1,248,292.58c.25-12.34,1.24-24.64,2.42-36.91,2.34-24.17,2.56-24.4,3.17-47.24Z" transform="translate(-128.33 -33)"/><path class="cls-3" d="M133.8,309a179.58,179.58,0,0,0,21.65,6c25.15,5.68,23.29,8.29,37.55,17.84,13.94,9.41,32.15,17.46,36.34,31,0,0,0,0,0,0-3-16.12-26.28-27.81-38-38-12.68-11-20.67-14-36.66-15.2-7.22-.53-11.5-.48-20.92-1.66h0s0,0,0,0Z" transform="translate(-128.33 -33)"/><path class="cls-3" d="M146.72,319c23,26.82,59,19.93,83.35,77.15-.89-2.1,6.33,12.85,6,26.8-.18,6.46-2.08,15.74-3.22,24-1.05,7.62-1.65,21.76-1,16.27v0c3.34-24.46,15.88-40.8-2.84-77.11-24.13-46.74-53.55-44.83-78.42-64h0c-2-1.54-4.18-3.49-3.86-3.17Z" transform="translate(-128.33 -33)"/><path class="cls-3" d="M293.6,389.12c-35.43,7.51-54,46.62-45.48,71.31a24.91,24.91,0,0,0-5.54.35,18.07,18.07,0,0,1-4.14.11c2.64.9,5.49.45,8.22.77s2.71,1.12,3.37.46c.49-.5.13-.72-.37-4.16h0c-3.77-29.19,23.21-60,43.72-68.71h0c.1-.05.34-.14.23-.14Z" transform="translate(-128.33 -33)"/><path class="cls-3" d="M302.08,369c-11.26,2-23,10.47-31.15,18.56-6.64,6.6-9.12,11.35-8.8,10.88,8.46-10.66,41.61-33.5,53.74-27.27.38.24-3.29-4-13.79-2.17Z" transform="translate(-128.33 -33)"/><path class="cls-3" d="M327.53,373c-5.2.17-9.19,2.79-6.95,1.81h0c17.53-7.35,58.71,27.47,84.27,31.35a57.67,57.67,0,0,1-9.49-4.3c-11.55-6.19-48.86-29.46-67.83-28.86Z" transform="translate(-128.33 -33)"/><path class="cls-3" d="M309,386.84a26.41,26.41,0,0,0-7.36,1.21c10.59-.69,34.79,6.87,42.53,10.94,7.38,3.91,21.83,24.27,33.32,10.78,7.17,3.22,15,6.49,22.85,5.11a15.7,15.7,0,0,0,7.28-3.34c-9.21,5.53-20.08.91-29.86-4.44-1.28-.7-1.59.55-3.76,2.3-10.28,7.7-19.06-9.63-30.5-15.27a75.22,75.22,0,0,0-34.5-7.29Z" transform="translate(-128.33 -33)"/><path class="cls-3" d="M409.81,407.47c1.4,2.51,1.56,4-1.51,6.55,0,0,0,0,0,0a4.51,4.51,0,0,0,3.3-2.78c.61-2.1-2-4-1.8-3.83,0,0,0,0,0,0Z" transform="translate(-128.33 -33)"/><path class="cls-3" d="M281.63,74.76c-10,30.12-7.4,46-12.35,83.41,0,0,0-.1,0-.15-1.09,8-4.58,27.86-6,36.16-9.53,54.37-6,74.71-6,74.53C256,229.84,268.1,187.19,273,155.64c2.11-13.58,8.6-80.66,8.62-80.88Z" transform="translate(-128.33 -33)"/><path class="cls-3" d="M311.37,119.36c-12.15,9.86-21.46,20.81-28.7,37.37A175.45,175.45,0,0,0,273,187.3c14.24-45.47,32.08-59.18,38.34-67.94Z" transform="translate(-128.33 -33)"/><path class="cls-3" d="M312.17,73.64c-7.62,10.65-13.7,17.52-22.51,35.21a190.66,190.66,0,0,0-13.53,35.79c8.41-22.21,12.52-24.52,36.07-71,0,0,0,0,0,0Z" transform="translate(-128.33 -33)"/><path class="cls-3" d="M252.18,125c4,8.3,6.93,23.74,12.29,36.15.17.33-.73-2.28-2.19-9.43-.63-3.14-1.18-6.31-2-9.42a55.54,55.54,0,0,0-3.1-9,38.89,38.89,0,0,0-5-8.28Z" transform="translate(-128.33 -33)"/><path class="cls-3" d="M263.44,65.73c.58,12.56-.42,23,1.56,39.76a100.91,100.91,0,0,0,2.2,12.93c-1.4-20.93.91-28.22-3.76-52.69Z" transform="translate(-128.33 -33)"/><path class="cls-3" d="M128.8,307.26c-2.57,3.24,6.09,7.76,9.87,9.39,12,5.1,6.19,2.15-5.13-4.16-2-1.12-5.58-3-4.76-5.12h0s0-.07.05-.1,0,0,0,0Z" transform="translate(-128.33 -33)"/><path class="cls-3" d="M305.75,376.28A31.74,31.74,0,0,0,290.84,383a38.53,38.53,0,0,1,13.38-4.75c3.5.57,7.74-4,38.13,9.6,0,0,0,0,0,0-11.88-6.77-23.17-13.43-36.62-11.49Z" transform="translate(-128.33 -33)"/><path class="cls-3" d="M349.23,389.2c10.1,3.7,15.44,7.46,29.5,11.28.29.09-9.55-5.2-14.3-7.21a57.11,57.11,0,0,0-15.2-4.07Z" transform="translate(-128.33 -33)"/><path class="cls-1" d="M232.6,204.22c.77,0,2.43,1.87,3.14,2.82,6.31,8.6,5.09,30.5,5.43,33.16a13.62,13.62,0,0,0,.69,2.78c1.8,4.09,4.87,2.5,5.43,7.13.24,2.4-.25,3.9-1.28,6.31-6.17,14.43-5.22,13.24-2.89,16.29.62.79.6,1.06.49,1.64-.94,5.33-8.57,9.62-1.83,12.64l.09.07a1,1,0,0,1,.91.85c0,1.27-2.05.32-5.95,4.58a.42.42,0,0,1,.26.33c.25.88-1.58,1.69-3.56,6.25-6,14.63,3.81,32.71,3,48.22a7.88,7.88,0,0,1,.42,1.23,10.9,10.9,0,0,1,.32,2.4.73.73,0,0,1-.21.53.75.75,0,0,1-1.13,0c0,.05,0,.11-.11.19.74,16.83,1.68,29.45-1.78,44.56-4.4,19.29-2.38,13.7-3.77,24.72a39.36,39.36,0,0,0,.16,4.07c.75,4.46,2.11,4.22,2.42,4.63,2.91-2.93,4.48-5.77,6.56-9.86,2.51-4.9,3-5.68,2.91-5.51,3.83-7.28,3.79-15.05,8.31-20.35,2.21-2.61,8-5.08,7.83-5,19.56-9.28,13.88-12.5,37.21-18.66a95.11,95.11,0,0,0,11.18-3.29.78.78,0,0,1,.54,1.32c-24.12,20.16-59.67,28.09-64.64,64l0,.11c-1.51,13.46,2.21,13.66,2.64,24.49.26,6.75-3.79,7.21-8.41,3.86-4.24-3.08-4.05-15.83-6.69-22l0,0h0c-4.87-10.45-9.94-17.55-21.57-20.84-15.79-4.4-28.38,3.61-40.36,9.15a.71.71,0,0,1,.56,1.22c-3.5,3.18-5.4,3.14-8.5,2.18l-.33-.1a37.66,37.66,0,0,1-14.18,1.95,13.42,13.42,0,0,1-2.51.4c-4,.22-7.84-2.37-6.68-3.53a.75.75,0,0,1,1,0l.21.26c9.58-2.87,22.11-9.65,22-9.59,37-18.85,46.88-13.82,65.1,1.23a9,9,0,0,0,.07-3.27l0,.19c-.52-3.36-1.93-6.21-1.34-6.82.77-.73,3.07.95,3.86,1.65,2,1.78,1.31,2.92,1.7,0,.07-1.69.15-36.32.15-36.48h-.15a.75.75,0,0,1-.58-.72c0-.23,0-.46,0-.68v-.36a6.62,6.62,0,0,0-.21-2c-.07-.25-.14-.64-.12-.53-2.13-10.56,2.34-16.14-4.14-42-7.76-30.8-20.68-32.14-23.32-45.33-2.23-11.15-4.49-12.21-11.14-13.11-5.89-.65-5.4-.58-5.38-.57l-.18,0c-1.38-.2-2,0-2.34-.55s0-.67,1.05-3.06c4.12-9.39.19-13.35.64-26,.17-4.82.24-8.53-2.59-12.34-2-2.56-3-2.46-2.71-3.33s4.12-1.27,5.39-4.25c.79-2,.23-4.33-.28-6.73-.73-3.43-.81-3.71-.62-4.05.53-.86,1.27.05,3.19-.24a5.46,5.46,0,0,1,1.11,0c4.3.11,11.1,3.68,15.39,4.42,13.83,2.42,22.57,1.72,29.43-10.21a.8.8,0,0,1,.68-.39Z" transform="translate(-128.33 -33)"/><path class="cls-2" d="M236.4,208.59c9,11.93,1.4,29.47-2.67,42.23-.77,3.07.51-29-1.22-37.24-1,.48-12.16,5.74-12,5.59,3.93-3.73,8.17-7.15,11.9-11.09a2.56,2.56,0,0,1,4,.51Z" transform="translate(-128.33 -33)"/><path class="cls-2" d="M191.94,214.2a5.18,5.18,0,0,1,3,3.19,25.7,25.7,0,0,0,2,1.77,29.68,29.68,0,0,0,10.91,5.28c1,0,.82.36.71.35a35.84,35.84,0,0,1-13-3.7c0,1.91-.38,5.57-1.43,7.45.64,1.14,1.25,1.44,2.4,2.78,4.52,5.29,4.13,12,.5,17.36a9.61,9.61,0,0,1,1.61,4.73c.22,1.7-.48,3.83-.84,5.61,0,.68,0,1.36,0,2.06l.53.5c10.93,11.46,12.07,17.89,11.18,26.1A49.54,49.54,0,0,0,208,282.9a23.43,23.43,0,0,0-2.6-4.51c-6.52-8.16-16.08-9.3-16.93-15.05-1-6.83-.6-3.25-.3-8.18a6.45,6.45,0,0,1-3.74-2.79c-2.69-4.58,2-8.23,2.92-12.59.12-2.17-3.49-2.43-4.33-11.07a6.12,6.12,0,0,1,3.18-5.93c.5-.23.39,0,1.18-1.56.3-.57.63-1.13.91-1.72.49-1.39.06-1.89.31-3.24a2.33,2.33,0,0,1,3.39-2.06Z" transform="translate(-128.33 -33)"/><path class="cls-2" d="M211.4,292.35c8.85,2.52,12.13,14.72,11.82,14.25-4.18-5.3-6.55-11-11.83-14.23,0,0,0,0,0,0Z" transform="translate(-128.33 -33)"/><path class="cls-2" d="M223.06,224c-3.88,3.84-7.43,7-12.55,3.71,0,0,0,0,0,0,4.83,0,13-4.37,12.55-3.69Z" transform="translate(-128.33 -33)"/><path class="cls-2" d="M239,250.17c8.78,3.26-1.48,20.18-1.17,27v0c2.62,1.52,2.57,4.59,1,5.86-2.43,2-1.62,5.14-3.85,10.76a25,25,0,0,1-6.18,9c2.84-8.27,1.59-18.05,2.84-21.42a6.74,6.74,0,0,1-.89-1.85c-2.37-7.73,9.36-16.94,10.53-24.45a7,7,0,0,0,0-1.59,4.2,4.2,0,0,0-1.63-2.78h0a6.2,6.2,0,0,0-.69-.46s0,0,0,0Z" transform="translate(-128.33 -33)"/><path class="cls-2" d="M220.19,307.45c5.48,7.31,9.86,18.41,10.49,27.75.46,6.69-1.46,18.82-1.46,18.71-3.17-12.28-4.89-13.36-6.26-28.37-1.23-13.66-2.46-16.23-2.77-18.09Z" transform="translate(-128.33 -33)"/><path class="cls-2" d="M232.39,354.43A48.89,48.89,0,0,1,234,372c-.56,5.94-3.61,17.34-3.61,17.23-.61-7.56-1-12.44,2-34.8Z" transform="translate(-128.33 -33)"/><path class="cls-2" d="M293.26,373.79c-3.29,2.38-16,9.61-20.83,12.88-1.3.87-2.59,1.79-3.91,2.64a32.07,32.07,0,0,1-8.54,3.77c2.57-1.88,4.4-4.66,6.52-7,7.74-8.63,14.56-7.95,26.75-12.29h0s0,0,0,0Z" transform="translate(-128.33 -33)"/><path class="cls-2" d="M255,397.55a79.41,79.41,0,0,1-7.56,15.11c.82-6.57,3.57-10.27,7.56-15.11Z" transform="translate(-128.33 -33)"/><path class="cls-2" d="M192.18,412.46c5.68.44,7.71,2.51,7.59,2.47-7.13-2.95-22.28,3.79-27.68,7.76-2.79,2.25-5,5.19-8.57,6.24-5.25,1.52-9-2.2-13.17-1.77-.5.08-1.4.31-1.29.28,5-4.49,9.93.25,14.71-3.13,2.09-1.74,3.06-4,5.85-6.11,4.46-3.41,14.63-6.35,22.56-5.74Z" transform="translate(-128.33 -33)"/><path class="cls-2" d="M241.83,426.52c-2.71,4.44-1.44,12.17-1.41,17.44,0,2.05-.26,12-.3,11.89-7-14-3.62-25.18,1.71-29.33Z" transform="translate(-128.33 -33)"/><path class="cls-3" d="M233.19,201.24A31.28,31.28,0,0,1,240,209c5.25,9.13-.74,29.5,2.78,34.65,1.26,1.45,3.67,2.49,4.85,3.36,2,1.44,1.46,5.47.94,7.67-1.87,7.76-8.62,16.21-3.54,21.55a1.34,1.34,0,0,1-.56,2.23c-4,1.78-5.31,5.49-2,8.16,1.55,1.11,2.29,1,2.29,1.95s-.9,1-1.83,1.42a18.93,18.93,0,0,0-9.72,10.65c-.88,2.12-1.67,4.8-1.66,4.74,1-7,3.49-13.49,9.76-16.87-4.48-3-4.05-8.52.66-11.68a9,9,0,0,1-1.4-2.91c-1.25-4.62,1.41-10.18,3.28-14.58,1.32-3.13,2.75-6.58,2.39-9.7-.08-.57-.08-.51-.26-.65-4.44-3.32-7.08-2.67-6.79-14.34.13-4.87-.19-1.25.1-9.25.35-9.47.14-13.71-6.44-19.86-4.65,8.44-17.59,11.32-17.48,11.24,6.89-4,12.31-7.75,15.35-14.89a1.78,1.78,0,0,1,2.41-.63Z" transform="translate(-128.33 -33)"/><path class="cls-3" d="M183.24,208.66c4,1.23,5.76,1.62,13,4,6.81,2.24,13.35,4.74,12.84,4.61-4.43-1-8.87-1.95-13.29-3-5-1.18-7.61-1.91-10.65-2.77a12.64,12.64,0,0,1-4.36,15,12.43,12.43,0,0,1,3.81,8.56c.12,2.62-1.33,9.85-1.31,9.73-.78,5.84.17,5.87,2.17,8.61,3.53,4.83-.12,10.59-3.6,16.65,6.25.08,12.33-.73,16.74,3.89s2.52,9.5,2.88,13.31c.33,2.17,1.34,3.14,3.66,4.94l-.23-.18c7.86,6,9.17,5.89,13.49,17.74C231,344.31,229,367.83,229.34,407c.06,7.87.23,8-.43,8.21s-.26-.25-3-2.74c-.49-.44-1-.88-1.41-1.36-.55,2,.34,5.67.15,5.1-.64-2.38-1.22-3.74-.68-6a.38.38,0,0,1,.64-.17c1.06,1.06,2.13,1.67,3.4,2.8-1.79-28.17,3.31-71.86-15-109.69-2-4.17-7.52-7.9-6.12-6.83-1.23-1-2.49-1.88-3.7-2.86-3-2.42-3.8-4.2-3.77-7.59a40.24,40.24,0,0,0,.11-6,8.58,8.58,0,0,0-1.76-4.17c-3.25-4-7.92-4-13.44-4-1.29,0-2.58,0-3.86-.05a.85.85,0,0,1-.72-1.26c4.43-7.85,4.28-8,4.23-7.86,3.88-9.42-2.9-7.18-3-14.92,0-8.32,4.47-13.68-2.9-20.46a1.19,1.19,0,0,1,.24-1.86c4.81-3,6.65-8.08,4.63-13.25-.79-1.79-1.39-2.1-.93-2.89a1.11,1.11,0,0,1,1.25-.51Z" transform="translate(-128.33 -33)"/><path class="cls-3" d="M232.52,307.71c.95,7.33,3.92,27.43,4.81,45.55,1.84,37.35-9.45,54.76-3.47,74.56,8.92-10.93,11.41-17.12,11.16-16.64l0-.07v0a28.09,28.09,0,0,0,1-3.14c-.08,8.71-6,16.29-11.88,22.7a1,1,0,0,1-1.75-.46c-5.11-15.26.15-32.87,2.26-48.22v0a1.66,1.66,0,0,1,0-.22v0a152.42,152.42,0,0,0,1.18-22.9c-.15-7.51-.75-15-1.47-22.46-1.42-14.7-1.56-14.83-1.93-28.73Z" transform="translate(-128.33 -33)"/><path class="cls-3" d="M305.39,368.86a109.74,109.74,0,0,1-13.18,3.65c-15.3,3.45-14.17,5-22.84,10.85-8.48,5.72-19.55,10.63-22.1,18.87,0,0,0,0,0,0,1.8-9.81,16-16.91,23.12-23.13,7.71-6.71,12.57-8.53,22.3-9.24,4.39-.33,7-.3,12.72-1h0s0,0,0,0Z" transform="translate(-128.33 -33)"/><path class="cls-3" d="M297.52,375c-14,16.31-35.86,12.12-50.7,46.93.55-1.28-3.85,7.81-3.62,16.3.11,3.93,1.27,9.58,2,14.59.64,4.64,1,13.24.59,9.9v0c-2-14.88-9.66-24.82,1.73-46.91,14.68-28.43,32.57-27.26,47.7-38.9h0c1.21-.94,2.54-2.12,2.34-1.93Z" transform="translate(-128.33 -33)"/><path class="cls-3" d="M208.18,417.62C229.73,422.19,241,446,235.85,461a15,15,0,0,1,3.36.21,11.24,11.24,0,0,0,2.52.07c-1.61.54-3.34.27-5,.46s-1.65.69-2,.29-.08-.44.23-2.53h0c2.29-17.76-14.12-36.51-26.6-41.8h0c-.06,0-.2-.08-.14-.08Z" transform="translate(-128.33 -33)"/><path class="cls-3" d="M203,405.35c6.85,1.2,14,6.37,18.95,11.29,4,4,5.55,6.91,5.35,6.62-5.14-6.48-25.31-20.38-32.69-16.59-.23.15,2-2.45,8.39-1.32Z" transform="translate(-128.33 -33)"/><path class="cls-3" d="M187.54,407.81c3.17.1,5.59,1.69,4.23,1.09h0c-10.67-4.47-35.71,16.71-51.26,19.08a36.6,36.6,0,0,0,5.77-2.62c7-3.76,29.72-17.92,41.26-17.55Z" transform="translate(-128.33 -33)"/><path class="cls-3" d="M198.82,416.23a15.93,15.93,0,0,1,4.47.74c-6.43-.42-21.15,4.18-25.87,6.65-4.49,2.38-13.28,14.76-20.26,6.56-4.36,2-9.14,3.95-13.9,3.11a9.58,9.58,0,0,1-4.43-2c5.6,3.36,12.21.55,18.16-2.7.78-.43,1,.33,2.29,1.4,6.25,4.68,11.59-5.86,18.55-9.29a45.8,45.8,0,0,1,21-4.44Z" transform="translate(-128.33 -33)"/><path class="cls-3" d="M137.49,428.78c-.85,1.53-1,2.46.92,4,0,0,0,0,0,0a2.7,2.7,0,0,1-2-1.68c-.37-1.29,1.2-2.45,1.09-2.34s0,0,0,0Z" transform="translate(-128.33 -33)"/><path class="cls-3" d="M215.46,226.4c6.11,18.32,4.5,28,7.51,50.74,0,0,0-.06,0-.09.66,4.84,2.79,16.95,3.67,22,5.8,33.06,3.68,45.44,3.68,45.33.74-23.64-6.62-49.59-9.6-68.78-1.29-8.26-5.24-49.06-5.25-49.2Z" transform="translate(-128.33 -33)"/><path class="cls-3" d="M197.37,253.53a57.38,57.38,0,0,1,17.46,22.73,107,107,0,0,1,5.86,18.6c-8.66-27.66-19.51-36-23.32-41.33Z" transform="translate(-128.33 -33)"/><path class="cls-3" d="M196.88,225.72c4.64,6.48,8.34,10.66,13.69,21.42a116.47,116.47,0,0,1,8.24,21.77c-5.12-13.51-7.62-14.91-21.95-43.18,0,0,0,0,0,0Z" transform="translate(-128.33 -33)"/><path class="cls-3" d="M233.38,257c-2.46,5-4.22,14.44-7.48,22-.1.2.44-1.39,1.33-5.74.39-1.91.72-3.83,1.2-5.73a32.27,32.27,0,0,1,1.89-5.48,23.09,23.09,0,0,1,3.06-5Z" transform="translate(-128.33 -33)"/><path class="cls-3" d="M226.52,220.91c-.35,7.64.26,14-.94,24.18a60.52,60.52,0,0,1-1.34,7.87c.85-12.73-.55-17.17,2.28-32.05Z" transform="translate(-128.33 -33)"/><path class="cls-3" d="M308.43,367.82c1.56,2-3.71,4.73-6,5.72-7.27,3.1-3.76,1.3,3.12-2.53,1.23-.68,3.39-1.82,2.89-3.11h0a.14.14,0,0,0,0-.06s0,0,0,0Z" transform="translate(-128.33 -33)"/><path class="cls-3" d="M200.79,409.81a19.35,19.35,0,0,1,9.07,4.06,23.49,23.49,0,0,0-8.14-2.89c-2.13.35-4.71-2.42-23.2,5.84,0,0,0,0,0,0,7.23-4.12,14.1-8.17,22.28-7Z" transform="translate(-128.33 -33)"/><path class="cls-3" d="M174.34,417.67c-6.14,2.25-9.39,4.54-17.94,6.86-.18.06,5.8-3.16,8.7-4.38a34.87,34.87,0,0,1,9.24-2.48Z" transform="translate(-128.33 -33)"/></svg>