<svg id="Layer_1" data-name="Layer 1" xmlns="http://www.w3.org/2000/svg" viewBox="0 0 263 434.33"><defs><style>.cls-1{fill:#879340;}.cls-2{fill:#a9b24f;}.cls-3{fill:#161616;}.cls-4{fill:#81973a;}.cls-5{fill:#a2b749;}.cls-6{fill:#b8d752;}.cls-7{fill:#788531;}.cls-8{fill:#9ba83b;}</style></defs><path class="cls-1" d="M202.07,120.77h0Z" transform="translate(-117 -30.65)"/><path class="cls-1" d="M361.85,261.51c-20.22-15.28-32.56-14.47-30.69-14.19-20.26-3-16.5-2-14.73-3,18.1-10.05,77.84-23.83,58.44-45.57-10.23-11.34-35.64-.09-41.84,8.14-3.48,4.76-15.57,30-23,30-2.1,0,.21.87-.71-7.9-2.5-22.59-24.26-25-20.73-18.26,1.36,2.62,3.74,6.62,3.56,6.31,6.47,21.89,11.48,24-12,40.63C255.28,275.23,241.53,288,228,301.74c-12.94,13.28-20.17,23.6-20.35,42.7l-.08.18a67.81,67.81,0,0,1,7-34.95c5.09-10.55,11.7-20.27,17.08-30.66,9.47-18.27,18.28-37.24,30.27-54.06,8.2-11.43,14.25-17.15,18.61-21.94,12.93-14.24,7.82-13.28,13.61-15.93,3.11-1.22,8-.38,7.69-.4.32-.11,25.88,3.33,17.65-7.81-1.94-2.5-5.11-3-8.25-3.38-9.75-1-11.13,1.27-8.67-1.15,6.22-6.1,8.95-9.62,25-3.75,7.61,2.77,14.47,4.88,21.18.19,2.92-2-.65-4.28-3.36-6.64.33-.21.28-.54,3.07-1.85,4.41-1.65.86-5.39-4.43-6.81-6.46-1.74-14.68.17-21.45-.69,4.81-3.63,12.42-7.08,17.7-11.13l-.35.13a78.52,78.52,0,0,1,15.64-8.48h-.25c1.42-.48,2.83-1,4.22-1.62,12.34-5,12.58-5.26,12.39-7s-1.63-1.83-2.31-2.09c-.89-.42-2.08-1.09-2.78-1.43,2.41-3,8.06-9.71,7.88-13.82a4.5,4.5,0,0,0-5-4.09c-3.9.32-8,3.25-11.58,5.75l.14-.24c.38-3.87,1.28-7.84-1.74-7.84-1.29,0-5,1.85-8,6.33-.21.31-5.27,8.62-4.82,7.86-.82-3.33-2.85-15.48-7-15.48-3.28,0-5.51,9.78-6.19,12.52l0-.25c-.27-.92-.58-1.73-1.64-2-2.45-.78-4.84,4.22-5.7,6.64-3.23,9,.57,21.85-4.85,29.18a17.24,17.24,0,0,1-2.18,2.16c-1-13.19.35-31.75-4.06-31.75-1.44,0-2.27,1.65-2,1.34-1,1.15-2.47,2.29-3.45,3.24a25,25,0,0,1-3.47-5.52c-3-7.08-8.27,3-5.94,11.85a25,25,0,0,1-5.12-2.16,2.13,2.13,0,0,0-3.13,1.26c-3.5,15.65,18.63,24,14.56,34.45-1.3,2.71-6.57,7.54-9.31,6.67-3.59-1.8-3.59-16-5.42-21.62a2.13,2.13,0,0,0-4.1,0,24.53,24.53,0,0,1-1.2,3c-4.45-2.7-6.19-6.91-7.22-12.5a2.13,2.13,0,0,0-3.56-1c-1.87,1.87-.69,12.21,2.51,19.86-.65-.52-5.28.45-2.2,6.08,2.52,4.68,12.13,14,15.77,16.85a91.74,91.74,0,0,0-9.11,11.86c-1.51,2.37-2.15,5.14-3.54,7.58-1.54,2.68-3,5.83-4.91,8.26-1.58,2-3.75,3.61-5.4,5.6a191,191,0,0,0-14.06,19.18c-7.48,11.75-13.29,24.42-19.61,36.8q-4.95,9.7-10.36,19.15c1.64-5.8,10.67-35.1,4.15-35.1-2.63,0-2,2.72-2.66,8.3a139.87,139.87,0,0,1-10.92,37.15c-3,7.25-1.84,6.93-1.33-4.22,4-91-11.59-140.18-.41-164.25a44.62,44.62,0,0,1,6.36-1.15l-.42-.2a106.82,106.82,0,0,0,13.07-1.44c10.16-1.83,17.9-7.29,10.86-14.91-6.73-7.27-2.34-7.56-3.1-10.18a2.21,2.21,0,0,0-2.08-1.61,2.54,2.54,0,0,0-1.83.9c-1.06.76-3.27,1.91-3,1.75-2.47,1.27-1.06,1.21-2.35-1a4.84,4.84,0,0,0-3.86-2.64c-3.57,0-5.67,4-7.15,6.72-3.55,6.39-5.76,13.71-9.59,19.88-1.81-1.38-1.11-5.45-1.4-7.58a22.91,22.91,0,0,1-.4-6.29c1.74-12.16,9.66-17.58,19.71-24.75,9-6.34,9.09-6.44,9.09-7.7,0-2.45-4.22-3.54-6.64-3.89-3.23-.39-1.58,1-.15-3.49,2.35-7.17-3.37-12.62-10.8-6.57-.9-4-5.94-6.1-10.7-1-7.17,7.6-4.71,21.92-4.72,21.6-3.85-11.47-7.4-42.37-13-42.37-1.92,0-1.82,1.55-3.29,4a24.29,24.29,0,0,0-5.14-8.1c-1.41-1.33-4.11-2.88-5-2.88a2.18,2.18,0,0,0-2.1,2.75,12.07,12.07,0,0,1,.45,3.27c-3.76-4.23-10.59-11.62-16.19-11.62-3.63,0-7.16,2.79-6.42,7.38s7.63,10.59,10.43,13.65a13.69,13.69,0,0,1-2.59,1.1c-6.73,1.75,7.59,11,14,14.56,18.15,10,21.13,11.67,26.49,23.36a2.12,2.12,0,0,0,2.93.78c.13,1.72.22,3.51.24,5-1.5-3.15-9.89-14-16.24-18.39s-14-3.27-6.75,5.25c3.69,4.28,10.4,10.33,12.75,12.68,8.71,8.15,9.07,22.88,9.92,23.53,0,0,0,.3.1,1.42-14.63-15.74-15.83-4.32-11.08.9a23.52,23.52,0,0,0,3.61,2.82c2.56,1.81,3.84,2.73,5.42,6.3,2.61,6.65.7,13.25,2.22,14.83-.63,10.08,1.26,4.34-3.05-.35-9.35-10.19-23.74,12.49-28.48,24.54-1.81,4.6-3.61,10.28-5.81,12.38,0-.48-4.26-2.86,2.18-26.8,2.5-9.31,4.79-17.89,5.47-26.95,1.62-22.42-13.58-41.2-24.31-27.24-3.1,4.13-5.13,10.84-4.64,17.48.82,10,6.42,18.43,10.3,27.43,3.25,7.91,3.49,12.18,3.79,20.88.33,10.51,1.23,6.51-2.57,1.51-7.15-9.19-19.68-7.95-29.13-11.71-3.6-1.62-3.79-2.45-4.93-2.45a2.28,2.28,0,0,0-2,3.43c3.4,6.37,9.57,10.13,16.14,13.22,6.75,3.18,17.41,6.48,22.21,12.74,8,10.41,7.69,22.1,10.56,34.23,8.11,34.21,3.49,32.87,19,67.71,20.2,45.22,9.86,63.43,29.31,110.8.43,1.05,1.16,3.13,3.15,2.49,2.67-.7,1.64-2.84-1.11-14.87C205.79,330.43,212,323.29,241,295.3c21.42-20.77,56.54-47.52,86.19-43.41,20.31,2.7,31.74,23.75,41.93,30.77,5.36,3.84,10.08,1.08,6.51-4.92C373.36,273.73,365.14,264,361.85,261.51ZM203.68,325.38c-7.05-39.55-18.23-39.84-27.53-89.23-4-21.7-10.4-36.78-3.41-46.79,7.32-9.1,28-21.67,29.52-33.66C200.86,173.21,212.35,247.49,203.68,325.38Z" transform="translate(-117 -30.65)"/><path class="cls-2" d="M151,100.37c-11.83,2.63-7.48,25.42-2.33,38.19,1.45,3.55,9.5,22.44,10.53,29.77.44,3.09.53-.2-2.1-10.79-4.93-19.66-8.55-46-7.82-40.09-.63-4.82-1.53-11.82,2-14.78l-.06,0c.31-.13,1.83-1.81,6.32-1.63-1.78-.55-3.73-1.34-6.52-.72Z" transform="translate(-117 -30.65)"/><path class="cls-2" d="M159.72,103.8c10.18,9.31,10.57,21.38,5.5,48-.08.39-2.42,11.84-2.26,11.1,6.24-14.68,14.81-30.34,9-45.91a22.52,22.52,0,0,0-12.28-13.23Z" transform="translate(-117 -30.65)"/><path class="cls-2" d="M120.83,158.29c6.45,6.12,12,2.39,20.79,5.87,3.42,1.49,9.64,5.8,9,5.13-5.32-4-7.34-6.76-11.94-8.63-5.84-2.37-10.88.21-17.8-2.42h0s0,0,0,0Z" transform="translate(-117 -30.65)"/><path class="cls-2" d="M193.07,148.15c-5.13.28-10.19,8.57-13.71,13.54-1.8,2.56-3.61,5.12-5.19,7.83-6.1,10.48-4.78,16.74-4.78,16.12.86-9.28,8.36-17.09,15-23.74,4.63-4.66,6.68-7.58,8.7-8.74,1.31,4.35-1.84,11.44-1.34,10.29a19.24,19.24,0,0,1-2.51,4.33c.3-.31,4.38-2.68,7.19-9.68,2.68-6.69-.2-10.13-3.36-9.95Z" transform="translate(-117 -30.65)"/><path class="cls-2" d="M189,116.5c-2,5.45,11.66,13.85,13.12,16.77.13.25.4-.67-3.68-5.81-4.76-6-8.92-9.29-7.45-11.49,1.18-1.39,3.59-1.8,3-1.8-2.13,0-4.29.33-5,2.33Z" transform="translate(-117 -30.65)"/><path class="cls-2" d="M222.1,101.82c-6.56,2.85-8.11,9.47-9.57,16.92-5,25.5,1.31-7.93,10.12-11.75.2-.08.07-.17.46.74a8.2,8.2,0,0,0,4.49,4.1,4.33,4.33,0,0,0,3.17-.48,3.82,3.82,0,0,0,.87,2c.37.6,1.12,3.06,1.89,4.72.93,2,1.5,1.46-.17,2.23-2.1.86-13.63,4.07-12.05,3.67,7.14-.24,12.8,1.45,19.47-1.34a3,3,0,0,0,.61-4.71c-1.84-2-1.38-5.16-2.83-8.18.21-8.52-6.27-10.23-10.48-5.53-1.35-2.2-2.66-3.83-6-2.37Z" transform="translate(-117 -30.65)"/><path class="cls-2" d="M211.44,62.8c-16.77,7.63-6.9,33.19-6.9,32.59-.16-.92-.34-2.26-.3-2-1-7.58-1-18.39,4.89-23.26,3.21-2.29.23,1.21,3.52,3.15,3.13,1.84,7.85-2.88,6.63-1.2-3.55,4.33-.59,7,2,7.12a18.45,18.45,0,0,1,3.24.32c-1.6,3.23-5.89,6.25-8.9,10.11,8.83-5.09,16.54-7.55,14-13.32a5.74,5.74,0,0,0-2-2.23c4.5-7.31-2.82-14.27-11.75-9.71a3.07,3.07,0,0,0-4.46-1.62Z" transform="translate(-117 -30.65)"/><path class="cls-2" d="M154,34c-3.82,2.29-.12,8.23,3,11.5,6.52,6.92,6.9,5.39,4.9,7-6.95,5.16,4.84,4.74,12.61,8.69-2.53-1.81,2.28.85-8.9-6.06,3-1.7,4.88-1.87,1.19-7.36,3.17,1.67,6.75,3.06,10.26,2.31,4.76-1,1.5-4.13,4.72,2.35,2.34,4.76,5.59,4.22,7.28.47,1.17,3.55,1.76,7.27,2.58,10.91,2,8.76,5.38,12.15,5.15,11.75A21.25,21.25,0,0,1,195,72.18c-2.84-6.57-1.94-15-4.69-23.67a1.43,1.43,0,0,0-2.61-.34c-2.26,4.33-1.31,4.45-3.13-1.6-.54-1.82-1.41-4.33-2.79-5.63a2.76,2.76,0,0,0-4.55,1.2c-1.38,4.57-4.38,1.27-16.15-6.08-2.66-1.66-5.07-3.18-7-2Z" transform="translate(-117 -30.65)"/><path class="cls-2" d="M270.13,137.36c-1.93,8.56,6.1,17.74,4.34,22.64-.46.94-1.56,1.49-.66,2.59,4.88,5.9,11.49,6.2,10.77,6a16.57,16.57,0,0,1-7.49-5.18c-2.16-2.8,2.06-1.11.15-10.71,3.11,2.95,6.57,2.63,8.95-.05,1.92,5.34,2.52,11.14,5.46,16.09,0,0,.05,0,0,0-2-6.65-.68-21.43-4.68-22.51-2.6-.73-2.89,3.12-4.91,3.64-2.31-.32-6-10.39-6.9-12.52a2.64,2.64,0,0,0-5.07,0Z" transform="translate(-117 -30.65)"/><path class="cls-2" d="M298.31,115.43c-2.22,3.49-3,7.59-3.59,11.67a11.79,11.79,0,0,1-2.38-1.49,2,2,0,0,0-3.33.88c-1.6,11.89,6.91,14.66,12.68,22a17.72,17.72,0,0,1,2.19,3.65,14.37,14.37,0,0,1,1,5.47,12.15,12.15,0,0,0-.33-5.4c-2.17-8.18-12.11-13.1-12.22-21.17,3.06,2.14,3.26,3.08,5,2.61,2.07-.58,2.46-3.79,3.2-7.15.63-2.83-.15-.21,3.81,1.21,3.27,1.15,5.87-1.13,5.93-.81,1.14,6,2.29,12.55,3.62,23.57,2.35-14.94,2.67-18.83,1-30.81-.29-2.05-3.58-3.05-5-1.33-2.49,3-3.72,3.23-3.41,3.06-1-1-2.09-3.88-2.49-5.17a3.13,3.13,0,0,0-5.71-.75Z" transform="translate(-117 -30.65)"/><path class="cls-2" d="M333.34,101.87c-3.26,1.28-3.85,5.52-4,10.37-7.66.21-8.33,23.74-9.25,33.36-.48,4.84-.9,5.72-.72,5.35,2.27-5,5.45-30.07,9.91-34.15.31.29,2.18,3,4.29.91.72-.72.68-1.51.85-2.88.85-6-.09-4.92,4.3,6.87,4.81,13.08,11.55-1.84,16.22-9,0,1.12-.08,2.66,1.58,3.63,2.41,1.41,3.39-.44,8.42-3.4,1.75-1,5.37-3.24,7.42-3.12.69,2.43-3.41,10.38-3,9.55a51.85,51.85,0,0,0,4.17-4.94c5.16-7.21.25-11.88-12.23-6.14-.56-5-3.94-6.27-7.18-4.63s-7.92,9.4-10,12.78C342,111,338.5,99.89,333.34,101.87Z" transform="translate(-117 -30.65)"/><path class="cls-2" d="M366.18,123.22c-12,8.56-24.89,8.25-37.85,19.37a35.85,35.85,0,0,0-6.77,7.72c.32-.27,1.2-.95.88-.71,8.31-6.24,18.78-8.32,29.7-14.48,10.62-6,14.41-12.27,14.05-11.91Z" transform="translate(-117 -30.65)"/><path class="cls-2" d="M335.65,156.69c-5.92.26-14.81,2.67-14.14,2.67,6.19-.22,13.47-.53,18.85,1.61.42.19,1.15.44-.59.36a4,4,0,0,0-3.78,5.34c-4.92-.27-9.3-1.28-15.11-1.84-6.86-.66-10,.23-9.49.19,5,.57,9,2.83,13.65,5.11,8,3.94,15.76,7.51,23.9,3.75,2.85-1.33,3.31-6.12,0-8.08-1-.57.24-.1.76-2a3.05,3.05,0,0,0-.78-3c-3.57-3.61-8.21-4.4-13.27-4.16Z" transform="translate(-117 -30.65)"/><path class="cls-2" d="M301.21,175.4c2,1.83,12.13,2.88,14.71,5.61-.4.06.06.84-7.51.88-22.82,0-16.92,0-12.68,1.68,2,.79,4.1,1.6,6.19,2.3,18.38,6.17,21.34-4.11,17.39-7.39-2.34-1.94-6.91-2.14-11.17-2.32-3.7-.18-5.44-.34-5.12-.32a8.12,8.12,0,0,1-1.81-.44Z" transform="translate(-117 -30.65)"/><path class="cls-2" d="M290.13,205.89c-4.52,2.65,3.82,13.65,7.37,25.6,2.15,7.25,1.68,13,1.89,12.16,2.69-17.39-5.47-29.47-.47-23.13a43.48,43.48,0,0,1,8.17,18.68c.07.31,2-10.5-.92-18.44-3-8.39-12.14-17.15-16-14.87Z" transform="translate(-117 -30.65)"/><path class="cls-2" d="M355,194.62a32.43,32.43,0,0,0-12.81,6.91c-11,9.12-25.3,36.69-25.12,36.37,8.54-10.74,28.38-44.54,47.55-37.32,5.58,2.6,4.9,8,1.2,13.13-6.12,7.51-13.6,8.16-23.4,11.93-9.06,3.5-12.58,8-12.2,7.67,10-6.43,22-2.91,34.41-9.8,18.66-10.36,13.31-34.35-9.63-28.89Z" transform="translate(-117 -30.65)"/><path class="cls-2" d="M328.41,246.13a25.16,25.16,0,0,0-6.58,2.25c23.71-6.47,27.47,15.34,44.76,28.2a32.22,32.22,0,0,0,9.15,4.87c-10.13-7.06-22.82-40.11-47.33-35.32Z" transform="translate(-117 -30.65)"/><path class="cls-2" d="M225.06,254.31c-2.31,5.73-2.26,12.74-2.73,15.09-1.74,8.57-1.88,12.65-1.8,12,2.09-4.89,11.57-20.31,8.76-27.11a2.2,2.2,0,0,0-4.23,0Z" transform="translate(-117 -30.65)"/><path class="cls-2" d="M303,247.37c-22.84,3.36-54.25,35-68.49,55.07-3.77,5.33-4.6,7.43-4.41,7.09,8.49-13.21,61.39-64.25,79.07-61.95h0c1.19.24-1.49-.87-6.16-.2Z" transform="translate(-117 -30.65)"/><path class="cls-2" d="M201.23,332.89c2.42,19.93,2.64,28.51,9.11,48.75-1.61-21.87-2.3-29.32-9.11-48.75Z" transform="translate(-117 -30.65)"/><path class="cls-2" d="M223.17,398.36c-.84-1.57-1.74-3.11-2.64-4.68a1.59,1.59,0,0,0-.85-.86c-.53-.14-1,.29-1.39.71-5.45,6.54.42,12,2.8,18.1,1.46,3.75,3.08,7.43,4.61,11.14q4.78,11.52,9.55,23.05L241,459.65c.64,1.55,1.41,3.23,2.92,4,2.17,1,4.86-.52,5.91-2.69,1.85-3.82.9-9.65-1-13.26-1.69-3.21-4.24-5.87-6.58-8.64-8.93-10.57-12.06-23.35-16.95-36.13A43.45,43.45,0,0,0,223.17,398.36Z" transform="translate(-117 -30.65)"/><path class="cls-3" d="M191.27,141.4c-8.46,2.87-16.41,21.91-19.4,30.28-3.14,8.91-.81,2.15,3.94-5.63,2.45-4,13.07-20.35,17.5-20.19,1.69.43,2.62,5.92,2.86,7.65,2.28,17.65-11.32,18.23-19.69,28.77A18.18,18.18,0,0,0,173,197.44c-1.11-12.2,7.48-17.26,7.21-16.95,11.73-8.94,22.94-9.55,20.21-29.71-.81-5.8-3.54-11.26-9.1-9.38Z" transform="translate(-117 -30.65)"/><path class="cls-3" d="M150.87,95.51c-6.37,1.9-8.73,9.57-9.32,16.17-1.19,12.72,2.72,21.33,8.89,32.53,5.43,9.81,6.36,12.51,6,11.57a37.3,37.3,0,0,1,2.82,9.67c.54,4,.69-5.35-3.09-15.14-3.87-10.05-9.21-18-10.76-28.89-.83-6.7-.66-17.43,4.51-21.76,9.73-7.14,21,11.92,22.83,24.86v0c1.52,10.85-1.8,22.24-4.33,33.27-3.37,14.58-2.6,21.11-2.6,20.56.67-19.83,11.26-35.29,9.06-54.15-1.6-13.67-12.21-32.19-24-28.66Z" transform="translate(-117 -30.65)"/><path class="cls-3" d="M117.84,155.41c-1.5,1.93-.53,5.67-.53,5.3.84-9.83,6.86-1.65,15.16.81,11.18,3.32,15.63-3.38,22.08,13.79a31.54,31.54,0,0,0-3.39-9.49c-3.26-5.39-8.51-5.23-15.13-6.6-6.41-1.37-15-7.83-18.19-3.81Z" transform="translate(-117 -30.65)"/><path class="cls-3" d="M124.91,163.16c6.38,7.94,17.26,9.88,23.77,14.75l0,0a18.28,18.28,0,0,1,3.26,3.19c-4.46-7.65-9-9.05-18.17-12.9-6.66-2.83-9.13-5.32-8.82-5.06,0,0,0,0,0,0Z" transform="translate(-117 -30.65)"/><path class="cls-3" d="M157.93,187.34c13.64,22.9,3.36,36.53,36.29,123.88,2.72,7.21,5.24,15.66,2.53,5.84-3.28-11.92-6.45-22-10-33.11-15-47-12-54-19.6-77.48-4.54-13.88-9-18.81-9.21-19.13Z" transform="translate(-117 -30.65)"/><path class="cls-3" d="M171.55,203.13c1,49.39,32.42,113.82,28.17,105.33-27.05-77.13-22.83-77.06-28.17-105.33Z" transform="translate(-117 -30.65)"/><path class="cls-3" d="M201.84,132.29c-.63,29,1.39,51.09,3.28,81,4.07,64.21.55,96.26.7,95h0c6.85-47.4-2.16-118.24-3.93-176l0,0a0,0,0,0,0,0,0Z" transform="translate(-117 -30.65)"/><path class="cls-3" d="M208.58,132c-3.83,26.93-2.41,50.76-.43,78.08,6.35,86.49,3.7,96.71,3.93,95.8,6.06-46.47-7.5-116-3.45-173.87a0,0,0,0,0,0,0,0,0,0,0,0,0,0Z" transform="translate(-117 -30.65)"/><path class="cls-3" d="M217.3,102.14c-4.58,7.36-3.81,17.37-3.81,16.53a36.54,36.54,0,0,1,6-15.44c5.55-6.77,5.23,6.36,9,3.36,1.22-1,4.5-3.62,6.05-3.57,2.19.8.19,12.89,8.53,17-7,7-22.05,6-31.77,10.07a52.11,52.11,0,0,1,7.09-1.42c-.68.17,12-1.27,15.35-1.93,7.71-1.53,15.86-7,11.89-8.52-8-4.44-5.2-11.1-7.77-16.31-2-4-6.45-1.78-10,1-3-5.58-7.22-6.24-10.65-.78Z" transform="translate(-117 -30.65)"/><path class="cls-3" d="M190,111.68c-1.63,1-2.86,4.44-.42,9.07a15.2,15.2,0,0,0,7.7,6.61c-8.1-6.44-8.35-14.83-5.33-14.65,2.4.47,5,4.22,4.78,3.9,1.92,2.51-2.67-7.44-6.73-4.93Z" transform="translate(-117 -30.65)"/><path class="cls-3" d="M208.28,60c-2.92,1-3.95,4.8-4.11,7.94a18.32,18.32,0,0,0,1.43,8c-1.18-7.31,1.68-20.32,8.54-8.93,2,3.38,3.88-3.55,8.89-3.13,1.85.36,2.89,1.61,3.67,3.32,2.41,6.37-2.48,10.56,1.44,10.82,25.69,2-29.09,5.63-18.79,36.82.09.36-.5-2.35-.71-3.83-1.09-8,2-13.25,8.18-18.08a61.29,61.29,0,0,1,9-5.67c4.14-1.9,8.93-3.56,11.27-5.74,1.87-1.77,1.7-4.09-1.93-5.49-5.72-2.23-4.86.58-4.27-2.95,1.76-10.09-7.46-17.36-15.22-9.5-1.85-2.31-4.59-4.56-7.38-3.57Z" transform="translate(-117 -30.65)"/><path class="cls-3" d="M173.77,75.55c-7.9,1.38,12.94,19.28,24.71,25,.38.19-.87-.6-5.09-4.35-21.16-18.69-19.41-19.42-19.22-19,1.88-.68,7.31.61,6.47.4-1.83-.9-4.88-2.36-6.87-2Z" transform="translate(-117 -30.65)"/><path class="cls-3" d="M152.44,30.86c-2.69.7-4.59,3.31-2.83,7.07,1.15,2.45,4.19,5.38,6.18,7.2,1.07,1,4,3.57,4.68,4.23-1.44.79-3.35,2-4.09,3.51a3.24,3.24,0,0,0,1,4.14c3.74,3.29,6.75,1.56,22.54,11.14a124.51,124.51,0,0,1,11.56,7.95c.32.25,5.88,4.77,5.56,4.45C173.1,56,159.64,58.34,158.64,54.4c.31-.26-.41-1,4.69-3.49,3.79-1.82-12.48-11.93-11.18-16,2.25-4.05,16,6.31,19.75,9.66,2.11,1.88,3,3.71,4.95,2.59,2.34-1.36-.06-4.15.06-8.94,2.66,2.48,4.74,7.08,5.73,10.57a2.27,2.27,0,0,0,4.14.54c.54-1,2.93-5.63,3.69-4.72,2.66,3.85,3.93,16.66,5.39,25.26.88,5.22,1.35,5.77,1.29,5.51-1-5,.58-27.18-3.53-33.09-1.81-2.62-4.82-3.2-8.12.77-4.9-11.53-11.23-12-12.84-7.2a11.42,11.42,0,0,0-.24,3.72c-4.71-3.62-14.21-10.2-20-8.74Z" transform="translate(-117 -30.65)"/><path class="cls-3" d="M226.3,247.62c-10.73,13.09-5.7,24.76-7.58,38.87h0c-.56,3.79-1.45,6.36-1.23,5.91,5-13,1.5-26.16,8.67-38.21,1.22,15.24-3.49,21.74-3.34,21.42,10.29-12.62,7.72-33.25,3.48-28Z" transform="translate(-117 -30.65)"/><path class="cls-3" d="M294.61,186c-38.66,29.92-51.89,77.55-79.84,125.74,27.77-42.28,43.84-86.5,79.87-125.71,0,0,0,0,0,0Z" transform="translate(-117 -30.65)"/><path class="cls-3" d="M289.29,182c-43.14,45.13-66,109-63.53,103.06,18.07-40.59,40.41-70.17,63.53-103.06Z" transform="translate(-117 -30.65)"/><path class="cls-3" d="M272.8,135.56c-4.71,6-4.5,13.76-.85,19.89a16,16,0,0,1-2.4.08,1.85,1.85,0,0,0-1.79,2.35c2,9.44,10.95,10.63,17,15.26a.19.19,0,0,1-.07-.06,17.25,17.25,0,0,1,2.86,2.83c.6.75,1.46,2.28,1.43,2.13-3.5-9.56-14.82-10.78-17.12-18.61,15.88.38-3.25-5.94,2.07-20.83.26.32,4.22,5,4,4.63,1.31,1.73,1.68,2.68,1.59,2.31-1.08-3.48-3.37-6.44-4.85-9.75a1.15,1.15,0,0,0-1.81-.23Z" transform="translate(-117 -30.65)"/><path class="cls-3" d="M287.8,146.56a8.64,8.64,0,0,0-3.3,3.95c1.26-1.25,1.67-2.31,3.12-3h0c.7,7.86,4,11.28,6.2,18.3a19.53,19.53,0,0,0-.62-4.88c-1-4.26-3.48-8.79-4.76-14.12a.45.45,0,0,0-.65-.27Z" transform="translate(-117 -30.65)"/><path class="cls-3" d="M298.67,113.61c-9.14,13.76-2.07,13.31-6.33,12.62-5.16-.82-6.49,1.48-5.61,4.42.64,2.12,2.27,4.51,4.06,7.56,5.27,9.15,9.55,10.8,11.87,15.91a7.3,7.3,0,0,1,0,6c-.7,2.06-3.41,4.9-5,6.36a18.39,18.39,0,0,0,5.78-6.46c1.83-3.91.2-7.4-2.37-10.87-.85-1.14-4.55-5.72-4.25-5.32-1.76-2.25-8.2-13.21-7.71-14.89v0c2.78-1,7.76,2.57,7.51-.62-.37-4.59.75-7.19,3.26-11.1,2.14,2.86,4.73,4.08,6.64,6.43,1.59,2.26,3.26-1.06,5.2-3.62,2.61,6.55,2,17.18,2.24,25.55a134.88,134.88,0,0,0,1.71-15.31c.1-6-1.14-10-2.83-13a1.14,1.14,0,0,0-1.94,0c-.63,1-2,2.37-3.12,3.7-1.64-1.85-3.64-3.18-5.35-5.3-1.29-1.78-1.1-2.81-2.48-2.81a1.52,1.52,0,0,0-1.3.75Z" transform="translate(-117 -30.65)"/><path class="cls-3" d="M336.2,98.79c-4,.06-6.26,4.48-7.44,8.26-10.63-3.3-3.66,29.69-8.6,39,0,0,0,.06,0,0,5.09-7.64,3-35.37,7.14-36.44,1.15,0,1.49,1.21,2.71.86s.89-1.07,2-3.74c2.62-6,5-5.52,7.26-2.66,5,7,1.56,12.08,4.46,12.89,1.93.54,2.25-1.64,2.69-2.74,2.33-5.25,9.59-12.15,12.21-11.39a4.06,4.06,0,0,1,.15,2c-.63,4.09-2.2,5.09-.8,6.48a1.9,1.9,0,0,0,2.3.3c4.28-3.22,13-8.63,13.91-3.35.52,6.56-7.34,13.78-6.88,15.41s1.83,1.15,5.61,2.67c.77.34.8.26,0,.59-8.25,3.36-14.43,2-23.18,7.78-3.05,2-11.37,9-9.93,7.79-6.81,5.28-11.78,6-11.46,5.93,13.27-1.38,17.84-12.14,34.27-15.08,4.59-.83,15.77-2.48,15.36-6.81-.23-2.52-2.91-3.57-5.56-4.43,10.07-13.28,5.73-24.47-7.72-17.85-2.78,1.36-2.27,1.71-2.16.26.5-5.93-5.81-9.16-15,1.37-3.56,4.09-1.61,4.36-3.61-.29-3.19-7.43-7.49-6.69-7.81-6.86Z" transform="translate(-117 -30.65)"/><path class="cls-3" d="M339.48,154.72c-5.52.24-11.05,1.19-16.58.49h0c-.49-.07-2.66-.46-2.19-.34,9.49,3.31,21.84-.11,29.66,4L346,161.22a1.81,1.81,0,0,0-.44,3.29c7.67,3.61,7.32,4.87,7.64,5.1-1.17,1.35-5.17,2-6.94,2.23-14.67,1.83-16.22-4.18-29-5.52a53.13,53.13,0,0,1,10.41,4.82c19.61,11.14,40.78,0,22.8-8.45a25.32,25.32,0,0,1,3.53-2.08c3.2-1.27-.37-6.49-14.51-5.89Z" transform="translate(-117 -30.65)"/><path class="cls-3" d="M311.24,165.59A25.62,25.62,0,0,0,300,173.93c-.86,1.08,1.3,1.34,2.78,1.59,4.26.66,19.35,1.82,18,5.62-1.36,2.88-19.6,3-23,1.58h0l-.09,0c7.3,4.43,26.81,7.18,26.93-2.13.08-7.68-17-6-23.12-6.66.21-.31.94-1.28.69-1,3.45-4.5,7.65-6.41,9.08-7.34Z" transform="translate(-117 -30.65)"/><path class="cls-3" d="M287.25,205.88c-1.54,1.57,2.9,11.57,3.84,13.54,2.34,4.89,4.82,8.56,5.5,12.92.8,7.16-5.34,13.87-5.08,13.53-10.26,13.41-27.27,23.42-43.44,35.78-23,17.57-27.41,30.23-26.3,28.33,15.8-24.73,49.36-37.64,69.47-59.72,16.56-18.14,4.92-23.72-.54-40.84,6.61,2.44,12.81,6,17.22,11.4.34.33-2.08-4.82-7.84-9.38-2.19-1.73-10.92-7.47-12.83-5.56Z" transform="translate(-117 -30.65)"/><path class="cls-3" d="M352.33,193.79c-32.7,6.12-23,32-41.38,42.24-.22-3.29-1.86-6.14-1.92-9.27,0-.1-.47-.24.47,6.33a14.86,14.86,0,0,1,.1,3.38q0,.3-.12.6a.76.76,0,0,0,.92.92c20.25-6.75,13.73-27.82,37-37.73-4.42,1.77,16.95-8.65,27.23-.92a12,12,0,0,1,3.69,4.92c1.72,4.08.35-15.4-26-10.47Z" transform="translate(-117 -30.65)"/><path class="cls-3" d="M375.73,215.14c-9.54,17.31-39.45,11.59-57.83,26.3-.09.09,1.24-.57,2.38-1.06,17.54-5.66,34-5.77,46.51-14.12,7.58-5.06,9.14-11.46,8.95-11.13Z" transform="translate(-117 -30.65)"/><path class="cls-3" d="M368.22,268.36c5.89,5.67,12.17,12.28,11.76,11.85-15.78-22.78-34-40-61.56-35.07C322.19,246.29,337.42,238.76,368.22,268.36Z" transform="translate(-117 -30.65)"/><path class="cls-3" d="M316.44,250.1a41,41,0,0,1,9.3,2.65c7.39,3.24,14.58,8.29,27,16.39,8.05,5.19,14.36,15.45,20.49,15.94,3.11.25,4.94-3.31,4.66-3-6.8,7.81-12.27-7.48-19.16-15.18-8.95-9.9-26.8-18.81-42.32-16.83Z" transform="translate(-117 -30.65)"/><path class="cls-3" d="M309.21,250.61C282.59,256.91,253.77,284,234,303c-15.17,14.57-26.94,25.51-24,48,0,0,.06,0,.06,0-.71-17.67,7.51-29.05,20.42-41.78,57.37-56.69,75.56-56.63,78.72-58.6Z" transform="translate(-117 -30.65)"/><path class="cls-3" d="M196.29,323.47c16.91,100,45.7,137.28,45,135.94-19.72-37.33-36.35-101.08-45-135.94Z" transform="translate(-117 -30.65)"/><path class="cls-3" d="M212.24,354.08c-1.34,23.17,11.89,46.85,19.31,67,4.84,13.2,20.29,30.6,19.14,39.3a4.65,4.65,0,0,1-3,3.61c-1.42.58-4.61,1.12-4.84.81a0,0,0,1,0,0,0l0,.1c23,1.08-2.42-30.9-7.25-41.95-.5-1.13-1.37-4-6-14.61C219.55,385,213.55,373,212.24,354.08Z" transform="translate(-117 -30.65)"/><path class="cls-3" d="M202.74,312c-.37,11.69,3.26,17.12,3.63,14.58a45.48,45.48,0,0,0,0-12.55c0-.32-.19,3.92-1,9.91a51.94,51.94,0,0,1-2.61-12l0,0Z" transform="translate(-117 -30.65)"/><path class="cls-4" d="M355.85,284.7c-5.27-3.1-15-1-21,.34-4.87,1.08-10.48,2.11-17.08,4.84C270,308.94,261.81,363.21,255,389.38l-.2.73c.94-6.88-15.8-61.53-14.86-69.65.44-2.54,2.08-3.55,5.22-5.55,4.55-2.9,8.75-5.42,12.95-9.41,8.24-7.85,2.76-12.65-.69-11.08l.22-.15a51.4,51.4,0,0,1,6.78-11.62l-.18,0,.5-.41c.61-.71,1.15-1.34,1.7-1.91a1.24,1.24,0,0,0-.86-2.09c-.27,0-.11.08-1.1.26-.74.08-2.45.11-2.28.1s.21-.14.3-.29c2.25-3.93,7.31-7.83,6.93-13.71-.22-2.36-2.48-.64-6.79.66,3.15-4,.27-20,0-22.11a1.32,1.32,0,0,0-.63-1.16,1.54,1.54,0,0,0-.8-.3c-2.28,0-11.57,8-18.34,20.63v-.36A6.64,6.64,0,0,1,242,260a1.32,1.32,0,0,0-1.16-.9c-1.2,0-3.53,3.18-4.17,4.2-2.4,3.74-3.52,9.18-5,13.24l.06-.32a40.46,40.46,0,0,0-1.86-5,1.19,1.19,0,0,0-2.09,0c-2.78,5.93-4.28,12.16-2.81,18.53l-.06-.2c-2.91-1.8-2.54-1.92-3.15-1.92a1.28,1.28,0,0,0-1.16.9c-1,4.81.34,9.18,2.22,13.8-.18-.37-3.69-.2-3,2.26.46,2,6.17,5.54,7.95,6.71,1.78,1.52,7,3.14,8.15,10.56.19,1.24.3,3.64.36,4.92.37,7.46,2.89,25.18,2.87,25-5.26-11.07-16.5-18.22-27.87-22.93-1.79-3.48-1.62-2.2-.66-2.72a1.13,1.13,0,0,0,2.11-.79C207,305,185.53,285.51,169,278c-7.76-3.55-15.44-7.26-23.14-10.92a3.24,3.24,0,0,0-1.88-.45c-.64.12-1.2.85-.9,1.43,5.16,4.47,10.9,7.09,16.64,10.58,3.34,2,7.1,5,10.12,6.89,1.6,1,3,1.87,4.3,2.72,5.52,7.44,12.4,13.77,18.71,20.35,7.22,9.74,11.29,12.63,15.07,19-.81-.37-5-2-4.57-1.86-5-2.33-10.35-5.24-13.84-1.5-2,2.26.69,3.95,0,6.07-.63,1.9-3.58,2.73-5.31,2.88-1.89.16-3.85,0-5.64.64s-3.37,2.49-2.85,4.32c.27.94,1,1.69,1.25,2.64.4,1.82-1.28,3.38-2.85,4.39s-3.4,2.2-3.5,4.06,1.58,3.25,3.09,4.32l7.69,5.45c1.89,1.34,3.9,2.72,6.21,2.94a9,9,0,0,0,6.46-2.39c2.15-1.85,3.24-4.07,5.79-5.33,2.78-1.37,6.41-.39,8.82-2.34,2.18-1.76,2.86-8.34,6.72-7.13,2.36.73,4.07,6.48,5.25,8.55,2.87,5,6.24,9.69,9.52,14.44a95.17,95.17,0,0,1,8.48,14.46c3,6.66,7.29,16,7.41,23.4.23,14-1.94,34.6-1.92,34.42-.69,7.74-5.17,14.16,1.22,17.51,7.92,4.27,5.93-10,6.06-27.07,0-3.25.13-4.8.12-4.63.35-9.29,8.22-26.08,5.66-32.38l.06-.18c.15.47,1.55.1,1.56-1,.29-18.49,8.75-45.42,21.63-62.25,19.36-25.23,69.7-35,78-40.52C360.13,288.36,357.61,285.69,355.85,284.7ZM248.08,397.62c-2.83-9.08-15.73-34.35-15.35-33.56.54-1.21-.3-.46-5.87-10.66-.5-.93-4.14-7.71-5-8.08-.73-.71-2.25-.5-1.82,2.26-2.62-5.1-2.2-4.39-1.86-4.55,16.86-6.36,26.33,37.63,31.81,51.17C249.77,394.64,248,397.79,248.08,397.62Z" transform="translate(-117 -30.65)"/><path class="cls-3" d="M260.68,240.09c-10.4,5.95-16.65,12.77-19.91,18.82-.17-.2-.34-.4-.52-.59a1.7,1.7,0,0,0-2.4,0c-8.92,8.91-7.25,16.61-8.31,11.78a1.22,1.22,0,0,0-1.49-.85c-1.13.31-2.92,4.28-3.35,5.44-1.46,3.92-1.58,8.75-1.07,12.92-.58-.6-1.16-1.2-1.69-1.85-1.1-1.49-2.17-.59-2.27,0-1,5.89-.86,11.94,1.76,17.29-3.43-.05-3.34-.65-3.94-.07a.94.94,0,0,0-.14,1.11c3.22,6.76,11.13,8.49,16.67,12.71,0,0,0,0,0,0-2.3-2.19-10.71-7.72-10-7.26a18.51,18.51,0,0,1-3.43-3.32,15.21,15.21,0,0,1-.86-1.29c1.14.13,2.3.14,3.45.28a1,1,0,0,0,.89-1.56c-2.56-4.64-3.07-9.64-2.56-14.88,3.33,3.52,3.27,3.86,4.14,3.62,1.38-.38.67-1.95.33-4.4-.62-5-.48-10.29,1.95-14.71a27.83,27.83,0,0,1,1.35,4,1.26,1.26,0,0,0,1.21.92c2.77,0-.53-7.08,8.22-16,.65,1,1.26,2,2.42,2,3.17,0,.48-7.23,18.31-20,.28,2.91,1.2,7.75,1.57,10.43,1,7.75-.23,11.25-.11,11,3.48-7.57,1.8-15.05,2.81-23.7a2,2,0,0,0-3.07-1.77Z" transform="translate(-117 -30.65)"/><path class="cls-3" d="M268.18,263.87c-1.83.76-3.78,1.18-5.54,2.1,0,0,0,0,0,0a45.65,45.65,0,0,1,5.16-1.39,33.26,33.26,0,0,1-5.25,11.1c-1.42,1.78-2.09,1.93-1.83,2.88.35,1.27,1.35.77,4.54.72.17,0,.43-.43-4,5.5-1.18,1.56-5.72,7.85-5.72,10a2.56,2.56,0,0,0,2.56,2.56,10.76,10.76,0,0,1,2.9.5c-1.24,4.24-16.14,16.94-20.19,19.49-1.47,1,13.52-6.94,20-15,4.21-5.19,3-8.14-1.3-9.11,2.34-4.41,10.94-13.07,10.94-15.58,0-1.25-1.47-2.38-2.47-2a15.39,15.39,0,0,1-3.4.7c2.3-4,4.89-13,3.63-12.51Z" transform="translate(-117 -30.65)"/><path class="cls-3" d="M240.41,322.07c-.31,27,9.45,44.59,14.26,71.78.05.18.13-4.54-7.56-39.07-6.41-28.34.43,3.82-6.7-32.71Z" transform="translate(-117 -30.65)"/><path class="cls-3" d="M235.52,321.74a57.33,57.33,0,0,0,4.15,28.46c-7.37-47.22-1.32-8.8-4.15-28.46Z" transform="translate(-117 -30.65)"/><path class="cls-3" d="M331.19,283.68c-46.64,5.16-68.15,52-75.19,98.57,0,.39,1.86-8.74,4.71-18.85,6.84-24.29,16.77-48.07,36.54-63.44l-.2.17c8.23-6.36,16.73-10.3,14.76-9.49C324.52,285.28,343,284,355,284.85a74.22,74.22,0,0,0-23.78-1.17Z" transform="translate(-117 -30.65)"/><path class="cls-3" d="M357.24,288.72c-39.83,14.9-73.72,20.49-88.63,62.71-10.61,30.1-16.47,65.46-16.43,65.29,15.47-51.64,16.24-68.76,29.1-85.64,18.62-24,44.51-28,76-42.33,0,0,0,0,0,0Z" transform="translate(-117 -30.65)"/><path class="cls-3" d="M252.27,419.9c-2.75,11.93-2.58,26.13-4.45,36.22-1.3-.22-4.22-.8-5.46-1.15a13.38,13.38,0,0,1,.89-5.87c.73-1.81-2,2.33-2.53,6.5-.14,1.27,6.71,3.43,8.24,3.55,4.74.35,3.31-42,3.33-39.26Z" transform="translate(-117 -30.65)"/><path class="cls-3" d="M220.05,351.29c23.41,36.39,23.41,36.39,24,64,.24,10.34-.05,19.89,1.2,30.61,0,.17-.42-2.55.78-25.13,2-37.71-12.5-50-26-69.47h0a0,0,0,0,0,0,0Z" transform="translate(-117 -30.65)"/><path class="cls-3" d="M189.16,322.21a4.82,4.82,0,0,0-3.93,4.78c0,.59,0,1.17,0,1.75-.48,2-13.42,1.58-12.12,10.52.56,3.61,2,1.37-1.37,4.55-9.09,8.58-1.43,9.92,3,13.24,5,4,16.09,9.64,21.09,5.57,2-1.61,2.18-4.05,3-4.87,9.35-1.8,11.05-.76,14.08-5.17,2.3-3.33,1.41-6.35,5.91-8.35,3-1.19,5-1.12,8.05,1.18,9.9,7.95,25.5,47.94,14.76,20.78-4.2-10.6-11.27-27.85-22.29-25.4-8.19,1.8-7.25,8-10.94,11.06-.63.45-1.95.53-6.43,1-3.56.4-5.66.36-7.36,3.15-1.15,1.89-2,5.29-3.42,5.59-3.72.25-9.33-2.24-13.1-5.39a64.06,64.06,0,0,0-7.67-5.84c3.9-4.53,8.5-5.4,6.63-8.36-.55-.87-.68-5.1-.65-6.06.36-1.44,9-.71,12.08-3.58,2.09-1.95,1.06-4.87,1.1-6,.08-.3.61-.55.91-.69a11.56,11.56,0,0,1,6-.49A49.81,49.81,0,0,1,207,328.42c-5-3.64-11.67-7.7-17.8-6.21Z" transform="translate(-117 -30.65)"/><path class="cls-3" d="M210.1,328.1c4.48,4.23,10.85,5.78,15.17,7.59,2.72,1.17,3.65,1.95,3.52,1.75-4.77-5-11.06-6-15.89-8l.09,0a26.17,26.17,0,0,1-2.87-1.4s0,0,0,0Z" transform="translate(-117 -30.65)"/><path class="cls-3" d="M228.78,337.21c4,9.52,8.31,13.35,8.2,13.18-1.27-2.19-2.45-4.43-3.74-6.6-1.62-2.71-4.64-6.87-4.45-6.6,0,0,0,0,0,0Z" transform="translate(-117 -30.65)"/><path class="cls-3" d="M239,355.2a55.62,55.62,0,0,0,6,8.49.55.55,0,0,0,.86-.67c-2.87-5.4-5.07-13.32-1.95-2.41-.54-.63-5.17-5.76-4.87-5.44,0,0,0,0,0,0Z" transform="translate(-117 -30.65)"/><path class="cls-3" d="M136.61,263.94a2.73,2.73,0,0,0,.43,3.31c15.33,13.07,32.76,17.79,44.7,31.27a252.7,252.7,0,0,0-38.46-31c14.31,5.13,42.7,16.23,54.09,32.73,11.63,16.84,14.59,25.33,14.1,23.37-9.22-28.39-25.19-42.52-53.16-54.23-4.38-1.84-17.9-6.85-19.33-6.85a2.83,2.83,0,0,0-2.37,1.36Z" transform="translate(-117 -30.65)"/><path class="cls-3" d="M184,300.33c3.38,3.36,5.61,6.41,8.1,9.35a47.81,47.81,0,0,0,9.05,8.35c-2.68-3.25-5.4-7.3-8.63-10.69a42,42,0,0,0-8.51-7,0,0,0,0,0,0,0Z" transform="translate(-117 -30.65)"/><path class="cls-3" d="M224.58,347.28c5.33,13.56,10.68,22,23.43,49.06a1.05,1.05,0,0,0,2-.53,51.68,51.68,0,0,0-4.22-18.1,68.29,68.29,0,0,1,2,9.35c.61,4.79.3,3.31-.12,2.28-5.56-13.32-12.72-22.48-23-42.06Z" transform="translate(-117 -30.65)"/><path class="cls-3" d="M251.05,259.28c-4.23,14.14-12.13,29.15-12.9,47.47a45.64,45.64,0,0,0,.2,7.42c.31-20,8.92-29.36,12.7-54.89Z" transform="translate(-117 -30.65)"/><path class="cls-3" d="M228,296.11a22.42,22.42,0,0,0,6.69,9.74c-4.46-7.38-6.81-9.93-6.68-9.76,0,0,0,0,0,0Z" transform="translate(-117 -30.65)"/><path class="cls-3" d="M236.14,273.88c-.68,7-1.09,10.83.66,17.94.07.21.45-6.86.45-9a39.64,39.64,0,0,0-1.09-9l0,0Z" transform="translate(-117 -30.65)"/><path class="cls-3" d="M251.4,297a9.37,9.37,0,0,0-6.11,8.81c0,.2.13-.36.6-1.47A20.48,20.48,0,0,1,251.4,297Z" transform="translate(-117 -30.65)"/><path class="cls-3" d="M254.6,280.39a10.69,10.69,0,0,0-5.35,5.25A29.21,29.21,0,0,0,252,283.3a32.66,32.66,0,0,0,2.61-2.91Z" transform="translate(-117 -30.65)"/><path class="cls-3" d="M197.6,337.78c-4.61,1.55-8.64,4.69-12.2,7.93-2.78,2.53-3,2.62-2.86,2.57,15.25-5.46,21.81-13.06,28.67-7.87.17.15,1.41,1.33,1.3,1.16-3-5.49-9-5.8-14.91-3.79Z" transform="translate(-117 -30.65)"/><path class="cls-3" d="M205.05,342a7.83,7.83,0,0,0-7.64,5.69c-.23.91.62-2.56,7.64-5.69Z" transform="translate(-117 -30.65)"/><path class="cls-3" d="M196.34,329.22a29.1,29.1,0,0,0,7.73,3.73,38.73,38.73,0,0,0-7.72-3.77s0,0,0,0Z" transform="translate(-117 -30.65)"/><path class="cls-3" d="M192.64,349c-1.57,2.53-2.06,5.24-.53,1.64a7.86,7.86,0,0,0,.54-1.65,0,0,0,0,0,0,0Z" transform="translate(-117 -30.65)"/><path class="cls-3" d="M329.65,292.65c-41.5,11.65-42.84,27.92-42.78,27.75,6.76-16.3,29.53-22.24,42.78-27.75Z" transform="translate(-117 -30.65)"/><path class="cls-3" d="M185,292.53c3.85,6.78,8.35,10.36,14.09,14.7,1.06.71-11.57-12-14.09-14.7Z" transform="translate(-117 -30.65)"/><path class="cls-5" d="M260.35,281.77c-3.12,2.84-7,5.49-8.87,9s-.93,7,3,9.31c-4.84,3.16-11.21,10.82-11,10.7,4.06-3.48,8.55-8,13.26-10a.88.88,0,0,0,0-1.52c-7.6-5.21-4-7.59,3.63-17.45Z" transform="translate(-117 -30.65)"/><path class="cls-5" d="M258.68,248.05c-1.42,7.13-7.46,19.51-1.33,23.9a4.47,4.47,0,0,0,2.18.79c-7,9.05-.31,9.1-1.28,8.67h0a2.84,2.84,0,0,1-.74-.42c-2.71-2.13,3.41-7.45,6.14-9.4a1.31,1.31,0,0,0-1-2.39c-.18,0-2.28.29-2.9-.38-1.48-2.3-.59-11.15-.73-17.06a16,16,0,0,0-.33-3.74,0,0,0,0,0,0,0Z" transform="translate(-117 -30.65)"/><path class="cls-5" d="M228.25,279.68c-.21,2.87.53,8.95.8,13.2-1.79-.51-3.17-.68-4-1a1.47,1.47,0,0,0-1.85,1.4c.43,5.39,5.73,9,3.12,12.64-.5.72,2.68,2.95,4.31,3.39a9.06,9.06,0,0,1-3.4-3.11c2.76-3,0-7.19-.87-10.7a16.29,16.29,0,0,1,3.51,1.2,1.66,1.66,0,0,0,2.42-1c.48-3.28-1.44-8.86-2.8-13.23a16.42,16.42,0,0,1-.87-3.28c-.08-.65,0-.48,0-.65s0,0,0,0l0,0h.08c.3.1-.34-.66-.49,1.13Z" transform="translate(-117 -30.65)"/><path class="cls-5" d="M258.06,249.79c-10.12,4.29-15.7,10.83-17.9,17.12a16.46,16.46,0,0,1-1.85-2.06.85.85,0,0,0-1.46,0,19.34,19.34,0,0,0-2,5.76,18.3,18.3,0,0,0-.09,6.1,17.76,17.76,0,0,1,1.31-7.48,13.51,13.51,0,0,1,1.25-2.27c.61,1.19,2.12,3.12,2.31,3.91a1.72,1.72,0,0,0,3.14.41,135.67,135.67,0,0,1,11.1-16.84,30.32,30.32,0,0,1,4.24-4.65Z" transform="translate(-117 -30.65)"/><path class="cls-5" d="M193.93,327.31c-2.67.36-1.79,3,0,5.12-3.67,1-12.23,5.11-12.65,6.6-.23.82.37,1.17.64,1.5.38.54.71,1.14,1.1,1.68a49.83,49.83,0,0,0-3.6,4.55,16.08,16.08,0,0,1-2.8,2.91h0c-.22.16-.23.2-.17.17,3.51-1.58,5.66-4.84,8.49-6.69a1,1,0,0,0,.13-1.68c-.37-.55-.64-1.17-1-1.75A83,83,0,0,1,196,334a1,1,0,0,0,.45-1.66c-.65-.57-3-2.69-2.75-3.51.17,0,.21-.72,3.4-.31H197a30.91,30.91,0,0,1,5,1.27c-2-1.18-5.71-2.74-8-2.43Z" transform="translate(-117 -30.65)"/><path class="cls-5" d="M218.11,337.89c-7.07,1.81-12.55,8-16,8.89-1.31-.8-2.37-1.63-5.18-.6-5.35,1.94-5.44,8.13-9.37,7.73-2.95-.54-9.76-5.46-5.51-2.21,4.47,3.4,6.63,5.83,10.95,1.39,8.7-9,5.44.74,12.45-4.19,5.26-3.69,7.15-8.15,12.69-11a0,0,0,0,0,0,0Z" transform="translate(-117 -30.65)"/><path class="cls-5" d="M345.12,289.54c-9.35,2-15,3.61-24.06,8.07a223.23,223.23,0,0,0-21.79,13,477,477,0,0,1,45.85-21.08Z" transform="translate(-117 -30.65)"/><path class="cls-5" d="M328.45,290.73c-9.2.44-16.69,4.2-25.06,9.72-.35.24,2.2-1,8-3.09,20.41-7.21,24.94-7,17.05-6.63Z" transform="translate(-117 -30.65)"/><path class="cls-5" d="M175.36,286.19c6.29,6.08,8.78,11.28,13.85,16.66a56.8,56.8,0,0,0,8.79,7.59c-4.51-4.47-6.46-8.9-12.07-15-6.49-7.09-10.4-9.09-10.57-9.22Z" transform="translate(-117 -30.65)"/><path class="cls-5" d="M201.53,310.09c1.49,5.27,3.51,8.26,6.18,12.15.14.21-1.17-3.84-6.18-12.15Z" transform="translate(-117 -30.65)"/><path class="cls-5" d="M245.58,366.8c1.58,5.09,3.26,9.44,5.11,16.44,2.14,8.09,1.18,10.59,1.43,9.84a26.12,26.12,0,0,0-.82-13.56c-1.49-4.74-6-13.29-5.71-12.74,0,0,0,0,0,0Z" transform="translate(-117 -30.65)"/><path class="cls-5" d="M253,398.76c-1.31,6.17-4,11.07-5.16,16.69-1.26,6.23.34,13.59.74,19.3,0,.91,1-12.47,1.08-13.4.4-5.07.53-5.68,2.13-13.15,1.45-6.76,1.24-9.64,1.22-9.45Z" transform="translate(-117 -30.65)"/><path class="cls-5" d="M239.54,331.11c-1.7,14.11,3.65,22.89,3.59,22.72-.56-2.19-1.17-5.63-1.61-8.24-2.6-14.95-1.43-10.2-2-14.48Z" transform="translate(-117 -30.65)"/><path class="cls-6" d="M248.73,441c-1.83,4.65-2.29,9.84-2.69,13.42-1.41-.68-2.17-1.42-2-1.21.61.8,2.42,2.83,2.69,1.85,1.33-4.43,1.23-8.1,1.77-12.22,0-.17.3-2.11.27-1.85Z" transform="translate(-117 -30.65)"/><path class="cls-6" d="M291.26,309.46c-14,11-18,28.33-17,25.42a97.8,97.8,0,0,1,6.05-10.39c8.25-12.86,11.12-15.21,11-15Z" transform="translate(-117 -30.65)"/><path class="cls-7" d="M285,297a2.72,2.72,0,0,1,1.64.64c2,2-3,6.73-5,8.68-9,8.52-11.54,7.28-12.13,10.71-.06.56.06.81.05.71s.08,0,.1,0,.71.21,3-1.46c.93-.75,3.56-3.2,3.86-1.95.76,3.53-3.4,6.4-6,9.7l-.09.06c-1.33,1.84-2.25,3.7-1.65,5.81.09-.07,3.08-2.42,3.69-2.42,1.35,0-.5,2.61-1.33,3.7-8,10.49-4.41,29-4.39,45.38,0,5.58.18,16.17.18,16.08.17,11.09-.14,10.08.48,8.14,3.76-12.15,14-30.22,12.45-42-1-7.18-4.89-7.76-8.13-10.65-2.33-2.14-2.66-4.23-1.56-6.56,1.24-2.75,3.31-4.08,5.51-1.68,2.44,2.81,5.09,10.33,5,8.5-.51-9.07-4.72-24.7,1.3-31a9,9,0,0,1,5.63-2.42c3.33,0,3.94,3.42,3.67,6.73-.75,9.84-6.58,19.2-7.42,28.31.38-.92,13-13.4,16.35-5.74.7,1.33-.39,3.53-2.09,5.1a26.93,26.93,0,0,1-5.23,3.22c-4.06,2.19-9,5.85-10.27,10.52a.52.52,0,0,1-1-.09c-1,3-4,17.09-5.16,21.11-1.08,3.78-3.63,9.91-3.59,9.81-8.55,21.2-4,26.87-8.15,41.88-6.19,22.9-7.9,27.71-13,27-2-.38-4.73-2-4.48-3.94.34-2.52,7.35-10.14,9.68-14.82,17.71-36.71,4.85-39.7-11.32-52.66l-.94-.74c-8.74-5.39-6.58-5.86-13.81-9-15.12-6.11-16.4,6.27-25.36,7.48-1.27.14-2.91.13-3.24-1.1-.39-1.59,2.34-4,3.55-5.14A26.14,26.14,0,0,1,221,376h-.17c-7.6-3.64-19.59-4.52-20.86-11.76a8.27,8.27,0,0,1,.79-4.81c2.74-5,11.43,1.53,15.72,5.33s4.32,4.45,5.87,7c3,5.12,4,4.48,4.64,5l-.1-.09c.62-4.85,0-10.71,4.31-13.52a8.45,8.45,0,0,1,2.28-1,.58.58,0,0,1,.45.29,11.54,11.54,0,0,1,.17,3.37c-.23,3.86-2,7-1.58,10.51a20,20,0,0,0,.61,2.36c3,5.38,4.34,4.88,12,11,1.39.87,3.68,2.22,3.56,2.15,1.07.64,2.14,1.27,3.21,1.93,11.92,7.25,8.6,10.09,5.29-1.05-.13-.44-.92-3.37-.68-3.76-.95-1.78-.62-1.16-.7-1.3,0,.14-.4.13-.56-.18s-.06-.31,0-.8c-11.78-19.4-3.83-9.94-10.77-18.91,0,.13-.45.17-.61-.17a9.41,9.41,0,0,0-1.2-2.11,26.56,26.56,0,0,1-1.81-2.4c-.79-1.14-2.1-2.35-4.09-4.94-2-2.07-1.76-1.7-1.92-1.85-3.33-2.57-7.07-.11-10.22-1a2.57,2.57,0,0,1-1.37-.86c-1.89-2.35,1.9-2.42,4.74-2.82l0,.09c.89-.29,1.47-.17,2.19-.76l0-.1c-.13-.76-1.76-2-2.35-2.38-3.44-2.19-7.24,1.28-10.81,2.51a6.08,6.08,0,0,1-2.09.41,3.85,3.85,0,0,1-.48,0,2.59,2.59,0,0,1-.63-.14,4.77,4.77,0,0,1-.66-.23c-1.68-.72-.84-1.94-1.7-3.24-.26-.38-.88-.4-1.1-.74-.75-1.19-.68-2.13.69-2.93a4.39,4.39,0,0,1,2-.39c2.48,0,7.29,1.11,8.22.46l0-.06a.7.7,0,0,0-.08-.45c-2.17-4.81-10.68-4.8-16-6.58-.63-.2-3.42-1.28-3.59-1.89s.26-.45.84-1.68c1-2.62-1.73-3.62-1.73-6.53,0-1.31.48-2.35,1.77-2.56,1-.12,2.63.86,3.48,1.42-.61-.63-1.07-5.1,6.05,1.9l-.07-.15c.73-4,2.73-3.73,3.41-2.61a7,7,0,0,1,.62,1.2c.68,1.45.57,1,.7,1.2l.08.05c.91-.12,1.33-1.07,2.53-.23,4.91,3.48.92,11.13,5.16,14.73,1.11-5.14-1.59-9.7,3.09-13.3a2.36,2.36,0,0,1,.71-.38c.62-.24,1.4,0,1.58,1.68a32.18,32.18,0,0,1-.18,3.84v.23c.09-.26,1.73-1.31,2.72-.23a2.85,2.85,0,0,1,.47,2.17c-.66,3.27-7.57,6.08-3.71,10.88,1,1.3,2.19,2.29,3.58,4l0-.23c1.32-5.44.36-11.08,6.11-11.7.09,0,2.47-.12,2.71,1.94.13,1.26-.89,2.52-1.81,3.53.25-.24,1.64.42,2.19.73.38.19.4.9-.37.95a4.84,4.84,0,0,0-1.1.31v-.11c-2.06,1.35-5.83,4.21-5.53,6.65s.42.35,10.17,12.64c1,1.25,1.83,2.33,2.56,3.29H248c.58.11,3.32,4.42,3.63,4.93,8.54,13.52,6,18.6,5.37,3.23a.59.59,0,0,1,.53-.54c.42,0,.51.42.62.69.32.73,1,2,1,1.9.78,1.43.34.91.52.34.05-.09.07-.68.59-.68a.53.53,0,0,1,.5.39c1.83,7.28,3,18.69,3.89,20.92,1.08,2.66.78,5.21.39-15.75-.29-14.71.34-29.73-1-44.41a12.37,12.37,0,0,0-1.16-5.13c-1.51-2.56-4.71-3-7.32-3.69-1-.27-6.47-1.55-3.5-3.37.57-.36,1.47-.21,2.08-.55l.56-.84c-.18,0-.33-.36-.06-.73a11.33,11.33,0,0,1,.88-1.11c.26-.31.54-.6.91-.27h.14l.11,0a2.43,2.43,0,0,0,1.49-.18c.11-.07.93-1.16.66-1.22,1.92.39,3,2.25,3.68,3.9.37.88.65,3.47,1.87,3.66a.83.83,0,0,0,.8-.2c.84-.84.75-2.56.6-3.78-.71-5.17-2.1-5.85-4.18-7.05s-3.53-3.14-5.35-4.71a1.42,1.42,0,0,1-.58-.85c-.07-.69.84-1,1.53-1,1,.13,2.18.58,2.72-.56.53-1.51-1-2.73,1.63-3.33.55-.11.75.25.7.53a17.4,17.4,0,0,0,2.31,1c.9.28.61.13.83,0,1.88-1.06.85,7.49,1.76,8.85l.13.08c1.31-1.66,1.24-4.75,1.39-6.74.19-2.66-1.21-5.61-.45-8.11s2.72-1.87,4.4-2.67,2.16-1.53,4.17-1.69,2.23-.24,4.22-1.5C282,298.08,283.69,297,285,297Z" transform="translate(-117 -30.65)"/><path class="cls-3" d="M284.34,358.38c-4.78,9.62-6.51,21.42-8.69,30.42-2.58,10.59-5.71,16.22-5.66,16.13,5.68-13.75,6-32.46,14.33-46.56h0s0,0,0,0Z" transform="translate(-117 -30.65)"/><path class="cls-3" d="M279.14,361.65c-1.74,26.4-12.37,42.46-11.1,39.91,7.63-14.51,11.07-39.82,11.1-39.91Z" transform="translate(-117 -30.65)"/><path class="cls-3" d="M273.55,326.21c.37.18.88,2.75-1.24,5.46-4.13,5.23-5,3.25-4.89,32.31.17,34.52-.8,36.46-.8,36.37,1.26-30.66-3.25-60,1.17-66.56,1.88-2.78,4.51-3.32,5-6.55,0-.28.11-.29-.36-.11a11.21,11.21,0,0,0-2.77,2.25c.64-.92,2.53-3.85,3.88-3.17Z" transform="translate(-117 -30.65)"/><path class="cls-3" d="M259.52,322.08c4,.38,3.71,9.95,3.37,7.35a11.65,11.65,0,0,0-1.91-5.06c-2-2.55-2.8.71-3.94.43a3.26,3.26,0,0,0-2.46.06c1.29,2.43.86,2.15-1.38,3.07a11.47,11.47,0,0,0-1.75.93c-1.06.87,2.36,1.69,7.37,3.62,6.58,2.52,5.68,4.5,5.66,4.41a2.54,2.54,0,0,0-1-1.63c-2.84-2.19-10.32-2.9-12.87-4.58s-.11-3.5,2.69-4.61c-.23-.45-.48-.89-.72-1.33a.86.86,0,0,1,.51-1.25c1.66-.34,2.15-.81,3.94-.31a3.28,3.28,0,0,1,2.49-1.1Z" transform="translate(-117 -30.65)"/><path class="cls-3" d="M261.33,307.67a4.63,4.63,0,0,1,2.07,1.41,2.64,2.64,0,0,1,1.73-.12c2.11.7,1.73,4.39,1.53,6.6-.61,6.19-.07,3-.78-2.72-.25-2-.66-3.23-2.33-2.31-1,.57-2.22-2.44-3.41-1.06-1.3,1.88,0,4.49-1.39,4.36a13.21,13.21,0,0,0-2.54.18c2.94,5.73,12,4.73,9,15,0,0,0,0,0,0a11.48,11.48,0,0,0,.26-4.09c-.92-6.12-8.24-4.95-10.85-11.38a.63.63,0,0,1,.07-.5c.25-.43.58-.28,1.22-.36s1.44-.24,2.08-.3c-.13-2.54.91-5.29,3.37-4.72Z" transform="translate(-117 -30.65)"/><path class="cls-3" d="M286.73,295.61c2.94.48,1.7,5.74-.54,8.24-3.68,4.08-9.43,7.22-14,9.82-.69.23,10.27-8.25,12.85-11.51a7.7,7.7,0,0,0,1.44-4.37c-.25-1.21-3.83.91-4.88,1.57-3.12,2-3.28,2.77-4,2.09-1.69-1.44-3-1.52-4.38,1.59-.23.56-.43.72-1,.46-5.18-2.14-2.72,9.24-4.61,13.7,0,.11.18-.71.27-1.35.68-4.76-1.51-15.22,4.37-13.5,1.21-3.28,3.23-3.83,5.27-2.79,1,.51-.06.66,2.81-1.38,1.69-1.21,4.42-2.91,6.4-2.57Z" transform="translate(-117 -30.65)"/><path class="cls-3" d="M276.83,313.86c.48.41.26,1.35,0,1.95-1.63,4.63-8.19,9.19-7.9,8.76,1.57-1.75,7.79-10.08,7-10-1.34.22-4.12,2.14-5.24,2.91-.09.06,4.75-4.79,6.12-3.62Z" transform="translate(-117 -30.65)"/><path class="cls-3" d="M229.46,326.62c1.87.11,2.47,2.06,2.63,3.92.23,2.64-.61,2,1.2,1.83a.77.77,0,0,1,.77.77c.16,4.8-6.9,8.38-5.36,12.16a6.26,6.26,0,0,0,1.68,2c-6.27-3.63,1.3-8.82,2.11-13.2a6.2,6.2,0,0,1-1.28.2c-1.78.06.28-4.47-1.49-6-1.78-1.22-7,5.22-5,10.43.06.2-2.1-3.05,0-7.84.8-1.81,2.61-4.2,4.57-4.2Z" transform="translate(-117 -30.65)"/><path class="cls-3" d="M213.81,343.86a24.74,24.74,0,0,1,5.15.82,29.49,29.49,0,0,0-5.06,0,8.21,8.21,0,0,0-2.8.85c.7.33,1,.5,1.27.58a1.13,1.13,0,0,1,.8.8c.2.72-.23,1.09-.79,1.56s-.46.35-.2.39a21.06,21.06,0,0,0,5-.07c3.77-.51,5.24-1.77,5.14-1.72-1.55,2.19-5,4.3-9.11,4.67-4.48.4-6.07-2.65-3.24-4.74-.84-.64-1.22-.77-1.22-1.29,0-.81,1.85-1.4,2.57-1.58a9.49,9.49,0,0,1,2.49-.25Z" transform="translate(-117 -30.65)"/><path class="cls-3" d="M232.92,355.69c14.37,8.33,21.67,28.47,27.44,42.86.31.78.78,1.52,0,.17-4.15-7.08-12.74-34.44-27.41-43Z" transform="translate(-117 -30.65)"/><path class="cls-3" d="M206.08,363.36c2.54.68,5.46,2.8,7.46,4.53,5.11,4.39,9.24,9,1.05,1.27C209.41,364.24,206.17,363.42,206.08,363.36Z" transform="translate(-117 -30.65)"/><path class="cls-3" d="M285.29,327.49a28.21,28.21,0,0,1-1.93,16.22c-.07.1.06-.23.36-2.4,1.62-12.38,1.46-12.82,1.57-13.82Z" transform="translate(-117 -30.65)"/><path class="cls-3" d="M277.66,305.15c-2.38,1.86-5.41,7.11-4.91,6.11,1.87-4.25,3.3-7.58,8.28-7.64,0,0,0,0,0,0h0A8.44,8.44,0,0,0,277.66,305.15Z" transform="translate(-117 -30.65)"/><path class="cls-3" d="M275.84,303.36a3.8,3.8,0,0,1-1.42,2.41c-.07,0,.09-.15.15-.23a9.71,9.71,0,0,0,1.26-2.19Z" transform="translate(-117 -30.65)"/><path class="cls-3" d="M272,305.26a4.09,4.09,0,0,1-.54,5.18,4.28,4.28,0,0,1,.26-.59c1-3,.26-4.69.28-4.59Z" transform="translate(-117 -30.65)"/><path class="cls-3" d="M205.93,327.37c1,2.28,3.62,3.88,5.75,5.22,7.65,4.82,8.87,6.62,8.72,6.46-4.2-3-12.87-5-14.49-11.67h0Z" transform="translate(-117 -30.65)"/><path class="cls-3" d="M215.93,328.47a16.57,16.57,0,0,1,2.17,5.73c.39,1.48.76,2.23.66,2.08a13.94,13.94,0,0,1-1.7-3.77c0-.09-1.21-4.32-1.14-4Z" transform="translate(-117 -30.65)"/><path class="cls-3" d="M209.16,335.38a7.9,7.9,0,0,1,1.76.33,26.44,26.44,0,0,1-3.69-.3,8.15,8.15,0,0,1,1.93,0Z" transform="translate(-117 -30.65)"/><path class="cls-3" d="M228.64,331.45a19.55,19.55,0,0,0-1.22,4.84c-.2,1.95-.61,5.22-1,7.16a42.17,42.17,0,0,1,.1-6.22,14.5,14.5,0,0,1,2.12-5.79Z" transform="translate(-117 -30.65)"/><path class="cls-3" d="M229.57,336.29a6.83,6.83,0,0,0-1.72,1.5c-.08.11-.25.36-.41.62a2.73,2.73,0,0,1,.7-1.33,3,3,0,0,1,1.42-.81s0,0,0,0Z" transform="translate(-117 -30.65)"/><path class="cls-3" d="M209,361.53a15.62,15.62,0,0,1,3.52,2.77c.09.1,3.2,3.47,3.11,3.4a60.14,60.14,0,0,1-6.63-6.17Z" transform="translate(-117 -30.65)"/><path class="cls-3" d="M209.26,368.33a5.4,5.4,0,0,1,3.38,1.86,6.5,6.5,0,0,0-1.11-.58c-1-.41-6.92-1.52-6.36-1.52a27.9,27.9,0,0,1,4.09.24Z" transform="translate(-117 -30.65)"/><path class="cls-3" d="M230.29,368.87c-2.62,6.7.1,11.39,0,11.32-5-4.58.2-11.9,0-11.33Z" transform="translate(-117 -30.65)"/><path class="cls-3" d="M237.78,341.13c-.95,2.31-2.49,8.85-2.49,8.34,0-3.41.32-5.67,2.48-8.35h0Z" transform="translate(-117 -30.65)"/><path class="cls-3" d="M262.08,400.2c.8,1.12,5.64,7.78,4.23,8.6-.76.43-.87-.62-2.09-2.21a31.22,31.22,0,0,0-3-3.13,17.48,17.48,0,0,1,3.36,2.08c-.43-1.08-1.94-4.29-2.46-5.34Z" transform="translate(-117 -30.65)"/><path class="cls-3" d="M266.53,401.55a14.81,14.81,0,0,0,.13,2c.27,1.89,0,1.38.67.48,0,0-.39,1.19-.4,1.23-.21.62-.43-1.08-.47-1.68a9.38,9.38,0,0,1,.06-2Z" transform="translate(-117 -30.65)"/><path class="cls-3" d="M257.32,387c.45.94,1.71,3.33,2.35,4.39a8.59,8.59,0,0,1-2.36-4.39Z" transform="translate(-117 -30.65)"/><path class="cls-8" d="M288.2,322.1c1.65,4.76-2.18,13.18-2.13,13.07-.37,1.3,1.58-10.47,1.65-11.42.07-1.35,0-2.93-1.28-3.36-.08,0-.34-.09-.25-.09a2.28,2.28,0,0,1,2,1.8Z" transform="translate(-117 -30.65)"/><path class="cls-8" d="M284.44,322c-1.36,1.33-1.66,3.31-1.79,5.2.07-.85-.24,9.62-.28,9.48a25.17,25.17,0,0,1-1.25-7.88c.32-5.69,3.38-6.91,3.31-6.81Z" transform="translate(-117 -30.65)"/><path class="cls-8" d="M274.83,342.85c1.57,1.6,3.49,6.56,3.79,8.56.07.29-2.65-7.09-5.17-7.47-1.93,0,1.46,5.06,2.5,6.73l-3.31-2.56c-4.79-4.18-.38-7.91,2.19-5.26Z" transform="translate(-117 -30.65)"/><path class="cls-8" d="M294.85,344.74a1.64,1.64,0,0,1,1.5,1.36c.3,2.47-6.16,3.35-7.08,3.8h0c-.42.11,3.93-2.79,4.86-3.59-1.25-.52-4.62,2.09-5.64,3h0c-.47.37,3.09-3.83,5.07-4.52a2.52,2.52,0,0,1,1.28-.05Z" transform="translate(-117 -30.65)"/><path class="cls-8" d="M260,325.58a5.15,5.15,0,0,1,1.73,3.72h0c-.42-1.72-2.69-3.61-2.74-3.2s.38,1.75-.85,1.63-1,0-.86.28a1.08,1.08,0,0,1-.65,1.38,2.89,2.89,0,0,0-.44.18,5.31,5.31,0,0,0,1.19,1c1,.62,1.46.72,1.34.72-3.86.54-5.7-2-3.72-3.47-.13-1.53,1.25-2.26,2.69-1.93.33-1,1.18-1.43,2.31-.33Z" transform="translate(-117 -30.65)"/><path class="cls-8" d="M263.59,310.58a2.41,2.41,0,0,1,.53,1.22l.19-.09c1.79-1.11.37,5,.37,4.27a9.38,9.38,0,0,0-.23-3.09,1.71,1.71,0,0,0-.48.44.71.71,0,0,1-1.22-.31,5.5,5.5,0,0,0,.25.75c.29.73-.6,1.64-1.32,1.18a2.59,2.59,0,0,0-.72-.32,1.93,1.93,0,0,0,.19.93c.46.82,1.72,2.15,1.55,2.1-1.4-.65-3.1-1.09-3.25-2.92a1.49,1.49,0,0,1,1.14-1.74c-.69-2.68,1.67-4,3-2.42Z" transform="translate(-117 -30.65)"/><path class="cls-8" d="M271.36,304.21c-1.14.71-.77,2-1.07,4.91-.21,2.15-.64,2.59-.61,2.49.39-1.39-.31-3.22-.21-4.9.16-2.51,2-2.59,1.89-2.5Z" transform="translate(-117 -30.65)"/><path class="cls-8" d="M276.94,302.69s-.31-.27-.48-.4h0c-.85-.59-1.68.48-2.65,1.64a3.29,3.29,0,0,1,1.4-2.2c.81-.4,1.44.12,1.73,1Z" transform="translate(-117 -30.65)"/><path class="cls-8" d="M285.45,300.31c.75,1.86-1.87,3.61-3.61,4.58a6.52,6.52,0,0,0-1.25.77c-.74.66,1.61-3,2.16-3.79s.49-.82.35-.8c-1.47.37-2.5,1.55-3.94,2.1,0,0,0,0,0-.06h0c1.43-1.29,2.59-3.74,4.45-3.94a1.79,1.79,0,0,1,1.81,1.14Z" transform="translate(-117 -30.65)"/><path class="cls-8" d="M273.18,317c.81,1.09.08,2.59-.65,3.51a19.17,19.17,0,0,1-3.29,2.76c1.05-2.46,3.43-4.33,3.54-5.69,0-.23-1,.54-1.28.85-.1.1.09-.4,1.33-1.49a.26.26,0,0,1,.35.06Z" transform="translate(-117 -30.65)"/><path class="cls-8" d="M260.56,381.6c1,2.68.35,4.59.7,6.77h0a23.57,23.57,0,0,1-1.05-4.17.72.72,0,0,1-1-.05c0,.25,0,.5,0,.76a5.27,5.27,0,0,1-.92-2.38.63.63,0,0,1,.87-.59c.21-1.06,1.18-.95,1.41-.34Z" transform="translate(-117 -30.65)"/><path class="cls-8" d="M208.5,359c2.15.44,4,2.15,5.32,3.79,3.91,4.78,4.58,8.34,4.45,8.08-1.57-3.36-7.3-9.15-11.57-7.17-.58.33-1,.62-1.12,1.19.08,2.41,3.61,3.38,4.93,4.42a6,6,0,0,1,1.76,3c-1.82-2.16-2.37-1.75-4.8-2a7.07,7.07,0,0,1-5.57-3.92c-1.82-3.7,2.29-8.32,6.6-7.43Z" transform="translate(-117 -30.65)"/><path class="cls-8" d="M233.08,365.23c.35,2.39-3.1,6.66-2.89,6.35-.51.77-1,2.26.36-3.88-.53.59-2.86,4-2.74,3.65.69-1.62.77-2.6,1.34-4,.42-1,2-3.13,2.86-3.13a1.16,1.16,0,0,1,1.07,1Z" transform="translate(-117 -30.65)"/><path class="cls-8" d="M221,378.63c.27.09-1.51-.19-7.16,4.38-8.65,7-9.87.72-4-1a10.93,10.93,0,0,0-1.24,1.55c.6-.44,1.17-.92,1.75-1.36,3.06-2.31,6.79-4,10.63-3.6Z" transform="translate(-117 -30.65)"/><path class="cls-8" d="M240.33,339.7c1,1.95-.83,3.16-2,4.56l.42,0c.59.06.7.9,0,1.22-1.13.63-1.63,1.58-2.68,2.77a22.71,22.71,0,0,1,1.2-2.55,1.38,1.38,0,0,1-1-1.9c.42-1.34,1.4-2.29.71-1.75a3.83,3.83,0,0,0-.93,1.59c-.1.31-1.26,4.9-1.26,4.23.12-2.16-1.06-5,.24-7.23s4.34-2.84,5.34-1Z" transform="translate(-117 -30.65)"/><path class="cls-8" d="M229.28,328.43c1.77,1.08,1.61,3.54,1.35,5.55a1.85,1.85,0,0,1,1.21,1c.86,1.8-3.34,4.64-4.06,6.08,0,0,0,0,0,0,.66-1.57,2.36-3.35,2.93-4.87a1.15,1.15,0,0,0,.06-.28.43.43,0,0,0-.15-.17c-.1,0-.11-.1-.45.14a1.22,1.22,0,0,1-2-.06c-1.2-1.8.68-7.22-1.88,1.56,0,.09-.6-3.72-.61-3.82-.17-1.46-.19-3.61.81-4.68a2.26,2.26,0,0,1,2.76-.48Z" transform="translate(-117 -30.65)"/><path class="cls-8" d="M218.54,328.46a1.09,1.09,0,0,1,1.24-.16c1.75,1,.37,7.92.37,7.37a20.47,20.47,0,0,0-.75-6.08c-.06-.13,0-.2-.29.16-.08.13-.15.27-.22.4a.73.73,0,0,1-1.34-.07,6.18,6.18,0,0,0-1.8-2.38c-.23,1,.3,2.48-.18,3.79a.58.58,0,0,1-.9.19c-.94-.75-2-.95-2.47.2-.1.33-.17-2,2.21-1.48-.27-1.52-1.08-3.63.61-4.33s2.84.87,3.52,2.39Z" transform="translate(-117 -30.65)"/><path class="cls-8" d="M205,326.24a7.12,7.12,0,0,1,2,1,1.55,1.55,0,0,1,.39-.53c1.7-1.51,4.31,4.29,3.84,3.41a11.61,11.61,0,0,0-2.87-2.4,4.14,4.14,0,0,0,.18,1.08c.2.75-.52,1.6-1.31,1.17a22.5,22.5,0,0,0-2.87-1.42c-.57-.17,3.16,5.19,2.36,4.36h0c-.64-.65-2.15-1.31-3.37-2.3-3-2.44-1.08-5.31,1.68-4.4Z" transform="translate(-117 -30.65)"/><path class="cls-8" d="M207.64,334c.31.16-2-.39-1.22.59.36.34,1.48.14,2.1.08a10.31,10.31,0,0,1,1.92.11c4.57.45,8.82,2,11.46,5.78a15.67,15.67,0,0,0-1.51-.66,33.33,33.33,0,0,0-5.24-1.06,27.93,27.93,0,0,1-7.64-2.4,3.3,3.3,0,0,1-1.77-1.21c-.58-1.07,0-2.12,1.9-1.23Z" transform="translate(-117 -30.65)"/><path class="cls-8" d="M220.35,345.68a20.57,20.57,0,0,0-3.91.63,1,1,0,0,1,.67.62,34.6,34.6,0,0,1,5.09-.05c.13,0-.25.05-1.12.48-1.78.92-3.89,2.38-6,1.37a1,1,0,0,1-.58-.85c-.28-.15-.55-.32-.84-.5-1.65-1,.46-3.21,6.64-1.7Z" transform="translate(-117 -30.65)"/><path class="cls-8" d="M230.93,351.87c-2,1-3,1-1.06.85,1.75-.11,3.51-.22,4.9,1a4.65,4.65,0,0,1-.71-.11c-2.19-.07-5.57,2.77-7.94.41-2-2,5.06-2.28,4.81-2.2Z" transform="translate(-117 -30.65)"/><path class="cls-8" d="M259.9,445.68c-.77,1.55-1.18,6.16-2.75,9.58-.88,1.91-3.54,5.95-6.06,3.84,0,0,0,0,0,0,2,.29,2.64-2.42,5.52-8,3-5.8,3.1-5.14,3.29-5.44Z" transform="translate(-117 -30.65)"/><path class="cls-8" d="M260.44,391c.51,1.89,1.05,3.78,1.55,5.68a31.24,31.24,0,0,1,.82,5.79c-2.27-4.59-2.15-6.86-2.37-11.47Z" transform="translate(-117 -30.65)"/><path class="cls-3" d="M273.44,337.85c5.51.71,6.9,14.47,6.68,13.8-.64-2.7-4.49-11.8-7-11.68-1.36.3-2.62,3.51-2.85,5.06-.64,6.33,9.84,7.34,8.5,15.41,0,.15,0-.67-.07-1.58a6.06,6.06,0,0,0-1.3-3.13c-3.22-4.22-11.79-5.56-8.32-14,.83-2,2.28-4.19,4.33-3.93Z" transform="translate(-117 -30.65)"/><path class="cls-3" d="M299.23,342.19a3.09,3.09,0,0,1,2.66,3c-.31,4.43-15.34,7.57-18.6,11.79h0c-.46.66-.21-.85,5.38-4.25,4-2.45,10.89-6,11.27-7.57-.68-2.83-10.18.16-12.1,2.6-.14.18-.29.45-.29.41.72-2.67,7.21-6.8,11.68-5.94Z" transform="translate(-117 -30.65)"/><path class="cls-3" d="M288.81,316c8.48,2.64-1.36,23.66-5.44,31.55-.7,1.07,9.49-23.3,5.85-28.49a2.52,2.52,0,0,0-2.51-.75c-3.13.5-5.19,2.05-5.88,7-.81,6.76,1.38,21.67,1.23,21.25-1.23-4.76-3.61-9.88-4.16-16.69-.58-7.27,1.89-14.12,9.28-14.12a5.63,5.63,0,0,1,1.63.23Z" transform="translate(-117 -30.65)"/><path class="cls-3" d="M257.77,374.2c.41,1.27.94,2.28,1.56,3.81.38.93.19.88.54.27a.68.68,0,0,1,1.24.16c.22.62.45,1.1.79,2.28,1.73,6.07.57,17.11.57,17-.22-6.16.12-12.07-2-17.49-.47.93-.52,1.38-1.15,1.38-.95,0-.55-.78-1.77-3.42.24,3.94,2.23,8.27,2.71,12.91a32.08,32.08,0,0,0-1.7-4.82l0,.05c-1.69-4-3.47-7.82-2.56-12.15a.91.91,0,0,1,1.75,0Z" transform="translate(-117 -30.65)"/><path class="cls-3" d="M235.08,352.9c1.32,1.45,2.69,2.87,4,4.31,17,18.33,17.81,31.66,17.36,29.87-2.21-10.09-9-16.43-21.4-34.17,0,0,0,0,0,0Z" transform="translate(-117 -30.65)"/><path class="cls-3" d="M240.35,337.62c2.74.09,4,2,2,4.66-1,1.39-1.17,1-.56,1.29a15.1,15.1,0,0,0,2,.88.63.63,0,0,1,.44.44c.46,1.64-6.64,1.48-8.67,6-.33.79-.45,1.58-.45,1.42.34-4.17,3.55-5.41,6.81-7.08-2.72-.93-2.66-.56-3-1.08s.19-1.1.48-1.44,2.06-2.32,1.89-2.95c-.1,0-.39-.67-3.59-.26-1.68.24-1.53.27-2.05.93a9.29,9.29,0,0,0-2,4.74,9.47,9.47,0,0,1,1.17-5.63c.52-.94.49-.85,1.3-1.18a10.9,10.9,0,0,1,4.14-.78Z" transform="translate(-117 -30.65)"/><path class="cls-3" d="M207.55,321.53c1.49.34,3.39,2.68,4.26,3.82.34-1.54,1.24-2.92,2.83-3.07,1.79-.17,3.16,1.91,3.79,3.65a2.9,2.9,0,0,1,2.48.87c2.52,2.6,1.11,10.37,2.33,13.75,0,.16-.48-.63-.9-3.24-.77-4.73-.71-11-4.21-9.87-1.13.35-1.22-2.37-3-3.27-1.49-.53-1.63,2.74-1.42,4.38a1,1,0,0,1-.74,1c-1.07.29-1.05-.65-2.83-2.95a12.55,12.55,0,0,0-2.91-2.95,8.94,8.94,0,0,0,.06,2.26,1,1,0,0,1-1.47.84c-4.11-2.37-5.46-2.14-2.56,4.78-.2-.42,1.13,1.73-.16,2.94,7.13,4.17,12.8,3.28,18.34,7.64,0,0-.94-.47-1.58-.75h0c-5.68-2.38-10.31-1.07-16.54-4.41a8,8,0,0,1-2.46-1.81c-.78-1.13.78-1.95.91-2.1-.2-1.09-1.69-4.15-1.69-6.66,0-2.85,2.35-3.18,5-2.08-.05-2.31,1.09-3.05,2.4-2.76Z" transform="translate(-117 -30.65)"/><path class="cls-3" d="M224.67,346.86a8.37,8.37,0,0,1,5.56,3.63c.77,1.06-1.84.85-4.75,2a5,5,0,0,0-2.11,1.46c2.59.11,5.33.88,8,.83,0,0,0,0,0,0-3.25,1.05-6.43,1.18-9.8,1.59-2.14.28-2.17-6.42,7.29-6.26a6.82,6.82,0,0,0-1.72-1.94c-.64-.4-1.27-.76-2.48-1.37Z" transform="translate(-117 -30.65)"/><path class="cls-3" d="M234.67,361.21c1.87,1.1-1.53,10.32-1.92,12.86-1.14,9.52,17.77,17.08,28,29.18a63.57,63.57,0,0,0-6.2-5.47h0l0,0h0l0,0h0c-3.7-2.85-7.62-5.4-11.41-8.14-17.5-12.62-11.81-14-10.06-26,0,.33-6.69,2.39-5.58,8.73a6.74,6.74,0,0,1-.51-3.53c.53-4.34,6.58-8.31,7.75-7.63Z" transform="translate(-117 -30.65)"/><path class="cls-3" d="M207.13,356.83c8.42.7,13.81,15.83,18,19.78.1.09-1-.45-3.88-4.44-6.3-8.59-11.63-17.56-18.73-12.18-2.14,1.67-3.38,3.37-1.77,5.56,3.39,4.22,15,7.53,18.26,9.27a8.38,8.38,0,0,1,2.32,1.8c-3-2.13-7.14-1.74-14.3-4.66-4.11-1.68-9.54-4.72-8.81-9.07.49-2.72,4.93-6.4,8.87-6.06Z" transform="translate(-117 -30.65)"/><path class="cls-3" d="M218.65,378.37c3.37.35-8.54-2.22-14.43,9.18,1.73-1.07,4.3-2.78,6.34-4,13.81-8.29,18.5-1.18,18.41-1.25-9.77-7.19-26.25,11.16-27.26,7.41a.86.86,0,0,1,.08-.61c3.31-7.33,8.6-11.53,16.86-10.73Z" transform="translate(-117 -30.65)"/><path class="cls-3" d="M231.89,383.29c10.39,5.15,30.1,18.5,34,29.34a20.34,20.34,0,0,1,.64,8.58c-2.1,20.15-18,37.63-17.25,36.56a64.22,64.22,0,0,0,4.29-7.8c15.8-32.59,19.89-41.39-21.66-66.68Z" transform="translate(-117 -30.65)"/><path class="cls-3" d="M268.91,407.59c-.29,2.54-.45,5.08-.57,7.63-.68,14.64-.41,12.08-6,31.2-3.79,12.82-6.58,13.92-7.63,15.29v0c-1.09,1.46-1.25,2.42-3.36,1.34a6,6,0,0,1-1.07-.68c.85.42,2,1,2.74.74a1.24,1.24,0,0,0,.45-.37c.32-.42.55-.91.84-1.36s.79-1,1.18-1.46c2.89-3.8,5.2-12.57,7.35-19.89,1.24-4.24,1.53-4.58,2.2-6.83,2.44-8.09,2.13-17,3.89-25.59h0Z" transform="translate(-117 -30.65)"/></svg>