<svg id="Layer_1" data-name="Layer 1" xmlns="http://www.w3.org/2000/svg" viewBox="0 0 254.3 434.26"><defs><style>.cls-1{fill:#6b7b4a;}.cls-2{fill:#636d45;}.cls-3{fill:#161616;}.cls-4{fill:#8b9b62;}</style></defs><path class="cls-1" d="M312.77,134.27c-14-2-18,2.42-27.3-8.94C280,118.78,275,110,267.4,110c-5.64,0-9.75,4.9-12.95,9.64-14.59,21.56-2.7,43,.77,68.94v-.68a72.38,72.38,0,0,1,.5,9.91l-.58.49a2.49,2.49,0,0,0,.4,4q-1.8,4.23-3.85,8.35A101.29,101.29,0,0,0,237.46,238c-2,4-3.89,8.18-5.63,12.51a89.32,89.32,0,0,0-3.65,11.7,369.86,369.86,0,0,1,.85-44.61c2.05-27.42,2.37-54.36,2.25-81.33,3.35-7.72,6.79-17.75,1.49-23.71,6.75-7.8,16.42-24,6.49-26.55,6.66-7.79,7.16-18.74,6.91-28.9-.21-7.22-12.9,3.06-17.26,7.77.28-6.31-4-17-5.41-20.92C220.07,34.17,221.34,32,218.2,32A2.55,2.55,0,0,0,216,33.28c-8.19,14.38-16.77,21.22-15.39,38-3.05-1.73-7.5-4.47-11.21-4.47-4.65,0-8.17,3.68-4.34,12.49a73.9,73.9,0,0,0,7.42,12.08c-1.75.47-2.67,2.42-1.18,4.28,1.87,2.48,2.57,4.66,4.78,6.93a2.49,2.49,0,0,0-.29,3c4.1,9.24,17.65,19,17.31,18.67a2.61,2.61,0,0,0,.1,3.61c10.82,11.67,11.52,8.69,12,10.8a2.47,2.47,0,0,0,1,1.42c.05,20.09-.23,35.43-.65,47.47a2.54,2.54,0,0,0-4.16,2c-.09,2.11.2.78-1.41,1.22a2.54,2.54,0,0,0-1.78,3.14c1,5.38,3.27,13.83,3.43,14.26.33,19,.82,38,.43,57-.15-.72-.29-1.41-.45-2.16-4.67-22.57-9.82-46.83-21.19-67.27-.34-6.38-7.9-20.07-11.06-27.12h0l0,0,0,0h0c-7-17.78-2-31.12-5.06-50-3.81-23.4-24.39-40.68-41.56-40.68-7,0-14.27,2.89-20.67,9.63C113,97.05,112.42,105,113.39,116l.18,2.16c.65,8.38-.27,6.75-.17,8.12.12,1.85,0,.92-.36,2.38s.8.85-.7,4.49c-4.71,10.21-18.62,15.17-23.93,26.84-5.2,11.39-.48,30.08,16.35,30.08,14.46,0,31.33-10.49,43.89-12.26l-.31,0c29.06-2.73,41.72,14.93,47.35,20a107.39,107.39,0,0,1,6.21,12.66c9.09,21.93,17.65,65.91,19,75.3.83,6.43.2,9.71,2,10.55-5.52,61.34,2.58,152,33,169.56,3,1.72,5.46-2.73,2.58-4.39-35.14-20.28-41.27-163.23-20.7-212.09.3-.7.63-1.44,1-2.21a2.8,2.8,0,0,0,1.8-1.8c.93-2.32,2.25-.87,10.95-19.53,21.12-45.23,42.91-34.76,62-49.7,6.41-3.08,11.63-7.46,13.75-14.66C329.23,154.59,329.18,136.57,312.77,134.27Z" transform="translate(-82.87 -32)"/><path class="cls-2" d="M133.32,88.5c-9.1,3.29-13.72,12-13.88,21.34-.2,11.61,6.5,19.71,6.5,19.09.23-8.55,2.59-21.49,10.2-25.39,3.32-1.14,6.27-.34,9.86,1,19.8,9.4,31.47,43.49,31.47,43,2.84-28.09-17.84-68.6-44.15-59.06Z" transform="translate(-82.87 -32)"/><path class="cls-2" d="M110.84,150.94A26.56,26.56,0,0,0,96.05,165.1c-3.43,8.39,2.11,16.65,10.84,17.43,14.61,1.26,36.21-18.51,35.87-18.28-13.9-4.58-34.4,6-37,4.35-.32-.31-.38-.68-.52-1.38-.55-7.7,5.85-16.63,5.64-16.28Z" transform="translate(-82.87 -32)"/><path class="cls-2" d="M258.49,124c-8.08,20.73,6.57,56.95,6.57,55.75,2.69-51,.48-52.49,2.94-56.46h0c2.38-.07,8.56,3.51,8.21,3.33-4.45-13.4-13.75-12.78-17.73-2.61Z" transform="translate(-82.87 -32)"/><path class="cls-2" d="M292.55,140.22c-.34.35,14.73-.78,16.81,8.67.85,14.39-20.41,14.72-31.15,29.9a0,0,0,0,0,.05.06c10.65-3.08,37.11,5,46.31-18,7.71-19.13-15.56-35.46-32-20.64Z" transform="translate(-82.87 -32)"/><path class="cls-2" d="M193.39,76.21C195,82.92,198,88.89,200.88,95c-9.84,2.51,2.41,16.36,12.09,21.5.63.42-10.92-12.61-11.08-16.86a6.87,6.87,0,0,1,2.16.21,2.63,2.63,0,0,0,3.2-3.19c-.05-.27-.1-.55-.14-.82-.77-15.31-14.58-21.38-4.65-17.47,0,0,.06,0,0-.07-5.17-6.6-9.81-5.11-9.1-2.13Z" transform="translate(-82.87 -32)"/><path class="cls-2" d="M213.05,45.5c-4.22,9.83-13.09,22.53-3.39,32a0,0,0,0,0,.07,0c-2.65-8,1-11.94,6.77-18.51,3.34,7.43,6.58,14.64,6.11,22.6,0,.36,5.47-7.19,5.24-16.66-.15-6.82-2.68-13.25-5.34-19.41-1.55-3.59-7.92-3.61-9.46,0Z" transform="translate(-82.87 -32)"/><path class="cls-2" d="M238,62.44c-12.3,10.29-8.53,18.51-8.42,18.16a12.64,12.64,0,0,1,3.83-5.75q-1.19,3.63-2.44,7.23c-3.21,9.19-3.35,18.57-3.09,17.78,3.85-5.89,8.77-9.78,12.84-15.49,4.92-6.92,8.89-23.14.84-23.14A5.69,5.69,0,0,0,238,62.44Z" transform="translate(-82.87 -32)"/><path class="cls-2" d="M235,97.73c-2.75,2.06-3.57,2.91-4.47,6.64a29.78,29.78,0,0,0-2.72,8.34c-1.26,8.1,2.05,15.82,2.21,15.36,1.3-5.83,8-23.55,7.28-29C237.2,98,236.05,97,235,97.73Z" transform="translate(-82.87 -32)"/><path class="cls-2" d="M217.24,264.09c.45,4.56,5.54,22.59,5.66,22.25,1.88-9.71-3.06-16.3-5.58-22.27,0,0,0,0,0,0s0,0,0,0Z" transform="translate(-82.87 -32)"/><path class="cls-2" d="M230.21,264.07c-6.23,6.3-4.66,17.52-4.55,17.18,1.85-4.52,2.16-9.26,3.41-13.92.3-1,1.3-3.62,1.17-3.27Z" transform="translate(-82.87 -32)"/><path class="cls-3" d="M109.79,135.86c-4.63,4.65-9.33,9.24-13.7,14.14-15.4,17.4-20.3,30.9,1.55,38.77,18.76,6.74,23.24-8.6,41.75-9.91,5-.21,12.39,1.07,17.32,1.57,10.36,1.08,15.79-.16,14.91-.16-13.36-.72-22.69-6.13-37.27-4.14-14.2,2-26.88,16.77-42.11,4-7-7,1.62-20.82,1.44-20.48,4.78-9,16.91-24.84,16.13-23.82Z" transform="translate(-82.87 -32)"/><path class="cls-3" d="M117.63,88.45c-16.51,23.53.35,48.45-1.82,44.12-14-41.11,27.63-71.26,50.34-34.36.94,1.41-2.23-25.15-26.76-20.35C139.39,77.86,125.06,77.86,117.63,88.45Z" transform="translate(-82.87 -32)"/><path class="cls-3" d="M176.2,116.05c17.41,20.62,2.72,47.7,15.44,64.1.6.9-4.21-5.65-5-18.64-.74-12.61,1.59-25.57-2.78-35.71-2.72-6.42-8.45-10.51-7.69-9.75Z" transform="translate(-82.87 -32)"/><path class="cls-3" d="M193.31,180.43c14.76,28.13,24.49,72.59,24.49,72.25-2.6-52.42-22.14-67.81-24.49-72.25Z" transform="translate(-82.87 -32)"/><path class="cls-3" d="M184,186.39c16.83,15.51,20,39,25.65,65,6.13,28.38,12.27,37.39,11.76,36.39-13.2-26.67-5.37-80.51-37.35-101.49h0s-.07,0,0,.07Z" transform="translate(-82.87 -32)"/><path class="cls-3" d="M260.85,111c-30.41,1.62-7,64.39-6.51,72,.48,13.19-8.26,28.72-14.45,42.1-9,19.49-9.58,26.93-9.35,26.23,8.44-29.33,31.56-41.83,27.14-75-4.06-30-18.56-71,18-61.9.9.3-7.27-3.88-14.86-3.47Z" transform="translate(-82.87 -32)"/><path class="cls-3" d="M296.57,128.3c-5.69,0,19.24-1.06,29.52,14,5.57,9.07,3.47,22.1-3.15,29.68-14.16,14.93-47.09,19.22-46.16,19.22,82-2.06,66.59-69,19.79-62.92Z" transform="translate(-82.87 -32)"/><path class="cls-3" d="M272.22,195.22c-9.05,11.09-21.39,27.22-28.16,40-12.51,23.5-13.86,47.28-13.74,46.92,7.59-30.61,33.36-72,41.9-86.88Z" transform="translate(-82.87 -32)"/><path class="cls-3" d="M229.6,295.33c-.81,51.76-9,97.14,11.4,142.17,8.39,18.53,19.31,28,18.49,26.87-39.05-52.13-27.88-105.36-29.81-169a0,0,0,0,0,0,0s-.05,0-.05,0Z" transform="translate(-82.87 -32)"/><path class="cls-3" d="M222.93,294.93c-3.89,58.6-6.36,126.26,30.61,169.4,1.21,1.41-39.21-36.63-30.51-169.4a0,0,0,0,0-.05-.05s0,0,0,.05Z" transform="translate(-82.87 -32)"/><path class="cls-3" d="M259.33,463.45c-4.33.92-5.78,1-5.38,1.17,4.06,2.05,5.84-1.25,5.38-1.17Z" transform="translate(-82.87 -32)"/><path class="cls-3" d="M223.54,180.83a30.32,30.32,0,0,0-1.91,9.53c-1.5-2.84-1.06-3.66-2.35-3.94-2.8-.63-4.9,7.62-2.43,15.86-3.19,1.84-.57,12.87.53,16.39,4.32,13.89,5.1,11.38,5,33.77-.06,16.4,1.3,22,1.3,21.06-1.15-15.05,1.27-27.63.6-40.22-.48-8.76-3.44-17.63-3.71-25.88h0a2.44,2.44,0,0,0,2.09-1.35c.68-1.29,0-2.34-.63-3.5-2.19-4.73-2.67-7.94-2.54-10.73,2.49,3.57,2.09,4.06,3.05,4,2.15-.11-.09-3.55.45-11.43.06-.81.6-4,.54-3.6a0,0,0,0,0,0,0Z" transform="translate(-82.87 -32)"/><path class="cls-3" d="M231.06,142.38c.92,16-.22,29.74-.92,41.46a332.65,332.65,0,0,0-.16,41.32c.7-19.9,6-49.53,1.17-82.8a0,0,0,0,0,0,0s-.05,0-.05.06Z" transform="translate(-82.87 -32)"/><path class="cls-3" d="M226.1,188.84a38.37,38.37,0,0,1,.16,7.12c-.2,3.08-1.36,8.75-1.94,11.73-.32,1.7,1.88.72,3,1.27l-.12-.08,0,0,.11.05h0c.94.64.43,3.28.5,5.42a17.24,17.24,0,0,0,1.08-5.28c-.19-1.26-1.27-1.75-2.4-1.94,3.32-11.88-.33-18.65-.24-18.3a0,0,0,0,0-.05.05Z" transform="translate(-82.87 -32)"/><path class="cls-3" d="M227.92,140.55c0,.36-1.13,35.93-1.13,35.58,3.69-24.83,1.14-36,1.17-35.62a0,0,0,0,0,0,0Z" transform="translate(-82.87 -32)"/><path class="cls-3" d="M218.1,33.11c-2.09.1-2.57,1.81-3.51,3.24C207.15,46.9,197,58.07,204.15,70.54a17.6,17.6,0,0,1,.13-11.77c2.9-7.34,13.38-17.7,13.06-17.36C220.4,46.82,225,52.7,228.12,59a30,30,0,0,1,2.47,7,24.6,24.6,0,0,1-.17,8.74c5.53-12-.59-24.06-6.81-35.5-1.67-3-3-6.22-5.51-6.1Z" transform="translate(-82.87 -32)"/><path class="cls-3" d="M247.32,56.25c-6,3.22-12.12,7.8-10.47,14.41.88,2.65-4-6,9.81-12.39a166.84,166.84,0,0,0-1.88,18.55c-.59,6.49-2,5.15-6,11.8a1.53,1.53,0,0,0,2.2,2,7.14,7.14,0,0,1,2.09-.91c.41,3.83-5.5,16.59-5.08,20.5,0,.07.1.08.1-.14v0c.65-4.71,10.44-18.48,7.36-22.39-1.71-2.16-2.65.76.34-3.59,2-2.83,1.84-6.5,1.86-8.92,0-17.43,1.73-20.05-.37-18.93Z" transform="translate(-82.87 -32)"/><path class="cls-3" d="M185.07,65.44c-5.08,3.65-.67,12.5,3.51,17.76s4,3.47,1.59,4.06c-3.24.76-5.93,6.87,4.78,12.79a27.31,27.31,0,0,0,6.49,2.61c.34.08-10.17-6.27-10.2-10.8.29-1.72,9.57,4.11,10.64-.71.44-2-1.68-3.13-1.35-2.79-3.77-2.91-11.24-10.29-13.89-15.36-1.79-3.89-1-7.25,3.31-7a20.44,20.44,0,0,1,11.47,6.34c1.72,1.71-9.18-12.13-16.35-6.91Z" transform="translate(-82.87 -32)"/><path class="cls-3" d="M195.73,103.89c-9.07,3.76,12.93,13.69,15.42,16,.34.22-.4-1.36-5.7-5-.51-.35-9.45-6.06-8.21-5.23-3.79-2.64-3.32-4.08-3.22-3.73.21-1.24,1.23-1.5,1.71-2Z" transform="translate(-82.87 -32)"/><path class="cls-3" d="M214.7,123.51c-7.71,3.85,6,10.44,9,16.08h0c.11.24.71,1.8.59,1.29-1-5.42-10.52-10.06-11.42-13.89-.12-1.55.63-2.33.44-2,.34-.35-.17.19,1.4-1.48Z" transform="translate(-82.87 -32)"/><path class="cls-3" d="M235,113.13c2.56,9-1.86,21-1,26.18.22.66.13-3.19,1.16-8.68,1.15-6.32,3.19-12.38,0-17.54l0,0a.06.06,0,0,0-.05.06Z" transform="translate(-82.87 -32)"/><path class="cls-3" d="M216.46,55.19c3,13.27.89,26,2.41,41.29,1.93,19.37,9.52,38,9.16,36.54-3.73-15.4-5.21-27.13-6.66-44.62-2.94-35.17-4.13-28.91-4.91-33.21Z" transform="translate(-82.87 -32)"/><path class="cls-3" d="M234.21,79c-9.46,10.62-8.15,23.35-8.15,21.51A53.31,53.31,0,0,1,234.21,79Z" transform="translate(-82.87 -32)"/><path class="cls-3" d="M230.85,99.21c-3.2,6-1.67,10.6-1.67,10a57,57,0,0,1,1.67-10Z" transform="translate(-82.87 -32)"/><path class="cls-3" d="M204.76,78.51c3.07,4.2,4.58,7.89,9.55,12,.4.39-.77-1-4.58-6.5a28.26,28.26,0,0,0-4.93-5.58,0,0,0,0,0,0,.07Z" transform="translate(-82.87 -32)"/><path class="cls-3" d="M206.92,99.55c7.55,9.77,8.16,11.1,10.94,13.21.49.25-1.17-1.14-6.26-8-3-4-5-5.79-4.68-5.24Z" transform="translate(-82.87 -32)"/><path class="cls-3" d="M284.76,129.54c-6.47,10.28-.9,15.13-9.86,40.07l0-.08a147.33,147.33,0,0,1-11,23.64,110.25,110.25,0,0,0,15.76-27.3c6-14.61,3-18.18,3.76-29.76a1.2,1.2,0,0,0,0,.2,22.86,22.86,0,0,1,1.24-6.22c.06-.17.11-.33.18-.51a0,0,0,0,0,0-.06l-.05,0Z" transform="translate(-82.87 -32)"/><path class="cls-3" d="M119.42,149.1c15.1,10.36,34.29,6.32,48,11a29.17,29.17,0,0,1,6.15,3.09l.19.13c4,3.25,5.17,4.77,4.83,4.45h0c2.34,2.83,4,6.22,3.78,5.56-11.89-28.85-45.44-18.13-62.6-24.17h0l-.35-.13h0a0,0,0,0,0,0,.08Z" transform="translate(-82.87 -32)"/><path class="cls-1" d="M272.09,299.48c-5,.63-10.63,17.08-13.45,19.82-1.09-5.35,3.19-14.83-.2-17.5a2.31,2.31,0,0,0-2.21-.48c-2.35.84-3.6,8.17-3.92,10.66-.69,5.29-.16,10.59-.74,15.75-2.83-2.28-4.76-6-8.08-7.42-1.09-.48-3.48-1-3.35.24a12.23,12.23,0,0,0,3.06,6.26c1.22,1.48,3.32,3.59,3.22,3.5,1.79,1.83,1.48,1.43,1,1.43a7.25,7.25,0,0,0-5.05,1.91.74.74,0,0,0,.41,1.21c2.76.72,6.47,1.11,7.2,3.54,0,0-.61-.22-1-.38a.75.75,0,0,0-.74.05c-.58.4-.21.92-.07,1.49-5-1.56-9.21,3.5-7,3.73.61,0,1.19.08,2.77.17l-.13,0c2.49.23,4.5.44,6.1,2.14.7.83.55.28-1.38,1-.92.35-3.32,1.58-2.64,2.56s6.31-3.53,6.43,7.64c-1.88-1-5.51-.73-5.06.73.4,1.12,5.41.9,6.78,7.42l0-.11c.61,3.36.11,7-.1,11.26-2.81-4.45-7.11-9.58-10.26-14.57-9.42-14.7-14.06-13.31-22-18.44l-.1-.07c-3.94-2.7-8.59-19.75-25.35-15.49-5.82,1.43-7.74,6.19-7,7.77.66,1.43,1.57.43,3.54,4.22,2.24,4.46-1.78,16.22,13,10.83,6.5-2.38,12.74-4.52,19.75-2.23,11.08,3.92,28.78,29.75,29.86,48.22.51,16.31-5.43,74.45,7.35,67.68a13.86,13.86,0,0,0,1.49-1.05c2.18-1.61,2.42-1.3,2.52-1.91.27-1.13-7.1-10.2-9-19.43l-.06.21a60.42,60.42,0,0,1-.43-14.16l-.1.18a24.86,24.86,0,0,0,.26-2.49c1.24-18.17-1.76-28,.2-41,.69-.33.19-1.34.2-1.24,1.29-7.2,3.72-11.52,7.73-17.45l.62-.92c.08-.09,7.68-12.42,17.91-17.85,8.57-4.26,15.73,10.91,27.46,13,9.42,1.54,26.31-7.94,22.82-19.23-1.05-3.33-5.28-5-5.17-8.79a12,12,0,0,1,1.16-3.19c5.15-10.84.18-17.76-13.29-15.06-14.05,2.93-22.31,12.43-30.51,24.24-2.7,3.87-8.79,9.58-8.69,9.48-8.86,8.77-11.19,14.95-19.93,26.48-.22-7.84-2.85-16.74,4.93-18.43.62-.11.88-.07,1.12-.35.83-.95-1.73-5-7.45-.88-3.24-11.75,5.6-14.75,11.51-23.93a.73.73,0,0,0-.05-.74.75.75,0,0,0-.85-.28,12.61,12.61,0,0,0-2.61,1c2.48-2.64,6-5.77,5.95-5.69,7.28-6.45,7-6.21,6.83-6.79-.35-1-3-.49-4-.14-2.6.9-6.4,4.48-6.3,4.4,4.09-6,6.76-8.52,7.37-16.16.19-2.46.13-6.42-2.34-6.42Z" transform="translate(-82.87 -32)"/><path class="cls-4" d="M312,317c-15.71,6.26-24.09,23.23-23,22.14.35-.46.59-.74.51-.64,5.89-7.09,14.77-10.47,22.24-14.4,12.81-6.75,16.1-7.14,16.62-2.9h0c0,.1,0,.62.06.53,1.89-4.76-1.7-7-6.84-7A26.35,26.35,0,0,0,312,317Z" transform="translate(-82.87 -32)"/><path class="cls-4" d="M326.54,335.81c6.5,10,1.36,9.38-12.71,10-13.22.58-15.51-.15-15.25-.14-1.77-.31-2.29-.62-2.18-.52a22.39,22.39,0,0,0,6.93,4.34c12.51,5.57,25.88,3.29,28.92-2.85s-5.78-10.92-5.71-10.83Z" transform="translate(-82.87 -32)"/><path class="cls-4" d="M192.58,330.15c-1.37,1.07-3,3.27-1.93,5.06.86,1.4,2.83,1.47,4.29,1.47.16,0-2.54-1.08-2.49-2.15.36-1.29,4.27-2.41,5.93-2.62a24.24,24.24,0,0,1,5.64.39,20.26,20.26,0,0,1,10.07,5c-5.05-7.84-14.23-12.81-21.51-7.11Z" transform="translate(-82.87 -32)"/><path class="cls-4" d="M196.79,341.45c-2.9,8.78,6.11,9.1,14.68,5.55.16-.07,3.43-1.45,2.71-1.13a15.54,15.54,0,0,1,1.91-.59c-6.41-1.59-14.71,3.23-17.88.84-1.56-1.38-1.33-4.23-1.42-4.67Z" transform="translate(-82.87 -32)"/><path class="cls-4" d="M254.92,303.17c-3.54,2.51-1.54,11.32-1.51,11.22.42-2.53,1-6.49,2.45-8.42.54-.57.53-.37.62-.15,1,2.77,1,8.61,1.22,8,.51-2.65,3.17-8.84.18-10.84a2.77,2.77,0,0,0-3,.17Z" transform="translate(-82.87 -32)"/><path class="cls-4" d="M270.31,300.2c-1.93,1.32-3.1,3.61-4.08,5.66-2.19,4.54-1.84,5.55-1.81,5.41.87-3.88,6.84-9.08,7.36-8.11a22.15,22.15,0,0,1-1.26,3.35c-3.73,8.93-4.27,14.7-4.11,14.21,1.16-2.93,6.7-6.82,9.42-13.76,2.51-6.4-2.76-8.64-5.52-6.76Z" transform="translate(-82.87 -32)"/><path class="cls-4" d="M275.19,318.77a5.69,5.69,0,0,0-3.06,1.42,5.19,5.19,0,0,0,1.05-.38,2.7,2.7,0,0,1,1.43-.25c-2.11,2.89-6.35,4.21-9.74,6.63-4.91,3.5-5.2,7.13-5.15,7a9.46,9.46,0,0,1,2.66-2.71c4.34-3,11.64-5.12,13.36-10.83.11-.36-.09-.92-.55-.92Z" transform="translate(-82.87 -32)"/><path class="cls-4" d="M263.15,333.06c-2.16,3.36-7,4.18-8.49,8.74,0,.1.17-.18,1-.76,2.16-1.53,7.21-3.4,7.55-8v0Z" transform="translate(-82.87 -32)"/><path class="cls-4" d="M242.52,322.46c-2.05,2.68,4.41,7.05,5.25,8,0,0,0,0,0,0-.84-2.33-3.75-5.82-3.69-7.06.28-.57,2.39,1.21,2.08.94a15.23,15.23,0,0,1,2.34,2.47h0c.8,1.19-3.32-7.83-6-4.35Z" transform="translate(-82.87 -32)"/><path class="cls-4" d="M244,334.37c-.14,1,1.59,1.71,2.34,2.06a7.69,7.69,0,0,0,3.25.82,39.79,39.79,0,0,1-4.06-2.82c2.08-1.4,4.86,1.34,4.09.56a5.62,5.62,0,0,0-2.82-1.79c-.87-.16-2.66.19-2.8,1.17Z" transform="translate(-82.87 -32)"/><path class="cls-4" d="M243.41,339.44A.94.94,0,0,0,243,341c2.17,2.14,5.25,2,7.49,3.85a6.11,6.11,0,0,0-2.07-3c-1.1-2.41-2.7-2.87-5-2.43Z" transform="translate(-82.87 -32)"/><path class="cls-4" d="M248.76,346.3a.51.51,0,0,0-.25.84c3,3.33,2.21,6.77,3.12,11.2,0,.09,3.67-7.51-1.63-11.43a14.22,14.22,0,0,1,1.65,0,4.93,4.93,0,0,0-2.89-.57Z" transform="translate(-82.87 -32)"/><path class="cls-4" d="M257.84,354.77a7.39,7.39,0,0,0-1.06,5.8c.81-2.43,2.13-3.53,4.37-5.18.59-.44.09-1.27-.5-1.33a3.17,3.17,0,0,0-2.81.71Z" transform="translate(-82.87 -32)"/><path class="cls-4" d="M324.56,331.47c-5.15,3.4-11.41.07-18.43,1.16-2.83.43-9.07,2.24-12.1,4.15-3.77,2.38-3.46,5.24-3.43,5.14a4.44,4.44,0,0,1,.63-1.15c2.7-3.28,10.21-1.34,14.22-.27a18.44,18.44,0,0,0,6.06.54c12.39-.9,13.11-9.67,13.06-9.57Z" transform="translate(-82.87 -32)"/><path class="cls-4" d="M265.87,314.11c-2.11,2.74-3.46,6-5.52,8.76-1.3,1.67-2.79,3.18-4,5a12.88,12.88,0,0,0-2,5.66c1.74-3.17,5.43-5.55,7.65-8.85,2.12-3.14,2.69-7,3.9-10.52h0Z" transform="translate(-82.87 -32)"/><path class="cls-4" d="M255.85,313.78A51.1,51.1,0,0,0,253.64,327c0,.1.06,4.66.13,4.56,1.94-4.15,3.08-6.94,2.08-17.78Z" transform="translate(-82.87 -32)"/><path class="cls-4" d="M199.19,340.88c-.24.25,3.3-.93,8.12-.37a45,45,0,0,1,10.32,2.67c-4.35-6.17-11.32-7.47-18.44-2.3Z" transform="translate(-82.87 -32)"/><path class="cls-3" d="M250.19,355.6a9.24,9.24,0,0,0-1.78.34c-.68.28-1.25,1.7-.79,1.79a6.49,6.49,0,0,1,4.75,3.8c2.33,4.61,2.63,12.69,2.63,11.2-.19-5.13-.58-12.3-5.1-14.75-1.89-1-2.19-.14-1.91-1.13a1.77,1.77,0,0,1,.35-.56c.1-.08.32-.21.23-.15s1.66-.56,1.62-.54Z" transform="translate(-82.87 -32)"/><path class="cls-3" d="M260.57,352.36a7.17,7.17,0,0,0-1.8,2.2c.62-.63,2.18-2.05,3-1.83.61.26.54,1.61.5,2.32-7.48-2.24-3.33,13.14-3.5,16.77h0c0,.65.23-.24.05-4.27a50.64,50.64,0,0,1-.1-6.22c.51-8.95,4.55-3.17,4.73-5.28.37-4-1.36-4.83-2.91-3.68Z" transform="translate(-82.87 -32)"/><path class="cls-3" d="M269.94,327.6c-1.8.59-3.45,2.12-5.53,3.55-1,.66.8,2.41-1,4.1-2,1.64-3.42,1.35-6.63,6s-2,6.07-.2,13.55c.14.42-.47-4.55-.48-4.64-.44-3.62-.84-5.25,4.68-10.35,2.21-1.87,6.73-3.21,5-7.84a40.25,40.25,0,0,1,3.2-3.67c.83-.71,1.06-.72.95-.72Z" transform="translate(-82.87 -32)"/><path class="cls-3" d="M271.8,298c-7.1.82-13.16,22.42-12.41,20.15,1.75-3.46,8.95-17.3,12.82-17.42a2.29,2.29,0,0,1,1.5,1.34c2.33,5.22-7.64,14.57-7.19,20.62a1.14,1.14,0,0,0,1.23,1.05c1.61-.13,5.18-7.13,10-6.22a47.84,47.84,0,0,1-4,3.91c-5.89,5.23-6.62,6.52-6.43,6.33,5-5.26,14.17-10,11.88-11.23-7.57-4.08-13.79,10.84-5-4.94,2.05-3.67,3.78-7.67,1.79-11.19a4.35,4.35,0,0,0-4.17-2.4Z" transform="translate(-82.87 -32)"/><path class="cls-3" d="M257.62,300.78a4.16,4.16,0,0,0-1.56.55c-5,2.68-4.93,10.69-4.76,16.3.22,7,.11,7.19.11,7.1a20.37,20.37,0,0,1-.36,2.86c2.85-7.22-.09-21.85,6.41-25.46,2.76-1.34,1.13,8.34.69,11.41-.77,5.37-.55,5.75-.52,5.08h0c.23-4.18,4.92-18.28,0-17.84Z" transform="translate(-82.87 -32)"/><path class="cls-3" d="M241.17,319.43a2.63,2.63,0,0,0-1.08,3.49c1.67,3.42,7.84,7.51,9.12,8.94h0c1.78,1.78-7.57-9.28-7.63-10.16.38-4,9.1,6.43,8.89,6-1.44-2.22-6.61-9.49-9.3-8.29Z" transform="translate(-82.87 -32)"/><path class="cls-3" d="M244.78,331.42a4.19,4.19,0,0,0-3,2.22.46.46,0,0,0,.45.66c2.12,0,4.12.79,6.2.63.12,0-.32,0-1.22-.33a16.38,16.38,0,0,0-4.22-1.25,4.07,4.07,0,0,1,3.84-1.59c.9.05,2.33.28,2.1.23a10,10,0,0,0-4.14-.57Z" transform="translate(-82.87 -32)"/><path class="cls-3" d="M248.79,336.88a3.77,3.77,0,0,0-.66,1.73c-6.09-3.52-9.63,5.27-7.1,4.6,2.06-.6,4.68-.09,6.87-.55.12,0-.26,0-.16,0-2.09-.12-3.77-.93-6-.8a4.59,4.59,0,0,1,6.06-2.92c.48.15.63.32.68-.14a3.78,3.78,0,0,1,.42-1.73c.4.34.9,1.27,1.32,1.68,0,0,0,0,0,0-.46-.52-1.21-2.08-1.41-1.82Z" transform="translate(-82.87 -32)"/><path class="cls-3" d="M250.71,345.3c-2.91.74-4.61.73-5.47,3.89a.4.4,0,0,0,.53.45c1.74-.68,4-.75,5.71-1.6,0,0,0,0-.15,0h0c-1.68.33-3.47.11-5.12.58.86-2.41,2.6-2.3,4.49-3.33Z" transform="translate(-82.87 -32)"/><path class="cls-3" d="M251,349.56a6.75,6.75,0,0,0,.52,5.14c.08.12-.26-1.17-.36-2.55s-.15-2.7-.15-2.6Z" transform="translate(-82.87 -32)"/><path class="cls-3" d="M221.75,341.11c9.63,2.88,23.7,22.59,28.95,31.16.19.39-2.31-4.56-6-11C233,340.75,222.89,341.8,221.75,341.11Z" transform="translate(-82.87 -32)"/><path class="cls-3" d="M200.31,326.22c-5.68.51-12.85,3.39-12.1,9,.45,3.55,4.21,2.57,4.78,4.84a19,19,0,0,1,.22,2.27c.26,5.17.49,3,1.19,6.33.57,2.56.47,4.23,4.19,4.19,5.88-.09,8.91-2.08,12.81-4.17a20.76,20.76,0,0,1,5.87-2.36c.86-.19,1.84-.28,1.61-.28-6.14-.52-10.23,3-15.62,4.27-1,.2-5.34.82-6.28.31-.54-.44-.44-2.07-1.52-4.77-.66-1.69-.38-5-1-6.71-1.21-3.09-4.92-1.32-4.79-5,.41-4.93,8.73-7.1,13.54-6.85-1-.07,3.32-.25,9,3.5,6.71,4.5,8.55,9.74,8.27,9.18-2.37-6.76-11.15-14.57-20.13-13.78Z" transform="translate(-82.87 -32)"/><path class="cls-3" d="M203.56,339.17a10.45,10.45,0,0,0-4.18,1.44,20.66,20.66,0,0,1,6.53-.55c8.91.42,12.11,2.37,12.07,2.33-2.77-2.41-8.52-4.24-14.42-3.22Z" transform="translate(-82.87 -32)"/><path class="cls-3" d="M222.58,345.6c12.24,6.51,16.89,18.45,25.51,30.31a39.83,39.83,0,0,0,2.88,3.66c-8.34-12.07-13-28.14-28.38-34h0s0,0,0,0Z" transform="translate(-82.87 -32)"/><path class="cls-3" d="M283.17,342c-15,10.75-23.38,29-23.32,28.89A137.44,137.44,0,0,1,283.17,342Z" transform="translate(-82.87 -32)"/><path class="cls-3" d="M316.87,313.75a43.11,43.11,0,0,0-11.62,4c-18.59,9.39-19.82,23.23-19.79,23.12a22.84,22.84,0,0,1,3.58-8.5c-.71.71,8.44-13.35,26.3-17.21a30.63,30.63,0,0,1,7.88-.68c2.18.3,8,.8,9.63,3.62.67,1.41-.11,2.91-1,4.34-3.63,6.22-7.27,9.37-1.69,13.94,15.73,12.89-8.19,21.5-24.12,16.37a69.06,69.06,0,0,1-9.25-4.23c-6.26-3.18-9.91-4-9.75-3.92,6.74,3.58,12.09,10.52,21.68,12.05,10.83,1.71,30.92-1.89,28.13-13.87-1.72-7.43-7.58-7.89-7.53-11.28.36-4.09,6.06-9,5.34-12.94-1-5.41-12.33-5.8-17.84-4.8Z" transform="translate(-82.87 -32)"/><path class="cls-3" d="M284.24,346.87a17.28,17.28,0,0,0-5.44,3.49,135.26,135.26,0,0,0-14.44,16.8c-5.06,7.42-5.47,12.22-5.38,11.85,2-7,8.53-13.36,14.71-21.63,7.49-10.12,10-10,10.55-10.51Z" transform="translate(-82.87 -32)"/><path class="cls-3" d="M257.54,381.25c.81,12.77,0,42.38.19,39.58-.85,15.86-2.84,26.27,6.44,37.86,0,0,0,0,0,0-11.88-18.83-.74-32.93-6.65-77.43Z" transform="translate(-82.87 -32)"/><path class="cls-3" d="M252.75,382.72c7.38,25.43-4.94,60.55,4.84,79.12a5.75,5.75,0,0,0,1.27,2c1.35,1.09,4.73-.07,6-1.53a2.25,2.25,0,0,0,.23-2.91,2.21,2.21,0,0,1-.59,2.68h0a6.31,6.31,0,0,1-4.57,1.2c-.69-.27-.78-.83-1.39-2.18a27.09,27.09,0,0,1-2.2-6.5c-5.65-26.14,4.81-43.8-3.56-71.89Z" transform="translate(-82.87 -32)"/><path class="cls-3" d="M321.09,335.65c-5.64,2.83-10.88,1.27-16.24,1.27-8.65,0-17.13,5.37-17,5.34,7.17-3,9.85-3.41,9.57-3.32,9.85-2.08,16.13,2.05,23.71-3.27,0,0,0,0,0,0Z" transform="translate(-82.87 -32)"/><path class="cls-3" d="M269.27,306.94c-2.31,6.35-7.45,14.49-9.91,18.79-9.09,15.94-6.07,21.19-6.44,19.72-.81-11.81,12.41-21.22,16.37-38.5,0,0,0,0,0,0Z" transform="translate(-82.87 -32)"/><path class="cls-3" d="M255.84,312.47c-1.35,5.08.27,7-.67,16.11a34.4,34.4,0,0,0-.24,3.75c.28-1.51.7-3,1-4.49,1.4-6.21-.58-8-.31-13.57,0,.24.2-1.9.19-1.81s0,0,0,0Z" transform="translate(-82.87 -32)"/><path class="cls-3" d="M264.58,327.35c-.8.69-1.63,1.36-2.42,2.07-5.77,5.08-6.16,8.51-6,8.13,1.34-3.25,5.08-6.06,8.47-10.19h0Z" transform="translate(-82.87 -32)"/></svg>