<svg id="Layer_1" data-name="Layer 1" xmlns="http://www.w3.org/2000/svg" viewBox="0 0 258.13 434.81"><defs><style>.cls-1{fill:#81973a;}.cls-2{fill:#a5ba4a;}.cls-3{fill:#63702c;}.cls-4{fill:#161616;}.cls-5{fill:#878156;}.cls-6{fill:#baa290;}.cls-7{fill:#846b55;}.cls-8{fill:#90925c;}.cls-9{fill:#adac73;}</style></defs><path class="cls-1" d="M315.41,254.68c-15.77,4.55-18.89,9.11-23.19,20.62-7.47,20.09-24.69,31.57-35.85,85.6-.06-2-.66-5-.93-8.33-.58-7.07-.2-11.17-.76-31.68l.1-.23c2.62-1.88,5.62-58.58,7.57-73.57.89-6.67,1.27-12.09,1.71-19.24a24.2,24.2,0,0,0,8.17-6.36c1.5-2.06-2.69-3.16-7.75-.65.32-4.34.46-6.66,1.09-12.55,8.32-4.11,9.63-10.53,7-10.53a20.84,20.84,0,0,0-6.2,1.84c.23-1.78.05,2.16,1-8.43,7.18-1.12,12.15,2,18.51.52a1.24,1.24,0,0,0,.79-2c-3.9-4.61-11.51-4.83-17.67-4.71.41,0,.84-.69,2.49-1.8,1-.62.89-3.22-3.62-1.75l.13-.33c.06-1.31.09-2.61.09-3.91,1.23-.46,16-1.79,15.24-6.7-.41-2.41-4.27-3.52-6.7-3.68l.23-.17a8.84,8.84,0,0,1,1.18-2.32,1.23,1.23,0,0,0-.21-1.71,1.13,1.13,0,0,0-.93-.25,35.15,35.15,0,0,0-7.88,3.28l.19-.26c.95-7.14-1.29-7.12,1.83-19,2.72-9.44,7.62-19.62,14.58-26.61,10.08-10,13.68-4.85,34.18-13.84a19.06,19.06,0,0,0,3-1.46c2.9-1.74.93-6.22-8.77-3.56-3.56,1-10,3.19-12.71,1.83-.46-.37-.75-.55-1.26-2.05-2.28-13.5,58-16.29,50.7-30.93-1.94-4.14-15.8,1.77-22,1.85A4.74,4.74,0,0,1,325,69.58c-.82-1.51-.54-3.44-.11-5.1,3.18-10.36,16.24-22,2.57-28.87a16.46,16.46,0,0,0-7.34-1.88c-13.48,0-14.33,17.76-24.67,20.94-1.85.43-3.25.1-5-1.56-3.62-3.71-5.47-12.51-9.79-13.55-2.42-.7-4.36,1.87-5.56,4.09-7.62,13.81,3.07,36.68.05,48.41-1.33,4.19-5.12,5.93-7,5.46C263.43,95.87,264.09,83.23,262,77c-2.81-8.72-8.53-13.74-12.38-5.77-2,4-.07,6.57-.71,9.5-1.22,3.36-3.55,3.34-3.25,7.69,1.08,10.22,10.77,8.42,16.38,15.32,2.3,2.86,2,3.76,1.95,3.52l-.13.22-.26,0c-2.8-2.2-3.84-4.08-5.73-4.61a3.63,3.63,0,0,0-4.27,1.71c-2,4,7,10.23,8.42,15.38.76,3,1.68,8.71-.34,11-.68.56-1.28,1-3.23.53a4.64,4.64,0,0,1-2.09-1.25,14.18,14.18,0,0,1-1.26-1.62c-1.83-3.4-3.74-13.71-6.43-13.11-1.18.18-.9,1.07-1.79,2.76-.32.51-.12.67-1.43-1.34-1-1.54-2.27-3.66-4-4.27-1.25-.48-4.5-.48-5.81,1.26-2.41,3.29,2.49,9.39,3.19,11.17-1.58.69-2.13.73-2.84,1.49-1.26,1.41-.27,4,1,5.13,2,1.79,7.39,2.28,8.58,4,.65,1.14-.46,2.43-1,3.41-1,1.7.7,3.28,2.65,3.28,4.84-.15,5.35-4.42,11.35-1,5.59,3.47,5.31,6.41,5.29,6.06l0,.19-.09.29a3,3,0,0,1-2.92.77c-3.32-1-7.87-3.08-8.53.6-.54,4,7.22,5.94,11.21,6.71l-.14.26A51.07,51.07,0,0,0,262.24,170c-5.11,4-10.24,8.1-13.18,14.31a5.48,5.48,0,0,0-.08-.94c-.77-5.15-.83-4.61-2.95-4.45-.89-2.55-.3-8.94-1.72-11.41-1.15-2.11-3.54-1.68-4.48.15-1.4,2.68.5,6.29-2.07,6.5l-.19,0c-3.32-2.26-1.1-12.44-1.91-13.49-.62-.84-1.25-.05-2.93-.91-2.37-1.72-3.33-4.93-4.69-5.11s-2.34,2.59-2.25,4.28c.22,2.52,2.07,5.61,3.37,7.86,1.83,3.45,1.74,4.3,1.69,4.15-.09-.55-1.51-.2-8.22-7.15-4.48-4.66-9.38-9.56-15.93-9.56-5.59,0-9.12,4.32-6,8.53,3.91,5.39,15.91,4.95,22.14,10.89-9-1.36-14.22,4.46-6.13,5.62,3,.39,8.25.48,8.1.47a20.22,20.22,0,0,1,14,5.77,11.56,11.56,0,0,1,2.59,3.92,24,24,0,0,1-3.83-3.08c-3.69-3.42-5.32-5.25-6.61-5.25a1.49,1.49,0,0,0-1.41,1.88,20.67,20.67,0,0,0,1.8,4.24,21.81,21.81,0,0,0,4.93,6.35c-2.14-2.11-6.07-3.93-7.5-3.3a1.2,1.2,0,0,0-.64,1.6c4.42,8.17,16.81,14.61,17.3,24-.06-.25-.82-.72-.68-.62-5.75-4.06-5.9-6.7-7.59-6-3.34,1.31,4.63,8.64,7.51,13.38,4.79,8.63.17,20.88,4.09,32.72a1.21,1.21,0,0,0-.16.67c1.43,33.71-.66,68.21,2.6,97.12,1.91,16.7,9.85,19.58-11.52-7.6-17.43-22.16-13.76-25-30-49.52-4.34-6.56-9.52-14-15.39-19.19-6.17-13.48-9.41-25.49-23.32-31.38-15.59-6.59-49.33,1.26-44.08,17.28,1.81,5.74,9.94,8.69,8.84,13-2.08,6-12.62,6.84-15.46,12.72-1.79,3.68,1.59,8.33,4.92,10,4.28,2.23,12.89.32,12.74.34,14.07-2.34,17.63-11.33,30.2-14.67h-.3a38.33,38.33,0,0,1,8.24-.91l-.3-.09c4.08,1.27,8.63,1,12.82,2.48,3.36,1.19,8.85,3.1,11.26,5.83a18.87,18.87,0,0,1,2.63,4.63c4.43,9.56,11.31,17.48,17.26,26.08C226.57,332,233,342.26,239,352.67c10.81,18.55,14.7,16.51,19.3,28.95l.27,1.29c4.26,19.59,11.2,27.12,7.62,76.65a1.15,1.15,0,0,0,2.27.33c.19-3,1.89-3.29,3.29-6.27,1.17-2.47.41-6.24.43-6.1-2-15.44,1.85-16.83-5-41.67-2.36-15-6.14-23.48-6.09-23.33.91-1.08-.7-1.4-1.34-5.7-1.32-9-.5-17.7,1.38-23.5a1.09,1.09,0,0,0,.63-.87l.07-.6c1.12-.27.93-1.35,1.24-3.42.34-.51.95-1.22.26-2a99.87,99.87,0,0,1,2.18-10.56c12.22-37.43,35.11-48.7,35-48.55a47.54,47.54,0,0,1,21.53-6.21c8.42.44,19.5,3.8,26.89,1.24,1.17-.37,4.22-1.81,5-3.31.71-1.2-.24-2.42-.25-4.34a47.15,47.15,0,0,1,.86-5.07C358.17,250.24,334.24,249.19,315.41,254.68ZM262.81,179l-.14.25h0s0,.73-.16,4.88c-2.53,1.47-8.1,6.27-8.7,6.77C254.7,188,255.41,182.39,262.81,179Zm-.57,14.44-.2,1c-.18,2.65-.38,5.27-.6,7.78a41.24,41.24,0,0,1-8.26,3.82C253.36,205.25,252.42,199.65,262.24,193.48ZM255.59,215a29.21,29.21,0,0,1,5-3.7l-.21.57c0,.15-1.35,12.41-1.34,12.26-.53.22-3.25,2.12-5.74,2.22C249.52,226.24,253,217.66,255.59,215ZM253,269.73c-.28-11.36,0-11.7-.48-12.3a8.1,8.1,0,0,0,1.24-3c.72-3.36.26-8.76.3-12.91l0,0c.15-4,.79-7.05,4.55-10.06l-.22.61-.09.81c-1.91,21-3.23,29-3.21,28.83C252.61,278.89,253.18,278,253,269.73Z" transform="translate(-117.75 -32)"/><path class="cls-2" d="M140.78,250.35c-3.37,1.68-7.21,4.47-8.26,8.29-1.71,6.23,6.76,8.56,6.61,8.41-4.46-4.8-3.6-7,1.36-9.21,8.28-3.37,24.8-5.11,34.1-1.33a17.79,17.79,0,0,1,7.47,5.95c-5.74-13.47-27.65-18.92-41.28-12.11Z" transform="translate(-117.75 -32)"/><path class="cls-2" d="M156.59,279.59c-9.67,1.81-21.63,9.5-24.28,7.92-.76-1.07,1-4.21,5.12-4.8,0,0,0,0,0,0-10.29-3.23-15.37,11.83-.24,12.73,13.29.78,23.6-9.59,32.5-13.44,2.84-1.17,4-1.28,3.78-1.34a34.18,34.18,0,0,0-16.88-1Z" transform="translate(-117.75 -32)"/><path class="cls-2" d="M307.2,263.57c-5.11,4.89,5.27-6.52,25.33-4a39.79,39.79,0,0,1,9.41,2.52,53.52,53.52,0,0,1,9.4,5.28c-7.11-15.49-28.14-18.87-44.14-3.76Z" transform="translate(-117.75 -32)"/><path class="cls-2" d="M302.75,276.44c-9.41,6.13-12.32,19.64-12.22,19.49,13.38-17.92,19.11-14,34.26-13.42,16.26.61,23.87-4.27,23.72-4.27-17.42,2-31.37-11.17-45.76-1.8Z" transform="translate(-117.75 -32)"/><path class="cls-2" d="M275.31,44.37c-2.87,2.49-3.64,7.08-3.46,10.65.42,8.17,6.32,17.32,7.69,25.42,0,0,0,0,0,0,.33-4.66-.52-9.43-1-14-.53-4.87-1.5-12.58.08-17,2,2.79,3.74,6.23,6.92,7.73,0,0,0,0,0,0-2.68-4.26-2.13-14-7.28-14a4.7,4.7,0,0,0-3,1.24Z" transform="translate(-117.75 -32)"/><path class="cls-2" d="M313.22,38c-5.58,3.11-10,9.22-8.59,15.61,0,.13.06-.26.09-.53,1.44-10.8,17.87-10,18.95-5.1.05,1,.21.3-3.05,5.19a42.28,42.28,0,0,0-4.42,8.39c-1.57,4.11-2.68,11.42,3.36,12.21a9.54,9.54,0,0,0,2.73-.07c-8-4.06,1.87-7.12,9.37-15.73,12.21-14-3.41-28.35-18.44-20Z" transform="translate(-117.75 -32)"/><path class="cls-2" d="M335.41,74.7c-.66.26-5.17,2.18-5,2.18.92,0,11.17-.49,9.38.42-4.68,1.62-13.39-.46-20.28,1.46-9.67,2.69-18.44,8.94-18.8,19a13.48,13.48,0,0,1,3.72-4.71c9.82-7.38,29.54-4.83,37.26-9.72,2.84-1.81,5-5.73,2.42-8.7-2-2.29-5.85-1-8.69.06Z" transform="translate(-117.75 -32)"/><path class="cls-2" d="M311.65,102.53c-13.23,2.34-17,4.14-16.83,4.1,7.87-.64-18.83,2-17.15,19.2,0,0,0,0,0,0,2.57-11.56,16.8-10.21,30.3-16.19,1.95-.86,4.3-1.91,5.72-3.55a2.15,2.15,0,0,0-2.07-3.56Z" transform="translate(-117.75 -32)"/><path class="cls-2" d="M245.66,75.74a12,12,0,0,0-2.52,11.07c2.61,9.33,13.51,12.93,21.62,16.35-.78-.39,2.08.93,2.08.93-4-5.9-13-14.49-14.18-20.15A6.42,6.42,0,0,1,255,79.07c4.13,2.33,7.89,16.43,7.89,15.81.22-7.66.12-20.41-7.08-23.12-3.51-1.32-7.81,1.13-10.15,4Z" transform="translate(-117.75 -32)"/><path class="cls-2" d="M254.92,105.88c-1.83,2.69-.61,5.91,1.31,8.11,1.72,2,4.07,3.28,5.73,5.31a8,8,0,0,1,1.63,3.89c0,.18.06.85.1.69,3-8.06-6.86-12.71-5.64-16.8,2.25,0,5.61,4.19,5.34,3.84a6.41,6.41,0,0,1,.83,1.34h0l0,.1s0,0,0,0c-.29-3.57-6-11.41-9.37-6.47Z" transform="translate(-117.75 -32)"/><path class="cls-2" d="M238.17,118.74c-3.12,5.33,2.7,13.18,7.59,17.14,4.17,3.36,6.52,3.85,6.34,3.67a8.68,8.68,0,0,1-1-1.12c-1.49-2.47-9.28-14.25-8.33-17a5.15,5.15,0,0,1,.57-1c3.2,1,8.62,11.18,8.45,10.51-2.6-16.55-10.15-18.07-13.59-12.18Z" transform="translate(-117.75 -32)"/><path class="cls-2" d="M197.4,156.52c-4.09,10.81,22.13,13.72,25.75,15.21l-.09,0c1,.44,1.11.67,1.06.52-2.71-6-12.17-10.25-17.57-14,7.39.1,20.35,9.67,18.71,8-4.22-4.36-12.32-14.05-18.89-15.06a7.81,7.81,0,0,0-9,5.31Z" transform="translate(-117.75 -32)"/><path class="cls-2" d="M214.93,174.85a2,2,0,0,0-.47,3.6c5.26,3.91,12.28,1.05,18.14,3.33,1.68.73,2.29,1.33,2.23,1.17a14,14,0,0,0-7.89-6c-3.83-2-7.94-3.65-12-2.13Z" transform="translate(-117.75 -32)"/><path class="cls-2" d="M232.66,187.75c-.09,3.28,1.5,6.06,3.33,8.75a3.87,3.87,0,0,0-1.47,4.24c2.86,7.64,9.2,12.69,12,16.12.18.27-.47-4.31-2.52-11.09a4,4,0,0,0,3.38-6c-2.27-3.91-7.63-7.14-10-9.49a37.74,37.74,0,0,1,3.16,2.31c-1.56-2.65-4.75-6.17-6.52-6.17a1.34,1.34,0,0,0-1.36,1.33Z" transform="translate(-117.75 -32)"/><path class="cls-2" d="M229.48,162.26a16.38,16.38,0,0,0,.91,5.42c.08-1,.11-2.64.25-3.37,2.8,5.06,2.85,12.64,7.65,17.81.12.18-.32-.93-.66-3.39-.77-5.94-.7-14-6.82-17.23a.89.89,0,0,0-1.33.76Z" transform="translate(-117.75 -32)"/><path class="cls-2" d="M273,165.18c-5.39,1.24-9.46,8.25-8.5,7.52a20.6,20.6,0,0,1,7.75-3.26,3.15,3.15,0,0,1,2.61.5c.88,1.38-6.87,3.27-10.36,5.79a28.81,28.81,0,0,1,4.26.13c17.53,1.47,12.75-12.64,4.24-10.68Z" transform="translate(-117.75 -32)"/><path class="cls-3" d="M147,270.66c-.92.61,19-3.3,33.49,2.66a87,87,0,0,1,9.25,5.15,22.44,22.44,0,0,0-21.23-15.41c-7.56,0-15.18,4-21.51,7.6Z" transform="translate(-117.75 -32)"/><path class="cls-3" d="M306.77,59.29a77.55,77.55,0,0,1-5.65,8.4l.33-.42c-5.77,7.46-12.84,13.82-18.32,21.53-12.9,18.17-9.88,34.75-9.8,34,11.51-18.37,28.17-31.41,33-59.94.21-1.19.36-2.39.48-3.6h0Z" transform="translate(-117.75 -32)"/><path class="cls-3" d="M316.24,265.84a32.63,32.63,0,0,0-9.72,3.62c18.21.29,26.86,7.45,39.39,2.49.44-.14-10.4-7.09-21.54-7.09a40.71,40.71,0,0,0-8.13,1Z" transform="translate(-117.75 -32)"/><path class="cls-3" d="M244.53,186.05c5.32,11.29,3.62,9,6,14.59.85,2.07,3.9,1.57,3.44-1.24-.22-2.36.53-3.81.59-6.21,0-.07-2,2.43-2.05,2.49-2.92-5.93-8.21-10-7.94-9.63Z" transform="translate(-117.75 -32)"/><path class="cls-4" d="M130.43,279.28c-12.69,3.4-15.42,13.41-10.14,19.46,9.92,11.11,32.61-4.45,45.35-10.57,7.47-3.52,11.9-4.13,11.33-4a23.68,23.68,0,0,1,15.77,2.29c-23.35-14-53.2,19.72-68.83,9.53-4.93-3.67-2.63-10.08,2-14,2.75-2.25,5.18-2.72,4.58-2.72Z" transform="translate(-117.75 -32)"/><path class="cls-4" d="M148.77,244.16c-11,.48-25.16,4.32-24.17,14.33.47,4.85,5.6,7.17,8.22,10.18l0,0c.6,1.19,2.35,2.54,0,5.88,0,0,0,0,0,0,5.59-6.2-4.85-9.36-6.14-15.39-1.8-11.45,24.53-14.8,36-14.45a73.59,73.59,0,0,0-13.94-.6Z" transform="translate(-117.75 -32)"/><path class="cls-4" d="M176.09,248.17c7.94,5.57,10.89,16.37,18,29.48,3.14,5.79,5.54,8.12,5.3,7.78-7.16-10.51-10.49-39.05-29.74-40.05a0,0,0,1,0,0,0h0C174.2,246.55,176.34,248.3,176.09,248.17Z" transform="translate(-117.75 -32)"/><path class="cls-4" d="M155.87,268.78s0,0,0,0c10.27-1.72,20.88,2.7,20.73,2.65,12.69,4.58,16.13,10.33,15.39,8.86-9.13-10.42-22.8-15.95-36.12-11.54Z" transform="translate(-117.75 -32)"/><path class="cls-4" d="M196.68,289.59c12.24,12.61,12.6,20.93,30.09,44.74,16.11,21.9,16.9,25.62,16.81,25.47l.42.9s0,0,0,0c-6.73-17-15.37-24.26-31.18-50.42-9.8-16.22-16.65-21.15-16.17-20.68Z" transform="translate(-117.75 -32)"/><path class="cls-4" d="M203.26,288.69c4.72,7.84,9.29,15.77,13.94,23.65,16.08,27.23,27.52,39.69,27.42,39.54-7.53-11-23.15-38.26-41.33-63.21h0s0,0,0,0Z" transform="translate(-117.75 -32)"/><path class="cls-4" d="M245.52,362.35a39.7,39.7,0,0,1,2.93,3.09c23.2,27.62,18.66,99.92,18.66,95.82,3.52-28.31,1.12-82.73-21.56-98.93h0s0,0,0,0Z" transform="translate(-117.75 -32)"/><path class="cls-4" d="M259.17,369.62c1.66,13,6.13,25.46,8.61,38.32l0-.09c4.18,22,4.36,69.88,4.45,31.42.1-39.4-7.82-45.13-13-69.66h0s0,0,0,0Z" transform="translate(-117.75 -32)"/><path class="cls-4" d="M352.48,273.11c3.61,5.11,2.31,7.43-2.35,8.34a28.37,28.37,0,0,1-9.84-.19c-18-3.21-29.74-4.6-44.86,6.35-22.7,16.44-28.95,41.36-34.32,68.5-4.15,20.8.89-2.76,6.13-20.48,5.14-17.39,11.41-30.9,25.19-42.55,21.64-18,36.43-8.65,51.81-9,6-.15,13.09-2.07,10.85-7.45a11,11,0,0,0-2.61-3.49Z" transform="translate(-117.75 -32)"/><path class="cls-4" d="M314.06,265.66c-19.69,1.57-31.39,21.47-39.59,39.44-4.54,9.95,1.76-4.32,8.24-13.57l0,0c6.57-9.29,15.38-19.39,26.65-21.58,18.22-3.19,53.8,6.56,23.54-2-6.05-1.7-12.59-2.86-18.82-2.36Z" transform="translate(-117.75 -32)"/><path class="cls-4" d="M324.43,250c-27.49,2.58-30.13,22.92-29.44,20.84,4.85-12.4,26.36-18.22,35.86-17.6,11.81,1,30.64,6.28,23.41,15.93,0,0,0,0,0,0,10.24-10.09-16.62-20.45-29.85-19.19Z" transform="translate(-117.75 -32)"/><path class="cls-4" d="M291.67,114.24c-7.79,6.24-11.83,12.59-15.86,21.67-1.68,3.79-4,9.6-3.59,8.79,7.13-14.87,12.11-21.6,19.45-30.46Z" transform="translate(-117.75 -32)"/><path class="cls-4" d="M325.06,97.41c-12.59,3.4-17,2.69-23.92,6.93-.28.18,1.38-.56,4.13-1.12h0c5-1,11.78-.37,17-1.16l-.11.16c-7.64,10.52-30.8,11.08-25.94,11.08,12.58-.14,27.79-1.56,31.4-13.61a2,2,0,0,0-2.54-2.28Z" transform="translate(-117.75 -32)"/><path class="cls-4" d="M349.56,67.06c-7,2-16.1,6.71-23.78,4.08h0c-1.28-.45,4.2,4.66,22.42-.19-3.35,17.17-38.64,11.1-45.74,26.76a12.42,12.42,0,0,0-1.12,5.15C304,80.25,350,94.76,351.79,68.58a1.7,1.7,0,0,0-2.23-1.52Z" transform="translate(-117.75 -32)"/><path class="cls-4" d="M313.21,32.37C302.52,34.86,303,49.9,296.26,53.11a6,6,0,0,1-5.58-.13h0l0,0,0,0h0a17.51,17.51,0,0,1-2.13-2.23c1.47,2.93,3.13,4.4,6.77,4,12.53-1.45,6.51-26.29,30-18.14,17.39,6.3-.95,16.54.09,30.43,0,0,0,0,0,0s0-.21,0-.31h0c1-12.16,20.12-24.7,2.37-32.09-4.38-1.82-9.95-3.31-14.62-2.22Z" transform="translate(-117.75 -32)"/><path class="cls-4" d="M273.28,40.87c-8.29,7.75,3.42,29.91,2.09,48.07-.14,1.94-.62,4.92-.58,4.77,5.79-22.4-3.87-44.15.27-50.58a7.52,7.52,0,0,1,3-2.4c4.26-1.93,7.43.4,8.76,4.74,0,0,0,0,0,0-.75-8.08-8.54-9.27-13.54-4.6Z" transform="translate(-117.75 -32)"/><path class="cls-4" d="M309,58.27c-2.12,3.66-4.32,7.28-6.55,10.89-13.4,21.69-25.2,39.05-30.09,63.86,0,0,0,0,0,0,5.95-19.68,19.41-42.43,30.67-63.28,2-3.79,4.05-7.6,6-11.46,0,0,0,0,0,0Z" transform="translate(-117.75 -32)"/><path class="cls-4" d="M249.82,68.92c-1.36,3.42,1.24,8,1.21,7.86-1.95-9,3.17-10.52,8.38-4.6,3.22,4,3.17,6.91,3.55,12.18.37,4.89.85,11.82,5.24,13.21a5.38,5.38,0,0,0,2.87,0c-3.94.08-4.87-2.84-4.78-2.69-3.3-7.44,3.39-17.46-5-25.64-3.61-3.5-9.72-4.72-11.46-.36Z" transform="translate(-117.75 -32)"/><path class="cls-4" d="M248.25,81.26c-7,5.6-5.46,11.94,1.12,15.23a20.15,20.15,0,0,0,7,1.92,31.47,31.47,0,0,1-6.52-3.4c-5.95-4.09-6.07-8.22-1.61-13.72,0,0,0,0,0,0Z" transform="translate(-117.75 -32)"/><path class="cls-4" d="M254.55,102.15c-3.16.64-3.53,5.94-.76,8,2.18,1.64,5,1.82,6.86,3.78l0,0,.05,0,0,0h0a7.33,7.33,0,0,1,1,2c.12-5.69-6.63-6-7.33-9.07-.15-1-.29-2.21.37-2.86,1.61-1.17,5.27.45,7,1.87.65.43-3.48-4.51-7.2-3.73Z" transform="translate(-117.75 -32)"/><path class="cls-4" d="M238.48,111.79a6,6,0,0,0-2.53,3.36c3.29-5.39,7.33-2,9.77,3.7a1.39,1.39,0,0,0,2.36.51c.55-.6,1.21-1.15,1.71-1.63,1.46,4.12,1.41,10.86,5.62,13.87,1.83,1.32,5.13,2.2,6.92.88,3.21-2.37.45-9.57-.48-14.1,0,0,0,0,0,0,.29,4.56,2.24,12.88-1.42,12.75a5.74,5.74,0,0,1-4.72-3.43c-1.6-3.63-2-13.53-5.11-14.19-1.65-.36-1.93.91-3.38,2.56-2.07-2.79-5.56-5.83-8.7-4.28Z" transform="translate(-117.75 -32)"/><path class="cls-4" d="M236.44,120.1c1.18,1.56,1.85,4,2.92,6.12-3.52,0-7.58,2.08-7.24,4.34.4,2.65,6.19,2.12,6,2.07-9.58-1.86-2-5,2.35-5.18a.61.61,0,0,0,.47-.93,31.94,31.94,0,0,1-2.16-3.4,10.79,10.79,0,0,0-2.3-3.05,0,0,0,0,0,0,0Z" transform="translate(-117.75 -32)"/><path class="cls-4" d="M244,133.22c4.76,2.65,3.22,4.78-1.2,7.57a1,1,0,0,0,.07,1.66c5.47,2.49,10.84-1.83,10.51-1.75a13.06,13.06,0,0,1-8,.61c6.91-5.89-1.58-8.39-1.32-8.13a0,0,0,0,0,0,0Z" transform="translate(-117.75 -32)"/><path class="cls-4" d="M253.05,144.69c-2.57,4-1,9.05,5.26,10.57a13.78,13.78,0,0,0,4.91.27c-5.15-1.11-10.1-3.89-8.7-9.1a35,35,0,0,0,3.88,1.24c11.85,3,1.53.45-3.3-2.82-.54-.4-.73-.67-1.19-.67a1,1,0,0,0-.86.51Z" transform="translate(-117.75 -32)"/><path class="cls-4" d="M271.51,146.7c-3.35,5.84-2.85,11.59-2.17,17.78,0,1.61.88-10.88.86-10.72a32.46,32.46,0,0,1,1.32-7.07Z" transform="translate(-117.75 -32)"/><path class="cls-4" d="M203.39,152.44c-4.1.07-7.29,1.91-6.18,6,2.53,9.46,13.25,7,19.52,8.88.14.1,0-.38-5.42-1.45-3.42-.68-7.77-1.41-9.9-3.75-9.81-12.08,16-8,28.27,10.44,1.43,2.14-8-20.45-26.29-20.12Z" transform="translate(-117.75 -32)"/><path class="cls-4" d="M228.44,151.73c-8,3.23,1.2,15,2.59,19.5.07.21.18-.41-1.46-5-1.07-3-3.69-9.75-1-11.44.48,1.73,1.19,8.73,6.89,6.87a17.93,17.93,0,0,1-1.07,8.75,17.45,17.45,0,0,0,3.41-10.81,1.36,1.36,0,0,0-1.76-1.2c-4.21,1.8-3.11-1.74-4.89-5.39a2.18,2.18,0,0,0-2.74-1.27Z" transform="translate(-117.75 -32)"/><path class="cls-4" d="M209.68,175.05c-.69,2.12.33,4.24,3.55,5,3.44.87,11.18-.41,11-.45-3.53-.64-11.84-.51-12.58-3.21-.45-3.2,5.34-3.54,8.58-3.3,1,.08,2.36.35,2.32.33-3.49-1.8-11.52-2.8-12.91,1.58Z" transform="translate(-117.75 -32)"/><path class="cls-4" d="M228.22,179.92c-1.49,1.43,1.64,4.42,3.49,5.7a23.74,23.74,0,0,1-2.24-3.44c-.5-1.13-.32-1.21-.34-1.35a4.47,4.47,0,0,1,1.84.34c3.6,1.2,6.62,7.6,11.08,9.57a11.83,11.83,0,0,1-3.25-2.86h0c-2.17-2.6-4-5.94-5.63-7.14-.8-.59-3.75-2-5-.83Z" transform="translate(-117.75 -32)"/><path class="cls-4" d="M225.92,188c-2.61,2.84,15,16.36,16.1,17.32.95.63-8.31-8.72-12.06-13.8-1.08-1.47-1.06-1.28,0-.94,8.47,3.11,13.85,13.13,13,11.38-2.66-4.7-6.26-9.4-10.82-12.3-1.21-.77-5.19-2.72-6.16-1.66Z" transform="translate(-117.75 -32)"/><path class="cls-4" d="M233.68,206.6c-2.64,2.87,14.56,18.28,13.45,16.6A138.62,138.62,0,0,1,237,209.31c4.48,2.1,7,6.34,9.23,10.85.21.32-2.4-7.8-7.15-11.59a13.13,13.13,0,0,0-4.59-2.35,1.24,1.24,0,0,0-.82.38Z" transform="translate(-117.75 -32)"/><path class="cls-4" d="M243.19,162.6c-5.32,8-.44,14.67-1,13.57a12.27,12.27,0,0,1,.74-10.3c-.14,4.79.31,9.24,2.46,13.39.53,1,1.64.07,2.32-.47a31.15,31.15,0,0,1,.8,6.51c0,.07.42-.7.5-3.82,0-1.36,0-2.72.09-4.08,0-.53-.58-.83-1-.7a6,6,0,0,0-1.4.68c-1.69-4.92-1.51-10.25-1.91-14.44a.84.84,0,0,0-1.58-.34Z" transform="translate(-117.75 -32)"/><path class="cls-4" d="M279,160.51c-2.83.3-27.13,14.55-27.23,25.63,0,.25-.22-4.24,6.28-9.77,3.86-3.2,6.78-4.68,11.44-7.49,4.17-2.53,5.31-3.45,7.89-5,.66-.41-2.37,3.67-2.74,6.45-.2,1.48.79,1.8.65,1.65a.67.67,0,0,1-.15-.14h0c-1.64-2,5.91-8,5.52-10a1.39,1.39,0,0,0-1.66-1.25Z" transform="translate(-117.75 -32)"/><path class="cls-4" d="M281.23,169.06c7.75,7.66-4.62,3.72-10.07,4.38s-13.11,5.46-16.83,13.05a9.67,9.67,0,0,0-.89,2.23,23.27,23.27,0,0,1,5.8-7,34.91,34.91,0,0,1,6.75-4.33c7.18-3.55,9.81-1.47,15.7-2.61,7-1.33-1.87-6.87-.45-5.79,0,0,0,0,0,0Z" transform="translate(-117.75 -32)"/><path class="cls-4" d="M271.37,180.16a14.18,14.18,0,0,0-6.4,2.33,77.31,77.31,0,0,0-7.8,6c4.25-2.92,9.25-7.29,14.31-7.27a23.25,23.25,0,0,1-4.45,2.62.91.91,0,0,0,.09,1.75c1.85.19,16.12.57,17.52,2.83-1,3.5-6.2.73-11.17,0-7.05-1-16.82,8.5-16.57,8.33,3.82-2.8,8.12-5.46,12.76-6.42,5.16-1.07,11.85,4.54,15.6,1.38a4.49,4.49,0,0,0,2-3.38c0-3.34-6.45-4.06-9.78-4.36-6.91-.61-7.32.05-6.62-.5a32.29,32.29,0,0,1,2.81-2.12.62.62,0,0,0-.21-1.11,10.59,10.59,0,0,0-2.09-.08Z" transform="translate(-117.75 -32)"/><path class="cls-4" d="M271.32,196.55c-4.91,1.11-16.59,10.81-18.15,9.22-1-1.39,2.54-8.53,1.91-7.26-2.32,3.72-5,9-.66,8.55,3.16-.35,9.21-4.07,13.86-6.32,11.75-5.6-7.06,6.5-13.32,14.44-1.78,2.23-1.91,3.44-1.81,3.24.73-1.88,3.45-4,3.26-3.84,6.59-5.59,18.6-11.35,19-15.8.11-1.24-1.12-2.91-4.06-2.23Z" transform="translate(-117.75 -32)"/><path class="cls-4" d="M273.09,218.17c-7,.33-14.33,4.78-19.86,9.14a19.63,19.63,0,0,1,0-7.89,19.14,19.14,0,0,0-.64,8.67c.29,2.07,6.94-5.28,17.6-7.17-5.31,5.21-13.19,8-17,15.89a22,22,0,0,1,3.92-4.44c4.16-3.49,18.26-10.25,17.23-13.37a1.21,1.21,0,0,0-1.21-.83Z" transform="translate(-117.75 -32)"/><path class="cls-4" d="M247.79,226.64c-2.9,17.15,1.88,32.7.93,58.44C247,332.2,252.5,349.39,252.5,349c-4.05-21.78-.76-67.7-2.1-84.12-1.12-13.69-3.51-25.32-2.58-38.2,0,0,0,0,0,0s0,0,0,0Z" transform="translate(-117.75 -32)"/><path class="cls-4" d="M254.34,240.34c-5.48,15-.24,33.8-.66,55.13a229.07,229.07,0,0,0,2.07,35.7c-.87-16.65,1.44-33.86-.47-53-1.11-11.09-2.82-21-2.13-30.5h0a48.14,48.14,0,0,1,1.19-7.31Z" transform="translate(-117.75 -32)"/><path class="cls-4" d="M264.61,230.1c-5.36,11.51-4.48,28.93-5.82,41-2.51,22.41-1.54,33.16-1.54,33,.63-15.34,2.91-29,3.43-35.42,1-13.34-.19-27.81,4-38.58,0,0,0,0,0,0Z" transform="translate(-117.75 -32)"/><path class="cls-4" d="M256.93,236.73c-2.32,9.86-2.27,15.83-1.35,24.52,0,.15.64-4.52,1.35-24.52Z" transform="translate(-117.75 -32)"/><path class="cls-4" d="M264.21,152.48a51.4,51.4,0,0,0-1.62,15.07,65.48,65.48,0,0,0,1.64-15.09l0,0Z" transform="translate(-117.75 -32)"/><path class="cls-4" d="M255.21,332.68a241.46,241.46,0,0,0-.47,26.33,1.25,1.25,0,0,0,2.47.19c1.8-6.55,2.38-13.4,4.65-19.83.05-.15.5-1.32.33-1-6.54,11.22-4.83,19.3-5.82,7.55-.79-9.56-1.16-13.49-1.14-13.27,0,0,0,0,0,0Z" transform="translate(-117.75 -32)"/><path class="cls-4" d="M250.13,349.41a88.41,88.41,0,0,0,2.63,15.22c-3.34-4.41-6.59-10.17-6.5-9.8,2.22,5.59,4.61,10.75,8.58,15.25a1,1,0,0,0,1.59-1,163.44,163.44,0,0,1-6.3-19.64Z" transform="translate(-117.75 -32)"/><path class="cls-5" d="M195.4,225.36c-8.33,0-14,4.45-15.81,9.14-2.7,7.16,3.55,12.66-2.6,17.72-1.84,1.33-16.6,8.9-20.43,16.48-4.33,8.66,6.58,13.95,15.56,13.95,20.48,0,34.13-21.51,54.64-7.69a39.52,39.52,0,0,1,5.88,6.47,2.42,2.42,0,0,0,4.17-2.45c-5.12-8.23-11.94-10-15.77-18.09-3.25-9.78-1.83-23-10.26-30.19a24.27,24.27,0,0,0-15.38-5.34Z" transform="translate(-117.75 -32)"/><path class="cls-5" d="M256.07,188.88c-7.17,0-20.17,7.49-23.18,17.2-2.77,9,5.83,10.71,4.92,13a4.17,4.17,0,0,0,1.16,4.85c1.43,1.15,3.23,1.5,4.89,2.1,1.29,2.88.47,4.83,4,8.64,2.93,3.14,6.59,2.82,8.23,3.9,2,1.85,2.31,9.35,5.36,16.54a2.35,2.35,0,0,0,2.09,1.2c3.74,0,3.24-8,5.82-18.55,2.38-9.72.42-11.77.23-20.55,0-2.19.25-4.56-.63-7.3-2.13-6.52-4.16-5.12-5.54-7.88h0c-.09-2.53,3.48-6.72-1-10.83a9.32,9.32,0,0,0-6.43-2.31Z" transform="translate(-117.75 -32)"/><path class="cls-5" d="M324,204.64c-7.7,0-15.36,6.62-19.87,13-12.12,17.2.14,34.86-9.56,50.26a2.3,2.3,0,0,0-.31,1.51,2.41,2.41,0,0,0,3.32,3.47s.15-.14.16-.12c12.38-9.34,37.52-10.28,52.45-14a88.2,88.2,0,0,0,13.8-4.48c5-2.15,9.67-4.69,10.39-10.56a8.84,8.84,0,0,0-1.55-6.42c-1.63-2.12-4.28-3.18-6.88-3.8-6.9-1.66-14.1-.89-21.2-.87-1.45,0-3.76.05-4.89-1.06s-1.21-3.31-1.42-4.72c-.74-6-.59-10.16-3.52-15.52A12.25,12.25,0,0,0,324,204.64Z" transform="translate(-117.75 -32)"/><path class="cls-6" d="M262.62,250.55c-1.09.64-1.11,1.48-1.3,2.57-1,1-.72,2-.51,3.19-2.16,14.45-2.16,29.07-2.68,43.66-1.19,5.1-2.55,10.18-4,15.23-1.25-5.24-2-22.25-20.53-38.92a2.41,2.41,0,0,0-4.11,1.7c0,2.67,13.83,14.38,19.7,37.36a65.53,65.53,0,0,1-1.38,21.59c-11.75,41.94-8.74,96.52,19.88,127.57a2.41,2.41,0,0,0,3.77-.49c.82-1.62,1.54-1.9,1.54-3.08,0-2.75-4.58-2.65-10.74-17-3.15-7.63-10.7-34.07-12.16-44.55-3.26-25.27,2.92-45.05,8.56-67a2.43,2.43,0,0,0,1.41-1.58c1.77-10-.57-2.92,4.85-12.76,6.74-12.2,5.91-12.72,18.52-25.22,2.4-.48-2.5-.05,27.82-24.13a2.4,2.4,0,0,0-2.91-3.77c-12.6,6.66-10.1,8.22-7.83,1.28a2.41,2.41,0,0,0-4-2.34c-7.51,8.39-15,16.79-21.83,25.74-15.86,20.74-9.23,22.63-7.83-10.08a206.12,206.12,0,0,0-.63-26.88,2.41,2.41,0,0,0-3.62-2.08Z" transform="translate(-117.75 -32)"/><path class="cls-7" d="M313.46,204.62c-7.87,2-14.91,8.11-18.67,15.22-10,19,6,27.46,4.21,42.19a33.68,33.68,0,0,1-1.18,5.17s0,0,0,0c12.88-18,6.64-22.6,14-41.37a19.53,19.53,0,0,1,6-7.92c3.13-2.24,5.11-2.87,8-.93,4.86,4.25,8.14,15.2,8.09,15a22,22,0,0,0,1.64-19.93c-3.8-9-12.6-9.87-22.07-7.49Z" transform="translate(-117.75 -32)"/><path class="cls-7" d="M340,238.61c-.49.33,3.44-.55,10.78,4.29-16,4.39-29.74,8.85-40,21.94-.44.67,5.92-4.12,16.77-2.7,2.42.38,9.95,2.88,10.36,3,6.35,2.42,13.05,4.07,19.87,2.85,9-1.61,16.83-8.68,17.94-18,1.38-11.71-10-17.35-20.41-16C351.32,234.48,343.79,236.2,340,238.61Z" transform="translate(-117.75 -32)"/><path class="cls-7" d="M183.9,226.94c-4.8,4.07-7.52,11.1-5.59,17.22,1.53,4.85,6,8.7,9.68,11.94.4.4-3.93-11.44,1.26-16.06,4.71-3.21,11.55-4.7,15.28-.41,4.25,6.09,4.26,11.32,6.77,17.87,3.1,8.08,7.94,8.9,7.8,8.81-9.69-6.39,2.43-22.94-4.39-36.21C209,219,192.89,219.31,183.9,226.94Z" transform="translate(-117.75 -32)"/><path class="cls-7" d="M169,257.94c-23.24,4.72-20.32,27.58-4.85,30,7.29,1.15,12.4-.77,18.79-4,12.24-6.13,19.05-17.62,30.83-18.63.14,0-8.78-4.49-24.45-1-10.15,2.27-21.51,8.17-24.35,5.33l0,0c-.55-2.05,4.55-10.84,11.2-11.79h0c.13,0,1-.06.83-.1-2.53-.78-5.39-.39-8,.13Z" transform="translate(-117.75 -32)"/><path class="cls-7" d="M192,250.64c.35,1.54,3.84,4.12,5.22,4.89,2.84,1.58,5.78,2.29,8.15,3.53,0,0,0,0,0,0-1.33-4.63-6-5.9-10-7.46,0,0,0,0,0,0-1.54-.59-3.62-2.06-3.35-.91Z" transform="translate(-117.75 -32)"/><path class="cls-7" d="M322.22,232.56c-5.58,1.91-7.38,7.47-9.4,12.44-1.86,4.23-5.89,10.3-2.95,13.43.34.34-.71-.67,1.05-3,2.59-3.19,6.28-5.29,7.92-9.21,1.84-4.38,1.52-9.3,3.41-13.62,0,0,0,0,0,0Z" transform="translate(-117.75 -32)"/><path class="cls-7" d="M328.11,237.4a17.58,17.58,0,0,0-7.13,5.41c-5.44,6.84-5.51,6.65-5.37,6.6,3.9-1.78,12.84-7.06,14.66-7.88,1.47-.6,6.47-2.8,5-2.15,2.05-.84,2.53-.6,2.39-.73-4.13-3-6.33-2.59-9.54-1.25Z" transform="translate(-117.75 -32)"/><path class="cls-7" d="M251.84,186.76c-13.05,3.08-27.56,25.37-16.5,34.65a5.92,5.92,0,0,0,3.53,5.06,17.59,17.59,0,0,0,4.28,1.21c3.74.63,2,0,1.73,2.49a3.63,3.63,0,0,0,1.7,3.19c1.8,1.35,4.72,1,6.82,1.32l-.09,0a8.82,8.82,0,0,1,2.28.57c.3.14.73.4.64.3-2.09-2-7.2-2.56-7.66-4.4,3.09-2.78,3.89-5.83-1.51-9.7a5.21,5.21,0,0,0-2-6.68c-1.51-2.52,2.15-11.18,9.44-15.47-.52,1.12-1.06,2.24-1.52,3.39-2.53,6.26,1.57,13.44,8.73,13a19,19,0,0,0,.26,6.39,4.36,4.36,0,0,0,4.25,3.15c.34,3.17-.75,18.6-.16,17.41.75-2.43,10.69-16,5.09-23.37,2.29-5.52,2.57-10.58-2.43-13.84-3.31-2.16-3.51.35-2.6-2.62,3.3-10.77-5-18.2-14.25-16Z" transform="translate(-117.75 -32)"/><path class="cls-7" d="M252.41,217.65c-1.21,11.58,6.12,20.14,8.66,25.94.05.14,2.78-6.14-1.26-14.23-2.07-4.13-5.34-7.53-7.37-11.71,0,0,0,0,0,0s0,0,0,0Z" transform="translate(-117.75 -32)"/><path class="cls-7" d="M262.65,275.88a10.37,10.37,0,0,0-1.22,7,2.4,2.4,0,0,0,4.73.45c.58,2.24.65,3,.7,2.87,1-2.6,1.93-5.47,1.11-8.26a1.72,1.72,0,0,0-2.53-1c-.28-.88-.67-1.73-1.6-1.73a1.42,1.42,0,0,0-1.19.67Z" transform="translate(-117.75 -32)"/><path class="cls-4" d="M176.93,253.51c-6.08,12.17-18.76,6-21.12,18.6-2,10.43,12.31,14.28,21.24,11.66,5.34-1.56,19.46-10.25,19.33-10.18,8.07-4.57,11.34-5.11,11.2-5.08,7.49-1.93,9.84,2.44,9.28,1.6-8.72-9.47-31.43,11-42.49,12.36a27.9,27.9,0,0,1-9.11-.82c-5.66-1.63-8.29-4.85-6.8-10.45,2.75-9.22,14-4.89,18.51-17.68a0,0,0,0,0,0,0Z" transform="translate(-117.75 -32)"/><path class="cls-4" d="M197.24,224.17c-12.21,1.66-23.4,12.46-15.54,23.7a24.75,24.75,0,0,1-1.58-3.82,11,11,0,0,1,0-5.76c3.47-11.38,29.79-20.08,36.18,3.75-.26-1,0-.47,2,10.25,1.6,8.31,3.37,11,3,10.31-1.49-5.89-.87-12.3-1.46-18.57-1.4-14.54-11.38-21.39-22.7-19.86Z" transform="translate(-117.75 -32)"/><path class="cls-4" d="M224.25,266.19c3.48,4.46,7.76,8.16,11.7,12.2,17.14,17.74,17.28,42.89,17.28,36.64-3.94-30.27-8.19-31.8-29-48.84Z" transform="translate(-117.75 -32)"/><path class="cls-4" d="M221.35,272.43c12.8,8.14,21.16,21.07,25,35.51l0-.13c4.31,16.78,1.75,28.5-.44,40.52-3.93,21.42-5.28,44.15-1.82,65.47,7.5,46.2,18.31,46,27.14,52.92a.44.44,0,0,0,.67-.17c3.14-6.18,2.91-7.86,2.84-7.57-.45,2.19-2.21,5-3.32,6.73-6.67-6.17-18.84-8.73-25.93-55.13-8.72-56.34,15.28-79.09-2.93-116.32-7.9-16.12-21.27-21.92-21.13-21.83Z" transform="translate(-117.75 -32)"/><path class="cls-4" d="M255,187.76c-2.49.38-4.62,1.94-7.06,3.36-5,2.82-9.53,2.92-12.2,6.87-4.91,7.23-5.45,20.24,2.61,23.61-.11,4.05,3.27,6.42,7.25,7-2.15,7.77,9.55,6.86,13.38,11.69.19.25-.44-1.42-4.22-3.39-4.79-2.5-9.84-3.61-7.49-8.64.83-1.71-4-.51-6.29-4.24a4.15,4.15,0,0,1-.38-3c.42-2-3.7-.54-5.51-7a20.12,20.12,0,0,1,2.34-14.1c1.56-2.5,1.91-2.53,8-4.91,6.4-2.48,8.17-5.41,12.14-4.43,9.44,3.1,4,15,8,17.42,2.29,1.4,3.81,1.92,3.86,4.48-.2,5.48-3.15,9.6-.54,10.65,3.32,1.35-3.7,23.51-3.16,33.51a5.16,5.16,0,0,0,.43,2.28c-1.13-7.29,12.31-32,5.47-38.36.56-3,2.2-8.25.56-11.2-1.19-2.16-2.94-2.94-4.76-4-1.39-4.42.78-13.53-8.08-17.14a8.21,8.21,0,0,0-4.35-.52Z" transform="translate(-117.75 -32)"/><path class="cls-4" d="M260.82,255c.62,5.9.75,21.64.95,21,1.89-13.84-.82-19.52-.95-21Z" transform="translate(-117.75 -32)"/><path class="cls-4" d="M266.47,257.85c-1.26,5.11-.6,8.82.5,13.54.12.58,0-2.28-.5-13.54Z" transform="translate(-117.75 -32)"/><path class="cls-4" d="M263.36,275.16c-5.08,3.09-2.78,9.28-2.81,14.34,0,.66-.09,1.57,0,1.35,1.12-5.18-1.35-11.54,3.08-14.52a4.39,4.39,0,0,1,.43,1.05c.7,3.6,1.68.87,3.05.31,3.34,4.91.74,8,.81,7.84-.14.21-.73,1.05-.56.87a6.76,6.76,0,0,0,2-3.32c.74-2.74-1.45-6.45-2-6.46a2.84,2.84,0,0,0-2.15,1.08c-.27-1.13-.89-3.13-1.89-2.54Z" transform="translate(-117.75 -32)"/><path class="cls-4" d="M265.26,289.4c-3.13,14.16-2.72,13.62-4,20A37.49,37.49,0,0,0,263,304.7a70.4,70.4,0,0,0,2.28-15.31Z" transform="translate(-117.75 -32)"/><path class="cls-4" d="M259.87,292a92,92,0,0,0-3.28,9.91,34.72,34.72,0,0,0-1,10.83c0-.14,4.56-22.15,4.25-20.75Z" transform="translate(-117.75 -32)"/><path class="cls-4" d="M323,205.29c-5.44.12-11.68,2.56-17,8.21-18,19.33.08,34.13-8.86,49.3-1.41,2.28-1.69,2.43-7.55,9.93-19.66,25.17-25.5,37.5-25.41,37.36,29.43-42.46,35.78-44.36,37-54.61,1.11-9.39-8.22-26.46,6.8-41.16-1.19,1.09,5.48-6.55,15.42-6.62,14.71.2,10.84,12,14.9,22.5,0,0,0,0,0,0-2.3-9,2.47-25.25-15.33-24.9Z" transform="translate(-117.75 -32)"/><path class="cls-4" d="M345.88,240c5,2.81,22,.85,23.65,6,1.53,7.26-17.22,10-24.55,11.33-27.05,4.73-30.07,3-54.87,26.13A186.29,186.29,0,0,0,275,299.19c-13.39,16.07-14.61,30.53-14.31,29.31,5.29-18.45,29.91-43,45.37-55.24,18.57-14.66,40.91-10,58.71-17.86,8.15-3.59,8.78-8.65,6.49-11.66-4.25-5.6-20-1.77-25.38-3.76h0s0,0,0,0Z" transform="translate(-117.75 -32)"/><path class="cls-4" d="M259.72,331c-12.68,24.24-13.27,57.28-8.32,83.7,7.83,42,25.54,48.81,21.9,46.39-6.8-6.16-9.78-14.66-12.92-23.29-21.35-58.44-.68-106.66-.66-106.8Z" transform="translate(-117.75 -32)"/><path class="cls-4" d="M325,221.24C316.83,229,314.85,244,305.89,259c-8.7,14.41-7.36,11.63-.09,1.77,16.86-22.82,5.92-23.64,19.21-39.51Z" transform="translate(-117.75 -32)"/><path class="cls-4" d="M332.2,237c-13.31,2.19-21.09,20.16-20.95,20,4.76-6.17,11.46-14.09,18.22-17.92,4.89-2.66,8.58-2.33,5.59-2.33a18.27,18.27,0,0,0-2.86.22Z" transform="translate(-117.75 -32)"/><path class="cls-4" d="M324.81,252.61c-3.82,1-6.32,3.23-5.2,2.6h0c5.64-3.17,16.44-1.63,26.3-1.58.14,0-12.65-3.23-21.09-1Z" transform="translate(-117.75 -32)"/><path class="cls-4" d="M198.85,259.29c-6.42.44-12.61,2.56-19,2.92a31.31,31.31,0,0,0,6.81.65c7.43,0,13.43-1.91,19.65-1.86h-.21a25.78,25.78,0,0,1,11.57,2.65c-5.59-3.4-11.21-4.86-18.78-4.36Z" transform="translate(-117.75 -32)"/><path class="cls-4" d="M198.54,234.23c.69,10.38,4.72,18.54,14,22.86a31,31,0,0,1-3.6-3.07c-1.15-1.92-3.52-1.74-10.36-19.79Z" transform="translate(-117.75 -32)"/><path class="cls-4" d="M193.59,250.18c2.55,3.09,6.72,6.09,10.82,6.31.2,0-.59-.18-.86-.26-5.68-1.6-10.91-7-10-6.05Z" transform="translate(-117.75 -32)"/><path class="cls-4" d="M190.78,266.45c-10,2.78-13.3,7.86-13.16,7.77,3.11-2.4,8.38-5.27,13.16-7.77Z" transform="translate(-117.75 -32)"/><path class="cls-4" d="M252.91,202c-3.25,9.94.68,16.26,5.18,24.46,4.31,7.88,4,12.18,4,11.87.22-7.3-3-14.23-5.93-21.38-4.58-11.31-3-13.17-3.25-14.95Z" transform="translate(-117.75 -32)"/><path class="cls-4" d="M263.1,211.58a22.59,22.59,0,0,0-1.47,11.33,69.1,69.1,0,0,1,1.47-11.33Z" transform="translate(-117.75 -32)"/><path class="cls-4" d="M245.56,216.49c.14.1,5.56,4.33,6.52,5.17a13.67,13.67,0,0,0-2.67-3.1,12.24,12.24,0,0,0-3.83-2.1s0,0,0,0Z" transform="translate(-117.75 -32)"/><path class="cls-4" d="M243.4,205.26a7.29,7.29,0,0,0,5.62,6.18c.19,0-.34-.21-.71-.43-3.09-1.84-5-5.9-4.89-5.77l0,0Z" transform="translate(-117.75 -32)"/><path class="cls-8" d="M249.88,203.46c-6.42,0-.16,16.2,2.38,22.1,6.43,14.94,6.85,11.38,10.25,16.35.44.67.84,1.41.36,2a1.29,1.29,0,0,1-.8.31c-5.5,0-9-8.13-12.5-8.13-1.21,0-1.86,1.34-1.71,2.42.41,2.91,9.78,9,9.3,8.65,5.51,3.86,10.55,10.86,12.09,15.28a12.49,12.49,0,0,1,.57,2.53c-3.78-2-8.58-7.54-12.77-6.13a4.81,4.81,0,0,0-2.36,1.39c-.94,1.71,3.39,2.25,5.31,2.65a12,12,0,0,1,2.92,1.13l-.09-.06a18.9,18.9,0,0,1,3.65,2.47c2.38,2.22,5.59,7.87,6.72,11.13a7.47,7.47,0,0,1,.48,2.87,7.25,7.25,0,0,1-1.51-1.06l.07.08a19.94,19.94,0,0,1-2.92-3.61l0,.1c-1.27-2.13-2.4-4.89-4.4-6.27l-.1-.06a.39.39,0,0,0,.07-.47,2.08,2.08,0,0,0-2.14-.1c-2.32,0-1.66,2.14-.46,4.13a2.07,2.07,0,0,1,.17.39c2.26,5.52,9.09,10.77,12.7,17.72.52,1,1,2,1.58,2.95a7.51,7.51,0,0,1,.83,1.3c.19.52.38,1.05.55,1.57a34.18,34.18,0,0,1,1.38,6.15,53.52,53.52,0,0,1-.17,12.71l-.15,1.39c-.27,2.3-4.14,30.46-1.48,32.78-.44,1.28.5.46-3.84-6.36-.81-1.29-2.52-3.73-2.46-3.63-4.21-6.08-8.68-12.14-14.37-16.94a38.86,38.86,0,0,0-9-5.79c-3.31-1.49-7.09-1.85-10.12-3.95a31.36,31.36,0,0,1-5.66-5.38c-3.39-3.94-6.28-8.43-10.27-11.81-5.71-4.82-18.87-8.47-22.33-1.58-2.74,5.29,1.4,10.42,1.13,10,1.05,1.8,1.92,3.29,1.85,5.05-.12,2.95-2.24,3.21-4.14,4-7.78,3.07-7.67,10.73.46,12.82,9.48,2.47,15.28-6,28.88-6.85l.09,0c18.2-.79,24.41,2.27,34.7,14.29,14.22,16.62,16.53,31.39,16.13,50.32a90.81,90.81,0,0,1-1,12.42.44.44,0,0,0,.86.18,67.91,67.91,0,0,0,3.29-31.6c2.35-27.11,14.25-51.35,22-74.43l.41-1.21a13.44,13.44,0,0,1,2.95-2.61h-.1c13.78-7.46,23.25-2.5,34.93-5.68,8.77-2.4,12.27-11.27-.15-11.27a22.49,22.49,0,0,0-3.9.33c2.65-1.29,5-2.27,6.87-3.38,5.4-3.21,5.11-7.86,2.2-10.46-8.24-7-34.49,13.31-41.34,22.79-8,11.1-6,17.56-25.54,65,.6-5.82.69-12.82,2.07-19.58,2.93-13.91,9.37-13.72,10.88-21.47.93-4.82-.76-9.4-4.15-5.73-3.18,3.41-3.44,9.42-5,14a11.28,11.28,0,0,1-.32-6.3c.25-.74.08-1.6,2.94-7.74,1.08-2.31,2.84-5.92,2.6-8.44a5.19,5.19,0,0,0-1.57-2.73.71.71,0,0,0-.49-.31.79.79,0,0,0-.48.24,10.46,10.46,0,0,0-2.14,2.41c-1.53,2.6-1.67,5.79-2.41,8.64a48.93,48.93,0,0,1-3-7.11c-3.47-10.61,6.79-9.62,6.31-17.44-.1-1.63-1-2.87-2.88-2.59-4,.56-4.42,7.15-6.42,10a10.19,10.19,0,0,1-1.25-4.71c-.9-15.23,10-20.65,8.33-31.28a5.46,5.46,0,0,0-.75-2c-.82-1.17-1.92-1.18-3.11-.44-4.65,2.93-1.42,10.39-4.44,14a11.25,11.25,0,0,1-1.8-3.26c-2.9-8.95,4.08-21.9.78-26.09-.75-1-1.93-.44-2.86.4-2.57,2.36-2.8,6.71-2.69,10.2-1.89-5.15-6-10.85-8.82-15.9C256.87,216.16,254.06,203.46,249.88,203.46Z" transform="translate(-117.75 -32)"/><path class="cls-4" d="M275,346s0,0,0,0c-9.37-14.28-13.66-28.06-32.73-29.92C249.19,317.44,260.2,320.83,275,346Z" transform="translate(-117.75 -32)"/><path class="cls-4" d="M236.66,319s0,0,.14,0h0c5.83-.73,12.75,3.12,17.15,6.72,1.11,1.11-6.74-9.61-17.29-6.72Z" transform="translate(-117.75 -32)"/><path class="cls-4" d="M277,295.24c.47,1.35,1,2.68,1.46,4a32.2,32.2,0,0,1,1.37,4.36,9.91,9.91,0,0,0-1.54-6.35c-.6-1.06-1.35-2.14-1.28-2s0,0,0,0Z" transform="translate(-117.75 -32)"/><path class="cls-9" d="M276.85,366a.43.43,0,0,0-.33.71c.65.86.57.61.82,3.7h0c.42,9.09-1.44,13-4.39,38.08-2.48,20.82-4.44,36,1.28,54.85a7.11,7.11,0,0,0,.53,1.32c1.17,2.16,4.72,2.42,5.79.22a10.18,10.18,0,0,0,.58-4.37c-.2-3.24-1.72-6.85-3.14-10.23-3.68-8.75-2.74-9.25-3.46-13.69h0a86.38,86.38,0,0,1,1.5-19c3.28-19.71,3.39-39.17,3-45.11-.23-3.47-1.46-6.43-2.2-6.43Z" transform="translate(-117.75 -32)"/><path class="cls-9" d="M207.22,293.4c-5.38,2.52-7.25,8.75-.73,12.23,0,0,0,0,0,0-8.38-7.73,6.74-12.35,14.49-5.42.1.08.43.45.4.35-2.5-7.44-9.18-9.47-14.17-7.15Z" transform="translate(-117.75 -32)"/><path class="cls-9" d="M220.08,314.75a104.91,104.91,0,0,0-12.82,4c-3.67,1.66-5.55,3-6.87,1.25-1.15-2,1.79-3.57,1.17-3.18a5.78,5.78,0,0,1,1.53-.62c-3.51-.36-6.21,3.4-3.4,6.53,2,2.23,6.75,1.17,9.63.36,4-1.1,6.25-1.68,13.16-5.65,5-2.88,5.66-2.62,5.47-2.67a23.11,23.11,0,0,0-7.87,0Z" transform="translate(-117.75 -32)"/><path class="cls-9" d="M332,259.49c-5.56,2.41-13.34,8.74-15.72,14-.09.14,2.59-3.79,12.38-8.69,2.62-1.31,9.66-4.58,12.35-3.41,1.36.79.67,3.55.68,3.45,4-5.64-2.59-8.43-9.69-5.37Z" transform="translate(-117.75 -32)"/><path class="cls-9" d="M337.79,272.66c.95,5-19.53,3.09-27.4,9.71,3-.26,5,.15,9.2-.48,5-.76,12.93-2.91,16.83-6,2.43-1.93,1.35-3.15,1.37-3.24Z" transform="translate(-117.75 -32)"/><path class="cls-9" d="M252.23,208a12.68,12.68,0,0,0-.93,5.1c-.06,12.83,7.45,20,10.87,28.08.34.51-2.74-12.23-5.67-18.83-1.86-4.19-4.72-9.85-4.25-14.35,0,0,0,0,0,0a0,0,0,0,0,0,0Z" transform="translate(-117.75 -32)"/><path class="cls-9" d="M251.86,240.16c2.95,6.66,10.71,9.18,14.61,12.62.42.38.67.68.63.59-3.75-7.11-9.92-7.49-15.24-13.21Z" transform="translate(-117.75 -32)"/><path class="cls-9" d="M264.85,271.36c-2.08,8.55,9,19.87,11.71,23.16a24.2,24.2,0,0,1,3.29,4.89c-1.64-10.57-12.39-20-14.55-26.24l0,.09a11.27,11.27,0,0,1-.47-1.91Z" transform="translate(-117.75 -32)"/><path class="cls-9" d="M280.86,244.66c0,4.47-2,7.4-3.6,11.38-2.32,5.66-2.06,9-2,9,1.87-5.56,8.41-12.21,5.66-20.35h0Z" transform="translate(-117.75 -32)"/><path class="cls-9" d="M271.1,229.26c1,7.47-2.19,13.9-.81,22.7h0c.95-6.9,4.54-14.71.82-22.71h0v0Z" transform="translate(-117.75 -32)"/><path class="cls-9" d="M261.64,330.4c10.92,13.05,18.31,36.25,18.28,36.14-2.68-18.66-7.57-26.86-18.28-36.14Z" transform="translate(-117.75 -32)"/><path class="cls-9" d="M284.09,341.24c-3.64,3.95-3.23,11.49-3.12,11.14,1.09-4.05-.24-1.84,3.12-11.14Z" transform="translate(-117.75 -32)"/><path class="cls-9" d="M278.15,339.08a14,14,0,0,0,.33,8.27c-.36-4.77-.31-7.73-.33-8.27Z" transform="translate(-117.75 -32)"/><path class="cls-9" d="M310.25,277.06a9.75,9.75,0,0,0-2.53,5.82,30.59,30.59,0,0,1,8.28-8.52,9.21,9.21,0,0,0-5.75,2.7Z" transform="translate(-117.75 -32)"/><path class="cls-9" d="M215.71,306.64c-14.38,2.43,2.78.19,14.54,4.72a12.48,12.48,0,0,0-10.36-5.14,25.42,25.42,0,0,0-4.18.42Z" transform="translate(-117.75 -32)"/><path class="cls-4" d="M250.52,204.18c-8.53.51,6.17,31,10.62,36.67.08.11-1.94-2.87-5.44-11.17,0,0,0,.06,0,.1-11.27-26.77-5.31-26.07-2.65-22.64,3.59,4.83,11,24.44,12.52,29.54.49,1.57,1,4.18.31.09-1.51-8.55-5.47-20.48-9.81-27.93-1.38-2.37-2.93-4.82-5.59-4.66Z" transform="translate(-117.75 -32)"/><path class="cls-4" d="M273.22,224c-4.51,3.46-5.53,9.26-4.44,14.61a22.89,22.89,0,0,1,.1-4.46c-.11.77.25-4.93,4.09-8a20.51,20.51,0,0,1,.21,3.54c-.09,7.75-3.94,16.11.22,25.7,0,0-.33-1.35-.51-2.63v.06c-1.12-8.73,4.11-20.08,1.52-28.3a.83.83,0,0,0-1.2-.49Z" transform="translate(-117.75 -32)"/><path class="cls-4" d="M280.32,239.83c-3.19,2.18-4.55,15-4.53,15a86.35,86.35,0,0,1,3.09-10.37.69.69,0,0,1-.05.13c.41-1,1.44-3.25,2.52-3.48.44,0,.93.46,1.21.79,2,2.84-1.07,10-2.81,14.19v0l0,.05c-3.59,8.53-6.16,12.54-.69,3.87,11.09-17.51,4-22,1.28-20.12Z" transform="translate(-117.75 -32)"/><path class="cls-4" d="M248.91,235.49a.73.73,0,0,0-.53.53c-3.27,7.83,10.64,11.65,14.53,16.3.09.06-.73-2-5.75-6-3.54-2.79-7.62-5.45-7.47-8.89,7.25,4.43,10.11,5.21,9.89,5.13-8-4.35-9.53-7.41-10.67-7.1Z" transform="translate(-117.75 -32)"/><path class="cls-4" d="M256.16,258c-2.58,1-5.23,4.94-3.07,5.09,2.73.17,6.74,0,9.3-1.08.39-.19-1.45.72-7.94-.34,3.31-4.52,9.94-.9,14.26,2.7a.37.37,0,0,0,.58-.45c-1-1.72-7.89-8-13.13-5.92Z" transform="translate(-117.75 -32)"/><path class="cls-4" d="M262.26,267.49a2.62,2.62,0,0,0-1.6,2.1c-1.23,5.23,11.83,17.77,13.72,21.74,0,0,0-.42-1.19-2.75-5.15-9.74-12.79-17.67-10.52-19.75.65-.41,2.57,1.25,2.1.87,4,3.11,8.74,10.76,8.38,10-1.49-2.66-7.69-13.05-10.89-12.25Z" transform="translate(-117.75 -32)"/><path class="cls-4" d="M286.56,284.68c-4.33,2.54-2.76,7.4-4.34,11.8-3-4.5-5.37-12.89-5.06-11.64,1.38,5.52,2.23,8.65,4.65,13.25a.64.64,0,0,0,1.1,0c2.67-3.59,1.21-8.91,3.76-11.41a12.52,12.52,0,0,1,.77,3,16.5,16.5,0,0,1-1.08,7.48c2.26-3.77,3.07-8.06,1.32-12.15a.81.81,0,0,0-1.12-.29Z" transform="translate(-117.75 -32)"/><path class="cls-4" d="M291.77,294c-.83.24-2.39,3.26-2.76,4.05-1.79,3.74-2.56,7.23-3.83,11.2a44.8,44.8,0,0,1,.84-6.34,38,38,0,0,0-1.67,8.83.4.4,0,0,0,.75.21c2.06-3.64,3.55-10.86,6.6-15.17a8.85,8.85,0,0,1,.22,3.82c-1.18,7.88-12,22.51-5.58,14.14,3.15-4.14,7.56-9.3,7.78-15,.06-1.75-.67-6.14-2.35-5.71Z" transform="translate(-117.75 -32)"/><path class="cls-4" d="M283.27,323.82A28.17,28.17,0,0,0,280,334.14a104.53,104.53,0,0,0-.44,11c1.7-9.84,1.73-15.55,3.73-21.32,0,0,0,0,0,0Z" transform="translate(-117.75 -32)"/><path class="cls-4" d="M278.59,305.51c.08.41.14.81.19,1.23s.13,1.11.18,1.67c.08,1.08.13,2.16.13,3.24a51.85,51.85,0,0,1-.4,6.23c-.48,4-1.32,7.95-1.93,11.94a49.3,49.3,0,0,0-.57,12.31c.09.88.21,1.75.36,2.62a54.3,54.3,0,0,1,.65-8.61c.13-1.06.38-2.11.55-3.17.42-2.6.78-5.2,1.07-7.82.36-3.24.62-6.49.69-9.75,0-1.58,0-3.16-.07-4.74-.08-1.42-.32-2.8-.49-4.21,0-.32-.24-1.82-.57-1.87C278.47,304.89,278.53,305.2,278.59,305.51Z" transform="translate(-117.75 -32)"/><path class="cls-4" d="M336.89,254.45c-13.27,3.12-32.68,22.26-36.93,32.28-3.51,8.27-4.91,17.54-6.83,26.26-1,4.41-2,8.81-3.09,13.19-.54,2.15-1.12,4.3-1.73,6.43-.3,1.05-.61,2.09-.93,3.13s-.44,2.08-.74,3.1c.33-1.14,1.22-2,1.58-3.16s.77-2.45,1.16-3.67c.87-2.7,1.64-5.43,2.37-8.17,1.41-5.36,2.6-10.77,3.83-16.17,1.72-7.55,3.09-16.12,7.28-22.78,7.72-12.31,35.12-37.24,44.67-25.76a2.89,2.89,0,0,1,.59,1.3c.28,3.79-9.41,9-13,10.24a20,20,0,0,0,3.82-.88C358.93,263.79,349.45,251.47,336.89,254.45Z" transform="translate(-117.75 -32)"/><path class="cls-4" d="M343.6,270.89c-.17,0,.38.07.25.05,6.43.88,7.28,4.65,5.23,6.37-3,2.1-15,3.38-18,3.8-1.24.18-2.46.46-3.7.62l.43-.05c-7.76,1-21.07.73-25,8.45a8.63,8.63,0,0,0-.62,6c.07-10.29,13.6-9.2,26.32-11.35,1.56-.26-.84.06,8.68-1.55,4.1-.68,12.68-2,14.1-5.79,1.65-4.54-2.7-6.91-7.71-6.58Z" transform="translate(-117.75 -32)"/><path class="cls-4" d="M299.75,300.29a7.15,7.15,0,0,1-.85,2c-.33.78-.66,1.55-1,2.32-.48,1.12-1,2.2-1.51,3.29-1,2.07-1.94,4.19-2.79,6.34-1.81,4.6-3.33,9.32-4.7,14.06-1.45,5-2.76,10.08-3.84,15.18-.85,3.93-2.79,17-2.75,16.94,1-3.45,3.36-11.34,4.33-15.19,2-7.89,3.56-15.87,5.78-23.7,1-3.56,2.12-7.1,3.44-10.56S299.26,304.1,299.75,300.29Z" transform="translate(-117.75 -32)"/><path class="cls-4" d="M205.72,289.45a14.15,14.15,0,0,0-6.69,5c-6.34,8.09,2.07,11.43,1.68,15.8a3.11,3.11,0,0,1-1.13,2c-2.93,2.09-11,1-9.9,8.94a8.83,8.83,0,0,0,1.86,4.72c7,8.84,25.63-.85,35.17-7.05-6.45,2.44-26.73,9.8-32.32,5.79-2.22-1.84-2.37-5.32-1.46-6.66,1.11-1.29,3-1.45,5.31-2.22,4.8-1.56,6.21-5.35,3.81-9.45s-5.21-5.71-1.27-10.91c11.63-14.71,27.6,9.09,38.38,15.74,0,0,0,0,0,0-6.34-5-20.73-25.73-33.45-21.69Z" transform="translate(-117.75 -32)"/><path class="cls-4" d="M259.84,332.59c38.52,38.86-4.56,88.38,14.61,131h0c-12.08-40.47,13.49-79.06-.09-112.72-3.73-9.24-8.26-13.19-14.54-18.29Z" transform="translate(-117.75 -32)"/><path class="cls-4" d="M281.23,362.49c.35,32.72-10.79,67.65-5,85.37,2,6.08,3.33,8.53,3.37,12.08,0,2.06.88,3.44.64,4.14-.45.94-3.29,1.85-2.86,1.74,4.64-.69,3.86-1.58,3.42-4.57-.15-1.14,0-1.73-.11-2.6-.46-5-4.6-10.83-5.34-15.93a29.66,29.66,0,0,1-.29-3.73c-1.07-22.35,7.86-50.68,6.13-76.5Z" transform="translate(-117.75 -32)"/><path class="cls-4" d="M213.51,308.5a132.12,132.12,0,0,1,14.16,3.24c2.68.77,4.73,1.68,4.5,1.53-8.12-5.24-12.75-5.67-18.66-4.77Z" transform="translate(-117.75 -32)"/><path class="cls-4" d="M212.18,298c3.42,7.24,12.08,8.34,12,8.28-8.18-3.89-11-7.41-12-8.28Z" transform="translate(-117.75 -32)"/><path class="cls-4" d="M209.58,315.84a16.39,16.39,0,0,0-7,6.53c2.76-2.58,7.64-5.71,11.37-6.27a8,8,0,0,1,4.28.6c-2.46-2.12-5.68-2.14-8.67-.86Z" transform="translate(-117.75 -32)"/><path class="cls-4" d="M335.68,260.41c-4.19,5.95-15.17,14-14,13.14a88.76,88.76,0,0,1-9.42,6.3,57.38,57.38,0,0,0,12.57-6.44,30.61,30.61,0,0,0,10.85-13Z" transform="translate(-117.75 -32)"/><path class="cls-4" d="M329.65,274.79A46.3,46.3,0,0,0,322,276c4.87.3,10-.33,13.61.14.8.11,1.63.3,1.45.24a15.23,15.23,0,0,0-7.39-1.6Z" transform="translate(-117.75 -32)"/><path class="cls-4" d="M255.46,221c7.93,16.79,16.34,49.68,16.34,47.4-3.3-18-5.71-29.88-16.34-47.4Z" transform="translate(-117.75 -32)"/><path class="cls-4" d="M269.28,240.62a9.31,9.31,0,0,0-.54,5.82,33.64,33.64,0,0,1,.55-5.83Z" transform="translate(-117.75 -32)"/><path class="cls-4" d="M259.45,243.75c.06,3.47,4,3.59,5.15,6.47a3.28,3.28,0,0,0-1-2.27,11.63,11.63,0,0,0-2.08-1.61,4.15,4.15,0,0,1-2.08-2.59Z" transform="translate(-117.75 -32)"/><path class="cls-4" d="M281.43,310.23c-1.53,12.12-1.77,10.88-1.22,19.69,0,.1.79-4.71.81-4.81.9-5.76.49-11.93.41-14.88Z" transform="translate(-117.75 -32)"/><path class="cls-4" d="M276,266.45c-.7,4.82-1.61,8.78-.54,13a9.51,9.51,0,0,0,1.79,3.68c-1.48-3.48-1.37-12.88-1.25-16.67Z" transform="translate(-117.75 -32)"/><path class="cls-4" d="M282.5,269.91c-1.93,1.45-4,7.3-4.23,9.48a23.53,23.53,0,0,1,1.35-3.2c.56-1.14,2.71-5.21,4-5.27.16,0,.3.28.39.43,1.32,2.85-1,4.88-3.43,9-2.89,4.92-1.43,7.59-1.59,7.1-.4-6.16,8.2-9.91,7-15.32-.42-2-1.91-3.41-3.5-2.2Z" transform="translate(-117.75 -32)"/><path class="cls-4" d="M323.29,266.87c-1.05,2.66-1.39,4.17-2,5.78,0,.1,1.86-1.74,2.06-5.78h0Z" transform="translate(-117.75 -32)"/><path class="cls-4" d="M283.81,340.46A114.14,114.14,0,0,1,281,353.21c-.43,1.69-.22,1.68-.58.05-1.38-6-1.34-6.32-1.34-6.22a98.68,98.68,0,0,0,.85,10.55.63.63,0,0,0,1.25.09,91.11,91.11,0,0,0,2.61-17.22Z" transform="translate(-117.75 -32)"/></svg>