<svg id="Layer_1" data-name="Layer 1" xmlns="http://www.w3.org/2000/svg" viewBox="0 0 178.63 430.29"><defs><style>.cls-1{fill:#727d43;}.cls-2{fill:#dccb9f;}.cls-3{fill:#d87a8a;}.cls-4{fill:#a1ad60;}.cls-5{fill:#a55d6c;}.cls-6{fill:#161616;}</style></defs><path class="cls-1" d="M246.75,36.1c-9.58,0-20.08,2.9-27.24,9.16-20.2,17.74,2.39,60.41,8.29,81.05,2.22,7.81,3.89,15.65,6.36,23.19-14.84-18.47-24.53-36.37-36.15-45-14-10.47-26.54-9-18.58,7a41.62,41.62,0,0,0,7.6,10.77c19.34,22.21-5.86,9.72-16.76,18.06-8.13,6.06-5.72,21.82.9,29.59,13.52,15.84,32-2.72,46-8.07h0a108.74,108.74,0,0,1,19.78-5l.39.93a1.39,1.39,0,0,0,2.41.1c6.15-7.72,3.59-13.73,3.63.66a1.4,1.4,0,0,0,2.8.11c0-27,12.1-41.74,19.76-65.79,7.93-24.68,7.41-56.77-19.16-56.77Z" transform="translate(-160.69 -34)"/><path class="cls-1" d="M325.81,114.66a78.57,78.57,0,0,0-28.63,6c-31.11,12.38-47,40-46.41,42.7.29,1.24,1.1.2-.42,1.57a1.41,1.41,0,0,0-.08,2c1.26,1.37,2.15-.35,5.63-2.84,6.87-4.89,16.44-9.41,24.68-13.66,14.54-7.55,10.3-6.91,27.18-13.74,6.7-2.71,21.2-8.26,26.21-14,3.32-3.8,2-7.92-8.16-7.92Z" transform="translate(-160.69 -34)"/><path class="cls-2" d="M243.17,151.28a1.42,1.42,0,0,0-1.34,1c-.65,3.14-2.64,6.29-3.77,9.6a14.27,14.27,0,0,0-1.63-1c-4-2.14-3.47-2.87-4.7-2.6a1.41,1.41,0,0,0-1.08,1.31c-.51,7.5.87,14.2,5.48,20.22,2.67,3.51-.68-2,.84,23.5.82,13.63-2,9.75-2.85,41.12-1.46,11.21-2.37,23.06-1.42,34.33a1.39,1.39,0,0,0,1.33,1.44c2.13-.87,1.54,2.81,2.92-36.15,3.45-21.26,3.36-28.06,3.16-33.38,2.32-11,7.34-20,9-29.83,3.2-3,5.88-14.38,5.82-14.15,1.8-6.79,3-7.31,1.59-8.23-1.08-.67-1.25.14-5,1.89-6,2.84-4.24,3.64-5.22.84-3-8.51-.92-9.94-3.2-9.94Z" transform="translate(-160.69 -34)"/><path class="cls-3" d="M237,265.84a1.32,1.32,0,0,0-1.17.64c-3.07,5.6-3.4,12.22-3.35,17.36.07,7.19,1,14.16.73,21.29-.35,10.21-.13,20.47.1,30.68.53,22.42,3.13,44.58,4.67,66.83,1.21,17.59,3.32,35.47,2.62,53.12-.31,7.71-.11,7.71.26,8.12,1.13,1.22,5.77.1,7.56-8.59,2.3-11.2,0-31.93,0-31.71-6.33-54.28-8.82-120.06-8.65-144.5C239.8,276.7,239.72,265.84,237,265.84Z" transform="translate(-160.69 -34)"/><path class="cls-4" d="M230.19,43.14c-11.4,4.55-18.65,20.6-10.2,36.75a27.25,27.25,0,0,1,.37-4.34c1.4-7.11,6.77-16.72,11.4-22.38,4-4.61,7.67-7,13.81-6.1a25.81,25.81,0,0,1,10,4.8c-6.47-9.07-15.12-12.85-25.42-8.73Z" transform="translate(-160.69 -34)"/><path class="cls-4" d="M257.88,65.17c3.35,6.59,2.66,13.75,2.47,21.2,0,1.55,0,12.29.09,12,2.35-5.6,4.36-11.22,4.08-17.4-.49-10.9-6.9-16.32-6.64-15.81Z" transform="translate(-160.69 -34)"/><path class="cls-4" d="M180.93,105.35c-5.24,8.54,10.1,17.38,13.52,21,.25.25-.54-3-3.87-8.48-2.63-4.32-7.15-9-4.74-11.17,2.66-1.44,12,7.17,11.52,6.45-3-4-6.84-10-11.49-10.59a5.35,5.35,0,0,0-4.94,2.8Z" transform="translate(-160.69 -34)"/><path class="cls-4" d="M173.55,148.77c-6.36,8.87,13.82,24.18,30.23,15.24.49-.16-1.93,1.57-18.82-6.26-8.41-4-10.76-6.79-3.36-12.12,2-1.47,2.89-1.77,2.63-1.77-3.86.48-8.28,1.56-10.68,4.91Z" transform="translate(-160.69 -34)"/><path class="cls-4" d="M301.62,123.3c-3.77,1.34-24.06,11.72-20.63,11a403.4,403.4,0,0,0,43.27-11.9,37.81,37.81,0,0,0-22.64.88Z" transform="translate(-160.69 -34)"/><path class="cls-1" d="M237.81,166.48c-4.75,10,9.43,11.46,9.79,1,0-.33-8.66,9.72-9.67.16,0-.22-.12-1.42-.1-1.21Z" transform="translate(-160.69 -34)"/><path class="cls-5" d="M236.72,312.74c-4.86,34.41-1.91,40.35.77,52.53,0,.48,1.83-11.75,1.57-18.48-.29-7.1-2-21.16-1.67-18.45-.66-7.06-.65-15.83-.65-15.62,0,0,0,0,0,0Z" transform="translate(-160.69 -34)"/><path class="cls-6" d="M230.31,162.88c1.21,5.72-.35,13.45,3.82,17.42a7.14,7.14,0,0,0,4.77,1.81c-.75-.23-1.26-.47-1.05-.37-4.53-1.81-4.84-6.29-5.56-11.1-.93-6-2-8-1.95-7.78,0,0,0,0,0,0Z" transform="translate(-160.69 -34)"/><path class="cls-6" d="M250.59,169.66c.32,3.61-.09,7.09-2.29,10a12.47,12.47,0,0,1-4.45,3.32c11.08-1.55,6.35-15.82,6.77-13.35,0,0,0,0,0,0Z" transform="translate(-160.69 -34)"/><path class="cls-6" d="M325.59,112.31c-28.67,1.37-58.13,14.52-71.74,40a68.38,68.38,0,0,0-5.59,13.88c21.35-48,73.79-51.2,68.58-50.55,4.5-.59,11.61-1.13,16.09-.55s4,1.72,2.78,3.37c-6.86,8.78-32.94,19.78-30.87,19-11.64,4.88-46.1,15-49.36,30.6-.28,1.15.1-5.62,14.47-13.17,11.5-6.07,28.43-11.37,37.51-15.44,25.92-11.58,46.6-28.55,18.13-27.16Z" transform="translate(-160.69 -34)"/><path class="cls-6" d="M242.91,34.88a13.82,13.82,0,0,0-4.4,2.43c8.57-4.29,20.18-.51,25.69,12.53,5.36,13.25,4.83,31.75,1.68,45.32-5.32,23-26.69,41.63-19.83,67.32.1.38-.33-2.17-.39-2.55-4.36-30.79,29.61-45,26.09-94.51-1.91-26.5-17.47-34.27-28.84-30.54Z" transform="translate(-160.69 -34)"/><path class="cls-6" d="M217.43,42.55C208.14,48.85,209,64,210.87,75c5.35,31,18.37,51,22,62,.29.59-.76-3.85-2.49-9.7C221.81,98.23,206.86,66.17,214,48.89c5.51-12.57,21.33-7.85,16.37-9.09-4.51-.33-9.16.22-12.9,2.75Z" transform="translate(-160.69 -34)"/><path class="cls-6" d="M178.44,95.41c-5.62.69-10.31,3.23-9.73,8.91,1.07,11,18.64,23.18,24.11,29.65a7.35,7.35,0,0,1,1.22,1.8s0,0,0,0c0,.66.07,1.23.07.67,1.76-4.2-23.24-28.67-19.55-34.26,1.28-1.42,3.56-1.89,5.73-2.21,15.57-1.88,33.07,26,43.91,35.41,0,0,.06,0,0,0-11.47-11.3-26.29-42.38-45.81-40Z" transform="translate(-160.69 -34)"/><path class="cls-6" d="M175.12,138.74c-18.65,7.3-18.66,24.88-3.27,34.48,16.44,10.29,38-3.88,53.41-11.61,0,0,0-.05,0,0-19.47,3.92-39.66,14.25-52.68,4.74-16.69-13.4-.25-27.52,14.9-29.56.26,0,2.49-.24,2-.24a32.22,32.22,0,0,0-14.36,2.23Z" transform="translate(-160.69 -34)"/><path class="cls-6" d="M235.74,58.7c-1.55,9.68,1.49,20.35,3,30.75,1.64,12.16-.59,23.16-.92,38.91a91.86,91.86,0,0,0,.54,13.44c1-16.46,7.54-33.1,4.81-49.74-1.25-7.51-4.66-16-6.36-23.79a43.22,43.22,0,0,1-1-9.59,0,0,0,0,0,0,0Z" transform="translate(-160.69 -34)"/><path class="cls-6" d="M206.71,141.3c4.74,6.16,11.5,8.44,18.45,9.4,21.06,2.92-9-3.33-18.42-9.43h0s0,0,0,0Z" transform="translate(-160.69 -34)"/><path class="cls-6" d="M286.56,135.27c-13.61,5.32-20.52,13.18-20,12.82,9.24-7.73,35.15-15.81,43.08-18,.69-.23-11.73.7-23.1,5.13Z" transform="translate(-160.69 -34)"/><path class="cls-6" d="M245.3,187.51c-15.81,53.88-5.15,97.87-2,234.75,1.06,43.81,8.24,35.45-.47,39.29-4.59,1.92-5.84,1.36-5.23,1.52,3.75.53,8.11-.56,12-1.14a1.64,1.64,0,0,0,1.2-1.58c1.13-24.55-12.18-156.17-12.16-204.65,0-42.48,6.29-65.4,6.65-68.19Z" transform="translate(-160.69 -34)"/><path class="cls-6" d="M237,188.8c.18,43.11-8.83,41.5-5.73,157.11,1.55,58.66,8.71,88.45,8.24,114.42,0,.35,3-13.89.87-36.88-2.59-27.93-6.56-30.14-6.84-143.64-.06-38.71,5.74-43.56,3.46-91Z" transform="translate(-160.69 -34)"/><path class="cls-6" d="M202,155.91a26.29,26.29,0,0,0-8.48,4.91c14.16-6,18.67-5.91,18.41-5.91a25,25,0,0,0-9.93,1Z" transform="translate(-160.69 -34)"/><path class="cls-6" d="M192.81,148.77a20.59,20.59,0,0,0-8.81,4c2.07-.67,4.19-1.2,6.31-1.67,9.76-2.23,11.66-1.06,11.26-1.33a18.56,18.56,0,0,0-8.76-1Z" transform="translate(-160.69 -34)"/><path class="cls-6" d="M196.14,121.21c3.8,7.53,7.56,10.71,13.35,16.63.39.39-3.05-6.58-13.35-16.63Z" transform="translate(-160.69 -34)"/><path class="cls-6" d="M227.51,92.07A140.29,140.29,0,0,1,237,103.91c.25.36-.94-3.76-3.43-7a18.2,18.2,0,0,0-6-4.86,0,0,0,0,0,0,0Z" transform="translate(-160.69 -34)"/><path class="cls-6" d="M220.93,69.38c2.23,6,4.23,8.73,6.91,11.55.19.21,3.69,3.88,3.6,3.61-3.75-7.74-5-9.32-10.51-15.16Z" transform="translate(-160.69 -34)"/><path class="cls-6" d="M255.39,58.75c-5.73,7.58-10.27,15.87-6.35,24.52.08.16,0-.24,0-.39-.8-6.86,2.69-12.69,6.4-24.12,0,0,0,0,0,0Z" transform="translate(-160.69 -34)"/><path class="cls-6" d="M258,93.12a16.8,16.8,0,0,0-7.69,14,12.06,12.06,0,0,0,.86-2.06A68.75,68.75,0,0,1,258,93.11Z" transform="translate(-160.69 -34)"/><path class="cls-1" d="M293.72,287.23c-3.91-1-8.49-.88-12.05.94-10.06,5.16-5.22,24.88-4.93,33.9.1,3.41,0,6.78.21,10.11-4.15-9.06-6.27-17.35-10.12-22.07-4.65-5.71-9.9-6.39-8.3,1a17.44,17.44,0,0,0,2,5.17c5.61,11-3.39,3.36-8.69,5.64-3.94,1.64-4.57,8.31-2.67,12.16,3.89,7.85,13.32,2.17,19.58,1.42h0a46.29,46.29,0,0,1,8.57,0c.09.58.06.38.07.42a.58.58,0,0,0,1,.29c3.3-2.52,2.87-5.23,1.41.64a.59.59,0,0,0,1.13.34c2.75-11,9.22-15.79,14.81-24.81,5.76-9.25,8.84-22.39-2-25.11Z" transform="translate(-160.69 -34)"/><path class="cls-1" d="M317.9,327.37a33.19,33.19,0,0,0-12.29-.51c-13.95,1.86-23.28,11.5-23.3,12.65,0,.54.43.2-.33.6a.58.58,0,0,0-.23.79c.37.68.91.08,2.58-.58a91.68,91.68,0,0,1,11.47-3c6.7-1.59,4.9-1.77,12.49-2.82,3-.42,9.49-1.19,12.12-3,1.75-1.21,1.64-3-2.51-4.07Z" transform="translate(-160.69 -34)"/><path class="cls-2" d="M280.44,333.83a.58.58,0,0,0-.64.26,38.15,38.15,0,0,1-2.53,3.53,7.39,7.39,0,0,0-.56-.56c-1.41-1.28-1.12-1.52-1.65-1.54a.61.61,0,0,0-.58.42,12,12,0,0,0,.16,8.81c.73,1.71-.07-.89-2.06,9.67-1.07,5.64-1.81,3.78-5.38,16.48a68,68,0,0,0-4.1,13.85.58.58,0,0,0,.39.72c1-.13.34,1.31,4.9-14.44,3.59-8.31,4.25-11.09,4.71-13.28,2.08-4.27,5-7.41,6.75-11.24,1.61-.91,3.87-5.26,3.82-5.17,1.43-2.59,2-2.67,1.49-3.2-.37-.38-.52-.07-2.21.26-2.75.55-2.11,1.05-2.22-.19-.34-3.78.64-4.15-.29-4.38Z" transform="translate(-160.69 -34)"/><path class="cls-3" d="M266.19,379.92a.53.53,0,0,0-.54.14,14.88,14.88,0,0,0-3.15,6.73c-.71,2.94-1.05,5.87-1.88,8.76-1.19,4.12-2.16,8.33-3.11,12.52-2.08,9.19-3.29,18.5-4.95,27.73-1.31,7.3-2.28,14.8-4.38,21.93-.91,3.11-.83,3.13-.72,3.34.33.61,2.34.63,4-2.73,2.09-4.33,3.27-13,3.25-12.93A606.19,606.19,0,0,1,266,385.6C266.21,384.63,267.29,380.19,266.19,379.92Z" transform="translate(-160.69 -34)"/><path class="cls-4" d="M286.24,288.4c-5.11.69-9.72,6.49-7.93,13.94a11.53,11.53,0,0,1,.6-1.73,25.18,25.18,0,0,1,6.94-8c2.11-1.47,3.85-2.08,6.26-1.07a10.87,10.87,0,0,1,3.6,3c-1.71-4.37-4.85-6.79-9.47-6.17Z" transform="translate(-160.69 -34)"/><path class="cls-4" d="M295.27,300.22c.69,3-.32,5.88-1.16,8.9-.18.63-1.26,5-1.2,4.91a16.93,16.93,0,0,0,3.45-6.68c.92-4.49-1.14-7.36-1.09-7.13Z" transform="translate(-160.69 -34)"/><path class="cls-4" d="M259.78,308.72c-3,2.94,2.33,8.12,3.35,9.94.08.13.09-1.28-.7-3.85-.63-2-2-4.4-.79-5,1.23-.32,4.16,4.15,4,3.81-.8-2-1.77-4.8-3.6-5.5a2.24,2.24,0,0,0-2.3.64Z" transform="translate(-160.69 -34)"/><path class="cls-4" d="M252.31,325.66c-3.5,3,3.16,11.28,10.76,9.32.22,0-.94.44-7-4.48-3-2.5-3.69-3.87-.12-5.29a12.76,12.76,0,0,0,1.25-.45c-1.62-.2-3.54-.22-4.86.9Z" transform="translate(-160.69 -34)"/><path class="cls-4" d="M307.15,328.41c-1.68.16-11,2.32-9.54,2.38a166.34,166.34,0,0,0,18.86-.42,16,16,0,0,0-9.32-2Z" transform="translate(-160.69 -34)"/><path class="cls-1" d="M276.7,339.48c-3,3.59,2.67,5.64,3.89,1.42,0-.13-4.53,3.08-4-.92,0-.09.1-.59.09-.51Z" transform="translate(-160.69 -34)"/><path class="cls-5" d="M261.26,399c-5.51,13.53-4.92,16.26-5.08,21.5a52,52,0,0,0,2.54-7.38c.61-2.92,1.34-8.84,1.21-7.69.45-2.95,1.36-6.53,1.34-6.44Z" transform="translate(-160.69 -34)"/><path class="cls-6" d="M274,337.24c-.09,2.46-1.52,5.45-.23,7.49a3,3,0,0,0,1.76,1.23c-.28-.17-.47-.32-.39-.26-1.66-1.2-1.33-3.06-1.13-5.09a10.47,10.47,0,0,0,0-3.38Z" transform="translate(-160.69 -34)"/><path class="cls-6" d="M281.59,342.08a5.85,5.85,0,0,1-2,3.85,5.18,5.18,0,0,1-2.15.9c4.68.5,4.21-5.8,4.13-4.75Z" transform="translate(-160.69 -34)"/><path class="cls-6" d="M318.05,326.39c-11.83-2.38-25.19,0-33.35,8.94a28.72,28.72,0,0,0-3.71,5.09c13.63-17.39,35.34-13.31,33.15-13.58a31.48,31.48,0,0,1,6.62,1.42c1.71.72,1.44,1.11.79,1.66-3.7,2.88-15.46,4.69-14.54,4.6-5.25.8-20.35,1.41-23.27,7.42-.23.44.62-2.28,7.25-3.89,5.32-1.29,12.76-1.72,16.88-2.44,11.76-2.07,21.93-6.87,10.18-9.22Z" transform="translate(-160.69 -34)"/><path class="cls-6" d="M292.27,286.34a6,6,0,0,0-2,.53c3.94-.86,8.28,1.87,9.19,7.75s-1.28,13.44-4,18.65c-4.53,8.83-15.15,14.24-15,25.42,0,.16.09-.92.1-1.08,1.38-13,16.69-15.32,20.33-35.86,1.94-11-3.61-15.77-8.63-15.41Z" transform="translate(-160.69 -34)"/><path class="cls-6" d="M281.1,286.85c-4.44,1.61-5.66,7.88-6,12.57-1,13.2,2.26,22.67,2.63,27.56a28.19,28.19,0,0,0,0-4.21c-.53-12.77-3.33-27.37,1.33-33.69,3.54-4.56,9.51-1,7.61-2a8.5,8.5,0,0,0-5.54-.2Z" transform="translate(-160.69 -34)"/><path class="cls-6" d="M259.78,304.41c-2.37-.3-4.54.26-4.89,2.63-.68,4.59,5.23,11.37,6.8,14.57a3.42,3.42,0,0,1,.31.85v0c-.08.26-.09.51,0,.28,1.15-1.53-6.54-14.08-4.46-16a4.11,4.11,0,0,1,2.57-.31c6.54.83,10.81,14,14.27,18.94,0,0,0,0,0,0-3.52-5.78-6.38-20-14.58-21Z" transform="translate(-160.69 -34)"/><path class="cls-6" d="M254,321.73c-8.36,1.07-10.16,8.24-4.87,13.73,5.65,5.89,15.87,2.31,23,.74,0,0,0,0,0,0-8.34-.4-17.63,1.74-22-3.47-5.43-7.18,2.73-11.25,9.11-10.53.11,0,1,.16.84.11a13.61,13.61,0,0,0-6.08-.57Z" transform="translate(-160.69 -34)"/><path class="cls-6" d="M286.91,295.31c-1.63,3.79-1.48,8.46-2,12.85-.58,5.13-2.61,9.38-4.36,15.77a38.67,38.67,0,0,0-1.16,5.54c2.11-6.61,6.47-12.73,7.06-19.8.26-3.19-.26-7-.15-10.35a18.22,18.22,0,0,1,.57-4Z" transform="translate(-160.69 -34)"/><path class="cls-6" d="M266.6,326c1.3,3,3.82,4.62,6.56,5.73,8.29,3.35-3.33-2.28-6.55-5.74h0s0,0,0,0Z" transform="translate(-160.69 -34)"/><path class="cls-6" d="M299.78,331.75c-6.1.77-9.72,3.27-9.46,3.18,4.56-2.21,15.95-2.84,19.41-2.9a33.84,33.84,0,0,0-10-.28Z" transform="translate(-160.69 -34)"/><path class="cls-6" d="M277.6,348.82c-12,20.35-12.14,39.38-24.89,95.52-4.06,18-.28,15.3-4.22,16a7.59,7.59,0,0,1-2.29.09,18.61,18.61,0,0,0,5,.76.66.66,0,0,0,.65-.52c3-9.89,11.05-64.93,16-84.7,4.36-17.31,9.28-26,9.71-27.12Z" transform="translate(-160.69 -34)"/><path class="cls-6" d="M274.07,348.49c-4.35,17.6-7.86,16-18.46,63.48-5.38,24.08-5.51,37-8.37,47.5,0,.15,2.65-5.35,4.14-15,1.81-11.65.41-13,11.94-59.27,3.94-15.79,6.81-17.18,10.75-36.76Z" transform="translate(-160.69 -34)"/><path class="cls-6" d="M263.19,331.49a11,11,0,0,0-4,1.14c6.38-1,8.22-.5,8.11-.53a10.71,10.71,0,0,0-4.15-.61Z" transform="translate(-160.69 -34)"/><path class="cls-6" d="M260.16,327.64a8.58,8.58,0,0,0-4,.72c.91-.06,1.82-.06,2.74,0,4.21.1,4.86.77,4.73.62a7.85,7.85,0,0,0-3.48-1.3Z" transform="translate(-160.69 -34)"/><path class="cls-6" d="M264.35,316.74c.78,3.46,2,5.15,3.74,8.15.12.2-.57-3-3.74-8.15Z" transform="translate(-160.69 -34)"/><path class="cls-6" d="M280.13,308.08a61.1,61.1,0,0,1,2.64,5.79,8.25,8.25,0,0,0-.68-3.21,7.72,7.72,0,0,0-1.95-2.6s0,0,0,0Z" transform="translate(-160.69 -34)"/><path class="cls-6" d="M279.78,298.15a12.47,12.47,0,0,0,1.62,5.42c.06.1,1.11,2,1.1,1.84a19.11,19.11,0,0,0-2.72-7.26Z" transform="translate(-160.69 -34)"/><path class="cls-6" d="M294.92,297.35c-3.12,2.5-5.82,5.42-5.11,9.35,0,.07,0-.1,0-.16.37-2.88,2.4-4.9,5.08-9.18Z" transform="translate(-160.69 -34)"/><path class="cls-6" d="M292.45,311.63a7.06,7.06,0,0,0-4.56,4.91c0,.09.15-.21.56-.75a28.41,28.41,0,0,1,4-4.16Z" transform="translate(-160.69 -34)"/></svg>