<svg id="Layer_1" data-name="Layer 1" xmlns="http://www.w3.org/2000/svg" viewBox="0 0 402 436.72"><defs><style>.cls-1{fill:#839543;}.cls-2{fill:#c05f4e;}.cls-3{fill:#161616;}.cls-4{fill:#a8ba5d;}.cls-5{fill:#c04564;}.cls-6{fill:#d7c242;}.cls-7{fill:#874444;}</style></defs><path class="cls-1" d="M297.43,27.78c-1.54,0-.26,1.44-21.68,28.38-32.45,40.84-40.09,50-54.51,89.08-10.64,28.66-23.25,65.07-20.9,96.39.1,1.41,2.33,1.23,2.22-.28-1.91-25.33,12.11-52.88,24.16-77.56,39.75-81.23,78.39-90.11,71.82-135a1.11,1.11,0,0,0-1.11-1Z" transform="translate(-59 -27.78)"/><path class="cls-1" d="M71,132.31c-20.91,1.06,4.83,42,20.86,55,15.75,12.9,34.58,17.9,56.47,30.53,7.91,4.57,15.6,9.28,23.47,13.92h0l.09,0h0l.17.1-.14-.11a139.8,139.8,0,0,1,14.67,10c1.12,1.5,2.81,4.46,4.15,3.3.18.17,1.52,1.38,2,1.38a1.12,1.12,0,0,0,.7-2c-9.12-7.57-2.72-1.17-9.77-12.8a18.5,18.5,0,0,0-2.6-3.36,50,50,0,0,0-5.5-4.69c-1.41-1.09-2.19-1.7-3.41-2.74-.6-.53-1.86-1.74-1.69-1.57-5-4.74-9.38-8.4-12.83-14.24-9.93-17.48-2.2-26.12-50.06-48.9-13.46-6.44-20.8-23.91-36.61-23.91Z" transform="translate(-59 -27.78)"/><path class="cls-1" d="M191.41,224c-2.21,0-5.2,3.45-3.36,8.14,1.32,3.4,5.15,7.33,7.08,10.45l-.13-.26a11.81,11.81,0,0,1,.94,2,1.11,1.11,0,0,0,2.18-.42c0-.32-.21-1.52-.19-1.36s.5-1.16.51-1.21a9.74,9.74,0,0,0-.58-3.43,54.66,54.66,0,0,1-1.41-5.32C195.92,229.67,195.48,224,191.41,224Z" transform="translate(-59 -27.78)"/><path class="cls-2" d="M201.31,237.28a1.12,1.12,0,0,0-1.06.72,25.41,25.41,0,0,0-1.13,5.7c-.31-.36-.88-.76-1.68-1.46-.54-.52-.75-1-1.41-1a1.14,1.14,0,0,0-1.12,1.3,19.4,19.4,0,0,1,0,3.74,24.75,24.75,0,0,1-3.34-2.9,1.13,1.13,0,0,0-1.91,1.17c1.67,5.17,4.9,9.19,8.49,13.85-.67,1.05,0-.62,8.57,19.76l.56,1.32c7.78,25.67,35.31,48.34,36.34,92.93v.15c.57,29.34-1.91,22.1,8.66,78.2.84,4.46,2.74,13.35,7.32,13.35,7.35,0,1.76-12.71.31-17.41-5.31-18.56-6-36.59-12.82-84.53-2.2-15.12-4.77-21.09-9-29-.75-1.38-3.25-5.89-3.17-5.72-10-21.34-15.59-25.12-25.46-48.69l-.08-.29c-2.8-9.77-3.08-20.06-4.68-30.33A77.6,77.6,0,0,0,202.34,238a1.09,1.09,0,0,0-.9-.66Z" transform="translate(-59 -27.78)"/><path class="cls-3" d="M205.07,253.77c1.4,8-.63,8.13-.82,8.88-.06.07,0,.05-.05.05l0,0c-.41.43-1.38,1.21-1.2,1.07,6.68-1.95,2-10.17,2.06-10,0,0,0,0,0,0Z" transform="translate(-59 -27.78)"/><path class="cls-3" d="M189.34,226.38c-4.59,4.79,5.21,12.45,7.11,18.28h0c.26.7,0-.66-.92-2.74-1.89-4.11-5.71-9.75-6-12,.14-5.73,7.4-2.77,6.06,4.06a6.9,6.9,0,0,0,.54-4.05c-.58-3.72-4.54-6-6.83-3.54Z" transform="translate(-59 -27.78)"/><path class="cls-3" d="M196.4,237.47a7.21,7.21,0,0,0,1.37,6.87c.08.12-.31-.8-.52-1.43a17.67,17.67,0,0,1-.84-5.45Z" transform="translate(-59 -27.78)"/><path class="cls-3" d="M297.72,28.39c-75.24,80.05-68.5,92-90.43,160.84-5,15.84-10.13,33.09-7.26,49.4.05.18-.12-2.61-.11-2.23-1-23.67,11-50.87,17.94-75.83,5.86-21.07,12.26-42.19,23.83-60.83C250,86.38,271,58.54,298,30.3c11.22,25.13-17.48,50.15-13.33,46C273.9,88,270.13,87.54,262.16,98.94c-6.74,9.64-7.76,15.06-17.75,29.09-11.63,16.32-14.35,28.39-13.92,26.68.91-1.84,1.63-3.2,1.52-3,5.75-10.78,13.63-20.47,17.81-26.59,10.8-15.75,10.89-24.4,26.06-37.48,17.85-15.39,33.6-37.81,23-59a.77.77,0,0,0-1.18-.26Z" transform="translate(-59 -27.78)"/><path class="cls-3" d="M223.1,169.51c-6.25,18.47-23.74,51-21.15,75.91a33.88,33.88,0,0,0,1.48,7.44c-4.92-24.23,4.77-37.88,19.67-83.35Z" transform="translate(-59 -27.78)"/><path class="cls-3" d="M66.47,129.13c-6.6.69-8,8.29-7.29,14.77.92,7.47,9,15.48,14.11,20.37,2.46,2.45-11.94-12.76-12.27-21.58-.71-19.6,14.75-11,30.4.84,58.12,43.9,46.08,22.2,65.62,60.34,9,17.49,16,17.84,23.76,27.22,3.29,4,6,8.93,10.19,12.15,0,0,0,0,0,0l-.34-.3h0c-4.45-4.12-6.82-10.23-11.12-15.07-2.77-3.11-8.28-8-8-7.72-9.64-8.91-10.44-13.55-16.9-27.35C144.52,171,145.08,179,89.82,139.36c-5.94-4.26-16.12-11-23.35-10.23Z" transform="translate(-59 -27.78)"/><path class="cls-3" d="M74.18,167.57c10.17,9.19,5.57,14.88,25.3,24,26.48,12.28,35.71,11.21,48,19.79,6.1,4.25,14.76,12.12,19.67,15.65,6.51,4.69,12.7,7.81,16.35,13.7.16.32-1.17-3.5-6.5-8.3-2.77-2.5-5.87-4.58-8.84-6.82-11.33-8.57-17.41-16.66-32.53-22.32-11.46-4.32-13.38-3.31-35.15-13C84.61,183.24,85.3,179,78,171a19.84,19.84,0,0,0-3.84-3.43Z" transform="translate(-59 -27.78)"/><path class="cls-3" d="M87.42,162c4,5.92,9.51,9.49,16,12.35,19.09,8.44,23.82,4,46,30,.39.39-5.29-7.22-7.66-10.13-16.88-20.82-40.17-16.9-54.23-32.26h0s0,0,0,0Z" transform="translate(-59 -27.78)"/><path class="cls-3" d="M271.62,72.35C258.67,82.51,246.79,96,233.64,129c-2.19,5.5-4.37,12.19-4.69,18.14,0,.16.43-2.33.6-3.13,2.61-11.75,17.68-40.44,16.69-38.58,8.81-16.59,19.7-26.84,25.38-33.08Z" transform="translate(-59 -27.78)"/><path class="cls-3" d="M188.63,246c2.75,4.84,4,10.71,8.43,14.55a8.44,8.44,0,0,0,4.67,2.07c-5.4-2.25-7-8.26-13.1-16.62Z" transform="translate(-59 -27.78)"/><path class="cls-3" d="M200.52,267.38c3.7,9,6.19,16.85,10.37,25.58,9,18.67,24.42,35.43,29.16,67.06s4.22,78,16.34,104.2a.5.5,0,0,0,.76.16c1.83-1.88,3.32-1.83,5.42-3.39.08-.06-.87.4-1.71.69a13.14,13.14,0,0,0-3.78,1.54c-9.62-28.9-10.37-64.71-13.72-92.05-5.74-46.74-19.59-51.39-36.32-89.77-5.69-13.12-6.43-13.84-6.52-14Z" transform="translate(-59 -27.78)"/><path class="cls-3" d="M205.63,268.52c7,27.3,26.19,50.35,35.29,78.4,0-.1-.07-.19-.1-.29,10.18,31.6,6.68,66.7,15.57,90.92A145.9,145.9,0,0,1,254.18,422c-3.36-31.58-3.84-44.7-7.18-61-7.12-34.69-21.4-45.42-41.37-92.45Z" transform="translate(-59 -27.78)"/><path class="cls-3" d="M259.86,452.46c0,2.57,1.55,5.4,1,3.62a35.14,35.14,0,0,1-.94-3.64l0,0Z" transform="translate(-59 -27.78)"/><path class="cls-3" d="M193.89,246.08c2.13,4.07,2.46,8.18,5.93,11.26a.61.61,0,0,0,.91-.76c-.07-.18-3.73-8.41-3.69-8.23a34.78,34.78,0,0,0,1.45,5.59c-1.54-2.27-2.66-5.35-4.57-7.87h0a0,0,0,0,0,0,0Z" transform="translate(-59 -27.78)"/><path class="cls-3" d="M199.84,240.52c.19,2.9.12,4.35.28,6.74a20.87,20.87,0,0,1-1.47-2.72,11.23,11.23,0,0,0,1.62,3.81c.14.21.48.07.5-.16a23.7,23.7,0,0,0-.91-7.7s0,0,0,0Z" transform="translate(-59 -27.78)"/><path class="cls-4" d="M291.69,41.82c-.84,18.63-22.31,33.05-33.51,50.46-7.18,11.12-16.53,33.64-27.87,52.22,0,0,0,0,0,0,9.3-12.26,20.61-30.72,28.07-40.39C279.29,77,296.4,61,291.73,41.82h0Z" transform="translate(-59 -27.78)"/><path class="cls-4" d="M237.63,114.43c-11.42,18.19-14.25,42.9-14.19,42.72,9.85-22.39,4.11-17.92,14.19-42.72Z" transform="translate(-59 -27.78)"/><path class="cls-4" d="M75.37,142.43c-3.57,2-4.71,5.15-4,8.37C74,162.5,90.31,172,93.66,175.32,79,146.76,78.71,149.77,88,157.85c10.77,9.29,36.74,15.61,49.24,23,8.84,5.39,11.34,10.89,11.22,10.71h0c.09.18.43.8.38.62-6.77-19-39.35-28-54.76-41.26-6.56-5.64-9.46-9.37-15-9.37a7.91,7.91,0,0,0-3.71.86Z" transform="translate(-59 -27.78)"/><path class="cls-4" d="M135,199.19c9.15,5.57,13,10.7,12.76,10.34-8.61-17.35-25.13-23.28-44.48-25.31C89.55,182.82,109,183.59,135,199.19Z" transform="translate(-59 -27.78)"/><path class="cls-1" d="M245.82,273.74c-7.21,0-13.62,2.64-16.85,9a.67.67,0,0,0,.08.66c.43.55,2.22,0,2.87-.18,3.16-1.08,5.29-3.94,9.11-4.93,3.59-.9,12.63-.44,15.5.34,8.48,2.53,12.87,15.5,15.69,24,8.6,26.3.49,44,3.39,44,.47-.05.13.13,4.85-4.81,10.24-10.74,9.62-10.11,9.55-10.49,11-8.32,35.43-7.67,44-12.86,5.32-3.18,18.87-18.51,22.13-23.68,4.9-7.7,1.51-12.56-4.12-11.13-4.23,1.07-9.81,5.22-13.33,7.87-7,5.29-7.77,4.28-20.09,14.9-23.27,20.2-11,9.5-27.89,22.74-7.49,4-7.49,5.86-11.87,8.78.23-.21,3.79-5.66,4.31-7.61.52-1.73-1.06-3.2-2.55-.85a46.35,46.35,0,0,0-3.35,7.58,2.92,2.92,0,0,0,.07-.73c.12-5.83,1.95-8.1,1.79-15.3-.25-7.84-4-19.39-3.94-19.29-1.94-7.15-4.21-15.28-9.17-20.71-4.88-5.27-13.58-7.28-20.16-7.28Z" transform="translate(-59 -27.78)"/><path class="cls-1" d="M347.63,288.62a70.85,70.85,0,0,0-7.61,2c-10.32,3.41-17.08,11.07-24.08,18.93-.49.54.37,1.38.95.74,6.36-7.12,12.76-14.59,22.52-18.18,2.08-.77,5.53-1.67,5.42-1.64,1.08-.29,4.14-1.15,4.88-.52,1.13,1.28-2.35,11.18-7.42,17.62-18.08,23-44.59,9.63-57.09,27.14a.6.6,0,0,0,.95.74c10.41-14.44,34.48-8,48.13-18.5a45.11,45.11,0,0,0,11.88-12.9c2.2-3.69,4.73-10,5-12.78.19-2.38-1.13-3-3.5-2.66Z" transform="translate(-59 -27.78)"/><path class="cls-5" d="M274.87,336.55c-.92,0-1.13,2.75-1.2,3.67-4.08,13.18-4.35,7.66-12.81,41.13-5.72,22.63-8.32,44.14-5.19,70a37.7,37.7,0,0,0,.73,4.4c.54,2.15,1.07,2.08,1.16,2.23h0a.6.6,0,0,0,.62.07c7.3-3.87,1.38-19.88.72-26.81l0-.39c-4.83-50.41,25.33-88.37,16.37-94.17a.65.65,0,0,0-.36-.12Z" transform="translate(-59 -27.78)"/><path class="cls-4" d="M347.36,288.79c-15.72,3.48-20,12.25-32.15,24.15l.08-.08c-3.32,3.24-5.68,5.11-5.35,4.88,10.06-6.42,28.91-23.68,37.42-28.93,0,0,0,0,0,0Z" transform="translate(-59 -27.78)"/><path class="cls-4" d="M353.85,288.05c-1.65,8.16-11,16.16-16.4,21a33.08,33.08,0,0,1-6,4.81c-5.54,3-12,4-17.34,7.44,0,0,1.22-.35,1.22-.35,4.45-1.09,9.38-.21,14.6-.95,4.16-.59,7.21-1.86,12.66-8.08a58.93,58.93,0,0,0,8-11.82c4.06-7.89,3.19-11.68,3.25-12Z" transform="translate(-59 -27.78)"/><path class="cls-4" d="M259.88,279c3.55,3.37,5.44,6.82,12.6,19.35.18.32.52,1,.78,1.45a25,25,0,0,0-8.13-17.41,21.1,21.1,0,0,0-5.25-3.39Z" transform="translate(-59 -27.78)"/><path class="cls-4" d="M237.58,276.85a30.34,30.34,0,0,0-5.89,2.81c-.74.27-.33,1.46.44,1.4,2.77-.24,7.84-3.78,11.13-4.94a15.7,15.7,0,0,0-5.68.73Z" transform="translate(-59 -27.78)"/><path class="cls-3" d="M274.53,338.33a.3.3,0,0,0,0,.1h0c-.5,2.16-2.27,5.61.66,6.86.11,0-.2-.13-.6-.73v0l0,0h0a3.53,3.53,0,0,1-.45-1.62c0-1.54.45-3.05.45-4.59h0Z" transform="translate(-59 -27.78)"/><path class="cls-3" d="M280.64,327.89c-1.22.06-1.93,2.45-2.07,3.77a31.26,31.26,0,0,1-.73,5.23c0,.14.37-.38,1.24-4.27-.19.77.8-3.55,1.59-3.94a3,3,0,0,1-.1,2.82h0c0,.05-.08.14,0,.1,1.26-1.4,1.26-3.71.12-3.71Z" transform="translate(-59 -27.78)"/><path class="cls-3" d="M282.19,329.73s.48,0,.74.06c0,0,0,0,0,0a.37.37,0,0,1,.24.11l0,0v0h0c.24.38-2.15,2.14-3.58,4a4.27,4.27,0,0,0-.88,2.4c.83-2.19,1.72-1.74,3.55-4.09a11.27,11.27,0,0,0,1.11-1.57c.39-.79.13-1.24-1.17-.86Z" transform="translate(-59 -27.78)"/><path class="cls-3" d="M347.7,285.11c-22.54,9.15-27.27,20.06-39.77,29.88-9.87,7.78-22.65,12.92-29,23.59,0,0,0,0,0,0,4.88-7.37,13.46-12.48,21.1-17.29,20.3-12.77,22.46-22.27,38.3-30.71,5.73-3.06,10.85-6.38,15.79-7.21a20.91,20.91,0,0,0-6.43,1.73Z" transform="translate(-59 -27.78)"/><path class="cls-3" d="M354.1,284.48c7.23,3.08-.66,14.08-6,19-7.29,6.79-10.9,13.44-18.17,16.82-13.56,6.34-22.72-1-45.38,15.21-3.92,2.82-8.21,6.1-9.16,10.77,0,.18.29-.91.79-1.88,2.8-4.33,4.87-5.32,10.06-9.09,24.82-17.91,36.75-4.31,52.57-20.88,3.06-3.21,5.68-6.61,8.66-9.46.5-.49,1-.94,1.51-1.44,4.15-4.18,11.3-13.7,7.19-17.88a5.34,5.34,0,0,0-2.09-1.24s0,0,0,0Z" transform="translate(-59 -27.78)"/><path class="cls-3" d="M350.75,288.38c-10.64,22.46-38.93,26.52-55.86,39.66,0,0,0,0,0,0,15.25-10.4,38-16.26,50-30a31.32,31.32,0,0,0,5.87-9.64Z" transform="translate(-59 -27.78)"/><path class="cls-3" d="M274.38,347.74c-1.18,3-10.76,30.11-10.79,30.21-6.19,19.8-6.31,50.09-3.13,72.61.75,5.38-.63,7.31-.59,7.21a5.59,5.59,0,0,1-.76,1.08c-.64.72.61-.46.81-.68,2.36-2.58,2.05-7.14,1.4-10.58-8.93-47,4.81-74,13.06-99.85Z" transform="translate(-59 -27.78)"/><path class="cls-3" d="M256.2,402.43c-6,30.55,2.57,52.81,2.22,51.43-4.25-16.16-3.58-35.05-2.22-51.43Z" transform="translate(-59 -27.78)"/><path class="cls-3" d="M273,343.92c-15.46,30.24-16.74,61.45-16.74,59.48,3.15-23.73,8-37.67,16.74-59.48Z" transform="translate(-59 -27.78)"/><path class="cls-3" d="M245.53,275.29c-7.77,1.63-13.33,9.31-17.68,7h0c-.46-.27.4.5,1.7.7,7.11,1.07,13.34-11.44,26-4.82,9.76,5.27,16.48,19.05,18.26,31.29,1.39,9.54,2.22,19.13,1.09,29-.21,1.05,1.6-6.38.63-19.57a124.94,124.94,0,0,0-2.1-16.13c-3.23-13.1-14.68-30.23-27.87-27.53Z" transform="translate(-59 -27.78)"/><path class="cls-3" d="M241.49,274.55c-6.53,1-13.3,7.11-13.21,7,10.57-6.68,18.39-7.33,17.73-7.11,1.26,0-2.08-.31-4.52.07Z" transform="translate(-59 -27.78)"/><path class="cls-3" d="M248.18,273.87c3.49,1.74,6.76.44,10.91,2.63l-.08-.05c21.08,11.37,16.23,41.49,18,59.62.08-14.2,1.84-39.17-8.42-52.55a28.88,28.88,0,0,0-10.44-8.23c-3.41-1.25-6.8-.23-9.95-1.44h0s0,0,0,0Z" transform="translate(-59 -27.78)"/><path class="cls-1" d="M451.6,128.2c-18.61,0-39.15,17.33-56.83,29.6-50.56,35.19-41,53.79-60,98.14-4.24,9.87-9.09,18.48-9.44,29.54-.79,3.41-.85,3.81-.5,4.29a2.84,2.84,0,0,0,1.57.74c2-.21.34-2,1.82-7.38h0c4.68-16.44,15.58-30,27.62-42l-.22.18c6.7-6.62,85.36-76.38,85.54-76.54,14.27-12.91,30.29-36.59,10.46-36.59Z" transform="translate(-59 -27.78)"/><path class="cls-1" d="M280.7,169.46c-5.31,0-7.3,6.34-6.58,12a40.27,40.27,0,0,0,1.73,7.34C281.1,205.26,291,218.38,301,232.07c4.14,5.65,8,11.56,10.54,18.13A50.59,50.59,0,0,1,314.35,261a36.24,36.24,0,0,1,.57,6.14c-.08,2.68-1.23,5.59-1.89,8.22-.15.57-.29,1.15-.44,1.72a8.47,8.47,0,0,0-.38,3.45c.22,1.3,2.17,4.32,3.59,2.64.43-.51.41-1.83.52-2.44.31-1.83.66-3.81,1-5.57,2.09-12.39,5.32-26.21,2.31-38.69a66.24,66.24,0,0,0-3.95-11.37c-1.41-3.17-1.77-6.89-2.94-10.22-2.88-8.28-7.24-16-11.75-23.49-1-1.7-2.05-3.38-3.1-5.06C294.51,180.94,287,169.46,280.7,169.46Z" transform="translate(-59 -27.78)"/><path class="cls-1" d="M320.48,278.5c-2.81,0-6.46,9.9-2.45,20.48a1.12,1.12,0,0,0,2,.2c1.4-.45-.08-.55,1.59-8.89.17-.81.33-1.62.47-2.44.51-2.9.72-9.35-1.57-9.35Z" transform="translate(-59 -27.78)"/><path class="cls-6" d="M327,275.26c-.92,0-2.8,2.66-3.23,3.3-3.64,5.42-4.63,13.12-5.13,19.65-.33-2.35-2.54-20.25-5-20.52a1.26,1.26,0,0,0-1,.45c-4.58,5.26-.23,13.73,0,20.58l0-.12c0,1.91-.13,3.89-.26,5.8-1.34,20.41,4.05,3.5-2.32,27.54-9.73,36.72-1.66,57.43-18.89,101.64l-.2.5c-4.26,10.86-14,19.41-9.9,26.16,1.3,2.17,3.08,2.6,5.31,1.2,6.18-3.94,8.19-15.66,9.86-22.38l-.09.28c4-15.15,15.81-45.47,15.72-74.15-.29-47.88,18.36-63.07,16.25-89a1.12,1.12,0,0,0-1.12-.95Z" transform="translate(-59 -27.78)"/><path class="cls-6" d="M320.18,307c.86-9,.63-20.68,5.86-27.79.07,9.83-2.68,18.52-5.86,27.79Z" transform="translate(-59 -27.78)"/><path class="cls-6" d="M314.61,304.12c.88-13.95-3.56-16.74-1.36-22.73,3.59,14.92,3.58,26.37,5.68,26.63h0a1.19,1.19,0,0,0,1.09-.59c-4.63,12-3.25,12.82-4.46,10,1.13-7.45.14-8.39.88-11.81l-.09.27c.87-2.44-1.2-2.57-1.77-1.73Z" transform="translate(-59 -27.78)"/><path class="cls-4" d="M452.24,137.14c-22.73,31-51.59,36.91-65.62,63.93-4.42,8.52-6.92,12.91-6.18,11.53-6.5,10.82-13,14.35-12.36,13.91,6.7-3.58,11.81-9.18,16.19-15.29,13.76-19.15,8.39-15.64,35.91-34.38,23.62-16.08,30.54-37.1,32.06-39.7Z" transform="translate(-59 -27.78)"/><path class="cls-4" d="M443.52,138.25c-52.11,6.7-75.38,57.22-73,53.62,23.28-36.44,74.8-53.63,73-53.63Z" transform="translate(-59 -27.78)"/><path class="cls-3" d="M321,312.54a11.58,11.58,0,0,1-6,1.92c4.42,1.53,6.51-2.44,6.06-1.92Z" transform="translate(-59 -27.78)"/><path class="cls-3" d="M348.37,218.63c-9.22,21.08-2.63,13.54-19.2,47.53a113.28,113.28,0,0,0-7,16.78c-3.06,10.11-1.94,16.86-1.92,16.33-.52-13.79,8.4-29.31,15.21-42.83,8.31-16.54,7.44-19.7,12.88-37.81Z" transform="translate(-59 -27.78)"/><path class="cls-3" d="M444.17,126.38c-6.42,1-13.17,4.24-18.82,7.21-62.5,32.8-67.46,64.37-67.37,64.2,14-37.27,76.08-74,95.42-70h0c6,1.23,8.22,5.83,7.44,4.65,1,1.44-2.31-8.33-16.68-6Z" transform="translate(-59 -27.78)"/><path class="cls-3" d="M460.72,136.42c-1.49,9.8-10.23,18.05-9.61,17.39-5.14,5.59-12,11-18.65,16.15-19.69,15-17,16.44-31.12,31.79l.09-.1c-27,29.25-49.31,35.21-61.27,58l.09-.16c-4.76,9-9.26,16.39-12.7,24.79-4.25,10.45-3.26,16.67-5.62,27.22h0c-.36,1.62.83-2.49,1.8-7,.1-.48,1.9-8.88,1.57-7.55,3.15-14,8.94-23,15.14-34.81,14.48-27.66,38.18-31.18,66.84-65.81,15.87-19.12,12.55-15.34,29.87-29,25.58-20.09,22.69-29.35,23.57-30.94Z" transform="translate(-59 -27.78)"/><path class="cls-3" d="M437.81,144.47c-6.89,5.15-16.24,8-24,12.49-40.44,23.55-60.94,84.7-74.35,99.35,0,0,0,0,0,0,13-12.87,20-40.4,46.2-71.84,26.58-31.83,38.15-27.66,52.16-40a0,0,0,0,0,0,0Z" transform="translate(-59 -27.78)"/><path class="cls-3" d="M319.41,279.7c-1.73,1.07-2.33,2.82-2.34,4.87a59.52,59.52,0,0,0,1.31,7.77c.35-3.5-.49-8.25,1.52-10.61.88-.87-.07-.24-.18,6.17a55.83,55.83,0,0,0,.47,8.17c0-15.68,3.2-16.79,1.17-16.95a3.3,3.3,0,0,0-1.95.58Z" transform="translate(-59 -27.78)"/><path class="cls-3" d="M278.92,167.26c-10.95.91-.42,36.76,28.8,71.92,11.62,14,2.67,3.14-7-10.94-13.88-20.12-18.82-32.7-22.17-46.19-.7-2.78-2.27-9.45-.42-11.71a2.74,2.74,0,0,1,2.6-.38c7.94,2,15,16.33,19.38,23.83,33.05,56.26,9.45,68.43,15.71,95.45a18.61,18.61,0,0,0,1.82,5.07c-.43-1.06-.66-1.83-.61-1.65-8.35-25,19.25-41.83-14.65-100.1-4.83-8.3-13.63-26.3-23.46-25.3Z" transform="translate(-59 -27.78)"/><path class="cls-3" d="M313.21,248c3.74,7.54.58,18.5-1.13,28.28-2.43,13.92.3,17,.81,25.81.23,5.75-1.69,11.39.78,16.43,0,0,.08.14-.15-.52h0c-1.91-6.12,1.22-10,0-20.22-.51-4.25-1.34-8.79-1.2-13,.16-5,1.87-11.85,2.77-17.83,2.2-14.57-1.89-19.15-1.86-19,0,0,0,0,0,0Z" transform="translate(-59 -27.78)"/><path class="cls-3" d="M314.27,318.83c-10.22,23.58-5.92,48.46-13.66,82.77-8.84,39.14-16.1,43-20.89,55.77-.55,1.44,1,1.2,6.28,4.44a.83.83,0,0,0,1.14-.2c2.12-3.12,4-10.23,3.91-10.06-2,4-2.67,6.09-4.67,8.48a30,30,0,0,0-4.32-2.82c.84-2.4,18.09-31.17,23.57-77.07,2.16-18,2.27-42.36,8.68-61.3,0,0,0,0,0,0Z" transform="translate(-59 -27.78)"/><path class="cls-3" d="M320.74,314c-15.8,28.16-6.32,41.3-16.14,84,0-.06,0-.12,0-.18-3.29,14.66-25.43,91.28-5.65,25.65,18.1-60.2,8.67-61,19.43-102.06a72.48,72.48,0,0,1,2.32-7.42s0,0,0,0Z" transform="translate(-59 -27.78)"/><path class="cls-3" d="M317.21,293.72c-.2,2.44-.5,13.19.59,13.27.58.06.68-.8.17-6.21,0,.46-.12,1.22-.18,1.84-.51-5-.57-9-.57-8.92a0,0,0,0,0,0,0Z" transform="translate(-59 -27.78)"/><path class="cls-3" d="M289.36,190c.78,10.64,12.36,22,16,33a46.07,46.07,0,0,0,3.31,8.21c3.5,7.31,3.92,8.86,3.83,8.68a21.77,21.77,0,0,1,.82,3.38c0,.18.9-4.67-6.94-22.5-2.42-5.56-12.63-19.65-11.65-18.34-5.35-8.32-5.34-12.59-5.31-12.42,0,0,0,0,0,0Z" transform="translate(-59 -27.78)"/><path class="cls-4" d="M283.25,181c-3,22.94,16.08,38.77,23.48,48.38-7.18-20-18.49-25.47-22.42-40.34a36.41,36.41,0,0,1-1-8.05Z" transform="translate(-59 -27.78)"/><path class="cls-4" d="M298.09,193.56c2.78,17.59,12.59,30.7,17.27,43.58.1.39-.07-9.29-6.62-22.53-3.5-7.06-7.81-13.66-10.62-21.06,0,0,0,0,0,0s0,0,0,0Z" transform="translate(-59 -27.78)"/><path class="cls-1" d="M298,96.59c-8.55,0-23.24,24.45-26.71,32.3-9.85,22.18-11.15,43.78-10.25,67.65.57,15.23,2.25,36,1.62,36.47a1.07,1.07,0,0,0-.43.73c-.05,3.11.2,6.63,2.38,9.26a1.12,1.12,0,0,0,1.92-.24,114.27,114.27,0,0,0,4.93-13.13c3.2-9.68,5.61-13.24,5.51-13.06,24.1-43.52,20.07-68.42,24.08-90.51,1.43-7.88,4.17-16.56,2.14-24.21-.75-2.77-2.31-5.26-5.19-5.26Z" transform="translate(-59 -27.78)"/><path class="cls-1" d="M158.89,98.36a7.36,7.36,0,0,0-7.16,4.42c-3,6.46,7.24,15.51,6.91,15.15,5.09,5.48,10.92,14.94,16.53,22.86,17.8,25.11,45.9,57.56,57,76.67h0c4,6.9,16.05,31.62,16,31.45.78,1.45,1.12,1.37,1.39,7.28a1.12,1.12,0,0,0,2,.55c.36-.47.25-1,.09-3.1,1-.44.54-1.33-.69-5.85-2.43-15.87-10.53-35.26-10.42-35-14.75-37.95-16.93-64.61-35.7-85.79-14-15.87-39.72-28.66-45.9-28.66Z" transform="translate(-59 -27.78)"/><path class="cls-1" d="M258.09,239.39c-1.78,0-6.15,4.62-4.11,15.54a62.05,62.05,0,0,0,1.64,6.23,1.19,1.19,0,0,1,.13.25l0,.18c.32,1.54,1.19,2,2,1.91s1.07-.59,1.25-1.35a33.74,33.74,0,0,0,.88-4.66c.49-3.66,1.31-17.66-1.68-18.09Z" transform="translate(-59 -27.78)"/><path class="cls-7" d="M263.46,237.6a1.13,1.13,0,0,0-1,.72c-2.39,4.91-2.3,10.65-2.21,16.11.06,3.39.17,9-.94,12.68-.2-1.41-.57-3.9-.54-3.73a33.62,33.62,0,0,0-1.8-7.51,1.12,1.12,0,0,0-.89-.65c-1.69,0-2.49,4.27-2.67,5.66a43.59,43.59,0,0,0-4.06-10.64,1.12,1.12,0,0,0-2.13.64c.56,2.1.84,7.36,1.06,10.73.47,7.22,1.19,25.18,6.61,29.13a160.11,160.11,0,0,1,1.48,20.82c.89,41.21,8.7,94.41,8.67,94.24,6.83,52.51,5,50.53,7.22,54.86,1.71,3.37,5,3.15,6.85,1.09,3.59-4.08-.94-15.62-2.11-23.27-6.3-41.41-15.55-83.61-16.58-129h0v.09c0-3.38-.07-6.67,0-9.79.26-37.83,15.1-54.05,3.8-62a1.22,1.22,0,0,0-.67-.22Z" transform="translate(-59 -27.78)"/><path class="cls-7" d="M275.81,461c-3.58-.22-3.71-16.24-3.61-14.28-.62-11.41-9.81-71.58-12.47-109.34,2.12,26.69,10,70.3,15.13,102,1.14,7.46,6.37,21,.95,21.58Z" transform="translate(-59 -27.78)"/><path class="cls-3" d="M149.35,101.19c-2.21,3.25,0,7.68,2.21,10.91,3.32,4.8,6.67,6.65,18.63,21.6,10.25,12.82,19.12,26,28.88,38.8,20.32,26.77,43,40.21,52.39,105.24.18.73-.71-7.81-1.9-14.92-8.4-50.48-32.19-69.72-47.94-91.2-6.36-8.66-12.49-17.49-18.79-26.2-22.78-31.55-32.62-35.14-31.47-41.84a2.78,2.78,0,0,1,2.07-2c5.76-1.67,14.61,3.54,13.33,2.83.17.1,32.17,17.81,39.66,23.66.5.33-10.8-12.58-38.76-26.55-5.45-2.71-14.92-5.36-18.31-.35Z" transform="translate(-59 -27.78)"/><path class="cls-3" d="M210.68,131.31C226.3,167.89,230.14,187.2,244.5,231c10.94,34.31,10.78,49,10.78,48.78a101.28,101.28,0,0,0-.12-12.07,99,99,0,0,0-1.63-12.59c-2-10.08-7.35-26.21-7.43-26.38-16.32-50.12-20.91-72.27-35.38-97.44h0a0,0,0,0,0,0,0Z" transform="translate(-59 -27.78)"/><path class="cls-3" d="M257.12,239.68c-1.51.48-2.28,2.78-2.65,4.32-1.65,6.88,1.48,15.74,2.76,23,.31,1.24-1-7.1-1.2-8.09-.82-5.07-2-12.61.26-17.16,1.91-3.51,3.36,1.77,2.9.65a.14.14,0,0,0,0,.06h0a15.54,15.54,0,0,1,.39,5.31c1.28-4.74-.17-8.81-2.47-8.07Z" transform="translate(-59 -27.78)"/><path class="cls-3" d="M183.19,129.36c7.51,12.85,15.55,22.41,23.19,34.25,3.82,6,30.72,54.82,28.6,50.57-17.41-43.61-40.21-68-51.76-84.84h0s0,0,0,0Z" transform="translate(-59 -27.78)"/><path class="cls-3" d="M296.21,96.32c-6.8.89-14.15,13.51-17.41,19.49-20.63,37.73-21.14,54.39-18.57,91.66,2.85,41,1.14,49.22,1.14,49,2-14.8,1.19-28.54.23-43.57-3.09-47.81,0-57.81,14.59-87.56,18.47-37.9,28.68-32.64,26.28-5.14-.79,9.18-1.58,11-4.22,29.9-6.57,47.13-17.59,47.4-28.58,80-3.91,11.6-3.33,14.13-7.35,36.44-3,16.44-2.27,23.94-2.27,23.76.48-4.11,1.26-8.19,2.05-12.25,9-47.06,3.14-37,24.6-80.4,10.31-20.84,11-29.14,16.67-68.3,1.64-11.32,4.2-34.46-7.16-33Z" transform="translate(-59 -27.78)"/><path class="cls-3" d="M251.7,280.68c-.24,3.21-.68,6,.06,8.21s2.77,3.71,6.46,2.93a12,12,0,0,1-3.16-.85c-3.12-1.74-2.75-6-3.33-10.29v0l0,0Z" transform="translate(-59 -27.78)"/><path class="cls-3" d="M254.05,294.91c-2.07,25.15,2.15,46.86,8.5,84.29,5,29.54,4.58,33.56,6.28,45.77,5.49,40,2.92,6.09-4.32-40.06-6.3-40.33-7.65-48.94-10.46-90Z" transform="translate(-59 -27.78)"/><path class="cls-3" d="M259.06,294.67c-5.47,24.66-.09,52.67,5.32,78.85C271.24,406.76,275,433.4,275,433.23c1.1-37.84-21.41-87.06-15.91-138.56l0,0,0,0Z" transform="translate(-59 -27.78)"/><path class="cls-3" d="M277.77,438.62c.68,24.52,5.52,18.78.29,21.51-3.44,1.81-3.65,1.69-3.47,1.69a20.84,20.84,0,0,0,4.34-1.24c4.32-1.35,3.34,2.15.82-11.35,0-.18-2.1-11.34-2-10.63l0,0Z" transform="translate(-59 -27.78)"/><path class="cls-3" d="M270.59,450c.15,2,.29,4,.44,6s.55,4.06.76,6.1c0,.18,1.14-3.47-.28-9.06-.48-1.88-1-3.19-.9-3l0,0Z" transform="translate(-59 -27.78)"/><path class="cls-3" d="M258.47,251.5c.53,5.57-1.43,10.62-.19,15.65a.82.82,0,0,0,1.58.14c.42-1.7.79-3.4,1.09-5.13,1.36-7.93,1.26-6.75-.88-.48-1.67,4.89.53-3.55-1.56-10.19,0,0,0,0,0,0a0,0,0,0,0,0,0Z" transform="translate(-59 -27.78)"/><path class="cls-3" d="M288,119.5c-1,9.55-4.32,16.21-7.44,24.56-4.19,11.21-4.63,19.39-4.55,19.14,2.81-11.18,12.59-26.19,12-43.69,0,0,0,0,0,0a0,0,0,0,0,0,0Z" transform="translate(-59 -27.78)"/><path class="cls-3" d="M272.75,180c-1.69,6.32-2.77,9.78-2.44,16.24,0,.17,1.41-7.93,1.43-8.11.54-3.4,1.06-8.47,1-8.15v0Z" transform="translate(-59 -27.78)"/><path class="cls-3" d="M268,207.82a45,45,0,0,0-.75,16.72c.14.43.78-16.91.77-16.74l0,0Z" transform="translate(-59 -27.78)"/><path class="cls-4" d="M293.69,120.39c-5.91,18.55-5.95,27.82-7.66,36.67-2.18,11.18-7.54,24.89-10.91,34.83-5.9,17.37-5.89,25.88-5.75,25.21,4.85-23,19.83-37.1,23.41-62.13,1.25-8.64.84-19.45.91-34.58Z" transform="translate(-59 -27.78)"/><path class="cls-4" d="M281.61,126.24c-12.25,10.86-17.77,30.34-18.34,46.66a138.37,138.37,0,0,0,1.51,22.69,530,530,0,0,1,9.49-52.81c3.4-11.65,6.56-15,7.34-16.54Z" transform="translate(-59 -27.78)"/><path class="cls-4" d="M292.11,106.72c-3,2.39-6,7.53-7,10.84a73.13,73.13,0,0,1,7.6-8.33c2.14-2.1,2.48-1.78,2.66-1.89.81.51.93,4.85,1,4.58,2.48-6.28-.48-8.25-4.3-5.2Z" transform="translate(-59 -27.78)"/><path class="cls-4" d="M178.79,119.57c13.31,7.41,25.2,25.34,33.42,39.72,8.54,15.3,23.57,51.2,22.72,47.79-10.36-25.2-9.33-49.91-22.14-68.29-11.93-17.14-34.56-19.59-34-19.22Z" transform="translate(-59 -27.78)"/><path class="cls-4" d="M174.38,123c4,12.39,14.15,31,22.82,41,5.16,5.95,20.6,22.35,20.48,22.11-20.82-37.55-30.52-41.49-43.26-63.15,0,0,0,0,0,0s0,0,0,0Z" transform="translate(-59 -27.78)"/></svg>