<svg id="Layer_1" data-name="Layer 1" xmlns="http://www.w3.org/2000/svg" viewBox="0 0 254.48 432.41"><defs><style>.cls-1{fill:#5f6b2b;}.cls-2{fill:#81973a;}.cls-3{fill:#738745;}.cls-4{fill:#a0b548;}.cls-5{fill:#94b457;}.cls-6{fill:#161616;}.cls-7{fill:#93a343;}.cls-8{fill:#c1d357;}</style></defs><path class="cls-1" d="M274.45,283.18c-1.69,0-1.72,6.12-4.87,12.48-.43-.53-1.36-1.69-2-1.69a1.06,1.06,0,0,0-1,1.22,8.55,8.55,0,0,1-.26,2.3,71.49,71.49,0,0,0-.2,7.32c-.14,7.41.2,14.91-.81,22.28-.84,6.05-2.27,12.07-3.53,18-5.77,29.34-16.29,49.77-32.06,77.36-7.94,13.8-20.82,25.52-14.08,37.26,4,7.26,10.58-3.11,14.53-10.47,17.6-33.74,23.78-54.34,32.33-79.09,3.94-11.53,7.41-23.13,8.25-35.26.4-6.18-.72-12.62,0-18.67l2.52-20.08a47.57,47.57,0,0,1,1.59-8.15C275.17,287.1,276.33,283.18,274.45,283.18Z" transform="translate(-115.42 -31)"/><path class="cls-2" d="M361.55,31c-18.33,0-35.76,25.13-47.32,39.89-3.51-9.82-3.55-12.61-5.18-11.29-16,13.56-17.63,42.24-18.58,64.05-1.59-3.57-3.27-7.71-4.62-10.43a1,1,0,0,0-1.83,0c-2.76,6.4-2.1,11.52-.44,17.82.63,2.37,1.5,5.21,2,7.48-2.95-3.07-9.16-10.36-9.29-6.83-.7,12.41,1.77,26,4.21,38.28-2.71-2.12-4.52-3.75-4.3-3.57a1,1,0,0,0-1.76.5c-.92,10.58,3.95,18.72,4.95,28.09-.05-.39-3-1.44-3.49-1.07-.87.65-.07,2.92.1,3.73a169,169,0,0,1,3.67,24.95c.52,8.43-.75,16.13-1.64,24.4-3.88-7.83-6.15-16.79-8.33-25.29-5.14-20,.6-27.61-1.8-46a1.05,1.05,0,0,0-.6-.83c-.86-.4-1.34.62-1.63.85,0,0-.11.2-.13.19-14.32,12.88-13.47-55-14.31-56a1,1,0,0,0-1.7.23c-1.42,3.75-3.81,9.53-7,11.67-1.64.89-3.16.93-5.49-1.48C229.15,121.62,223.43,95,219,85.15a1,1,0,0,0-1.9.57c.76,7.72,1.92,13.75.35,20.51a22.48,22.48,0,0,1-1,3.09c-13-9.19-28.18-20.11-38.9-31.42l.07.14c-4.25-4.72-3.88-4.82-4.6-4.82-3.11,0,2.59,5.76,4.28,14.62-18.47-1.27-35.85-16-53.52-2a1.09,1.09,0,0,0,.48,1.9c13.56.82,25.15,3.79,38.1,9.19,10.21,4.23,28.49,13.84,28.26,13.73,17.5,8.91,10.05,2.7,2.52,7.57-1.11.73-3.69,3.28-3.53,4.41a1,1,0,0,0,.37.68c6.39,5.08,13.84,8.12,20.59,12.28,10.81,6.7,15.55,15,25.46,21.59-.72,0,1.24-.14-3.93,0l-2.84.07.25.08-.29-.08h-.3a2.36,2.36,0,0,0-.81.07,1.07,1.07,0,0,0-.6,1.13c.07.56.26.46,2.65,3a122.23,122.23,0,0,1,24,38.19c-1.46-.34-6,.29-8.35-.2-1.82.21-1.18,1.58,0,5,5.92,16.69,26.19,37,23,55.57-.42-.5.44.49-4.42-3.1-14.38-10.63-38.31-32.82-49-24.57-5.8,4.56-6.23,11.2,5.78,17.44,24,12.44,46.19,5.31,47.22,37-.89,5.88.19,10.74.51,11.18a1,1,0,0,0,1.78-.51c5.39-41.44,71.31-39.2,83.63-53.35,4.58-5.3,2.25-13.71-8.75-17.31a26.74,26.74,0,0,0-8.29-1.28c-17.44,0-40.06,10.2-57.6,32.49,2.53-21.45,19-41.29,13.86-41.29-4.18.26-7.15,2.11-10.31,5.14-.2-2.21-.52-2.84-.38-3.56a60,60,0,0,1,5.69-13.71c4.35-7.8,20.31-30.29,19.3-32.8-.35-.89-1.33-.72-2.92-.51-4.87.65-9.86,5.4-13.81,8,1-15.57,16.32-22.65,17.6-36.95a1,1,0,0,0-1-1.2c-.8,0,.66,0-3.95,1.67-.76.29-1.74.67-2.45,1,.21-.23,9.77-17.62,8.22-21.95-1.23-3.21-5.8-.81-8.64.89,3.16-13.25,8.55-20.82,17-32.91,9.31-13.58,14.62-22.79,22.8-31.48l-.13.08C352.29,46.34,363,44.67,369.7,34.25,371.25,31.86,363.57,31,361.55,31Z" transform="translate(-115.42 -31)"/><path class="cls-3" d="M283.72,236.83a53.29,53.29,0,0,0-.18-12.43c2.49-2.55,4.61-4.18,7.45-5.1,2-.52,1-.62-7.27,17.53Z" transform="translate(-115.42 -31)"/><path class="cls-4" d="M328.91,237.33c-5,5.45-11.72,6-18.45,8.77-9.81,4.12-13.43,9.57-13.06,9.24,7.38-4.18,27.32-4.49,31.54-18,0,0,0,0,0,0Z" transform="translate(-115.42 -31)"/><path class="cls-4" d="M225.51,238.9c-2.48.39-2.89,2.3-1.88,3.86,4.83,7.47,17.22,6,22.59,7.34.33.12-3.08-3.56-9.87-6.22-7.86-3.1-9-2.88-6.95-3a13.74,13.74,0,0,1,5.12,1.34c.38.1-4.31-4.08-9-3.34Z" transform="translate(-115.42 -31)"/><path class="cls-4" d="M303.4,69.42c-7.53,8.51-6.68,19.43-3.68,30.74.22,1,2.19-15.36,5.85-24.09,4,5.29,3.33,5.11,3.41,4.88.52-3.62-.06-12.51-3.5-12.51a2.79,2.79,0,0,0-2.08,1Z" transform="translate(-115.42 -31)"/><path class="cls-4" d="M357,39.39a37.62,37.62,0,0,0-20.89,10C328,56.85,322.3,69.63,322.56,69.45c4.29-4.31,8.78-8.74,25.8-22a100.44,100.44,0,0,0,8.62-8Z" transform="translate(-115.42 -31)"/><path class="cls-4" d="M278.94,139.6c-.22,9.76,3.89,14.25,6.31,24,.86,2.73-3.06-20-3.21-21.09,2,1.45,2.83,2.45,2.75,2.21-.73-2-2.48-6.4-4.48-6.4a1.29,1.29,0,0,0-1.37,1.24Z" transform="translate(-115.42 -31)"/><path class="cls-4" d="M304.51,124c-3.07,6.5-8.78,9.08-12.33,14.9a3,3,0,0,0,1.83,4.69,7.72,7.72,0,0,1,3.51,1.49c2.08,2.71-5.52,16.5-4.54,14.56,14.45-9.69,12.19-18.77,5.92-21,6.68-10.74,5.41-13.91,5.61-14.6Z" transform="translate(-115.42 -31)"/><path class="cls-5" d="M284.73,121.66c-.82,5.39,0,8.77,2.82,12.78a39,39,0,0,0-.76-6.51,50.15,50.15,0,0,0-2-6.3,0,0,0,0,0,0,0Z" transform="translate(-115.42 -31)"/><path class="cls-4" d="M299.52,175.27q-7.74,3-9.82,11.4c-5,8.16-5.22,18.21-4.89,17.68,3.85-8.8,15.68-17.55,18.22-25.37.77-2.38-1.24-4.59-3.51-3.71Z" transform="translate(-115.42 -31)"/><path class="cls-4" d="M275.65,172.55c0,8.56,4.33,14.73,6.79,21.11.13.42.59-4.83-.87-10.78-2.26-9.25-4.54-9.5-2.07-8.8h0a17.93,17.93,0,0,0,2.36.77c-1-1-4.12-3.61-5.13-3.61-.61,0-1.05.67-1.05,1.32Z" transform="translate(-115.42 -31)"/><path class="cls-4" d="M316.06,78.94c-8.19,6.92-9,18-9.65,22-.85,5.38-3.61,14.91,1.08,1.12.87-2.58,2.05-5,2.88-7.6,4.54-14.33-1.43,2.57,5.69-15.53Z" transform="translate(-115.42 -31)"/><path class="cls-4" d="M246.56,123.92c-3.12,4.69-3.93,12.22-4.14,18,0,.33,0-.31,4.59-7.12.16-.23-.06-.14.64,3,1.43,6.37,3.93,11.05,3.93,10.63-.68-8.23.47-10.56.35-22.92,0-2.82-4-3.62-5.37-1.52Z" transform="translate(-115.42 -31)"/><path class="cls-4" d="M195.2,121.9c-1.88,4.74,3.27,4.61,16.51,12.73,9,5.74,18.14,14.87,17.7,14.17-4.62-7.45-11.35-19.12-19.64-24.6-1.28-.86-2-.27,3.74-2.64.15,0-12.26-1.87-14.82-1.87a3.5,3.5,0,0,0-3.49,2.21Z" transform="translate(-115.42 -31)"/><path class="cls-4" d="M213.9,93.81c-.24,7.48,4.56,15.49,4.56,15.17-.27-3.19-.67-1.48,4.49,6.81a208.14,208.14,0,0,0-3.87-21.34c-1.24-4.82-5.11-2.83-5.18-.64Z" transform="translate(-115.42 -31)"/><path class="cls-4" d="M174.88,81.91a32.62,32.62,0,0,0,1.89,4.42c1.06,2.22,4.88,4.41,5.29,6.73A49,49,0,0,0,181,87.62c1.57,1.35,25.52,21.84,24.67,20.47-8.9-12.11-14.87-19.44-24.32-27.37-1.15-1-5.44-5.32-6.61-2.83A5.87,5.87,0,0,0,174.88,81.91Z" transform="translate(-115.42 -31)"/><path class="cls-4" d="M167.63,91.54c.29.47-1-2.93-6-6.4-8.23-5.74-20.14-6.87-28.19-.94h0C139,82.78,161.24,83.81,167.63,91.54Z" transform="translate(-115.42 -31)"/><path class="cls-4" d="M175.15,95.93c3,2,6,4.14,9.21,5.94,4.76,2.68,10.87,4.19,10.5,3.93C187.8,101.23,184,98,175.17,95.88h0s0,0,0,.05Z" transform="translate(-115.42 -31)"/><path class="cls-4" d="M230.84,159.14a2.64,2.64,0,0,0-1.16,4.63c7.21,7.16,15,7.88,22.79,16.13a32.17,32.17,0,0,0-13.61-17.43,61.36,61.36,0,0,1,7.66.26c-6.17-3.35-10.48-4-15.68-3.59Z" transform="translate(-115.42 -31)"/><path class="cls-4" d="M261,177.88c-3.2,4-4.73,8-2.25,12.51.1.16,0-.27-.06-.4a8,8,0,0,1,1.26-6.86c-1.23,14.86,3.22,21.76,3.22,21.53-.39-8.23,3.11-17.57.62-26.39a1.61,1.61,0,0,0-2.79-.39Z" transform="translate(-115.42 -31)"/><path class="cls-4" d="M246,198.78c-3.38.51-1.33,6,.29,9.22,5.58,11,15.63,17,20.31,24.93.15.23.44-8-6.57-18.62-3.89-5.89-7.92-9.29-1.89-4.08.93.66-9.59-11.82-12.14-11.45Z" transform="translate(-115.42 -31)"/><path class="cls-4" d="M271,244.67c-2.19,13.2,1.18,25,1.28,33.56v0c0,.19,0,.69,0,.48,6.08-13.87-.67-28.72-1.33-34Z" transform="translate(-115.42 -31)"/><path class="cls-2" d="M249.31,398.78c-11.06,20.45-11.38,19.91-15,27.22-3,6.08-5.29,12.55-8.49,18.51-.13.42,5.86-5.63,8.67-9.14,6.24-7.76,8.75-15.19,11.49-24.14,2.34-7.7,3.46-12.8,3.37-12.46Z" transform="translate(-115.42 -31)"/><path class="cls-6" d="M304.91,169.79c-5,.32-9,3.15-12.48,7-.21.23.55-.4.78-.6,3.91-3.39,8.69-5.29,13.77-4.57,1.54.27,1.17-1.08-6.61,11-10.69,16.68-18.95,37.63-17.65,39,.87.92,1.18-.18,5-1.93,1-.47,5.46-2.17,7.09-2.91-11.82,17.66-14.62,30.54-14.54,30.3,6.15-17,18.85-33.27,17.78-32,1.09-1.41-.17-2.14-.85-1.72-3.95,2.42-7.7,3.16-11.95,5.26,14.41-41.25,34.68-49.85,19.66-48.88Z" transform="translate(-115.42 -31)"/><path class="cls-6" d="M305.17,117.85c4.17,2.54,6.12,6.06,4.28,10.74-2.54,5.91-7.45,7.54-7.45,9a1.16,1.16,0,0,0,.82,1.14c2.1.36,4.29,1.65,6.83,2.16-6.75,10.24-16.52,18.48-18.66,32.38a56.11,56.11,0,0,1,1.76-5.61.15.15,0,0,1,0,.06c3.71-9.09,10.15-14.82,16.15-22.45,5.86-7.4,4.47-5.41-3.29-8.21,3.47-3.09,6.42-7.7,5.72-12.44-.77-4.91-6.35-7-6.13-6.83a0,0,0,0,0,0,0Z" transform="translate(-115.42 -31)"/><path class="cls-6" d="M355,32.47C328.81,36.35,314.39,72,314.58,71.69c11.18-19.18,29.59-40.6,50.48-36.84-54.44,30.34-61.89,96.89-58.88,84.12,23.1-78,70.7-83,62.17-85.6a29.4,29.4,0,0,0-13.35-.9Z" transform="translate(-115.42 -31)"/><path class="cls-6" d="M304.43,60.32c-9.77,8.54-12.94,22.57-14.57,35.82-2.54,20.62,1.28,42.22-4,12.58a1.44,1.44,0,0,0-2.83,0c-3,9-2,18.69.39,27.95.12.25-.07-.83-.19-1.8a54.33,54.33,0,0,1,1-20.57c1.27,4.44,3,9.21,3.85,14.51a1.59,1.59,0,0,0,3.13-.44c.65-21.18-.1-51.12,13.58-66.38,1.92,3.31,4.26,6.39,5.72,10,.09.23.5,1.42.41,1-.85-4.19-3.66-8.52-5.42-12.53a.65.65,0,0,0-1.06-.15Z" transform="translate(-115.42 -31)"/><path class="cls-6" d="M274,130.39c-3.74,13.92,3.09,24,3.79,36.65-1.71-1.61-2.83-2.5-4-3.7a1.34,1.34,0,0,0-1.95,0c-1.63,1.73,5.59,25.72,5,23.91-1.17-9.45-3-19.7-2.1-18.76,3.79,3.82,3.67,4.67,5,4.28a1.68,1.68,0,0,0,1.14-1.6c.49-13.87-7.92-24.66-5.76-39.51a20.72,20.72,0,0,1,2.86,1.94,28.46,28.46,0,0,1,4.95,5.3c.6.82,1.85,2.83,1.66,2.41-3.34-6.87-10-13.2-10.65-10.92Z" transform="translate(-115.42 -31)"/><path class="cls-6" d="M264.94,173.53c-3.07,3.31-4.53,10.86-4.38,10.62a39.89,39.89,0,0,1,4.19-7.89c0,3.73-.57,13.74-.64,18.5-.22,14.47,2.86,20.6,2.81,20.36-4.08-14.61,2.44-46.27-2-41.59Z" transform="translate(-115.42 -31)"/><path class="cls-6" d="M249.05,112.1c-5.42,6.92-7.15,16.06-7.44,25,0,2.35.62-8.64,7.77-19.41,3.8,20.48,2.07,40.19,11,61.56.18.59-3-8-4.34-28-1.11-16.47-1.57-27-4.13-38.31a1.71,1.71,0,0,0-2.9-.81Z" transform="translate(-115.42 -31)"/><path class="cls-6" d="M215.75,76.65c-2.71.81-2.25,4.07-2.15,10.14A77.4,77.4,0,0,0,217,108.41c.44,1.41-3.33-15.76,0-29.47-1.52,6.31,7.68,10.5,10,36.06,1.55,16.76,13.71,21.57,13.49,21.39-5.46-4.81-8.47-10.27-10.23-17.47-1.55-6.41-4.08-19.49-7.28-29.79-1.2-3.85-3.48-13.56-7.22-12.48Z" transform="translate(-115.42 -31)"/><path class="cls-6" d="M171.86,74.1a45.09,45.09,0,0,1,2.62,5.74c2,5,2.89,6,2.76,5.67-1.35-3-1.76-7.1-2.75-10.43,8,2.47,19,15.08,29.58,23.68,4.31,3.51,7.11,4.84,6.71,4.55-6.79-4.57-13.4-13.25-19.65-19.83C179.46,71.14,170,70.83,171.86,74.1Z" transform="translate(-115.42 -31)"/><path class="cls-6" d="M133.73,78.61c-9.41,1.23-17.66,5.68-18.25,7.81-1.15,4.72,16.67,3.54,20.82,3.15,9.85-.95,18.52-2.41,27.61,1.66a21.53,21.53,0,0,0-4.71-2.57c-12.5-5.39-26.93-.91-38.28-2.78,17.73-11.78,53.79-1.52,49.46-2.67-10.21-3.65-24.68-6.14-36.65-4.6Z" transform="translate(-115.42 -31)"/><path class="cls-6" d="M173.72,99c8.4,6.35,18.29,9.16,26.7,15.41-2.12.55-4.6,1.25-6.78,1.9-10.59,3.19-10.78,3.2-10.78,4.56a1.53,1.53,0,0,0,1.06,1.49c22.5,9,21.48,8.81,21.26,8.7a159.38,159.38,0,0,0-16.52-9.71c.07,0,10.25-3,15.71-4.52a1.64,1.64,0,0,0,1.07-2c-1-4.06-27-13.51-26.78-13.42-3.54-1.56-5.26-2.75-4.94-2.41Z" transform="translate(-115.42 -31)"/><path class="cls-6" d="M213.06,135.76c4.61,9.09,13.39,14.88,21.31,21.19-4.56-.21-9.18.25-13.57-.31a1.72,1.72,0,0,0-1.67,1.35c-.44,1.66.86,2,3.94,4.28,12.46,9.08,27.36,31.11,27.18,30.86-3.65-6.86-7.07-13.9-11.55-20.22-5.94-8.39-15.8-13.26-15.58-13.07,12.41-.24,13,.68,16.09.8a1.53,1.53,0,0,0,1.41-2c-.51-1.88-12.74-8.71-19.67-14.35l.05,0a40.66,40.66,0,0,1-7.94-8.61Z" transform="translate(-115.42 -31)"/><path class="cls-6" d="M242.86,198a.7.7,0,0,0-.38,1,165.39,165.39,0,0,0,10.57,20.29c10.12,17.22,10.74,20.58,10.37,19.54a85.6,85.6,0,0,1,3.06,9.36c-2.57-21.88-12.8-33-22.52-49.24a3.09,3.09,0,0,1,2.66,0l.06,0a10.35,10.35,0,0,1,1.71,1,6.94,6.94,0,0,0,2.25,1.15c-3.21-2-3.79-4.49-7.78-3.12Z" transform="translate(-115.42 -31)"/><path class="cls-6" d="M219.08,229.16c-3.37,1.12-9.36,4.82-10.43,9.17-2.82,12,29.58,19.4,43,23.11,14.69,4.06,15.32,6.9,15.12,6.67.18.25,3.72-1.94-31.28-14.26-7.14-2.51-10.72-3.87-10.44-3.74-2.79-1.22-12.88-5.19-14.19-8.69-2.92-7.76,8.75-9.94,11.08-11.07,9.46-3.9,19.92,9.73,29.35,16.55C265.1,257,267.74,257.17,267.52,257c-11.24-6.08-31.49-33.56-48.44-27.86Z" transform="translate(-115.42 -31)"/><path class="cls-6" d="M343.24,223.26c-27.07,4.75-61.1,33-56.95,30.06,2.65-2.81,39.79-24,57.52-26.71,10.2-1.42,14.17,2.44,10.53,12.2-.69,1.64-3.79,4.39-5.49,5.86-6.76,5.82-19.15,7.26-33,10.69-31,7.75-36.69,22.23-34.86,19.81,13.33-17.67,54.19-16.48,69.41-27.43a15.57,15.57,0,0,0,6.58-9.41c3.23-11.18-1.07-17.28-13.76-15.07Z" transform="translate(-115.42 -31)"/><path class="cls-6" d="M282.47,277.3a41,41,0,0,0-8.18,11.5,53.22,53.22,0,0,0,4.35-5.39,61,61,0,0,0,3.84-6.12Z" transform="translate(-115.42 -31)"/><path class="cls-6" d="M266.44,270c-1.34,65.06-4.65,97.78-39.39,156.74-6.54,11.1-8.82,14.21-13.26,21.89-.64,1,9.19-13.13,11-15.87,56-84.48,41.52-160.89,41.64-162.76Z" transform="translate(-115.42 -31)"/><path class="cls-6" d="M273.75,292.05c-3.21,12.73-5.24,42.93-5.21,42.7-4.92,38.5-23.07,94.69-49.23,127.13-2.47-2.15-4-4.27-5.43-10.78a23.53,23.53,0,0,0,1.2,6.54c.65,1.82,3.7,6.76,4.75,5.59,26.29-30,47.48-90.53,52.6-132.49,1.76-14.48.1-26.23,1.37-38.68,0,0,0,0,0,0l0,0Z" transform="translate(-115.42 -31)"/><path class="cls-6" d="M274.5,193.57c-.62,17.6,2.84,30.09,2.32,47.3-7.29-22.17-7.49-27.18-.2,4.69a.87.87,0,0,0,1.68,0C281,232,277,207,276.16,195.87c.73.81,1.5,1.57,2.28,2.33,1,1,1.41-3.82,1.13-4.83-.16-.51-.65-.26-.29-.26h0l.06,0h0l.05,0c.14.24.07.11.1.34v0a11.24,11.24,0,0,1-.81,3.63,41.78,41.78,0,0,1-2.74-4,.76.76,0,0,0-1.41.41Z" transform="translate(-115.42 -31)"/><path class="cls-4" d="M196.57,309.84c10.17,0,16.42,22.72,22.77,28.63.32-.46.63-.93.94-1.4l0,.08c4.69-7.46,11.41-25.66,26.78-24.21,10.87,1.05,10.2,18,7.26,28.57-2.7,9.64-8.05,22.53-15,31.61,9.09-5.38,16.43-10.6,27-10.6,14.66,0,17.54,10.4,8.22,20.31-16.1,17.11-42.43,16.7-47.18,17.73-5.44,1.25-7.12,4.07-8.84,9.4l0-.14c-2.55,8.28-3.8,12.07-4.09,17.56v-.13c-.31,8.36,2.05,15.06,6.14,23.06a31.34,31.34,0,0,0,2.29,3.32c3.9,5.54-5,8.63-7,7-1-.81-1.7-3.89-2-5.14-1.14-5.08-2-12.61-2.59-15.26l-.21-.84c-3.16-13,.49-15.26-7.91-44.05l-.08-.09c-.46-.65,1,0-2.33-2.1h0l0,0h0c-11.55-6.56-15.64-6.72-17.57-7.71h0c-9.59-2.93-32.53-8.55-34.29-18.26-.48-2.76,1.31-5.85,3.51-7.38,10.88-7.61,36.8,18,44.45,21.91.94-3,.51-6-.21-9.21l0,.13c-1.8-7.82-5.47-15.64-6.52-21.42-2.28-12.61-8-38.59,5.26-41.2a5.93,5.93,0,0,1,1.19-.12Z" transform="translate(-115.42 -31)"/><path class="cls-2" d="M207.23,399.25c.9.36,1.8.75,2.72,1.07,2.5.76,10.89,2.13,10.39,2.3-5.32,1.69-9.41,2.95-13.76-.33a11.77,11.77,0,0,1-3.3-4.32,35.44,35.44,0,0,1,3.95,1.28Z" transform="translate(-115.42 -31)"/><path class="cls-2" d="M184.27,370.86c16.3,5.26,15.93,18.47,25.83,24.71,1.09.71,2.92,1.6,2.78,1.53-7-.29-15.06-4.62-20.38-9.3-5.95-5.23-10.13-14.42-13.43-17.8a24,24,0,0,1,5.2.86Z" transform="translate(-115.42 -31)"/><path class="cls-2" d="M154.8,360.47c-3.52,5.29,2.23,6.39,9.87,11.75,1.93,1.35,11,8.29,12.33,10.27-7.07-3.19-18.19-3.37-24.09-12.23-4.94-7.42,2-10,1.88-9.8a0,0,0,0,1,0,0Z" transform="translate(-115.42 -31)"/><path class="cls-2" d="M275.25,365.61c4.53,3.35,3.06,13.37,1,19.08-3,8.57-12.54,12.12-21.14,12.32-7.15.17-13.12-1.14-18.38.61h0c14.45-13.68,31.6-7.57,37.5-25.09,1.55-5.18-.45-7.87-6-7.4-.67.23,3.85-1.83,7,.49Z" transform="translate(-115.42 -31)"/><path class="cls-7" d="M208.88,380c3,8.93,10.61,8.2,15.52,9,.1,0,1,.05,2.32.07a20.2,20.2,0,0,1-9.95,1.6c-5-.64-9-4.49-7.91-10.66a0,0,0,0,1,0,0Z" transform="translate(-115.42 -31)"/><path class="cls-2" d="M242.51,314.69a5.35,5.35,0,0,1,4.92,2.83v0a4.59,4.59,0,0,0-4.34,0c-7,4-23.71,34.53-23.26,33.19,8.87-37.12,22.62-35.94,22.69-36Z" transform="translate(-115.42 -31)"/><path class="cls-2" d="M250.9,321.64c11.92,9,5.15,32.08-5.06,44.43-4.45,5.38-11.35,10.34-16.35,16.68,0-.08.1-.81,5.77-16.2,7.64-20.66,22.06-30.24,15.64-44.91Z" transform="translate(-115.42 -31)"/><path class="cls-2" d="M210.46,344.68a7.47,7.47,0,0,1,0,3.68c-.33-5.83-6.57-8.35-8.66-2.56-2,6.89,1.15,25.35.74,24.11a70.35,70.35,0,0,1-5.07-9.3c-5.43-12.84.22-21,6.36-21a6.94,6.94,0,0,1,6.58,5Z" transform="translate(-115.42 -31)"/><path class="cls-2" d="M196.09,313.11c-5.87,11.94-1.13,21.54-2.7,39.33,0,.08-.1,1.22-.12,1.14-4.29-11.34-7.72-22.76-1.64-34.5a23.6,23.6,0,0,1,4.46-6Z" transform="translate(-115.42 -31)"/><path class="cls-8" d="M266.8,369.38c-18.07,10.93-23.24,10.17-30.52,12.31,0,0,0,0,0,0,7.33-9,13.56-11.09,26.81-12.1.19,0,3.82-.26,3.72-.2Z" transform="translate(-115.42 -31)"/><path class="cls-8" d="M234.51,345.6c-5.12,16.58-6.15,20.86-10.27,27.76-.15.25-6.9,10.73-6.9,10.64-.08-7.19-.29-14.52,3.85-22.34a53.38,53.38,0,0,1,13.32-16.06Z" transform="translate(-115.42 -31)"/><path class="cls-8" d="M200.22,317.33c15.48,5.49,15,21.37,15,21.28-4.08-6.68-5.9-6.92-15-21.28Z" transform="translate(-115.42 -31)"/><path class="cls-8" d="M165.72,362.56c2.75.5,7.66,3.17,8,3.93h0a.54.54,0,0,1-.28.64,3.9,3.9,0,0,1-1.84-.2c-2.19-.42-3.79-.54-6.32-1.05-2.76-.55-5.39-1.58-8.16-2.11a13.76,13.76,0,0,1,8.61-1.21Z" transform="translate(-115.42 -31)"/><path class="cls-8" d="M201.57,379c3.45,2.48,5.29,7.43,8.33,9.52,3.81,2.27,8.47,1.53,12,4.46a13.46,13.46,0,0,0-2-.28c-4.4-.16-9.1,1.73-13-1.07-3.23-2.29-4-7.48-4.73-10.88-.13-.58-.57-1.83-.54-1.75Z" transform="translate(-115.42 -31)"/><path class="cls-6" d="M162.38,358.75c4.56.79,9.47,3.06,13.54,5.3a135.39,135.39,0,0,1,14.45,9.61C179.06,368.49,160.7,354,150,362.47c-7.22,5.39,9.53,14.72,17.9,18.28,21.83,9.16,21.17,9.46,27.95,11.94a66,66,0,0,1,8.9,3.71c3.8,2,4.85,3.75,4.77,3.67-3-3.48-10.59-5.75-15.95-7.75l-25.43-10.71c-3.57-1-24.8-10.67-20.52-18.46,1.58-2.89,7.06-5.75,14.72-4.4Z" transform="translate(-115.42 -31)"/><path class="cls-6" d="M270.4,361.19c9.33.61,13.37,6.66,11.31,15-3.34,13.6-16.53,19-28.73,23.83-15.71,6.25-27.13,0-42.25,0,0,0,0,0,0,0,16.29-1.51,24.69,5.92,42.89-1.51,8.43-3.48,17-7,22.52-14.09,6.66-8.76,7.35-20.19-4.74-21.93h0a25.18,25.18,0,0,0-6.35.06c-10.26,1.41-13.58,5.36-13.07,4.69,4.49-4.68,12.18-6.45,18.42-6Z" transform="translate(-115.42 -31)"/><path class="cls-6" d="M194.92,379.28c5.9,3.47,5.15,10,12.44,13.19a32.3,32.3,0,0,0,6.11,1.34c11.88.19,9.86.53,3.45.72-16.88.53-16.58-8.78-20.26-13.6l.07.09a7.58,7.58,0,0,0-1.82-1.74h0Z" transform="translate(-115.42 -31)"/><path class="cls-6" d="M248.37,368.41c-2.18,2.06-4.19,2.78-7,3.74-1,.25,7.91-4.34,7-3.74Z" transform="translate(-115.42 -31)"/><path class="cls-6" d="M230.05,388.3a9.46,9.46,0,0,1-5.58,4.17c-.07,0,5.64-4.23,5.58-4.18s0,0,0,0Z" transform="translate(-115.42 -31)"/><path class="cls-6" d="M249.21,312.35c10.45,4.35,11.2,16.62,8,27.66-6.54,22.19-21.91,34.07-27.17,44.85-.13.27,1-3.33,4.75-8.61,1.28-1.8,6.71-8.62,6.18-8,9.95-12.89,22-35.76,13.95-50a17.1,17.1,0,0,0-5.67-5.93Z" transform="translate(-115.42 -31)"/><path class="cls-6" d="M246.16,314c.08,0-1-.16-.84-.14-8.08-1-18.59,14-22,21.2-.45.68,4.11-12.66,13.51-19.12,2.8-1.93,6.17-3.14,9.34-1.94Z" transform="translate(-115.42 -31)"/><path class="cls-6" d="M192.94,343.5c1,3.49,1.55,5.35,2.67,10.48a88.47,88.47,0,0,0,2.67,10.5,61.06,61.06,0,0,1-5.35-21Z" transform="translate(-115.42 -31)"/><path class="cls-6" d="M196.55,308.66c9.31,1.26,21.55,18.91,22.75,28.31a22.66,22.66,0,0,0-1.51-3.2c-2.91-5.26-9.85-14.45-8.64-12.94-3.71-4.8-10.46-12.42-16.06-10.2-6,2.68-4.71,18.6-4.09,25.39.66,7.29.72,10,3.95,19.37,2.88,8.43,6.31,16.35,5.19,24.8a35.19,35.19,0,0,0-.28-4.65h0c-.06-.25-.36-4.12-3.17-12.33-4.82-14-5.76-13.6-7.23-29.89-1-10.55-1.41-26.1,9.09-24.67Z" transform="translate(-115.42 -31)"/><path class="cls-6" d="M199.68,336.19c2.11-1.61,4.88-1.4,7.2-.14,5.77,3.12,4,8.51,4.23,7.64.38-5.42-6.68-9.63-10.58-6.75-6.43,5.14-1.39,24.14.22,32.61,1.57,4.1,3.65,7.61,5.15,13.11a98.74,98.74,0,0,1,3.37-19,85.25,85.25,0,0,1,12.21-26.29c-4.69,9-7.08,14.68-7.16,14.87-9.82,23.41-5.91,36.45-8.39,35-.56-.32,0-.87-1.51-5.4-1-2.9-2.06-5.37-3-8.51C201.4,373.53,191.05,342.8,199.68,336.19Z" transform="translate(-115.42 -31)"/><path class="cls-6" d="M233.13,349.25c-1.08,10.84-7.94,19-12.18,28.92-1.72,4.1-2.8,9.87-6.56,13.67a4.32,4.32,0,0,1,.4-.53c3.45-4.53,2.54-8.57,7.64-18.77.9-1.8,1.84-3.58,2.77-5.36,1.05-2,2.11-4.06,3.11-6.12,4.9-10.17,4.24-10.33,4.82-11.81Z" transform="translate(-115.42 -31)"/><path class="cls-6" d="M253.59,381.65c-7.73,7.3-14.84,5.63-22,9.76a21.81,21.81,0,0,0-4.51,3.7C233,387.4,240.32,388,248,384.76c-.39.15.93-.2,5.6-3.11Z" transform="translate(-115.42 -31)"/><path class="cls-6" d="M221,404.3c-5.45,12.56-9.73,11.75-5.38,32.15.26,1.22.51,2.45.83,3.65,1.29,4.75,3.32,7.59,7,13.34,2.36,3.64,2.47,3.69,2.38,3.63-4.5-4.18-9.59-7.16-11.7-16.58-4.72-21.31-1.45-24.48,6.83-36.19Z" transform="translate(-115.42 -31)"/><path class="cls-6" d="M202.65,398.15c1.76,3.69,4.26,8.76,5.22,12.72,2.08,8.52.61,17.74,2.53,26.91a70.49,70.49,0,0,0,2.66,8.69c1.93,5.45,3.34,9.53,3.14,15,2.87-.07,5.42-.33,7.55-2.28.17-.17-2,3.46-8.05,3.27a.48.48,0,0,1-.48-.48,17.26,17.26,0,0,0,.05-2.69c-.4-9-5.07-15.51-6.46-26-1.31-10-.16-13.94-3.71-25.33-1.34-4.28-2.54-10.18-2.45-9.8Z" transform="translate(-115.42 -31)"/></svg>